<?xml version="1.0" encoding="utf-8" standalone="yes"?>
<!DOCTYPE svg PUBLIC "-//W3C//DTD SVG 1.1//EN" "http://www.w3.org/Graphics/SVG/1.1/DTD/svg11.dtd">
<svg style="fill:none;stroke:none;fill-rule:evenodd;clip-rule:evenodd;stroke-linecap:round;stroke-linejoin:round;stroke-miterlimit:1.5;" version="1.1" xmlns="http://www.w3.org/2000/svg" xmlns:xlink="http://www.w3.org/1999/xlink" width="866" height="640" viewBox="0 0 866 640"><style class="text-font-style fontImports" data-font-family="Roboto">@import url(https://fonts.googleapis.com/css2?family=Roboto:wght@400;700&amp;amp;display=block);</style><g id="items" style="isolation: isolate"><g id="blend" style="mix-blend-mode: normal"><g id="g-root-cp_0_g-0_4nk25rmjpafj-fill" data-item-order="-510616" transform="translate(68.781005859375, 174.2750244140625)"><g id="cp_0_g-0_4nk25rmjpafj-fill-merged" stroke="none" fill="#4f3d58" fill-opacity="1"><g><path d="M240.58 279.128 V324.846L213.015 338.965L143.392 300.151 V272.202C142.944 265.703 143.738 250.88 161.219 241.725C163.297 240.636 166.019 239.59 167.719 238.725C192.967 252.924 213.055 263.907 240.58 279.128 M92.279 196.575C89.034 198.164 86.444 199.458 86.432 199.464C68.305 208.191 68.279 226.977 68.279 227.029 V253.25C68.331 254.813 68.307 256.293 68.219 257.691L10 225.72 V180.957L37.565 166.838L92.279 196.575 M322.728 167.849L327.483 170.604L332.861 173.529C332.861 173.492 332.861 173.453 332.861 173.415L380.719 200.637 V246.355L353.154 260.474L284.454 221.413 V193.464C284.006 186.965 285.799 172.365 303.279 163.209C305.357 162.121 307.251 161.144 308.95 160.278L322.728 167.849 M233.219 118.243C229.974 119.832 227.384 121.126 227.372 121.132C209.244 129.858 209.219 148.644 209.219 148.697 V174.918C209.271 176.481 209.246 177.96 209.159 179.359L151.062 146.982 V102.218L178.627 88.1L233.219 118.243 M524.219 122.404 V168.122L496.653 182.241L428.457 143.313 V115.364C428.009 108.865 429.802 94.266 447.282 85.11C449.36 84.021 451.64 82.881 453.339 82.015C478.285 96.239 496.902 107.299 524.219 122.404 M377.219 40.55C373.974 42.139 371.384 43.433 371.372 43.439C353.244 52.166 353.219 70.951 353.219 71.004 V97.225C353.271 98.788 353.246 100.267 353.158 101.666L295.065 68.882 V24.119L322.631 10L377.219 40.55"></path></g></g></g><g id="g-root-cp_0_g-0_4nk25rmjpafj-stroke" data-item-order="-510616" transform="translate(68.781005859375, 174.2750244140625)"><g id="cp_0_g-0_4nk25rmjpafj-stroke" fill="none" stroke-linecap="round" stroke-linejoin="round" stroke-miterlimit="4" stroke="#ffffff" stroke-width="2" stroke-opacity="1"><g><path d="M 10 180.956691L 10 225.719891L 68.2793 257.724591M 10 180.956691L 37.5653 166.837891L 92.4829 196.687391M 10 180.956691L 71.6409 214.499991M 213.0146 338.964691L 240.5799 324.845891L 240.5799 279.127791M 213.0146 338.964691L 213.0146 293.246591M 213.0146 338.964691L 143.3918 300.151791M 240.5799 279.127791L 213.0146 293.246591M 240.5799 279.127791L 167.7189 238.724591M 213.0146 293.246591L 147.2189 254.724591M 151.062012 102.218409L 151.062012 146.981609L 209.218912 179.392309M 151.062012 102.218409L 178.627312 88.099609L 233.422512 118.355109M 151.062012 102.218409L 212.580512 136.167609M 353.153612 260.473709L 380.718912 246.354909L 380.718912 200.636809M 353.153612 260.473709L 353.153612 214.755709M 353.153612 260.473709L 284.453812 221.413509M 380.718912 200.636809L 353.153612 214.755709M 380.718912 200.636809L 309.329812 160.487909M 353.153612 214.755709L 287.939212 177.999209M 295.06543 24.1188L 295.06543 68.882L 353.21873 101.6994M 295.06543 24.1188L 322.63073 10L 377.42243 40.6622M 295.06543 24.1188L 356.58033 58.4747M 496.65343 182.2411L 524.21873 168.1223L 524.21873 122.4042M 496.65343 182.2411L 496.65343 136.523M 496.65343 182.2411L 428.45723 143.3139M 524.21873 122.4042L 496.65343 136.523M 524.21873 122.4042L 453.71873 82.2246M 496.65343 136.523L 431.94263 99.8996"></path></g></g></g><g id="g-root-cp_3_g-3_8d14fmjp820-fill" data-item-order="-510602" transform="translate(368.22802734375, 140.9998779296875)"><g id="cp_3_g-3_8d14fmjp820-fill-merged" stroke="none" fill="#e2a3ff" fill-opacity="1"><g><path d="M344.817 104.126L320.614 87.99L211.105 147.782L177.409 128.749C177.4 124.055 177.409 113.725 177.409 113.725C177.409 108.347 172.702 104.309 167.996 102.292L154.166 95.226L250.02 42.944L221.11 24.791L354.902 10L344.817 104.126"></path></g></g><g id="cp_3_g-3_8d14fmjp820-fill-merged" stroke="none" fill="#e2a3ff" fill-opacity="1"><g><path d="M88.662 68.674C93.368 66.79 97.537 65.851 106.142 70.691L167.996 102.289C172.702 104.306 177.409 108.344 177.409 113.722C177.409 113.775 177.4 124.052 177.409 128.746L172.03 125.821L153.877 115.303C152.081 116.215 150.06 117.256 147.826 118.426C130.346 127.582 128.553 142.182 129.001 148.681 V179.608C129.001 189.827 116.227 198.432 110.176 201.793L66.536 225.597L33.531 206.736C33.523 202.042 33.531 191.765 33.531 191.711C33.531 186.333 28.825 182.296 24.119 180.279L10.136 173.136L42.944 155.404C46.754 153.835 54.239 146.664 53.701 130.528 V104.308C53.701 104.217 53.745 85.46 71.854 76.742C71.899 76.72 83.964 70.687 88.662 68.674"></path></g></g></g><g id="g-root-cp_3_g-3_8d14fmjp820-stroke" data-item-order="-510602" transform="translate(368.22802734375, 140.9998779296875)"><g id="cp_3_g-3_8d14fmjp820-stroke" fill="none" stroke-linecap="round" stroke-linejoin="round" stroke-miterlimit="4" stroke="#ffffff" stroke-width="2" stroke-opacity="1"><g><path d="M 153.877166 95.385322L 250.019566 42.944022L 221.109566 24.791222L 354.902066 10.000122L 344.817266 104.125522L 320.613566 87.989722L 211.024766 147.826622L 176.736166 128.329222"></path></g></g><g id="cp_3_g-3_8d14fmjp820-stroke" fill="none" stroke-linecap="round" stroke-linejoin="round" stroke-miterlimit="4" stroke="#ffffff" stroke-width="2" stroke-opacity="1"><g><path d="M 172.030069 125.820953C 172.030069 125.820953 172.030069 122.190453 172.030069 115.736153C 172.030069 109.960853 167.323869 109.012853 163.962269 110.357553C 163.962269 110.357553 160.408369 111.983453 153.877369 115.302753M 172.030069 125.820953L 177.408669 128.746853C 177.399969 124.040553 177.408669 113.721153 177.408669 113.721153C 177.408669 108.343153 172.702469 104.306653 167.996169 102.289653L 106.142369 70.691553C 97.536569 65.850753 93.368169 66.790253 88.661869 68.674553C 83.955669 70.690453 71.853769 76.742453 71.853769 76.742453C 53.701069 85.481553 53.701069 104.307753 53.701069 104.307753L 53.701069 130.528353C 54.238869 146.664153 46.753669 153.835653 42.943869 155.404353L 9.999969 173.211253M 172.030069 125.820953L 153.877369 115.302753M 153.877369 115.302753C 152.081469 116.215353 150.060569 117.256153 147.826469 118.426253C 130.345969 127.582053 128.553169 142.181753 129.001369 148.680853C 129.001369 154.731753 129.001369 169.388453 129.001369 179.607753C 129.001369 189.827053 116.227169 198.431753 110.176269 201.793353L 66.475169 225.630253L 34.203669 207.660453"></path></g></g></g><g id="g-root-cp_2_g-2_1utnkz3mjp8n5-fill" data-item-order="-510592" transform="translate(225.69500732421875, 276.136962890625)"><g id="cp_2_g-2_1utnkz3mjp8n5-fill-merged" stroke="none" fill="#c765f4" fill-opacity="1"><g><path d="M87.317 11.53C92.023 9.646 96.192 8.706 104.797 13.547L166.651 45.145C171.358 47.162 176.064 51.199 176.064 56.577C176.064 56.63 176.055 66.907 176.064 71.602L170.685 68.676L152.533 58.158C150.737 59.071 148.716 60.112 146.482 61.282C129.001 70.438 127.208 85.037 127.657 91.536 V122.463C127.656 132.683 114.882 141.287 108.831 144.649L66.554 167.709L34.874 150.348C34.869 144.862 34.876 134.615 34.876 134.566C34.876 129.189 30.169 125.151 25.463 123.134L10.098 115.286L41.599 98.26C45.409 96.691 52.894 89.519 52.356 73.384 V47.163C52.356 47.073 52.4 28.316 70.509 19.598C70.555 19.575 82.62 13.542 87.317 11.53"></path></g></g></g><g id="g-root-cp_2_g-2_1utnkz3mjp8n5-stroke" data-item-order="-510592" transform="translate(225.69500732421875, 276.136962890625)"><g id="cp_2_g-2_1utnkz3mjp8n5-stroke" fill="none" stroke-linecap="round" stroke-linejoin="round" stroke-miterlimit="4" stroke="#ffffff" stroke-width="2" stroke-opacity="1"><g><path d="M 170.6855 69.1645C 170.6855 69.1645 170.6855 65.0458 170.6855 58.5915C 170.6855 52.8162 165.9792 51.8682 162.6176 53.2129C 162.6176 53.2129 158.3915 55.2723 151.8604 58.5915M 170.6855 69.1645L 176.7364 72.5262C 176.7277 67.8199 176.7364 56.3904 176.7364 56.3904C 176.7364 51.0123 171.3578 47.162 166.6516 45.145L 104.7977 13.5469C 96.192 8.7061 92.0236 9.6456 87.3173 11.5299C 82.611 13.5458 70.5092 19.5978 70.5092 19.5978C 52.3564 28.3369 52.3564 47.1631 52.3564 47.1631L 52.3564 73.3837C 52.8943 89.5195 45.4091 96.691 41.5992 98.2597L 10 115.3398M 170.6855 69.1645L 151.8604 58.5915M 151.8604 58.5915C 150.0646 59.5042 148.7159 60.1115 146.4818 61.2816C 129.0014 70.4374 127.2085 85.0371 127.6567 91.5362C 127.6567 97.5871 127.6567 112.2438 127.6567 122.4631C 127.6567 132.6824 114.8826 141.2871 108.8317 144.6487C 92.2404 153.6985 82.7354 158.883 66.5385 167.7177L 34.6992 150.1782"></path></g></g></g><g id="g-root-cp_1_g-1_1utnkz3mjp8n6-fill" data-item-order="-510586" transform="translate(66.5, 354.125)"><g id="cp_1_g-1_1utnkz3mjp8n6-fill-merged" stroke="none" fill="#ab57d3" fill-opacity="1"><g><path d="M105.324 11.53C110.031 9.646 114.199 8.706 122.805 13.547L184.658 45.145C189.365 47.162 194.071 51.199 194.071 56.577C194.071 56.63 194.062 67.606 194.071 72.3L188.693 69.354L169.699 58.853C169.699 58.853 166.723 60.112 164.489 61.282C147.008 70.438 145.215 85.037 145.664 91.536 V122.463C145.664 132.683 132.89 141.287 126.839 144.649L85.351 167.281L52.883 149.446L10 125.875L28.105 115.286L59.606 98.26C63.416 96.691 70.901 89.519 70.363 73.384 V47.163C70.364 47.073 70.407 28.316 88.516 19.598C88.562 19.575 100.627 13.542 105.324 11.53"></path></g></g></g><g id="g-root-cp_1_g-1_1utnkz3mjp8n6-stroke" data-item-order="-510586" transform="translate(66.5, 354.125)"><g id="cp_1_g-1_1utnkz3mjp8n6-stroke" fill="none" stroke-linecap="round" stroke-linejoin="round" stroke-miterlimit="4" stroke="#ffffff" stroke-width="2" stroke-opacity="1"><g><path d="M 188.6923 69.3603C 188.6923 67.1789 188.6923 63.0156 188.6923 58.5915C 188.6923 52.8162 183.986 51.8682 180.6244 53.2129C 180.6244 53.2129 175.4712 55.8707 169.6307 58.846M 188.6923 69.3603L 169.6307 58.846M 188.6923 69.3603L 194.0709 72.295C 194.0658 66.8464 194.0709 56.5765 194.0709 56.5765C 194.0709 51.1985 189.3646 47.162 184.6584 45.145L 122.8045 13.5469C 114.1988 8.7061 110.0304 9.6456 105.3241 11.5299C 100.6179 13.5458 88.516 19.5978 88.516 19.5978C 70.3633 28.3369 70.3633 47.1631 70.3633 47.1631L 70.3633 73.3837C 70.9011 89.5195 63.4159 96.691 59.6061 98.2597L 28.0068 115.3398L 10 125.875L 52.8964 149.5771L 85.3487 167.2819C 101.6274 158.4026 110.5598 153.528 126.8385 144.6487C 132.8894 141.2871 145.6636 132.6825 145.6636 122.4631C 145.6636 112.2438 145.6636 97.5871 145.6636 91.5362C 145.2154 85.0371 146.5276 69.4544 164.4886 61.2816C 165.161 60.9757 167.8503 59.752 167.8503 59.752C 168.4477 59.4484 169.0427 59.1456 169.6307 58.846"></path></g></g></g><g id="g-root-tx__1ly0kq7mjp9fv-fill" data-item-order="0" transform="translate(390.71875, 38)"><g id="tx__1ly0kq7mjp9fv-fill-merged" stroke="none" fill="#484848" fill-opacity="1"><g><text style="font: bold 25px Roboto, sans-serif; white-space: pre;" transform="translate(42.28125, 25)" font-weight="bold" font-size="25px" font-family="Roboto, sans-serif"><tspan x="-30.28" y="14" dominant-baseline="ideographic">타이틀</tspan></text></g></g></g><g id="g-root-tx__1ly0kq7mjp9fv-stroke" data-item-order="0" transform="translate(390.71875, 38)"></g><g id="g-root-ic_squa_1qf310vmjpatq-fill" data-item-order="0" transform="translate(603, 284)"></g><g id="g-root-ic_squa_1qf310vmjpatq-stroke" data-item-order="0" transform="translate(603, 284)"><g id="ic_squa_1qf310vmjpatq-stroke" fill="none" stroke-linecap="round" stroke-linejoin="round" stroke-miterlimit="4" stroke="#4f3d58" stroke-width="2" stroke-opacity="1"><g><path d="M 23 51C 19.686291 51 17 48.313709 17 45L 17 23C 17 19.686291 19.686291 17 23 17L 39 17M 45 17C 48.313709 17 51 19.686291 51 23L 51 45C 51 48.313709 48.313709 51 45 51L 29 51M 35 10.996L 39 16.996L 35 22.996M 33 44.995998L 29 50.995998L 33 56.995998"></path></g></g></g><g id="g-root-ic_plan_1lw55gvmjs2rs-fill" data-item-order="0" transform="translate(459, 356)"></g><g id="g-root-ic_plan_1lw55gvmjs2rs-stroke" data-item-order="0" transform="translate(459, 356)"><g id="ic_plan_1lw55gvmjs2rs-stroke" fill="none" stroke-linecap="round" stroke-linejoin="round" stroke-miterlimit="4" stroke="#4f3d58" stroke-width="2" stroke-opacity="1"><g><path d="M 21.448 24.243999L 31.362 24.243999L 31.362 33.162003L 21.448 33.162003ZM 37.209999 24.243999L 47.124001 24.243999L 47.124001 33.162003L 37.209999 33.162003ZM 17.441999 37.743999C 17.441999 40.274895 19.493109 42.326897 22.024002 42.328003L 46.372002 42.327999C 48.032169 42.362682 49.581287 41.496834 50.421547 40.064583C 51.261803 38.632339 51.261803 36.857666 50.421547 35.425419C 49.581287 33.993172 48.032169 33.127319 46.372002 33.162003L 22.024 33.162003C 19.493431 33.161999 17.441999 35.213432 17.441999 37.743999ZM 42.486 37.743999C 42.486 38.249893 42.896107 38.66 43.402 38.66C 43.907894 38.66 44.318001 38.249893 44.318001 37.743999C 44.318001 37.238106 43.907894 36.828003 43.402 36.828003C 42.896107 36.828003 42.486 37.238106 42.486 37.743999M 33.243999 37.743999C 33.243999 38.249893 33.654106 38.66 34.16 38.66C 34.665894 38.66 35.076 38.249893 35.076 37.743999C 35.076 37.238106 34.665894 36.828003 34.16 36.828003C 33.654106 36.828003 33.243999 37.238106 33.243999 37.743999M 24.077999 37.743999C 24.077999 38.249893 24.488108 38.66 24.993999 38.66C 25.499893 38.66 25.91 38.249893 25.91 37.743999C 25.91 37.238106 25.499893 36.828003 24.993999 36.828003C 24.488108 36.828003 24.077999 37.238106 24.077999 37.743999M 57 11C 55.805908 14.583113 52.452847 17.000025 48.676003 17L 15 17C 12.793596 17.00659 11.00659 18.793596 11 21L 11 53C 11 50.790859 12.790861 49 15 49L 48.675999 49C 52.452847 49.000027 55.805908 46.583115 57 43ZM 11 53C 11 55.209141 12.790861 57 15 57L 30 57C 31.10457 57 32 56.104568 32 55L 32 49"></path></g></g></g><g id="g-root-tx__vbq12nmjp9fw-fill" data-item-order="0" transform="translate(603, 344)"><g id="tx__vbq12nmjp9fw-fill-merged" stroke="none" fill="#484848" fill-opacity="1"><g><text style="font: bold 20px Roboto, sans-serif; white-space: pre;" transform="translate(10, 22)" font-weight="bold" font-size="20px" font-family="Roboto, sans-serif"><tspan x="2" y="12" dominant-baseline="ideographic">제목3</tspan></text></g></g></g><g id="g-root-tx__vbq12nmjp9fw-stroke" data-item-order="0" transform="translate(603, 344)"></g><g id="g-root-tx_1_dl2hnzmjp8n9-fill" data-item-order="0" transform="translate(603, 380)"><g id="tx_1_dl2hnzmjp8n9-fill-merged" stroke="none" fill="#484848" fill-opacity="1"><g><text style="font: 15px Roboto, sans-serif; white-space: pre;" transform="translate(10, 19)" font-size="15px" font-family="Roboto, sans-serif"><tspan x="2" y="9" dominant-baseline="ideographic">설명3</tspan></text></g></g></g><g id="g-root-tx_1_dl2hnzmjp8n9-stroke" data-item-order="0" transform="translate(603, 380)"></g><g id="g-root-ic_caut_3zpinmjux3i-fill" data-item-order="0" transform="translate(315, 428)"></g><g id="g-root-ic_caut_3zpinmjux3i-stroke" data-item-order="0" transform="translate(315, 428)"><g id="ic_caut_3zpinmjux3i-stroke" fill="none" stroke-linecap="round" stroke-linejoin="round" stroke-miterlimit="4" stroke="#4f3d58" stroke-width="2" stroke-opacity="1"><g><path d="M 54.737999 37.365997C 55.698975 37.365997 56.478001 36.586975 56.478001 35.625999L 56.478001 32.148003C 56.478535 31.686361 56.295383 31.243477 55.968956 30.917048C 55.642525 30.59062 55.199642 30.407469 54.738003 30.408001L 53.223999 30.408001C 52.735538 27.653589 51.659092 25.036829 50.068001 22.736L 51.132 21.672001C 51.809692 20.992802 51.809692 19.8932 51.132 19.214001L 48.672001 16.754C 48.345978 16.42742 47.903461 16.243902 47.442001 16.243902C 46.980541 16.243902 46.538025 16.42742 46.212002 16.754L 45.153999 17.812C 42.856682 16.209503 40.240379 15.122047 37.484001 14.624001L 37.484001 13.128C 37.484001 12.167025 36.704975 11.388 35.743999 11.388L 32.265999 11.388C 31.305481 11.389102 30.527102 12.167481 30.525999 13.128L 30.525999 14.618C 27.766216 15.106495 25.144867 16.186556 22.841999 17.784L 21.799999 16.736C 21.473976 16.40942 21.03146 16.225903 20.57 16.225903C 20.10854 16.225903 19.666023 16.40942 19.34 16.736L 16.872 19.200001C 16.194307 19.879198 16.194307 20.978802 16.872 21.658001L 17.917999 22.706001C 16.317335 25.006927 15.233222 27.62681 14.74 30.386L 13.246 30.386C 12.285806 30.387104 11.507999 31.165804 11.508 32.125999L 11.508 35.599998C 11.507999 36.560196 12.285806 37.338898 13.246 37.34L 14.74 37.34C 15.233145 40.096687 16.315825 42.714359 17.914 45.014L 16.854 46.074001C 16.176077 46.753883 16.176077 47.854115 16.854 48.534L 19.313999 50.993999C 19.640022 51.320583 20.082541 51.504101 20.544001 51.504101C 21.005461 51.504101 21.447977 51.320583 21.774 50.994003L 22.836 49.931999C 23.556358 50.433475 24.31011 50.885193 25.091999 51.283997M 45.877998 26.712C 42.777828 21.72307 36.893105 19.199778 31.141943 20.393373C 25.390785 21.586969 20.996189 26.243633 20.137348 32.054218C 19.278507 37.864803 22.138056 43.593678 27.298 46.400002M 33.992001 20.112L 33.992001 30.112M 21.868 41.112L 30.528 36.112M 56.124001 52.172001L 46.138 33.928001C 45.632126 32.969795 44.637547 32.370193 43.554001 32.370193C 42.470455 32.370193 41.475876 32.969795 40.970001 33.928001L 30.986 52.172001C 30.477591 53.101192 30.49684 54.229618 31.036648 55.14093C 31.576456 56.052242 32.556812 56.611362 33.616001 56.612L 53.492001 56.612C 54.551548 56.612072 55.532551 56.05323 56.072845 55.141792C 56.613136 54.230354 56.632584 53.101505 56.124001 52.172001ZM 43.554001 39.612L 43.554001 44.612M 42.554001 50.612C 42.554001 51.164284 43.001717 51.612 43.554001 51.612C 44.106285 51.612 44.554001 51.164284 44.554001 50.612C 44.554001 50.059715 44.106285 49.612 43.554001 49.612C 43.001717 49.612 42.554001 50.059715 42.554001 50.612M 35.954002 30.625999C 34.697613 29.85367 33.118172 29.835331 31.844189 30.578278C 30.570206 31.321224 29.808386 32.704914 29.861881 34.178734C 29.915375 35.65255 30.775507 36.977371 32.099998 37.625999"></path></g></g></g><g id="g-root-tx_cicd_qss5inmjs1dy-fill" data-item-order="0" transform="translate(459, 416)"><g id="tx_cicd_qss5inmjs1dy-fill-merged" stroke="none" fill="#484848" fill-opacity="1"><g><text style="font: bold 20px Roboto, sans-serif; white-space: pre;" transform="translate(10, 22)" font-weight="bold" font-size="20px" font-family="Roboto, sans-serif"><tspan x="2" y="12" dominant-baseline="ideographic">제목2</tspan></text></g></g></g><g id="g-root-tx_cicd_qss5inmjs1dy-stroke" data-item-order="0" transform="translate(459, 416)"></g><g id="g-root-tx__6hlv3mjs1dz-fill" data-item-order="0" transform="translate(459, 452)"><g id="tx__6hlv3mjs1dz-fill-merged" stroke="none" fill="#484848" fill-opacity="1"><g><text style="font: 15px Roboto, sans-serif; white-space: pre;" transform="translate(10, 19)" font-size="15px" font-family="Roboto, sans-serif"><tspan x="2" y="9" dominant-baseline="ideographic">설명2</tspan></text></g></g></g><g id="g-root-tx__6hlv3mjs1dz-stroke" data-item-order="0" transform="translate(459, 452)"></g><g id="g-root-tx__1hckstrmjux3g-fill" data-item-order="0" transform="translate(315, 488)"><g id="tx__1hckstrmjux3g-fill-merged" stroke="none" fill="#484848" fill-opacity="1"><g><text style="font: bold 20px Roboto, sans-serif; white-space: pre;" transform="translate(10, 22)" font-weight="bold" font-size="20px" font-family="Roboto, sans-serif"><tspan x="2" y="12" dominant-baseline="ideographic">제목1</tspan></text></g></g></g><g id="g-root-tx__1hckstrmjux3g-stroke" data-item-order="0" transform="translate(315, 488)"></g><g id="g-root-tx__qqa967mjux3h-fill" data-item-order="0" transform="translate(315, 524)"><g id="tx__qqa967mjux3h-fill-merged" stroke="none" fill="#484848" fill-opacity="1"><g><text style="font: 15px Roboto, sans-serif; white-space: pre;" transform="translate(10, 19)" font-size="15px" font-family="Roboto, sans-serif"><tspan x="2" y="9" dominant-baseline="ideographic">설명1</tspan></text></g></g></g><g id="g-root-tx__qqa967mjux3h-stroke" data-item-order="0" transform="translate(315, 524)"></g></g></g></svg>