<?xml version="1.0" encoding="utf-8" standalone="yes"?>
<!DOCTYPE svg PUBLIC "-//W3C//DTD SVG 1.1//EN" "http://www.w3.org/Graphics/SVG/1.1/DTD/svg11.dtd">
<svg style="fill:none;stroke:none;fill-rule:evenodd;clip-rule:evenodd;stroke-linecap:round;stroke-linejoin:round;stroke-miterlimit:1.5;" version="1.1" xmlns="http://www.w3.org/2000/svg" xmlns:xlink="http://www.w3.org/1999/xlink" width="418" height="544" viewBox="0 0 418 544"><style class="text-font-style fontImports" data-font-family="Roboto">@import url(https://fonts.googleapis.com/css2?family=Roboto:wght@400;700&amp;amp;display=block);</style><g id="items" style="isolation: isolate"><g id="blend" style="mix-blend-mode: normal"><g id="g-root-cp_-1_visual-frame_m7yl6mmk1wch-fill" data-item-order="-182774" transform="translate(92, 128)"><g id="cp_-1_visual-frame_m7yl6mmk1wch-fill-merged" stroke="none" fill="#4f3d58" fill-opacity="1"><g><path d="M220 330C220 339.941 211.941 348 202 348 H34C24.059 348 16 339.941 16 330 H10C10 343.255 20.745 354 34 354 H202C215.255 354 226 343.255 226 330 V34C226 20.745 215.255 10 202 10 H34C20.745 10 10 20.745 10 34 V330 H16 V34.004C16 24.063 24.059 16.004 34 16.004 H202C211.941 16.004 220 24.063 220 34.004 V330 M99 33C99 30.239 101.252 28 104.029 28 H131.971C134.748 28 137 30.239 137 33C137 35.761 134.748 38 131.971 38 H104.029C101.252 38 99 35.761 99 33"></path></g></g></g><g id="g-root-cp_-1_visual-frame_m7yl6mmk1wch-stroke" data-item-order="-182774" transform="translate(92, 128)"><g id="cp_-1_visual-frame_m7yl6mmk1wch-stroke" fill="none" stroke-linecap="round" stroke-linejoin="round" stroke-miterlimit="4" stroke="#ffffff" stroke-width="2" stroke-opacity="1"><g><path d="M 226 46L 226 34C 226 20.7452 215.2548 10 202 10L 34 10C 20.7452 10 10 20.7452 10 34L 10 46M 220 46L 220 34C 220 24.0589 211.9411 16 202 16L 34 16C 24.0589 16 16 24.0589 16 34L 16 46M 10 330L 10 46M 220 330L 220 46M 16 330L 16 46M 226 330L 226 46M 10 330C 10 343.2548 20.7452 354 34 354L 202 354C 215.2548 354 226 343.2548 226 330M 16 330C 16 339.9411 24.0589 348 34 348L 202 348C 211.9411 348 220 339.9411 220 330M 99 33C 99 30.2386 101.2517 28 104.0294 28L 131.9706 28C 134.7483 28 137 30.2386 137 33C 137 35.7614 134.7483 38 131.9706 38L 104.0294 38C 101.2517 38 99 35.7614 99 33Z"></path></g></g></g><g id="g-root-cp_1-1_g-1-1_8wi2tamk1xxe-fill" data-item-order="-182752" transform="translate(108, 360)"><g id="cp_1-1_g-1-1_8wi2tamk1xxe-fill-merged" stroke="none" fill="#ba5de5" fill-opacity="1"><g><path d="M13.042 52C10.337 52 8.983 48.769 10.895 46.879L18 40 V22C18 15.373 23.373 10 30 10 H70.313C76.94 10 82.313 15.373 82.313 22 V40C82.313 46.627 76.94 52 70.313 52 H13.042"></path></g></g></g><g id="g-root-cp_1-1_g-1-1_8wi2tamk1xxe-stroke" data-item-order="-182752" transform="translate(108, 360)"><g id="cp_1-1_g-1-1_8wi2tamk1xxe-stroke" fill="none" stroke-linecap="round" stroke-linejoin="round" stroke-miterlimit="4" stroke="#ffffff" stroke-width="2" stroke-opacity="1"><g><path d="M 18 22C 18.000001 15.3726 23.3726 9.999999 30 10M 70.3125 10L 30 10M 82.3125 22C 82.3125 15.3726 76.9399 10.000001 70.3125 10M 82.3125 40L 82.3125 22M 70.3125 52C 76.9399 52 82.3125 46.6274 82.3125 40M 70.3125 52L 30 52M 18 40L 10.8847 46.8787C 8.9948 48.7686 10.3333 52 13.006 52L 30 52M 18 40L 18 22"></path></g></g></g><g id="g-root-cp_2-1_g-2-1_1hjnimk1vkb-fill" data-item-order="-182716" transform="translate(219.6875, 412)"><g id="cp_2-1_g-2-1_1hjnimk1vkb-fill-merged" stroke="none" fill="#e2a3ff" fill-opacity="1"><g><path d="M74.313 40L81.191 46.879C83.081 48.769 81.743 52 79.07 52 H22C15.373 52 10 46.627 10 40 V22C10 15.373 15.373 10 22 10 H62.313C68.94 10 74.313 15.373 74.313 22 V40"></path></g></g></g><g id="g-root-cp_2-1_g-2-1_1hjnimk1vkb-stroke" data-item-order="-182716" transform="translate(219.6875, 412)"><g id="cp_2-1_g-2-1_1hjnimk1vkb-stroke" fill="none" stroke-linecap="round" stroke-linejoin="round" stroke-miterlimit="4" stroke="#ffffff" stroke-width="2" stroke-opacity="1"><g><path d="M 10 22C 10.000001 15.3726 15.3726 9.999999 22 10M 62.3125 10L 22 10M 74.3125 22C 74.3125 15.3726 68.9399 10.000001 62.3125 10M 74.3125 39.999851L 74.3125 22M 74.3125 40L 81.1912 46.8787C 83.0811 48.7686 81.7426 52 79.0699 52L 62.3125 52M 62.3125 52L 22 52M 22 52C 15.3726 52 10 46.6274 10 40M 10 39.999851L 10 22"></path></g></g></g><g id="g-root-cp_1_g-1_1ums3i6mk1w5g-fill" data-item-order="-182682" transform="translate(14.0001220703125, 356)"><g id="cp_1_g-1_1ums3i6mk1w5g-fill-merged" stroke="none" fill="#ba5de5" fill-opacity="1"><g><path d="M10 116.284C10 98.909 22.029 84.425 38.047 81.137C38.047 81.137 34.475 87.685 37.593 94.051C38.266 95.424 40.334 95.155 41.129 93.85C41.977 92.46 42.908 91.055 43.31 90.346L43.884 89.37C44.769 87.924 45.499 86.968 45.499 86.968C45.499 86.968 46.618 91.453 47.821 93.586C47.821 93.586 47.821 108.02 44.904 126.772C47.821 132.116 51.867 134.699 51.867 134.699C51.867 134.699 55.799 131.383 57.868 126.772C55.799 106.347 52.442 93.586 52.442 93.586C53.894 89.953 53.466 86.966 53.466 86.966C53.466 86.966 56.377 89.458 57.994 93.199C58.377 94.086 59.618 94.144 59.734 93.183C60.329 88.231 57.928 82.972 57.928 82.972C70.847 88.242 79.979 101.171 79.979 116.284 V139.999 H10 V116.284 M43.884 89.37C43.698 89.675 43.504 90.002 43.31 90.346L43.884 89.37"></path></g></g><g id="cp_1_g-1_1ums3i6mk1w5g-fill-merged" stroke="none" fill="#ba5de5" fill-opacity="1"><g><path d="M38.047 81.137L41.958 78.645L45.501 86.966C45.501 86.966 44.77 87.924 43.885 89.371C43.698 89.676 43.505 90.002 43.31 90.346C42.908 91.056 41.977 92.461 41.129 93.851C40.334 95.155 38.266 95.425 37.593 94.051C34.475 87.686 38.047 81.137 38.047 81.137 M57.928 82.972L55.778 80.208L53.466 86.966C53.466 86.966 56.378 89.458 57.994 93.2C58.377 94.086 59.619 94.145 59.734 93.184C60.329 88.231 57.928 82.972 57.928 82.972 M43.885 89.371L43.31 90.346L43.885 89.371"></path></g></g><g id="cp_1_g-1_1ums3i6mk1w5g-fill-merged" stroke="none" fill="#ba5de5" fill-opacity="1"><g><path d="M71.738 48.944 V37.608C71.738 37.608 59.461 40.005 50.774 37.608C42.086 35.211 37.303 28.218 37.303 28.218C37.303 31.317 36.9 42.047 31.41 48.499C30.663 48.231 30.051 48.066 28.758 48.604C27.466 49.142 26.586 50.402 26.28 51.631C26.28 51.631 21.638 35.623 24.098 29.801C27.539 21.655 32.848 19.466 32.848 19.466C35.279 10.109 49.437 8.14 57.154 11.587C64.871 15.034 68.542 20.665 74.375 14.263C84.682 29.884 79.025 45.957 71.738 48.944"></path></g></g><g id="cp_1_g-1_1ums3i6mk1w5g-fill-merged" stroke="none" fill="#ba5de5" fill-opacity="1"><g><path d="M47.821 93.586C47.821 93.586 47.821 108.02 44.904 126.772C47.821 132.116 51.867 134.698 51.867 134.698C51.867 134.698 55.799 131.383 57.868 126.772C55.799 106.347 52.442 93.586 52.442 93.586C53.894 89.953 53.464 86.955 53.464 86.955C53.464 86.955 52.071 86.324 49.724 86.324C47.404 86.324 45.499 86.967 45.499 86.967C45.499 86.967 46.617 91.453 47.821 93.586"></path></g></g></g><g id="g-root-cp_1_g-1_1ums3i6mk1w5g-stroke" data-item-order="-182682" transform="translate(14.0001220703125, 356)"><g id="cp_1_g-1_1ums3i6mk1w5g-stroke" fill="none" stroke-linecap="round" stroke-linejoin="round" stroke-miterlimit="4" stroke="#ffffff" stroke-width="2" stroke-opacity="1"><g><path d="M 9.999985 116.283519C 9.999985 98.908819 22.029285 84.424919 38.047085 81.136719C 38.047085 81.136719 34.474885 87.685119 37.593185 94.051019C 38.265885 95.424219 40.333885 95.154719 41.129185 93.850419C 41.976785 92.460419 42.908085 91.055419 43.309785 90.346019L 43.884385 89.370419C 44.769285 87.923719 45.499185 86.967519 45.499185 86.967519C 45.499185 86.967519 46.617685 91.453019 47.821285 93.586419C 47.821285 93.586419 47.821285 108.019819 44.904485 126.772319C 47.821285 132.116019 51.867385 134.698519 51.867385 134.698519C 51.867385 134.698519 55.799185 131.383219 57.868285 126.772319C 55.799185 106.347419 52.442185 93.586419 52.442185 93.586419C 53.894485 89.953119 53.465885 86.965519 53.465885 86.965519C 53.465885 86.965519 56.377485 89.457719 57.993785 93.199119C 58.376985 94.086019 59.618285 94.144419 59.733785 93.183319C 60.329185 88.230519 57.928085 82.971719 57.928085 82.971719C 70.847285 88.242419 79.979385 101.170719 79.979385 116.283619L 79.979385 139.998819L 9.999985 139.998819L 9.999985 116.283519ZM 43.884385 89.370419C 43.697785 89.675419 43.504485 90.002019 43.309785 90.346019L 43.884385 89.370419ZM 23.611309 139.997719L 23.611309 106.511719M 68.334809 139.997719L 68.334809 106.511719M 51.867109 139.997719L 51.867109 134.697419"></path></g></g><g id="cp_1_g-1_1ums3i6mk1w5g-stroke" fill="none" stroke-linecap="round" stroke-linejoin="round" stroke-miterlimit="4" stroke="#ffffff" stroke-width="2" stroke-opacity="1"><g><path d="M 38.047298 81.137131L 41.957698 78.644531L 45.501198 86.966031C 45.501198 86.966031 44.769598 87.924131 43.884598 89.370831C 43.698098 89.675831 43.504798 90.002431 43.309998 90.346431C 42.908398 91.055831 41.977098 92.460831 41.129498 93.850831C 40.334098 95.155131 38.266198 95.424631 37.593498 94.051431C 34.475198 87.685531 38.047298 81.137131 38.047298 81.137131ZM 57.928398 82.972131L 55.778498 80.208131L 53.466198 86.966031C 53.466198 86.966031 56.377698 89.458131 57.994098 93.199531C 58.377198 94.086431 59.618598 94.144831 59.734098 93.183731C 60.329498 88.230931 57.928398 82.972131 57.928398 82.972131ZM 43.884598 89.370831L 43.309998 90.346431L 43.884598 89.370831Z"></path></g></g><g id="cp_1_g-1_1ums3i6mk1w5g-stroke" fill="none" stroke-linecap="round" stroke-linejoin="round" stroke-miterlimit="4" stroke="#ffffff" stroke-width="2" stroke-opacity="1"><g><path d="M 71.737933 48.9444L 71.737933 37.6082C 71.737933 37.6082 59.461133 40.0051 50.773733 37.6082C 42.086333 35.2112 37.303333 28.2181 37.303333 28.2181C 37.303333 31.3167 36.900033 42.0468 31.410033 48.499C 30.663133 48.2315 30.050633 48.0657 28.758333 48.6037C 27.466033 49.1417 26.586233 50.4023 26.279833 51.6307C 26.279833 51.6307 21.638033 35.6234 24.097633 29.8009C 27.538933 21.6546 32.847933 19.4657 32.847933 19.4657C 35.278533 10.1094 49.436933 8.1396 57.154133 11.5867C 64.871333 15.0338 68.541533 20.6649 74.375033 14.2632C 84.681533 29.8836 79.025033 45.9569 71.737933 48.9444Z"></path></g></g><g id="cp_1_g-1_1ums3i6mk1w5g-stroke" fill="none" stroke-linecap="round" stroke-linejoin="round" stroke-miterlimit="4" stroke="#ffffff" stroke-width="2" stroke-opacity="1"><g><path d="M 47.820975 93.586119C 47.820975 93.586119 47.820975 108.019519 44.904175 126.772019C 47.820975 132.115719 51.866975 134.698219 51.866975 134.698219C 51.866975 134.698219 55.798775 131.382919 57.867875 126.772019C 55.798775 106.347119 52.441775 93.586119 52.441775 93.586119C 53.894175 89.952819 53.463775 86.954919 53.463775 86.954919C 53.463775 86.954919 52.070575 86.324219 49.723575 86.324219C 47.404075 86.324219 45.498875 86.967219 45.498875 86.967219C 45.498875 86.967219 46.617275 91.452819 47.820975 93.586119ZM 47.821167 93.585938C 47.821167 93.585938 49.634967 93.585938 50.696067 93.585938C 51.757267 93.585937 52.442067 93.585938 52.442067 93.585938"></path></g></g></g><g id="g-root-cp_0a_g-0a_1lr539amk1wy5-fill" data-item-order="-182674" transform="translate(30.15625, 374.328125)"><g id="cp_0a_g-0a_1lr539amk1wy5-fill-merged" stroke="none" fill="#4f3d58" fill-opacity="1"><g><path d="M39.626 61.886L37.307 68.645C37.307 68.645 36.029 68.009 33.566 68.009C31.103 68.009 29.344 68.645 29.344 68.645L25.791 60.32 V53.863C27.266 54.628 30.42 55.674 32.435 55.754C34.451 55.835 37.785 55.754 39.633 55.111 V61.886"></path></g></g><g id="cp_0a_g-0a_1lr539amk1wy5-fill-merged" stroke="none" fill="#4f3d58" fill-opacity="1"><g><path d="M13.386 29.993C11.446 30.47 10 32.248 10 34.384C10 36.689 11.688 38.596 13.871 38.864C15.928 48.52 24.359 55.802 34.381 55.802C44.403 55.802 52.834 48.51 54.891 38.864C55.846 34.384 55.582 32.652 55.582 30.28C55.582 21.819 55.582 22.383 55.582 19.285C55.582 19.285 42.943 21.819 34.679 19.356C26.414 16.894 21.067 10 21.067 10C21.067 10 21.553 22.803 15.233 30.19C14.904 30 15.637 29.534 13.394 30"></path></g></g><g id="cp_0a_g-0a_1lr539amk1wy5-fill-merged" stroke="none" fill="#4f3d58" fill-opacity="1"><g><path d="M43.78 43.242C42.213 48.047 34.623 48.024 33.063 43.242 H43.78"></path></g></g></g><g id="g-root-cp_0a_g-0a_1lr539amk1wy5-stroke" data-item-order="-182674" transform="translate(30.15625, 374.328125)"><g id="cp_0a_g-0a_1lr539amk1wy5-stroke" fill="none" stroke-linecap="round" stroke-linejoin="round" stroke-miterlimit="4" stroke="#ffffff" stroke-width="2" stroke-opacity="1"><g><path d="M 39.625509 56.638981L 39.625509 61.885981L 37.306909 68.645481C 37.306909 68.645481 36.028909 68.008881 33.565909 68.008881C 31.102909 68.008881 29.343609 68.645481 29.343609 68.645481L 25.790609 60.320181L 25.790609 53.863281L 25.787109 53.863281C 27.265809 54.628481 30.419709 55.673981 32.435209 55.754381C 34.450709 55.834781 37.785209 55.754381 39.632709 55.110981L 39.625509 56.638981Z"></path></g></g><g id="cp_0a_g-0a_1lr539amk1wy5-stroke" fill="none" stroke-linecap="round" stroke-linejoin="round" stroke-miterlimit="4" stroke="#ffffff" stroke-width="2" stroke-opacity="1"><g><path d="M 13.3859 29.9933C 11.4456 30.4701 10 32.2483 10 34.3842C 10 36.6889 11.6881 38.5962 13.871 38.8644C 15.9278 48.5204 24.3588 55.8021 34.3808 55.8021C 44.4029 55.8021 52.8338 48.5104 54.8906 38.8644C 55.8459 34.3842 55.5818 32.6523 55.5818 30.2801C 55.5818 21.8186 55.5818 22.3832 55.5818 19.2846C 55.5818 19.2846 42.9426 21.8186 34.6785 19.3564C 26.4143 16.8942 21.0669 10 21.0669 10C 21.0669 10 21.5531 22.8035 15.2334 30.1901C 14.9041 29.9999 15.6372 29.5343 13.3937 29.9999L 13.3859 29.9933Z"></path></g></g><g id="cp_0a_g-0a_1lr539amk1wy5-stroke" fill="none" stroke-linecap="round" stroke-linejoin="round" stroke-miterlimit="4" stroke="#ffffff" stroke-width="2" stroke-opacity="1"><g><path d="M 43.780177 43.242188C 42.212877 48.046788 34.623277 48.023788 33.063477 43.242188L 43.780177 43.242188ZM 33.285484 30.239331C 33.285484 31.327131 32.414884 32.209031 31.340984 32.209031C 30.267084 32.209031 29.396484 31.327131 29.396484 30.239331C 29.396484 29.151431 30.267084 28.269531 31.340984 28.269531C 32.414884 28.269531 33.285484 29.151431 33.285484 30.239331ZM 49.063805 30.239331C 49.063805 31.327131 48.193205 32.209031 47.119305 32.209031C 46.045405 32.209031 45.174805 31.327131 45.174805 30.239331C 45.174805 29.151431 46.045405 28.269531 47.119305 28.269531C 48.193205 28.269531 49.063805 29.151431 49.063805 30.239331ZM 32.313641 30.238806C 32.313641 30.782706 31.878341 31.223706 31.341441 31.223706C 30.804441 31.223706 30.369141 30.782706 30.369141 30.238806C 30.369141 29.694806 30.804441 29.253906 31.341441 29.253906C 31.878341 29.253906 32.313641 29.694806 32.313641 30.238806ZM 48.091961 30.238806C 48.091961 30.782706 47.656661 31.223706 47.119761 31.223706C 46.582761 31.223706 46.147461 30.782706 46.147461 30.238806C 46.147461 29.694806 46.582761 29.253906 47.119761 29.253906C 47.656661 29.253906 48.091961 29.694806 48.091961 30.238806ZM 33.063682 23.354074C 33.063682 23.354074 29.745682 22.757974 27.747082 25.281274M 45.652344 23.354074C 45.652344 23.354074 48.970344 22.757974 50.968944 25.281274"></path></g></g></g><g id="g-root-cp_2_g-2_1hbbl4umk1xqe-fill" data-item-order="-182670" transform="translate(314, 356)"><g id="cp_2_g-2_1hbbl4umk1xqe-fill-merged" stroke="none" fill="#e2a3ff" fill-opacity="1"><g><path d="M63.84 52.708C63.84 50.572 62.394 48.794 60.453 48.317C58.201 47.858 58.934 48.324 58.605 48.514C52.283 41.127 52.77 28.324 52.77 28.324C52.77 28.324 47.421 35.218 39.154 37.68C30.887 40.142 18.244 37.608 18.244 37.608 V48.604C18.244 50.976 17.98 52.708 18.936 57.188C20.619 65.081 26.518 71.384 34.118 73.419 V78.983C34.118 78.983 23.565 78.845 15.703 76.955C13.101 76.33 11.639 73.765 12.162 71.14C13.619 63.815 15.939 54.085 13.177 35.639C10.751 19.434 24.578 9.996 38.273 10C46.063 10.002 53.81 13.073 58.5 19.659C66.983 18.213 70.36 30.211 71.47 39.986C72.688 50.709 73.093 61.76 70.353 72.824C69.917 74.585 68.633 76.02 66.892 76.527C61.358 78.137 54.148 78.745 50.244 78.922L48.043 76.618 V72.186C54.002 69.409 58.542 63.88 59.968 57.188C62.151 56.92 63.84 55.013 63.84 52.708"></path></g></g><g id="cp_2_g-2_1hbbl4umk1xqe-fill-merged" stroke="none" fill="#e2a3ff" fill-opacity="1"><g><path d="M37.818 92.896L48.025 97.203C49.089 97.652 50.294 97.069 50.567 95.935C50.947 94.357 51.435 92.054 51.731 89.591C52.271 85.1 52.462 81.246 52.462 81.246C68.225 84.737 80 99.095 80 116.283 V139.998 H10 V116.283C10 101.599 18.624 88.977 30.967 83.438L27.824 93.203C27.321 94.766 28.817 96.228 30.341 95.664L37.818 92.896"></path></g></g><g id="cp_2_g-2_1hbbl4umk1xqe-fill-merged" stroke="none" fill="#e2a3ff" fill-opacity="1"><g><path d="M52.462 81.248L48.033 76.602 V81.167L37.819 92.898L48.025 97.204C49.089 97.653 50.294 97.07 50.568 95.936C50.948 94.358 51.435 92.055 51.731 89.592C52.271 85.101 52.462 81.248 52.462 81.248 M30.341 95.665L37.819 92.898L34.118 85.332 V79.249C34.118 79.249 31.215 83.328 30.967 83.439L27.824 93.205C27.321 94.767 28.817 96.229 30.341 95.665"></path></g></g></g><g id="g-root-cp_2_g-2_1hbbl4umk1xqe-stroke" data-item-order="-182670" transform="translate(314, 356)"><g id="cp_2_g-2_1hbbl4umk1xqe-stroke" fill="none" stroke-linecap="round" stroke-linejoin="round" stroke-miterlimit="4" stroke="#ffffff" stroke-width="2" stroke-opacity="1"><g><path d="M 63.839741 52.7078C 63.839741 50.572 62.393741 48.7938 60.452841 48.3169L 60.445041 48.3236C 58.200841 47.8579 58.934241 48.3236 58.604741 48.5137C 52.283241 41.1271 52.769541 28.3237 52.769541 28.3237C 52.769541 28.3237 47.420541 35.2178 39.154041 37.68C 30.887441 40.1422 18.244441 37.6083 18.244441 37.6083L 18.244441 48.6038C 18.244441 50.9759 17.980341 52.7078 18.935941 57.1881C 20.619441 65.0811 26.517641 71.3837 34.118141 73.4188L 34.118141 78.9834C 34.118141 78.9834 23.565141 78.8448 15.703341 76.9554C 13.101041 76.33 11.639441 73.7648 12.161841 71.1399C 13.619441 63.8155 15.939141 54.0855 13.176941 35.6385C 10.750641 19.4341 24.577641 9.9956 38.273141 10C 46.062941 10.0025 53.810241 13.0734 58.500041 19.6585C 66.983341 18.2126 70.359641 30.2106 71.470041 39.9859C 72.687941 50.7087 73.092541 61.7596 70.353341 72.8239C 69.917441 74.5848 68.633241 76.0201 66.891541 76.527C 61.358441 78.1371 54.147641 78.745 50.244141 78.9223L 48.042941 76.6185L 48.042941 72.186C 54.001541 69.4085 58.541641 63.8804 59.967541 57.1881C 62.151141 56.9198 63.839741 55.0125 63.839741 52.7078Z"></path></g></g><g id="cp_2_g-2_1hbbl4umk1xqe-stroke" fill="none" stroke-linecap="round" stroke-linejoin="round" stroke-miterlimit="4" stroke="#ffffff" stroke-width="2" stroke-opacity="1"><g><path d="M 37.8183 92.896294L 48.0247 97.202794C 49.089 97.651894 50.2942 97.068994 50.5674 95.934694C 50.9474 94.356694 51.4349 92.053794 51.731 89.590994C 52.2711 85.099794 52.4619 81.246094 52.4619 81.246094C 68.2254 84.736794 80 99.095294 80 116.282594L 80 139.997794L 66.3845 139.997794L 24.7635 139.997794L 10 139.997794L 10 116.282594C 10 101.598694 18.6236 88.977094 30.9667 83.437994L 27.8236 93.203394C 27.3207 94.765694 28.8166 96.227994 30.3406 95.663894L 37.8183 92.896294ZM 66.3845 139.997794L 10 139.997794L 66.3845 139.997794Z"></path></g></g><g id="cp_2_g-2_1hbbl4umk1xqe-stroke" fill="none" stroke-linecap="round" stroke-linejoin="round" stroke-miterlimit="4" stroke="#ffffff" stroke-width="2" stroke-opacity="1"><g><path d="M 52.462109 81.247563L 48.033409 76.601563L 48.033409 81.167063L 37.818509 92.897763L 48.024909 97.204263C 49.089209 97.653363 50.294409 97.070463 50.567609 95.936163C 50.947609 94.358162 51.435209 92.055163 51.731309 89.592463C 52.271309 85.101163 52.462109 81.247563 52.462109 81.247563ZM 30.340809 95.665363L 37.818509 92.897763L 34.118309 85.332463L 34.118309 79.248563C 34.118309 79.248563 31.215409 83.327863 30.966909 83.439363L 27.823809 93.204863C 27.321009 94.767163 28.816809 96.229463 30.340809 95.665363ZM 37.818695 92.898438L 33.068195 110.087238C 30.014595 123.666938 36.082895 129.532438 36.176495 139.772137M 66.384895 139.999937L 66.384895 106.514038M 24.763895 139.999937C 24.763895 139.999937 24.293595 134.818138 23.527395 130.303137C 22.860295 126.372437 21.109495 125.350138 20.083695 120.286938C 19.148095 115.668938 20.246295 110.442738 23.527395 106.514038M 39.420195 107.990438L 51.090595 107.990438"></path></g></g></g><g id="g-root-cp_0b_g-0b_18gb1z2mk1vdb-fill" data-item-order="-182664" transform="translate(322.2109375, 374.328125)"><g id="cp_0b_g-0b_18gb1z2mk1vdb-fill-merged" stroke="none" fill="#4f3d58" fill-opacity="1"><g><path d="M25.906 55.089C27.95 55.709 30.643 55.909 32.715 55.766C34.786 55.623 38.358 54.628 39.837 53.863C39.837 53.863 39.834 60.927 39.834 62.818L29.597 74.553L25.906 67 V55.089"></path></g></g><g id="cp_0b_g-0b_18gb1z2mk1vdb-fill-merged" stroke="none" fill="#4f3d58" fill-opacity="1"><g><path d="M52.242 29.993C54.183 30.47 55.629 32.248 55.629 34.384C55.629 36.689 53.94 38.596 51.757 38.864C49.699 48.52 41.266 55.802 31.241 55.802C21.216 55.802 12.782 48.51 10.725 38.864C9.769 34.384 10.034 32.652 10.034 30.28C10.034 21.819 10.034 22.383 10.034 19.285C10.034 19.285 22.677 21.819 30.943 19.356C39.21 16.894 44.559 10 44.559 10C44.559 10 44.072 22.803 50.394 30.19C50.723 30 49.99 29.534 52.234 30"></path></g></g><g id="cp_0b_g-0b_18gb1z2mk1vdb-fill-merged" stroke="none" fill="#4f3d58" fill-opacity="1"><g><path d="M32.575 43.238C31.008 48.043 23.416 48.02 21.855 43.238 H32.575"></path></g></g></g><g id="g-root-cp_0b_g-0b_18gb1z2mk1vdb-stroke" data-item-order="-182664" transform="translate(322.2109375, 374.328125)"><g id="cp_0b_g-0b_18gb1z2mk1vdb-stroke" fill="none" stroke-linecap="round" stroke-linejoin="round" stroke-miterlimit="4" stroke="#ffffff" stroke-width="2" stroke-opacity="1"><g><path d="M 25.906251 55.089381C 27.949751 55.709181 30.642951 55.909481 32.714751 55.766481C 34.786451 55.623381 38.358151 54.628481 39.83725 53.863281C 39.83725 53.863281 39.833751 60.926681 39.833751 62.817881L 29.596651 74.553181L 25.906251 67.000381L 25.906251 55.089381Z"></path></g></g><g id="cp_0b_g-0b_18gb1z2mk1vdb-stroke" fill="none" stroke-linecap="round" stroke-linejoin="round" stroke-miterlimit="4" stroke="#ffffff" stroke-width="2" stroke-opacity="1"><g><path d="M 52.241801 29.9933C 54.182701 30.4701 55.628701 32.2483 55.628701 34.3841C 55.628701 36.6889 53.940101 38.5962 51.756601 38.8644C 49.699201 48.5204 41.2657 55.802 31.240701 55.802C 21.215701 55.802 12.782301 48.5104 10.724901 38.8644C 9.769301 34.3841 10.033501 32.6523 10.033501 30.2801C 10.033501 21.8186 10.033501 22.3832 10.033501 19.2846C 10.033501 19.2846 22.676501 21.8186 30.943001 19.3564C 39.209601 16.8942 44.558501 10 44.558501 10C 44.558501 10 44.072301 22.8035 50.393801 30.1901C 50.723201 29.9999 49.989801 29.5343 52.234101 29.9999L 52.241801 29.9933Z"></path></g></g><g id="cp_0b_g-0b_18gb1z2mk1vdb-stroke" fill="none" stroke-linecap="round" stroke-linejoin="round" stroke-miterlimit="4" stroke="#ffffff" stroke-width="2" stroke-opacity="1"><g><path d="M 32.575368 43.238281C 31.007569 48.042881 23.415769 48.019881 21.855469 43.238281L 32.575368 43.238281ZM 32.347657 30.239331C 32.347657 31.327131 33.218157 32.209031 34.292057 32.209031C 35.365857 32.209031 36.236357 31.327131 36.236357 30.239331C 36.236357 29.151431 35.365857 28.269531 34.292057 28.269531C 33.218157 28.269531 32.347657 29.151431 32.347657 30.239331ZM 16.570313 30.239331C 16.570313 31.327131 17.440813 32.209031 18.514713 32.209031C 19.588513 32.209031 20.459013 31.327131 20.459013 30.239331C 20.459013 29.151431 19.588513 28.269531 18.514713 28.269531C 17.440813 28.269531 16.570313 29.151431 16.570313 30.239331ZM 33.320313 30.238806C 33.320313 30.782706 33.755613 31.223706 34.292513 31.223706C 34.829413 31.223706 35.264713 30.782706 35.264713 30.238806C 35.264713 29.694806 34.829413 29.253906 34.292513 29.253906C 33.755613 29.253906 33.320313 29.694806 33.320313 30.238806ZM 17.542969 30.238806C 17.542969 30.782706 17.978269 31.223706 18.515169 31.223706C 19.052069 31.223706 19.487369 30.782706 19.487369 30.238806C 19.487369 29.694806 19.052069 29.253906 18.515169 29.253906C 17.978269 29.253906 17.542969 29.694806 17.542969 30.238806ZM 32.557618 23.354075C 32.557618 23.354075 35.876617 22.757975 37.875818 25.281275M 19.965661 23.354369C 19.965661 23.354369 16.646661 22.758269 14.647461 25.281569"></path></g></g></g><g id="g-root-tx__1cw4k3imk1vcw-fill" data-item-order="0" transform="translate(167.71875, 38)"><g id="tx__1cw4k3imk1vcw-fill-merged" stroke="none" fill="#484848" fill-opacity="1"><g><text style="font: bold 25px Roboto, sans-serif; white-space: pre;" transform="translate(42.28125, 25)" font-weight="bold" font-size="25px" font-family="Roboto, sans-serif"><tspan x="-30.28" y="14" dominant-baseline="ideographic">타이틀</tspan></text></g></g></g><g id="g-root-tx__1cw4k3imk1vcw-stroke" data-item-order="0" transform="translate(167.71875, 38)"></g><g id="g-root-tx__zko1q6mk1wxt-fill" data-item-order="0" transform="translate(128, 372)"><g id="tx__zko1q6mk1wxt-fill-merged" stroke="none" fill="#ffffff" fill-opacity="1"><g><text style="font: bold 15px Roboto, sans-serif; white-space: pre;" transform="translate(10, 19)" font-weight="bold" font-size="15px" font-family="Roboto, sans-serif"><tspan x="2" y="9" dominant-baseline="ideographic">메시지</tspan></text></g></g></g><g id="g-root-tx__zko1q6mk1wxt-stroke" data-item-order="0" transform="translate(128, 372)"></g><g id="g-root-tx_1aiai25o_m9u0fymk1vcy-fill" data-item-order="0" transform="translate(231.6875, 424)"><g id="tx_1aiai25o_m9u0fymk1vcy-fill-merged" stroke="none" fill="#ffffff" fill-opacity="1"><g><text style="font: bold 15px Roboto, sans-serif; white-space: pre;" transform="translate(10, 19)" font-weight="bold" font-size="15px" font-family="Roboto, sans-serif"><tspan x="2" y="9" dominant-baseline="ideographic">메시지</tspan></text></g></g></g><g id="g-root-tx_1aiai25o_m9u0fymk1vcy-stroke" data-item-order="0" transform="translate(231.6875, 424)"></g></g></g></svg>