<?xml version="1.0" encoding="utf-8" standalone="yes"?>
<!DOCTYPE svg PUBLIC "-//W3C//DTD SVG 1.1//EN" "http://www.w3.org/Graphics/SVG/1.1/DTD/svg11.dtd">
<svg style="fill:none;stroke:none;fill-rule:evenodd;clip-rule:evenodd;stroke-linecap:round;stroke-linejoin:round;stroke-miterlimit:1.5;" version="1.1" xmlns="http://www.w3.org/2000/svg" xmlns:xlink="http://www.w3.org/1999/xlink" width="410" height="423" viewBox="0 0 410 423"><style class="text-font-style fontImports" data-font-family="Roboto">@import url(https://fonts.googleapis.com/css2?family=Roboto:wght@400;700&amp;amp;display=block);</style><g id="items" style="isolation: isolate"><g id="blend" style="mix-blend-mode: normal"><g id="g-root-cp_container-1_g-container-1_qunb9qqfuscj-fill" data-item-order="-138296" transform="translate(27, 278)"><g id="cp_container-1_g-container-1_qunb9qqfuscj-fill-merged" stroke="none" fill="#cd6afb" fill-opacity="1"><g><path d="M10 46C10 52.627 15.373 58 22 58 H142C148.627 58 154 52.627 154 46 V22C154 15.373 148.627 10 142 10 H22C15.373 10 10 15.373 10 22 V46"></path></g></g></g><g id="g-root-cp_container-1_g-container-1_qunb9qqfuscj-stroke" data-item-order="-138296" transform="translate(27, 278)"><g id="cp_container-1_g-container-1_qunb9qqfuscj-stroke" fill="none" stroke-linecap="round" stroke-linejoin="round" stroke-miterlimit="4" stroke="#ffffff" stroke-width="2" stroke-opacity="1"><g><path d="M 154 22C 154 15.3726 148.6274 10 142 10L 22 10C 15.3726 10 10 15.3726 10 22M 154 46C 154 52.6274 148.6274 58 142 58L 22 58C 15.3726 58 10 52.6274 10 46M 10 46L 10 22M 154 46L 154 22"></path></g></g></g><g id="g-root-cp_container-bottom_g-container-bottom_hz0b0uqfut58-fill" data-item-order="-138268" transform="translate(219, 278)"><g id="cp_container-bottom_g-container-bottom_hz0b0uqfut58-fill-merged" stroke="none" fill="#cd6afb" fill-opacity="1"><g><path d="M10 46C10 52.627 15.373 58 22 58 H142C148.627 58 154 52.627 154 46 V22C154 15.373 148.627 10 142 10 H22C15.373 10 10 15.373 10 22 V46"></path></g></g></g><g id="g-root-cp_container-bottom_g-container-bottom_hz0b0uqfut58-stroke" data-item-order="-138268" transform="translate(219, 278)"><g id="cp_container-bottom_g-container-bottom_hz0b0uqfut58-stroke" fill="none" stroke-linecap="round" stroke-linejoin="round" stroke-miterlimit="4" stroke="#ffffff" stroke-width="2" stroke-opacity="1"><g><path d="M 154 22C 154 15.3726 148.6274 10 142 10L 22 10C 15.3726 10 10 15.3726 10 22M 154 46C 154 52.6274 148.6274 58 142 58L 22 58C 15.3726 58 10 52.6274 10 46M 10 46L 10 22M 154 46L 154 22"></path></g></g></g><g id="g-root-tx_ai_dj6sweqfutxh-fill" data-item-order="0" transform="translate(162.71875, 38)"><g id="tx_ai_dj6sweqfutxh-fill-merged" stroke="none" fill="#484848" fill-opacity="1"><g><text style="font: bold 25px Roboto, sans-serif; white-space: pre;" transform="translate(42.28125, 25)" font-weight="bold" font-size="25px" font-family="Roboto, sans-serif"><tspan x="-30.28" y="14" dominant-baseline="ideographic">타이틀</tspan></text></g></g></g><g id="g-root-tx_ai_dj6sweqfutxh-stroke" data-item-order="0" transform="translate(162.71875, 38)"></g><g id="g-root-ic_chat_1ly0b7yqfutqe-fill" data-item-order="0" transform="translate(51, 104)"></g><g id="g-root-ic_chat_1ly0b7yqfutqe-stroke" data-item-order="0" transform="translate(51, 104)"><g id="ic_chat_1ly0b7yqfutqe-stroke" fill="none" stroke-linecap="round" stroke-linejoin="round" stroke-miterlimit="4" stroke="#4f3d58" stroke-width="2" stroke-opacity="1"><g><path d="M 17 41C 17 48.179703 22.820299 54 30 54C 37.179703 54 43 48.179703 43 41C 43 33.820297 37.179703 28.000002 30 28.000002C 22.820299 28.000002 17 33.820297 17 41ZM 37.599998 104L 40 92L 48 92L 48 78C 48 68.058876 39.941124 60 30 60C 20.058876 60 12 68.058876 12 78L 12 92L 20 92L 22.4 104M 104 48C 104 50.209141 102.209137 52 100 52L 78 52L 64 64L 64 52L 60 52C 57.790859 52 56 50.209141 56 48L 56 16C 56 13.790861 57.790859 12 60 12L 100 12C 102.209137 12 104 13.790861 104 16ZM 17 41C 17 48.179703 22.820299 54 30 54C 37.179703 54 43 48.179703 43 41C 43 33.820297 37.179703 28.000002 30 28.000002C 22.820299 28.000002 17 33.820297 17 41ZM 37.599998 104L 40 92L 48 92L 48 78C 48 68.058876 39.941124 60 30 60C 20.058876 60 12 68.058876 12 78L 12 92L 20 92L 22.4 104M 68 22L 76 30L 68 38M 80 36L 96 36"></path></g></g></g><g id="g-root-ic_code_9lpseqfxm33-fill" data-item-order="0" transform="translate(243, 104)"></g><g id="g-root-ic_code_9lpseqfxm33-stroke" data-item-order="0" transform="translate(243, 104)"><g id="ic_code_9lpseqfxm33-stroke" fill="none" stroke-linecap="round" stroke-linejoin="round" stroke-miterlimit="4" stroke="#4f3d58" stroke-width="2" stroke-opacity="1"><g><path d="M 60.144001 99.716003C 60.141792 102.082634 58.222637 104 55.856003 104L 17.284 104C 14.918926 103.997795 13.002205 102.081078 13 99.716003L 13 89C 13 75.981544 23.553545 65.428001 36.571999 65.428001C 49.590458 65.428001 60.144001 75.981544 60.144001 89ZM 27.572001 80C 27.572001 80.552284 28.019714 81 28.572001 81C 29.124285 81 29.572001 80.552284 29.572001 80C 29.572001 79.447716 29.124285 79 28.572001 79C 28.019714 79 27.572001 79.447716 27.572001 80M 43.571999 79.975998C 43.571999 80.528282 44.019714 80.975998 44.571999 80.975998C 45.124287 80.975998 45.571999 80.528282 45.571999 79.975998C 45.571999 79.423714 45.124287 78.975998 44.571999 78.975998C 44.019714 78.975998 43.571999 79.423714 43.571999 79.975998M 36.571999 65.428001L 36.571999 56.855999M 30.143999 50.428001C 30.144001 53.978088 33.021912 56.856003 36.571999 56.856003C 40.122086 56.856003 43 53.978088 43 50.428001C 43 46.877914 40.122086 44 36.571999 44C 33.021912 44 30.144001 46.877914 30.144001 50.428001M 13 93.260002L 60.144001 93.260002M 87 14L 103 30L 87 46M 55 14L 39 30L 55 46M 75 12L 67 48"></path></g></g></g><g id="g-root-tx__1qdttceqfxlac-fill" data-item-order="0" transform="translate(73.7578125, 233)"><g id="tx__1qdttceqfxlac-fill-merged" stroke="none" fill="#484848" fill-opacity="1"><g><text style="font: bold 20px Roboto, sans-serif; white-space: pre;" transform="translate(35.2421875, 22)" font-weight="bold" font-size="20px" font-family="Roboto, sans-serif"><tspan x="-23.24" y="12" dominant-baseline="ideographic">제목1</tspan></text></g></g></g><g id="g-root-tx__1qdttceqfxlac-stroke" data-item-order="0" transform="translate(73.7578125, 233)"></g><g id="g-root-tx__140hjv2qfz08w-fill" data-item-order="0" transform="translate(265.7578125, 233)"><g id="tx__140hjv2qfz08w-fill-merged" stroke="none" fill="#484848" fill-opacity="1"><g><text style="font: bold 20px Roboto, sans-serif; white-space: pre;" transform="translate(35.2421875, 22)" font-weight="bold" font-size="20px" font-family="Roboto, sans-serif"><tspan x="-23.24" y="12" dominant-baseline="ideographic">제목2</tspan></text></g></g></g><g id="g-root-tx__140hjv2qfz08w-stroke" data-item-order="0" transform="translate(265.7578125, 233)"></g><g id="g-root-tx_92_146qaq6qfxnnx-fill" data-item-order="0" transform="translate(78.125, 290)"><g id="tx_92_146qaq6qfxnnx-fill-merged" stroke="none" fill="#ffffff" fill-opacity="1"><g><text style="font: bold 20px Roboto, sans-serif; white-space: pre;" transform="translate(30.875, 22)" font-weight="bold" font-size="20px" font-family="Roboto, sans-serif"><tspan x="-18.88" y="12" dominant-baseline="ideographic">92%</tspan></text></g></g></g><g id="g-root-tx_92_146qaq6qfxnnx-stroke" data-item-order="0" transform="translate(78.125, 290)"></g><g id="g-root-tx_41_1lt0ij2qfz01w-fill" data-item-order="0" transform="translate(270.125, 290)"><g id="tx_41_1lt0ij2qfz01w-fill-merged" stroke="none" fill="#ffffff" fill-opacity="1"><g><text style="font: bold 20px Roboto, sans-serif; white-space: pre;" transform="translate(30.875, 22)" font-weight="bold" font-size="20px" font-family="Roboto, sans-serif"><tspan x="-18.88" y="12" dominant-baseline="ideographic">41%</tspan></text></g></g></g><g id="g-root-tx_41_1lt0ij2qfz01w-stroke" data-item-order="0" transform="translate(270.125, 290)"></g><g id="g-root-tx_ai_mg2rbiqfxmva-fill" data-item-order="0" transform="translate(80.0234375, 347)"><g id="tx_ai_mg2rbiqfxmva-fill-merged" stroke="none" fill="#484848" fill-opacity="1"><g><text style="font: bold 15px Roboto, sans-serif; white-space: pre;" transform="translate(28.9765625, 19)" font-weight="bold" font-size="15px" font-family="Roboto, sans-serif"><tspan x="-16.98" y="9" dominant-baseline="ideographic">설명1</tspan></text></g></g></g><g id="g-root-tx_ai_mg2rbiqfxmva-stroke" data-item-order="0" transform="translate(80.0234375, 347)"></g><g id="g-root-tx_ai_zlwzwuqfz2fh-fill" data-item-order="0" transform="translate(272.0234375, 347)"><g id="tx_ai_zlwzwuqfz2fh-fill-merged" stroke="none" fill="#484848" fill-opacity="1"><g><text style="font: bold 15px Roboto, sans-serif; white-space: pre;" transform="translate(28.9765625, 19)" font-weight="bold" font-size="15px" font-family="Roboto, sans-serif"><tspan x="-16.98" y="9" dominant-baseline="ideographic">설명2</tspan></text></g></g></g><g id="g-root-tx_ai_zlwzwuqfz2fh-stroke" data-item-order="0" transform="translate(272.0234375, 347)"></g></g></g></svg>