<?xml version="1.0" encoding="utf-8" standalone="yes"?>
<!DOCTYPE svg PUBLIC "-//W3C//DTD SVG 1.1//EN" "http://www.w3.org/Graphics/SVG/1.1/DTD/svg11.dtd">
<svg style="fill:none;stroke:none;fill-rule:evenodd;clip-rule:evenodd;stroke-linecap:round;stroke-linejoin:round;stroke-miterlimit:1.5;" version="1.1" xmlns="http://www.w3.org/2000/svg" xmlns:xlink="http://www.w3.org/1999/xlink" width="281" height="498" viewBox="0 0 281 498"><style class="text-font-style fontImports" data-font-family="Roboto">@import url(https://fonts.googleapis.com/css2?family=Roboto:wght@400;700&amp;amp;display=block);</style><g id="items" style="isolation: isolate"><g id="blend" style="mix-blend-mode: normal"><g id="g-root-sy_3_Vector_v4vopqmtroy2-fill" data-item-order="-21591" transform="translate(112.484375, 212)"></g><g id="g-root-sy_3_Vector_v4vopqmtroy2-stroke" data-item-order="-21591" transform="translate(112.484375, 212)"><g id="sy_3_Vector_v4vopqmtroy2-stroke" fill="none" stroke-linecap="round" stroke-linejoin="round" stroke-miterlimit="4" stroke="#484848" stroke-width="2" stroke-opacity="1"><g><path d="M 10 130L 10 106M 10 34L 10 10"></path></g></g></g><g id="g-root-sy_3_line_qponoemtrmkj-fill" data-item-order="-21587" transform="translate(112.484375, 404)"></g><g id="g-root-sy_3_line_qponoemtrmkj-stroke" data-item-order="-21587" transform="translate(112.484375, 404)"><g id="sy_3_line_qponoemtrmkj-stroke" fill="none" stroke-linecap="round" stroke-linejoin="round" stroke-miterlimit="4" stroke="#484848" stroke-width="2" stroke-opacity="1"><g><path d="M 10 44L 10 10"></path><path d="M 3.5 38L 10 44.5L 16.5 38" stroke-dasharray="none"></path></g></g></g><g id="g-root-cr_3_cr-big_qponoemtrmkk-fill" data-item-order="-21584" transform="translate(76.484375, 332)"><g id="cr_3_cr-big_qponoemtrmkk-fill-merged" stroke="none" fill="#e2a3ff" fill-opacity="1"><g><path d="M10 46C10 65.882 26.118 82 46 82C65.882 82 82 65.882 82 46C82 26.118 65.882 10 46 10C26.118 10 10 26.118 10 46"></path></g></g></g><g id="g-root-cr_3_cr-big_qponoemtrmkk-stroke" data-item-order="-21584" transform="translate(76.484375, 332)"><g id="cr_3_cr-big_qponoemtrmkk-stroke" fill="none" stroke-linecap="round" stroke-linejoin="round" stroke-miterlimit="4" stroke="#ffffff" stroke-width="2" stroke-opacity="1"><g><path d="M 10 46C 10 65.882251 26.117749 82 46 82C 65.882251 82 82 65.882251 82 46C 82 26.117749 65.882251 10 46 10C 26.117749 10 10 26.117749 10 46Z"></path></g></g></g><g id="g-root-cr_2_cr-big_hu1nfimtrnd9-fill" data-item-order="-21580" transform="translate(76.484375, 236)"><g id="cr_2_cr-big_hu1nfimtrnd9-fill-merged" stroke="none" fill="#c765f4" fill-opacity="1"><g><path d="M10 46C10 65.882 26.118 82 46 82C65.882 82 82 65.882 82 46C82 26.118 65.882 10 46 10C26.118 10 10 26.118 10 46"></path></g></g></g><g id="g-root-cr_2_cr-big_hu1nfimtrnd9-stroke" data-item-order="-21580" transform="translate(76.484375, 236)"><g id="cr_2_cr-big_hu1nfimtrnd9-stroke" fill="none" stroke-linecap="round" stroke-linejoin="round" stroke-miterlimit="4" stroke="#ffffff" stroke-width="2" stroke-opacity="1"><g><path d="M 10 46C 10 65.882251 26.117749 82 46 82C 65.882251 82 82 65.882251 82 46C 82 26.117749 65.882251 10 46 10C 26.117749 10 10 26.117749 10 46Z"></path></g></g></g><g id="g-root-cr_1_cr-big_hu1nfimtrnda-fill" data-item-order="-21576" transform="translate(76.484375, 140)"><g id="cr_1_cr-big_hu1nfimtrnda-fill-merged" stroke="none" fill="#ab57d3" fill-opacity="1"><g><path d="M10 46C10 65.882 26.118 82 46 82C65.882 82 82 65.882 82 46C82 26.118 65.882 10 46 10C26.118 10 10 26.118 10 46"></path></g></g></g><g id="g-root-cr_1_cr-big_hu1nfimtrnda-stroke" data-item-order="-21576" transform="translate(76.484375, 140)"><g id="cr_1_cr-big_hu1nfimtrnda-stroke" fill="none" stroke-linecap="round" stroke-linejoin="round" stroke-miterlimit="4" stroke="#ffffff" stroke-width="2" stroke-opacity="1"><g><path d="M 10 46C 10 65.882251 26.117749 82 46 82C 65.882251 82 82 65.882251 82 46C 82 26.117749 65.882251 10 46 10C 26.117749 10 10 26.117749 10 46Z"></path></g></g></g><g id="g-root-tx_ai_de85b2mtro5j-fill" data-item-order="0" transform="translate(182.203125, 38)"><g id="tx_ai_de85b2mtro5j-fill-merged" stroke="none" fill="#484848" fill-opacity="1"><g><text style="font: bold 25px Roboto, sans-serif; white-space: pre;" transform="translate(42.28125, 25)" font-weight="bold" font-size="25px" font-family="Roboto, sans-serif"><tspan x="-30.28" y="14" dominant-baseline="ideographic">타이틀</tspan></text></g></g></g><g id="g-root-tx_ai_de85b2mtro5j-stroke" data-item-order="0" transform="translate(182.203125, 38)"></g><g id="g-root-ic_code_4il526mtughs-fill" data-item-order="0" transform="translate(88.484375, 152)"></g><g id="g-root-ic_code_4il526mtughs-stroke" data-item-order="0" transform="translate(88.484375, 152)"><g id="ic_code_4il526mtughs-stroke" fill="none" stroke-linecap="round" stroke-linejoin="round" stroke-miterlimit="4" stroke="#ffffff" stroke-width="2" stroke-opacity="1"><g><path d="M 35.071999 54.858002C 35.070896 56.041317 34.11132 57 32.928001 57L 13.642 57C 12.459463 56.998898 11.501102 56.040539 11.5 54.858002L 11.5 49.5C 11.5 42.990772 16.776772 37.714001 23.285999 37.714001C 29.795229 37.714001 35.071999 42.990772 35.071999 49.5ZM 18.785999 45C 18.785999 45.276142 19.009857 45.5 19.285999 45.5C 19.562141 45.5 19.785999 45.276142 19.785999 45C 19.785999 44.723858 19.562141 44.5 19.285999 44.5C 19.009857 44.5 18.785999 44.723858 18.785999 45M 26.785999 44.987999C 26.785999 45.264141 27.009857 45.487999 27.285999 45.487999C 27.562143 45.487999 27.785999 45.264141 27.785999 44.987999C 27.785999 44.711857 27.562143 44.487999 27.285999 44.487999C 27.009857 44.487999 26.785999 44.711857 26.785999 44.987999M 23.285999 37.714001L 23.285999 33.428001M 20.071999 30.214001C 20.072001 31.989044 21.510956 33.428001 23.285999 33.428001C 25.061043 33.428001 26.5 31.989044 26.5 30.214001C 26.5 28.438957 25.061043 27 23.285999 27C 21.510956 27 20.072001 28.438957 20.072001 30.214001M 11.5 51.630001L 35.071999 51.630001M 48.5 12L 56.5 20L 48.5 28M 32.5 12L 24.5 20L 32.5 28M 42.5 11L 38.5 29"></path></g></g></g><g id="g-root-tx_20232_zntk9qmtrpcd-fill" data-item-order="0" transform="translate(14, 164)"><g id="tx_20232_zntk9qmtrpcd-fill-merged" stroke="none" fill="#484848" fill-opacity="1"><g><text style="font: bold 20px Roboto, sans-serif; white-space: pre;" transform="translate(60.484375, 22)" font-weight="bold" font-size="20px" font-family="Roboto, sans-serif"><tspan x="-48.48" y="12" dominant-baseline="ideographic">제목1</tspan></text></g></g></g><g id="g-root-tx_20232_zntk9qmtrpcd-stroke" data-item-order="0" transform="translate(14, 164)"></g><g id="g-root-tx_karpathy_v6r3z2mtrnyi-fill" data-item-order="0" transform="translate(172.484375, 164)"><g id="tx_karpathy_v6r3z2mtrnyi-fill-merged" stroke="none" fill="#484848" fill-opacity="1"><g><text style="font: 20px Roboto, sans-serif; white-space: pre;" transform="translate(10, 22)" font-size="20px" font-family="Roboto, sans-serif"><tspan x="2" y="12" dominant-baseline="ideographic">설명1</tspan></text></g></g></g><g id="g-root-tx_karpathy_v6r3z2mtrnyi-stroke" data-item-order="0" transform="translate(172.484375, 164)"></g><g id="g-root-ic_1_4kgkbimtt1cf-fill" data-item-order="0" transform="translate(88.484375, 248)"></g><g id="g-root-ic_1_4kgkbimtt1cf-stroke" data-item-order="0" transform="translate(88.484375, 248)"><g id="ic_1_4kgkbimtt1cf-stroke" fill="none" stroke-linecap="round" stroke-linejoin="round" stroke-miterlimit="4" stroke="#ffffff" stroke-width="2" stroke-opacity="1"><g><path d="M 33 45L 39 45C 43.418278 45 47 48.581722 47 53L 11 53M 11 37L 25 37C 29.418278 37 33 40.581722 33 45L 24 45M 11 35L 11 55M 48 14L 56 22L 48 30M 32 14L 24 22L 32 30M 42 13L 38 31"></path></g></g></g><g id="g-root-tx_20242_1qa43xamtrpcc-fill" data-item-order="0" transform="translate(14, 260)"><g id="tx_20242_1qa43xamtrpcc-fill-merged" stroke="none" fill="#484848" fill-opacity="1"><g><text style="font: bold 20px Roboto, sans-serif; white-space: pre;" transform="translate(60.484375, 22)" font-weight="bold" font-size="20px" font-family="Roboto, sans-serif"><tspan x="-48.48" y="12" dominant-baseline="ideographic">제목2</tspan></text></g></g></g><g id="g-root-tx_20242_1qa43xamtrpcc-stroke" data-item-order="0" transform="translate(14, 260)"></g><g id="g-root-tx_karpathy_18hl59amtrpjd-fill" data-item-order="0" transform="translate(172.484375, 260)"><g id="tx_karpathy_18hl59amtrpjd-fill-merged" stroke="none" fill="#484848" fill-opacity="1"><g><text style="font: 20px Roboto, sans-serif; white-space: pre;" transform="translate(10, 22)" font-size="20px" font-family="Roboto, sans-serif"><tspan x="2" y="12" dominant-baseline="ideographic">설명2</tspan></text></g></g></g><g id="g-root-tx_karpathy_18hl59amtrpjd-stroke" data-item-order="0" transform="translate(172.484375, 260)"></g><g id="g-root-ic_play_hx60v2mtrojq-fill" data-item-order="0" transform="translate(88.484375, 344)"></g><g id="g-root-ic_play_hx60v2mtrojq-stroke" data-item-order="0" transform="translate(88.484375, 344)"><g id="ic_play_hx60v2mtrojq-stroke" fill="none" stroke-linecap="round" stroke-linejoin="round" stroke-miterlimit="4" stroke="#ffffff" stroke-width="2" stroke-opacity="1"><g><path d="M 23.442001 11.8C 21.024616 11.447727 18.635014 12.596254 17.4 14.704C 13.953409 20.555119 12.105653 27.209528 12.042 34C 12.105653 40.790474 13.953409 47.444881 17.4 53.296001C 18.635014 55.403748 21.024616 56.552273 23.442001 56.200001C 35.795731 53.956192 46.92786 47.337551 54.800003 37.556C 56.358383 35.43996 56.358383 32.556038 54.800003 30.440001C 46.926605 20.660629 35.794834 14.043621 23.441999 11.8ZM 30.4 43.473999L 30.4 22.526001L 34.285999 23.821999C 36.383003 24.518013 37.798782 26.478508 37.800003 28.688M 24.692001 34.514L 20.984001 36.672001C 20.249519 37.10025 19.805708 37.893738 19.825253 38.743725C 19.844797 39.593712 20.324612 40.365963 21.077999 40.760002C 22.274677 41.384972 23.638845 41.613968 24.973999 41.414001M 35.563999 42.883999L 41.115997 40.174C 41.972038 39.756966 42.513393 38.886292 42.508705 37.934082C 42.504013 36.981873 41.954109 36.116581 41.094002 35.708C 40.255142 35.308327 39.278839 35.317924 38.447998 35.734001L 35.718002 37.098"></path></g></g></g><g id="g-root-tx_2026331_dg3kkemtrn5v-fill" data-item-order="0" transform="translate(14, 356)"><g id="tx_2026331_dg3kkemtrn5v-fill-merged" stroke="none" fill="#484848" fill-opacity="1"><g><text style="font: bold 20px Roboto, sans-serif; white-space: pre;" transform="translate(60.484375, 22)" font-weight="bold" font-size="20px" font-family="Roboto, sans-serif"><tspan x="-48.48" y="12" dominant-baseline="ideographic">제목3</tspan></text></g></g></g><g id="g-root-tx_2026331_dg3kkemtrn5v-stroke" data-item-order="0" transform="translate(14, 356)"></g><g id="g-root-tx_ai_1uoonvimtrn5s-fill" data-item-order="0" transform="translate(172.484375, 356)"><g id="tx_ai_1uoonvimtrn5s-fill-merged" stroke="none" fill="#484848" fill-opacity="1"><g><text style="font: 20px Roboto, sans-serif; white-space: pre;" transform="translate(10, 22)" font-size="20px" font-family="Roboto, sans-serif"><tspan x="2" y="12" dominant-baseline="ideographic">설명3</tspan></text></g></g></g><g id="g-root-tx_ai_1uoonvimtrn5s-stroke" data-item-order="0" transform="translate(172.484375, 356)"></g></g></g></svg>