<?xml version="1.0" encoding="utf-8" standalone="yes"?>
<!DOCTYPE svg PUBLIC "-//W3C//DTD SVG 1.1//EN" "http://www.w3.org/Graphics/SVG/1.1/DTD/svg11.dtd">
<svg style="fill:none;stroke:none;fill-rule:evenodd;clip-rule:evenodd;stroke-linecap:round;stroke-linejoin:round;stroke-miterlimit:1.5;" version="1.1" xmlns="http://www.w3.org/2000/svg" xmlns:xlink="http://www.w3.org/1999/xlink" width="671" height="569" viewBox="0 0 671 569"><style class="text-font-style fontImports" data-font-family="Roboto">@import url(https://fonts.googleapis.com/css2?family=Roboto:wght@400;700&amp;amp;display=block);</style><g id="items" style="isolation: isolate"><g id="blend" style="mix-blend-mode: normal"><g id="g-root-cp_1_g-1_1hgyzyfu1tpu0-fill" data-item-order="-315218" transform="translate(283.74224853515625, 160)"><g id="cp_1_g-1_1hgyzyfu1tpu0-fill-merged" stroke="none" fill="#9c4fc1" fill-opacity="1"><g><path d="M86.835 58.499C82.593 75.447 67.263 88 49 88C30.737 88 15.406 75.447 11.165 58.499L49.039 166L86.835 58.499 M88 49C88 27.461 70.539 10 49 10C27.461 10 10 27.461 10 49C10 52.276 10.404 55.458 11.165 58.499C15.406 75.447 30.737 88 49 88C67.263 88 82.593 75.447 86.835 58.499C87.596 55.459 88 52.277 88 49"></path></g></g></g><g id="g-root-cp_1_g-1_1hgyzyfu1tpu0-stroke" data-item-order="-315218" transform="translate(283.74224853515625, 160)"><g id="cp_1_g-1_1hgyzyfu1tpu0-stroke" fill="none" stroke-linecap="round" stroke-linejoin="round" stroke-miterlimit="4" stroke="#ffffff" stroke-width="2" stroke-opacity="1"><g><path d="M 86.8349 58.4994C 82.5933 75.4474 67.2626 88 49 88C 30.7373 88 15.4064 75.4471 11.1649 58.4989L 49.0391 166L 86.8349 58.4994ZM 88 49C 88 27.4609 70.5391 10 49 10C 27.4609 10 10.000001 27.4609 10 49C 10 52.2764 10.404 55.4584 11.1649 58.4989C 15.4064 75.4471 30.7373 88 49 88C 67.2626 88 82.5933 75.4474 86.8349 58.4994C 87.5959 55.4587 88 52.2765 88 49Z"></path></g></g></g><g id="g-root-cp_2_g-2_1d15htzu1tqm9-fill" data-item-order="-315214" transform="translate(322.750244140625, 240.83599853515625)"><g id="cp_2_g-2_1d15htzu1tqm9-fill-merged" stroke="none" fill="#b159da" fill-opacity="1"><g><path d="M123.919 87.929C106.49 89.132 89.814 78.431 84.17 61.062C78.527 43.693 85.728 25.234 100.536 15.963L10 85.203L123.919 87.929 M133.313 86.102C153.798 79.446 165.009 57.444 158.353 36.959C151.697 16.474 129.695 5.263 109.21 11.919C106.094 12.932 103.192 14.299 100.536 15.963C85.728 25.234 78.527 43.693 84.17 61.062C89.814 78.431 106.49 89.132 123.919 87.929C127.046 87.713 130.197 87.114 133.313 86.102"></path></g></g></g><g id="g-root-cp_2_g-2_1d15htzu1tqm9-stroke" data-item-order="-315214" transform="translate(322.750244140625, 240.83599853515625)"><g id="cp_2_g-2_1d15htzu1tqm9-stroke" fill="none" stroke-linecap="round" stroke-linejoin="round" stroke-miterlimit="4" stroke="#ffffff" stroke-width="2" stroke-opacity="1"><g><path d="M 123.9187 87.9292C 106.4895 89.1324 89.8138 78.4309 84.1703 61.0622C 78.5268 43.6933 85.7278 25.2337 100.5359 15.9626L 10 85.2027L 123.9187 87.9292ZM 133.3132 86.1017C 153.7981 79.4458 165.0087 57.4438 158.3528 36.9589C 151.6968 16.474 129.6948 5.2634 109.2099 11.9193C 106.0939 12.9318 103.1925 14.2993 100.5359 15.9626C 85.7278 25.2337 78.5268 43.6933 84.1703 61.0622C 89.8138 78.4309 106.4895 89.1324 123.9187 87.9292C 127.0458 87.7133 130.197 87.1143 133.3132 86.1017Z"></path></g></g></g><g id="g-root-cp_3_g-3_1d15htzu1tqma-fill" data-item-order="-315210" transform="translate(322.76922607421875, 315.97698974609375)"><g id="cp_3_g-3_1d15htzu1tqma-fill-merged" stroke="none" fill="#c261ee" fill-opacity="1"><g><path d="M103.765 74.754C90.371 63.536 70.59 62.392 55.816 73.126C41.041 83.861 36.016 103.028 42.547 119.232L10 10L103.765 74.754 M110.291 81.754C122.951 99.18 119.088 123.569 101.663 136.23C84.237 148.89 59.848 145.027 47.188 127.602C45.262 124.951 43.718 122.139 42.547 119.232C36.016 103.028 41.041 83.861 55.816 73.126C70.59 62.392 90.371 63.536 103.765 74.754C106.168 76.767 108.365 79.104 110.291 81.754"></path></g></g></g><g id="g-root-cp_3_g-3_1d15htzu1tqma-stroke" data-item-order="-315210" transform="translate(322.76922607421875, 315.97698974609375)"><g id="cp_3_g-3_1d15htzu1tqma-stroke" fill="none" stroke-linecap="round" stroke-linejoin="round" stroke-miterlimit="4" stroke="#ffffff" stroke-width="2" stroke-opacity="1"><g><path d="M 103.7648 74.754C 90.3715 63.5359 70.5904 62.3918 55.8157 73.1263C 41.0408 83.8609 36.0162 103.0276 42.5467 119.2321L 10 10L 103.7648 74.754ZM 110.2909 81.7543C 122.9513 99.1798 119.0884 123.5692 101.6629 136.2296C 84.2374 148.89 59.848 145.0271 47.1876 127.6016C 45.2618 124.9509 43.7183 122.1392 42.5467 119.2321C 36.0162 103.0276 41.0408 83.8609 55.8157 73.1263C 70.5904 62.3918 90.3715 63.5359 103.7648 74.754C 106.1677 76.7666 108.365 79.1035 110.2909 81.7543Z"></path></g></g></g><g id="g-root-cp_4_g-4_1d15htzu1tqmb-fill" data-item-order="-315206" transform="translate(214.96920776367188, 315.97698974609375)"><g id="cp_4_g-4_1d15htzu1tqmb-fill-merged" stroke="none" fill="#d272ff" fill-opacity="1"><g><path d="M23.977 74.754C37.371 63.536 57.152 62.392 71.926 73.126C86.701 83.861 91.726 103.028 85.195 119.232L117.742 10L23.977 74.754 M17.451 81.754C4.791 99.18 8.654 123.569 26.079 136.23C43.505 148.89 67.894 145.027 80.554 127.602C82.48 124.951 84.024 122.139 85.195 119.232C91.726 103.028 86.701 83.861 71.926 73.126C57.152 62.392 37.371 63.536 23.977 74.754C21.574 76.767 19.377 79.104 17.451 81.754"></path></g></g></g><g id="g-root-cp_4_g-4_1d15htzu1tqmb-stroke" data-item-order="-315206" transform="translate(214.96920776367188, 315.97698974609375)"><g id="cp_4_g-4_1d15htzu1tqmb-stroke" fill="none" stroke-linecap="round" stroke-linejoin="round" stroke-miterlimit="4" stroke="#ffffff" stroke-width="2" stroke-opacity="1"><g><path d="M 23.977331 74.754C 37.370631 63.5359 57.151731 62.3918 71.926431 73.1263C 86.701331 83.8609 91.725831 103.0276 85.195331 119.2321L 117.742031 10L 23.977331 74.754ZM 17.451131 81.7543C 4.790731 99.1798 8.653631 123.5692 26.079131 136.2296C 43.504631 148.89 67.894131 145.0271 80.554431 127.6016C 82.480231 124.9509 84.023731 122.1392 85.195331 119.2321C 91.725831 103.0276 86.701331 83.8609 71.926431 73.1263C 57.151731 62.3918 37.370631 63.5359 23.977331 74.754C 21.574331 76.7666 19.377031 79.1035 17.451131 81.7543Z"></path></g></g></g><g id="g-root-cp_5_g-5_145ihl3u1trf0-fill" data-item-order="-315202" transform="translate(172.45724487304688, 240.83599853515625)"><g id="cp_5_g-5_145ihl3u1trf0-fill-merged" stroke="none" fill="#e2a3ff" fill-opacity="1"><g><path d="M69.737 15.963C84.544 25.234 91.745 43.694 86.102 61.062C80.458 78.431 63.782 89.133 46.353 87.929L160.296 85.128L69.737 15.963 M61.062 11.919C40.577 5.263 18.575 16.474 11.919 36.959C5.263 57.444 16.474 79.446 36.959 86.102C40.075 87.114 43.226 87.713 46.353 87.929C63.782 89.133 80.458 78.431 86.102 61.062C91.745 43.694 84.544 25.234 69.737 15.963C67.08 14.3 64.178 12.932 61.062 11.919"></path></g></g></g><g id="g-root-cp_5_g-5_145ihl3u1trf0-stroke" data-item-order="-315202" transform="translate(172.45724487304688, 240.83599853515625)"><g id="cp_5_g-5_145ihl3u1trf0-stroke" fill="none" stroke-linecap="round" stroke-linejoin="round" stroke-miterlimit="4" stroke="#ffffff" stroke-width="2" stroke-opacity="1"><g><path d="M 69.7366 15.9628C 84.5444 25.2341 91.7452 43.6935 86.1017 61.0622C 80.4582 78.4311 63.7823 89.1326 46.3528 87.9291L 160.2962 85.1284L 69.7366 15.9628ZM 61.0622 11.9193C 40.5773 5.2634 18.5753 16.474 11.9193 36.9589C 5.2634 57.4438 16.474 79.4458 36.9589 86.1017C 40.0749 87.1142 43.226 87.7133 46.3528 87.9291C 63.7823 89.1326 80.4582 78.4311 86.1017 61.0622C 91.7452 43.6935 84.5444 25.2341 69.7366 15.9628C 67.0799 14.2995 64.1784 12.9318 61.0622 11.9193Z"></path></g></g></g><g id="g-root-tx__zpozgnu1ts79-fill" data-item-order="0" transform="translate(293.5546875, 38)"><g id="tx__zpozgnu1ts79-fill-merged" stroke="none" fill="#484848" fill-opacity="1"><g><text style="font: bold 20px Roboto, sans-serif; white-space: pre;" transform="translate(36.2265625, 22)" font-weight="bold" font-size="20px" font-family="Roboto, sans-serif"><tspan x="-24.23" y="12" dominant-baseline="ideographic">타이틀</tspan></text></g></g></g><g id="g-root-tx__zpozgnu1ts79-stroke" data-item-order="0" transform="translate(293.5546875, 38)"></g><g id="g-root-tx__8dwnbu1tpu6-fill" data-item-order="0" transform="translate(299.8125, 86)"><g id="tx__8dwnbu1tpu6-fill-merged" stroke="none" fill="#484848" fill-opacity="1"><g><text style="font: bold 12px Roboto, sans-serif; white-space: pre;" transform="translate(32.96875, 17)" font-weight="bold" font-size="12px" font-family="Roboto, sans-serif"><tspan x="-20.97" y="7" dominant-baseline="ideographic">사건 개요</tspan></text></g></g></g><g id="g-root-tx__8dwnbu1tpu6-stroke" data-item-order="0" transform="translate(299.8125, 86)"></g><g id="g-root-tx__147dwufu1tqfb-fill" data-item-order="0" transform="translate(251.7421875, 100)"><g id="tx__147dwufu1tqfb-fill-merged" stroke="none" fill="#484848" fill-opacity="1"><g><text style="font: 10.5px Roboto, sans-serif; white-space: pre;" transform="translate(81.0390625, 28)" font-size="10.5px" font-family="Roboto, sans-serif"><tspan x="-69.04" y="-6" dominant-baseline="ideographic">엔트로픽의 클로드 코드 소스코드가 </tspan><tspan x="-65.77" y="6" dominant-baseline="ideographic">통째로 유출되었습니다. 이것은 두 </tspan><tspan x="-33.24" y="18" dominant-baseline="ideographic">번째 유출입니다.</tspan></text></g></g></g><g id="g-root-tx__147dwufu1tqfb-stroke" data-item-order="0" transform="translate(251.7421875, 100)"></g><g id="g-root-ic_brow_90a2dju1v56w-fill" data-item-order="0" transform="translate(304.78125, 180)"></g><g id="g-root-ic_brow_90a2dju1v56w-stroke" data-item-order="0" transform="translate(304.78125, 180)"><g id="ic_brow_90a2dju1v56w-stroke" fill="none" stroke-linecap="round" stroke-linejoin="round" stroke-miterlimit="4" stroke="#ffffff" stroke-width="2" stroke-opacity="1"><g><path d="M 40.188999 25.2085L 45.25 30.25M 25.75 19.75C 25.75 24.306349 29.443653 28 34 28C 38.556351 28 42.25 24.306349 42.25 19.75C 42.25 15.193651 38.556351 11.5 34 11.5C 29.443653 11.5 25.75 15.193651 25.75 19.75ZM 10.75 26.498499L 25 26.498499M 40.75 29.5L 40.75 41.5C 40.75 43.156857 39.406857 44.5 37.75 44.5L 13.75 44.5C 12.093145 44.5 10.75 43.156857 10.75 41.5L 10.75 23.5C 10.75 21.843145 12.093145 20.5 13.75 20.5L 22.75 20.5M 30.25 32.5L 33.25 35.5L 30.25 38.5M 21.25 32.5L 18.25 35.5L 21.25 38.5M 27.25 32.5L 24.25 38.5"></path></g></g></g><g id="g-root-tx__1q8v5onu1v56u-fill" data-item-order="0" transform="translate(92.84375, 261)"><g id="tx__1q8v5onu1v56u-fill-merged" stroke="none" fill="#484848" fill-opacity="1"><g><text style="font: bold 12px Roboto, sans-serif; white-space: pre;" transform="translate(65.9375, 17)" font-weight="bold" font-size="12px" font-family="Roboto, sans-serif"><tspan x="-53.94" y="7" dominant-baseline="ideographic">개발자 교훈</tspan></text></g></g></g><g id="g-root-tx__1q8v5onu1v56u-stroke" data-item-order="0" transform="translate(92.84375, 261)"></g><g id="g-root-ic_huma_qofslju1h3po-fill" data-item-order="0" transform="translate(193.78125, 262)"></g><g id="g-root-ic_huma_qofslju1h3po-stroke" data-item-order="0" transform="translate(193.78125, 262)"><g id="ic_huma_qofslju1h3po-stroke" fill="none" stroke-linecap="round" stroke-linejoin="round" stroke-miterlimit="4" stroke="#ffffff" stroke-width="2" stroke-opacity="1"><g><path d="M 29.380001 10.75C 35.707993 10.74254 41.321457 14.809715 43.285614 20.825165C 45.249771 26.840614 43.118076 33.436729 38.005001 37.164997L 38.005001 45.25L 23.005001 45.25L 23.005001 40.75L 21.325001 40.75C 18.83972 40.75 16.825001 38.735283 16.825001 36.25L 16.825001 31.75L 11.755 31.75C 15.04 21.880001 16.93 10.75 29.380001 10.75ZM 27.880001 23.695C 27.880001 24.730534 28.719465 25.57 29.755001 25.57C 30.790535 25.57 31.630001 24.730534 31.630001 23.695C 31.630001 22.659466 30.790535 21.82 29.755001 21.82C 28.719465 21.82 27.880001 22.659466 27.880001 23.695M 31.344999 16.434999L 31.900002 18.25C 32.082363 18.897003 32.750366 19.277767 33.400002 19.105L 35.244999 18.67C 35.958595 18.518835 36.688202 18.845417 37.050835 19.478319C 37.413467 20.111219 37.326267 20.905811 36.834999 21.445L 35.5 22.84C 35.048569 23.314829 35.048569 24.060173 35.5 24.535L 36.775002 25.93C 37.266266 26.469189 37.35347 27.263781 36.990837 27.896681C 36.628201 28.529583 35.898594 28.856163 35.184998 28.705L 33.34 28.27C 32.690369 28.097233 32.022362 28.477997 31.84 29.125L 31.344999 31C 31.136768 31.708862 30.486313 32.195724 29.747499 32.195724C 29.008686 32.195724 28.358232 31.708862 28.150002 31L 27.610001 29.184999C 27.420925 28.54328 26.758507 28.165703 26.110001 28.33L 24.264999 28.764999C 23.551405 28.916164 22.8218 28.589582 22.459164 27.95668C 22.096529 27.32378 22.183733 26.529188 22.674999 25.99L 23.965 24.594999C 24.401817 24.114429 24.401817 23.380569 23.965 22.9L 22.674999 21.505001C 22.111622 20.972492 21.985756 20.123644 22.370371 19.450569C 22.754984 18.777494 23.550201 18.454979 24.295 18.67L 26.139999 19.105C 26.788507 19.269299 27.450924 18.891722 27.639999 18.25L 28.18 16.434999C 28.40387 15.75056 29.042377 15.287609 29.762501 15.287609C 30.482622 15.287609 31.121132 15.75056 31.345001 16.434999Z"></path></g></g></g><g id="g-root-ic_2_91j3pju1bhtz-fill" data-item-order="0" transform="translate(415.78125, 262)"></g><g id="g-root-ic_2_91j3pju1bhtz-stroke" data-item-order="0" transform="translate(415.78125, 262)"><g id="ic_2_91j3pju1bhtz-stroke" fill="none" stroke-linecap="round" stroke-linejoin="round" stroke-miterlimit="4" stroke="#ffffff" stroke-width="2" stroke-opacity="1"><g><path d="M 31.834301 15.518245C 25.899399 15.518245 24.415751 20.463985 24.415751 22.93684C 24.415751 27.882549 26.55895 31.014851 31.834301 30.35545C 38.4286 29.5312 42.550148 26.234049 42.550148 22.93684C 42.550148 19.63969 39.253002 15.518245 31.834301 15.518245ZM 10 10M 40.984299 26.42395L 33.785648 34.060898L 33.785648 39.683052C 33.785648 41.24485 32.848598 44.368301 29.100399 44.368301C 25.35235 44.368301 24.415316 41.24485 24.415316 39.683052L 24.415316 23.821899M 10 10M 36.433601 37.342148L 34.591148 37.473251M 31.798 25.423C 31.798183 24.538939 31.08156 23.82217 30.1975 23.82217C 29.31344 23.82217 28.596817 24.538939 28.597 25.423C 28.596817 26.30706 29.31344 27.02383 30.1975 27.02383C 31.08156 27.02383 31.798183 26.30706 31.798 25.423M 37.502499 20.9995C 37.502682 20.115438 36.78606 19.39867 35.902 19.39867C 35.017941 19.39867 34.301315 20.115438 34.301498 20.9995C 34.301315 21.88356 35.017941 22.60033 35.902 22.60033C 36.78606 22.60033 37.502682 21.88356 37.502502 20.9995M 10 10M 24.415316 11.566465L 21.282341 11.566465L 21.282341 14.69944L 18.149364 14.69944L 18.149364 17.83243L 15.01639 17.83243L 15.01639 20.965405"></path></g></g></g><g id="g-root-tx__959v2fu1tr7k-fill" data-item-order="0" transform="translate(496.78125, 261)"><g id="tx__959v2fu1tr7k-fill-merged" stroke="none" fill="#484848" fill-opacity="1"><g><text style="font: bold 12px Roboto, sans-serif; white-space: pre;" transform="translate(10, 17)" font-weight="bold" font-size="12px" font-family="Roboto, sans-serif"><tspan x="2" y="7" dominant-baseline="ideographic">반복된 실수</tspan></text></g></g></g><g id="g-root-tx__959v2fu1tr7k-stroke" data-item-order="0" transform="translate(496.78125, 261)"></g><g id="g-root-tx__142e45ju1v4en-fill" data-item-order="0" transform="translate(14, 275)"><g id="tx__142e45ju1v4en-fill-merged" stroke="none" fill="#484848" fill-opacity="1"><g><text style="font: 10.5px Roboto, sans-serif; white-space: pre;" transform="translate(144.78125, 22)" font-size="10.5px" font-family="Roboto, sans-serif"><tspan x="-132.78" y="0" dominant-baseline="ideographic">이 사건이 개발자에게 주는 교훈을 </tspan><tspan x="-47.73" y="12" dominant-baseline="ideographic">살펴봅니다.</tspan></text></g></g></g><g id="g-root-tx__142e45ju1v4en-stroke" data-item-order="0" transform="translate(14, 275)"></g><g id="g-root-tx_1_18egrrbu1v6dl-fill" data-item-order="0" transform="translate(496.78125, 275)"><g id="tx_1_18egrrbu1v6dl-fill-merged" stroke="none" fill="#484848" fill-opacity="1"><g><text style="font: 10.5px Roboto, sans-serif; white-space: pre;" transform="translate(10, 22)" font-size="10.5px" font-family="Roboto, sans-serif"><tspan x="2" y="0" dominant-baseline="ideographic">1년 만에 같은 실수가 반복되었습니</tspan><tspan x="2" y="12" dominant-baseline="ideographic">다.</tspan></text></g></g></g><g id="g-root-tx_1_18egrrbu1v6dl-stroke" data-item-order="0" transform="translate(496.78125, 275)"></g><g id="g-root-ic_shie_4myjrbu1ebk8-fill" data-item-order="0" transform="translate(235.78125, 394.00006103515625)"></g><g id="g-root-ic_shie_4myjrbu1ebk8-stroke" data-item-order="0" transform="translate(235.78125, 394.00006103515625)"><g id="ic_shie_4myjrbu1ebk8-stroke" fill="none" stroke-linecap="round" stroke-linejoin="round" stroke-miterlimit="4" stroke="#ffffff" stroke-width="2" stroke-opacity="1"><g><path d="M 13.75 12.25C 13.75 11.421573 14.421573 10.75 15.25 10.75L 40.75 10.75C 41.578426 10.75 42.25 11.421573 42.25 12.25L 42.25 21.646C 42.249908 31.549215 36.763351 40.63726 28 45.25C 19.235691 40.638275 13.748749 31.549587 13.75 21.646ZM 22 18.997L 34 30.997M 34 18.997L 22 30.997"></path></g></g></g><g id="g-root-ic_code_1hjgzgnu1cw79-fill" data-item-order="0" transform="translate(373.78125, 394.00006103515625)"></g><g id="g-root-ic_code_1hjgzgnu1cw79-stroke" data-item-order="0" transform="translate(373.78125, 394.00006103515625)"><g id="ic_code_1hjgzgnu1cw79-stroke" fill="none" stroke-linecap="round" stroke-linejoin="round" stroke-miterlimit="4" stroke="#ffffff" stroke-width="2" stroke-opacity="1"><g><path d="M 10 10M 20.649864 18.699986L 16.899864 22.599985L 20.649864 26.650002M 10 10M 32.499851 18.699986L 36.249851 22.599985L 32.499851 26.650002M 24.549925 27.849998L 28.599998 17.349985M 37.375 34.675003C 37.375 34.675003 36.625 32.575001 30.924999 32.275002C 30.325001 32.275002 29.875 32.575001 29.875 33.025002L 29.875 41.724998C 29.875 42.175003 30.325001 42.474998 30.775002 42.474998C 36.625 42.625 37.375 44.875 37.375 44.875L 37.375 34.675003ZM 37.375 34.675003C 37.375 34.675003 38.125 32.575001 43.824997 32.275002C 44.425003 32.275002 44.875 32.575001 44.875 33.025002L 44.875 41.724998C 44.875 42.175003 44.425003 42.474998 43.974998 42.474998C 38.125 42.625 37.375 44.875 37.375 44.875M 42.025002 28.224998L 42.025002 13.225C 42.025002 12.025 41.125 11.125 39.925003 11.125L 13.22497 11.125C 12.02497 11.125 11.124977 12.025 11.124977 13.225L 11.124977 33.775002C 11.124977 34.974998 12.02497 35.875 13.22497 35.875L 24.924925 35.875M 10 10M 22.974939 35.875L 21.924955 41.875M 24.549925 41.875L 20.424969 41.875"></path></g></g></g><g id="g-root-tx__18gc70nu1v5dw-fill" data-item-order="0" transform="translate(197.5, 472.00006103515625)"><g id="tx__18gc70nu1v5dw-fill-merged" stroke="none" fill="#484848" fill-opacity="1"><g><text style="font: bold 12px Roboto, sans-serif; white-space: pre;" transform="translate(78.28125, 17)" font-weight="bold" font-size="12px" font-family="Roboto, sans-serif"><tspan x="-66.28" y="7" dominant-baseline="ideographic">보안 수난 주간</tspan></text></g></g></g><g id="g-root-tx__18gc70nu1v5dw-stroke" data-item-order="0" transform="translate(197.5, 472.00006103515625)"></g><g id="g-root-tx__hs683ru1v6dm-fill" data-item-order="0" transform="translate(379.78125, 472.00006103515625)"><g id="tx__hs683ru1v6dm-fill-merged" stroke="none" fill="#484848" fill-opacity="1"><g><text style="font: bold 12px Roboto, sans-serif; white-space: pre;" transform="translate(10, 17)" font-weight="bold" font-size="12px" font-family="Roboto, sans-serif"><tspan x="2" y="7" dominant-baseline="ideographic">유출된 소스</tspan></text></g></g></g><g id="g-root-tx__hs683ru1v6dm-stroke" data-item-order="0" transform="translate(379.78125, 472.00006103515625)"></g><g id="g-root-tx__hu1nd3u1v5dx-fill" data-item-order="0" transform="translate(124.8125, 486.00006103515625)"><g id="tx__hu1nd3u1v5dx-fill-merged" stroke="none" fill="#484848" fill-opacity="1"><g><text style="font: 10.5px Roboto, sans-serif; white-space: pre;" transform="translate(150.96875, 22)" font-size="10.5px" font-family="Roboto, sans-serif"><tspan x="-138.97" y="0" dominant-baseline="ideographic">엔트로픽의 "보안 수난 주간"을 살펴</tspan><tspan x="-29.8" y="12" dominant-baseline="ideographic">봅니다.</tspan></text></g></g></g><g id="g-root-tx__hu1nd3u1v5dx-stroke" data-item-order="0" transform="translate(124.8125, 486.00006103515625)"></g><g id="g-root-tx__1q6zqfbu1v66j-fill" data-item-order="0" transform="translate(379.78125, 486.00006103515625)"><g id="tx__1q6zqfbu1v66j-fill-merged" stroke="none" fill="#484848" fill-opacity="1"><g><text style="font: 10.5px Roboto, sans-serif; white-space: pre;" transform="translate(10, 22)" font-size="10.5px" font-family="Roboto, sans-serif"><tspan x="2" y="0" dominant-baseline="ideographic">유출된 소스에서 무엇이 드러났는지 </tspan><tspan x="2" y="12" dominant-baseline="ideographic">조사합니다.</tspan></text></g></g></g><g id="g-root-tx__1q6zqfbu1v66j-stroke" data-item-order="0" transform="translate(379.78125, 486.00006103515625)"></g></g></g></svg>