<?xml version="1.0" encoding="utf-8" standalone="yes"?>
<!DOCTYPE svg PUBLIC "-//W3C//DTD SVG 1.1//EN" "http://www.w3.org/Graphics/SVG/1.1/DTD/svg11.dtd">
<svg style="fill:none;stroke:none;fill-rule:evenodd;clip-rule:evenodd;stroke-linecap:round;stroke-linejoin:round;stroke-miterlimit:1.5;" version="1.1" xmlns="http://www.w3.org/2000/svg" xmlns:xlink="http://www.w3.org/1999/xlink" width="851" height="552" viewBox="0 0 851 552"><style class="text-font-style fontImports" data-font-family="Roboto">@import url(https://fonts.googleapis.com/css2?family=Roboto:wght@400;700&amp;amp;display=block);</style><g id="items" style="isolation: isolate"><g id="blend" style="mix-blend-mode: normal"><g id="g-root-sy_0d_cu_Vector_vb42tzqpszyi-fill" data-item-order="-283412" transform="translate(159, 296)"><g id="sy_0d_cu_Vector_vb42tzqpszyi-fill-merged" stroke="none" fill="#4f3d58" fill-opacity="1"><g><path d="M16 10 H100L106 82 H10L16 10"></path></g></g></g><g id="g-root-sy_0d_cu_Vector_vb42tzqpszyi-stroke" data-item-order="-283412" transform="translate(159, 296)"><g id="sy_0d_cu_Vector_vb42tzqpszyi-stroke" fill="none" stroke-linecap="round" stroke-linejoin="round" stroke-miterlimit="4" stroke="#ffffff" stroke-width="2" stroke-opacity="1"><g><path d="M 16 10L 100 10L 106 82L 10 82L 16 10Z"></path></g></g></g><g id="g-root-sy_0c_cu_Subtract_qvakpjqpt0qr-fill" data-item-order="-283408" transform="translate(153.46240234375, 368)"><g id="sy_0c_cu_Subtract_qvakpjqpt0qr-fill-merged" stroke="none" fill="#4f3d58" fill-opacity="1"><g><path d="M111.538 10L117.538 82 H15.538L10 76.462L15.538 10 H111.538"></path></g></g></g><g id="g-root-sy_0c_cu_Subtract_qvakpjqpt0qr-stroke" data-item-order="-283408" transform="translate(153.46240234375, 368)"><g id="sy_0c_cu_Subtract_qvakpjqpt0qr-stroke" fill="none" stroke-linecap="round" stroke-linejoin="round" stroke-miterlimit="4" stroke="#ffffff" stroke-width="2" stroke-opacity="1"><g><path d="M 111.5385 10L 117.5385 82L 15.5377 82L 10 76.4623L 15.5385 10L 111.5385 10Z"></path></g></g></g><g id="g-root-sy_0b_cu_hznkgnqpt1jg-fill" data-item-order="-283404" transform="translate(171.00003051757812, 152)"><g id="sy_0b_cu_hznkgnqpt1jg-fill-merged" stroke="none" fill="#4f3d58" fill-opacity="1"><g><path d="M82 112 H10 V40 H82 V52L634 10 V142L82 100 V112"></path></g></g></g><g id="g-root-sy_0b_cu_hznkgnqpt1jg-stroke" data-item-order="-283404" transform="translate(171.00003051757812, 152)"><g id="sy_0b_cu_hznkgnqpt1jg-stroke" fill="none" stroke-linecap="round" stroke-linejoin="round" stroke-miterlimit="4" stroke="#ffffff" stroke-width="2" stroke-opacity="1"><g><path d="M 81.999969 100.0004L 81.999969 52.0005L 633.999969 10L 633.999969 142L 81.999969 100.0004ZM 9.999969 39.999985L 81.999969 39.999985L 81.999969 111.999985L 9.999969 111.999985L 9.999969 39.999985Z"></path></g></g></g><g id="g-root-sy_0a_cu_hznkgnqpt1jh-fill" data-item-order="-283400" transform="translate(171, 254)"><g id="sy_0a_cu_hznkgnqpt1jh-fill-merged" stroke="none" fill="#4f3d58" fill-opacity="1"><g><path d="M10 10 H82 V28 H10 V10"></path></g></g></g><g id="g-root-sy_0a_cu_hznkgnqpt1jh-stroke" data-item-order="-283400" transform="translate(171, 254)"><g id="sy_0a_cu_hznkgnqpt1jh-stroke" fill="none" stroke-linecap="round" stroke-linejoin="round" stroke-miterlimit="4" stroke="#ffffff" stroke-width="2" stroke-opacity="1"><g><path d="M 10 10L 82 10L 82 28L 10 28L 10 10Z"></path></g></g></g><g id="g-root-sy_0a_cu_1_hznkgnqpt1ji-fill" data-item-order="-283397" transform="translate(159, 140)"></g><g id="g-root-sy_0a_cu_1_hznkgnqpt1ji-stroke" data-item-order="-283397" transform="translate(159, 140)"><g id="sy_0a_cu_1_hznkgnqpt1ji-stroke" fill="none" stroke-linecap="round" stroke-linejoin="round" stroke-miterlimit="4" stroke="#484848" stroke-width="2" stroke-opacity="1"><g><path d="M 106 142L 106 124L 10 124L 10 142M 46 124L 46 142M 22 124L 22 142M 70 124L 70 142M 94 124L 94 142M 58 10L 58 28"></path></g></g></g><g id="g-root-sy_0a_cu_2_dkgjfbqpsz5z-fill" data-item-order="-283396" transform="translate(153, 158)"><g id="sy_0a_cu_2_dkgjfbqpsz5z-fill-merged" stroke="none" fill="#4f3d58" fill-opacity="1"><g><path d="M16 34 H112L64 10L16 34 M10 136 V124 H118 V136 H112L106 148 H22L16 136 H10"></path></g></g></g><g id="g-root-sy_0a_cu_2_dkgjfbqpsz5z-stroke" data-item-order="-283396" transform="translate(153, 158)"><g id="sy_0a_cu_2_dkgjfbqpsz5z-stroke" fill="none" stroke-linecap="round" stroke-linejoin="round" stroke-miterlimit="4" stroke="#ffffff" stroke-width="2" stroke-opacity="1"><g><path d="M 16 34L 112 34L 64 10L 16 34ZM 16 136L 112 136L 106 148L 22 148L 16 136ZM 10 124L 118 124L 118 136L 10 136L 10 124Z"></path></g></g></g><g id="g-root-sy_0a_cu_3_94n1avqpszy8-fill" data-item-order="-283394" transform="translate(39.82713317871094, 428)"><g id="sy_0a_cu_3_94n1avqpszy8-fill-merged" stroke="none" fill="#4f3d58" fill-opacity="1"><g><path d="M23.049 75.378C27.422 75.378 31.824 73.99 34.835 71.192C35.242 70.814 35.62 70.424 35.968 70C36.326 70.424 36.703 70.814 37.101 71.192C40.112 73.979 44.514 75.378 48.886 75.378C53.259 75.378 57.661 73.99 60.672 71.192C61.069 70.814 61.447 70.424 61.795 70C62.153 70.424 62.53 70.814 62.928 71.192C65.939 73.979 70.341 75.378 74.713 75.378C79.086 75.378 83.488 73.99 86.499 71.192C86.896 70.814 87.274 70.424 87.622 70C87.98 70.424 88.357 70.814 88.755 71.192C91.766 73.979 96.168 75.378 100.54 75.378C104.913 75.378 109.315 73.99 112.326 71.192C112.723 70.814 113.101 70.424 113.449 70C113.807 70.424 114.184 70.814 114.582 71.192C117.593 73.979 121.995 75.378 126.367 75.378C130.74 75.378 135.142 73.99 138.153 71.192C138.55 70.814 138.928 70.424 139.276 70C139.634 70.424 140.011 70.814 140.409 71.192C143.42 73.979 147.822 75.378 152.194 75.378C156.567 75.378 160.969 73.99 163.98 71.192C164.387 70.814 164.765 70.424 165.113 70C165.461 70.424 165.838 70.814 166.236 71.192C169.247 73.979 173.639 75.378 178.021 75.378C182.404 75.378 186.796 73.99 189.807 71.192C190.214 70.814 190.592 70.424 190.94 70C191.288 70.424 191.665 70.814 192.063 71.192C195.074 73.979 199.476 75.378 203.848 75.378C208.221 75.378 212.623 73.99 215.634 71.192C216.041 70.814 216.419 70.424 216.767 70C217.124 70.424 217.502 70.814 217.9 71.192C220.911 73.979 225.434 75.386 229.816 75.386C234.189 75.386 238.975 73.99 241.986 71.192C242.393 70.814 242.771 70.424 243.119 70C243.477 70.424 243.854 70.814 244.252 71.192C247.263 73.979 251.665 75.378 256.037 75.378C260.41 75.378 264.812 73.99 267.823 71.192C268.23 70.814 268.608 70.424 268.956 70C269.314 70.424 269.691 70.814 270.089 71.192C273.1 73.979 277.502 75.378 281.874 75.378C286.247 75.378 290.649 73.99 293.66 71.192C294.057 70.814 294.435 70.424 294.783 70C295.14 70.424 295.518 70.814 295.916 71.192C298.927 73.979 303.329 75.378 307.701 75.378C312.074 75.378 316.476 73.99 319.487 71.192C319.884 70.814 320.262 70.424 320.61 70C320.968 70.424 321.345 70.814 321.743 71.192C324.754 73.979 329.156 75.378 333.528 75.378C337.901 75.378 342.303 73.99 345.314 71.192C345.711 70.814 346.089 70.424 346.437 70C346.795 70.424 347.172 70.814 347.57 71.192C350.581 73.979 354.983 75.378 359.355 75.378C363.728 75.378 368.13 73.99 371.141 71.192C371.538 70.814 371.916 70.424 372.264 70C372.622 70.424 372.999 70.814 373.397 71.192C376.408 73.979 380.81 75.378 385.182 75.378C389.555 75.378 393.957 73.99 396.968 71.192C397.375 70.814 397.753 70.424 398.101 70C398.449 70.424 398.826 70.814 399.224 71.192C402.235 73.979 406.627 75.378 411.009 75.378C415.392 75.378 419.784 73.99 422.795 71.192C423.202 70.814 423.58 70.424 423.928 70L411.917 58 H357.173L333.173 34 H309.173L297.173 22 H129.173L117.173 10 H81.673L45.173 46 H33.173L10 70C10.358 70.424 10.735 70.814 11.133 71.192C14.144 73.979 18.667 75.378 23.049 75.378"></path></g></g></g><g id="g-root-sy_0a_cu_3_94n1avqpszy8-stroke" data-item-order="-283394" transform="translate(39.82713317871094, 428)"><g id="sy_0a_cu_3_94n1avqpszy8-stroke" fill="none" stroke-linecap="round" stroke-linejoin="round" stroke-miterlimit="4" stroke="#ffffff" stroke-width="2" stroke-opacity="1"><g><path d="M 23.049315 75.3778C 27.421715 75.3778 31.823915 73.9903 34.834915 71.1925C 35.242315 70.8141 35.619915 70.4243 35.967715 70C 36.325515 70.4243 36.703115 70.8141 37.100615 71.1925C 40.111615 73.9789 44.513815 75.3778 48.886215 75.3778C 53.258615 75.3778 57.660815 73.9903 60.671815 71.1925C 61.069315 70.8141 61.446915 70.4243 61.794715 70C 62.152515 70.4243 62.530115 70.8141 62.927615 71.1925C 65.938615 73.9789 70.340815 75.3778 74.713215 75.3778C 79.085615 75.3778 83.487815 73.9903 86.498815 71.1925C 86.896315 70.8141 87.273915 70.4243 87.621715 70C 87.979515 70.4243 88.357115 70.8141 88.754615 71.1925C 91.765615 73.9789 96.167815 75.3778 100.540215 75.3778C 104.912615 75.3778 109.314815 73.9903 112.325815 71.1925C 112.723315 70.8141 113.100915 70.4243 113.448715 70C 113.806515 70.4243 114.184115 70.8141 114.581615 71.1925C 117.592615 73.9789 121.994815 75.3778 126.367215 75.3778C 130.739615 75.3778 135.141815 73.9903 138.152815 71.1925C 138.550315 70.8141 138.927915 70.4243 139.275715 70C 139.633515 70.4243 140.011115 70.8141 140.408615 71.1925C 143.419615 73.9789 147.821815 75.3778 152.194215 75.3778C 156.566615 75.3778 160.968815 73.9903 163.979815 71.1925C 164.387215 70.8141 164.764915 70.4243 165.112715 70C 165.460515 70.4243 165.838115 70.8141 166.235615 71.1925C 169.246615 73.9789 173.638815 75.3778 178.021215 75.3778C 182.403515 75.3778 186.795815 73.9903 189.806815 71.1925C 190.214315 70.8141 190.591915 70.4243 190.939715 70C 191.287515 70.4243 191.665115 70.8141 192.062615 71.1925C 195.073615 73.9789 199.475815 75.3778 203.848215 75.3778C 208.220615 75.3778 212.622815 73.9903 215.633815 71.1925C 216.041315 70.8141 216.418915 70.4243 216.766715 70C 217.124415 70.4243 217.502015 70.8141 217.899515 71.1925C 220.910515 73.9789 225.433915 75.3862 229.816315 75.3862C 234.188715 75.3862 238.974915 73.9903 241.985915 71.1925C 242.393415 70.8141 242.771015 70.4243 243.118815 70C 243.476515 70.4243 243.854115 70.8141 244.251615 71.1925C 247.262615 73.9789 251.664815 75.3778 256.037215 75.3778C 260.409615 75.3778 264.811915 73.9903 267.822915 71.1925C 268.230315 70.8141 268.607915 70.4243 268.955715 70C 269.313515 70.4243 269.691115 70.8141 270.088615 71.1925C 273.099515 73.9789 277.501815 75.3778 281.874215 75.3778C 286.246615 75.3778 290.648815 73.9903 293.659815 71.1925C 294.057315 70.8141 294.434915 70.4243 294.782715 70C 295.140415 70.4243 295.518115 70.8141 295.915615 71.1925C 298.926615 73.9789 303.328815 75.3778 307.701215 75.3778C 312.073615 75.3778 316.475815 73.9903 319.486815 71.1925C 319.884315 70.8141 320.261915 70.4243 320.609715 70C 320.967515 70.4243 321.345115 70.8141 321.742615 71.1925C 324.753615 73.9789 329.155815 75.3778 333.528215 75.3778C 337.900615 75.3778 342.302915 73.9903 345.313815 71.1925C 345.711315 70.8141 346.088915 70.4243 346.436715 70C 346.794515 70.4243 347.172115 70.8141 347.569615 71.1925C 350.580615 73.9789 354.982815 75.3778 359.355215 75.3778C 363.727615 75.3778 368.129815 73.9903 371.140815 71.1925C 371.538315 70.8141 371.915915 70.4243 372.263715 70C 372.621515 70.4243 372.999115 70.8141 373.396615 71.1925C 376.407615 73.9789 380.809815 75.3778 385.182215 75.3778C 389.554615 75.3778 393.956815 73.9903 396.967815 71.1925C 397.375215 70.8141 397.752915 70.4243 398.100615 70C 398.448515 70.4243 398.826115 70.8141 399.223615 71.1925C 402.234615 73.9789 406.626815 75.3778 411.009215 75.3778C 415.391515 75.3778 419.783915 73.9903 422.794915 71.1925C 423.202315 70.8141 423.579915 70.4243 423.927715 70L 411.917215 58L 357.173015 58L 333.173015 34L 309.173015 34L 297.173015 22L 129.173015 22L 117.173015 10L 81.673015 10L 45.173015 46L 33.173015 46L 10.000015 70C 10.357715 70.4243 10.735415 70.8141 11.132815 71.1925C 14.143815 73.9789 18.666915 75.3778 23.049315 75.3778ZM 23.049315 75.3778L 23.049215 75.3862M 129.159195 22.027344L 141.239795 34.107944L 153.178195 34.107944L 165.329595 46.259344M 45.448258 46.0463L 69.466858 46.0463L 81.263158 34.25M 165.672358 70.0005L 189.626558 46.0463L 213.589058 46.0463L 225.506358 57.9636M 309.536558 34.25L 297.740158 46.0463L 285.442858 46.0463L 273.525558 57.9636"></path></g></g></g><g id="g-root-sy_0a_cu_4_94n1avqpszy9-fill" data-item-order="-283391" transform="translate(14, 488)"></g><g id="g-root-sy_0a_cu_4_94n1avqpszy9-stroke" data-item-order="-283391" transform="translate(14, 488)"><g id="sy_0a_cu_4_94n1avqpszy9-stroke" fill="none" stroke-linecap="round" stroke-linejoin="round" stroke-miterlimit="4" stroke="#484848" stroke-width="2" stroke-opacity="1"><g><path d="M 48.8763 15.3778C 53.2487 15.3778 57.6509 13.9903 60.6619 11.1925C 61.0693 10.8141 61.4469 10.4243 61.7948 10C 62.1525 10.4243 62.5301 10.8141 62.9276 11.1925C 65.9386 13.9789 70.3408 15.3778 74.7132 15.3778C 79.0856 15.3778 83.4878 13.9903 86.4988 11.1925C 86.8963 10.8141 87.274 10.4243 87.6218 10C 87.9795 10.4243 88.3571 10.8141 88.7546 11.1925C 91.7656 13.9789 96.1678 15.3778 100.5402 15.3778C 104.9126 15.3778 109.3148 13.9903 112.3259 11.1925C 112.7233 10.8141 113.101 10.4243 113.4488 10C 113.8065 10.4243 114.1841 10.8141 114.5816 11.1925C 117.5926 13.9789 121.9948 15.3778 126.3672 15.3778C 130.7396 15.3778 135.1419 13.9903 138.1528 11.1925C 138.5503 10.8141 138.9279 10.4243 139.2758 10C 139.6335 10.4243 140.0111 10.8141 140.4086 11.1925C 143.4196 13.9789 147.8218 15.3778 152.1942 15.3778C 156.5666 15.3778 160.9688 13.9903 163.9798 11.1925C 164.3773 10.8141 164.755 10.4243 165.1028 10C 165.4605 10.4243 165.8381 10.8141 166.2356 11.1925C 169.2466 13.9789 173.6488 15.3778 178.0212 15.3778C 182.3936 15.3778 186.7958 13.9903 189.8068 11.1925C 190.2143 10.8141 190.5919 10.4243 190.9397 10C 191.2875 10.4243 191.6651 10.8141 192.0626 11.1925C 195.0736 13.9789 199.4659 15.3778 203.8482 15.3778C 208.2305 15.3778 212.6229 13.9903 215.6339 11.1925C 216.0413 10.8141 216.4189 10.4243 216.7667 10C 217.1145 10.4243 217.4921 10.8141 217.8896 11.1925C 220.9006 13.9789 225.3028 15.3778 229.6752 15.3778C 234.0477 15.3778 238.4499 13.9903 241.4609 11.1925C 241.8683 10.8141 242.2459 10.4243 242.5937 10C 242.9515 10.4243 243.3291 10.8141 243.7266 11.1925C 246.7376 13.9789 251.2609 15.3862 255.6433 15.3862C 260.0157 15.3862 264.802 13.9903 267.813 11.1925C 268.2204 10.8141 268.598 10.4243 268.9458 10C 269.3035 10.4243 269.6812 10.8141 270.0786 11.1925C 273.0896 13.9789 277.4919 15.3778 281.8643 15.3778C 286.2367 15.3778 290.6389 13.9903 293.6499 11.1925C 294.0573 10.8141 294.4349 10.4243 294.7827 10C 295.1405 10.4243 295.5181 10.8141 295.9156 11.1925C 298.9266 13.9789 303.3288 15.3778 307.7012 15.3778C 312.0736 15.3778 316.4758 13.9903 319.4868 11.1925C 319.8843 10.8141 320.2619 10.4243 320.6097 10C 320.9675 10.4243 321.3451 10.8141 321.7426 11.1925C 324.7536 13.9789 329.1558 15.3778 333.5282 15.3778C 337.9006 15.3778 342.3029 13.9903 345.3138 11.1925C 345.7113 10.8141 346.089 10.4243 346.4368 10C 346.7945 10.4243 347.1721 10.8141 347.5696 11.1925C 350.5806 13.9789 354.9828 15.3778 359.3552 15.3778C 363.7276 15.3778 368.1299 13.9903 371.1409 11.1925C 371.5384 10.8141 371.916 10.4243 372.2638 10C 372.6215 10.4243 372.9991 10.8141 373.3966 11.1925C 376.4076 13.9789 380.8098 15.3778 385.1823 15.3778C 389.5547 15.3778 393.9568 13.9903 396.9678 11.1925C 397.3653 10.8141 397.743 10.4243 398.0908 10C 398.4485 10.4243 398.8261 10.8141 399.2236 11.1925C 402.2346 13.9789 406.6368 15.3778 411.0092 15.3778C 415.3816 15.3778 419.7838 13.9903 422.7948 11.1925C 423.2023 10.8141 423.5799 10.4243 423.9277 10C 424.2755 10.4243 424.6531 10.8141 425.0506 11.1925C 428.0616 13.9789 432.4539 15.3778 436.8362 15.3778C 441.2186 15.3778 445.6109 13.9903 448.6219 11.1925C 449.0293 10.8141 449.4069 10.4243 449.7547 10C 450.1025 10.4243 450.4801 10.8141 450.8776 11.1925C 453.8886 13.9789 458.2908 15.3778 462.6632 15.3778C 467.0356 15.3778 471.4379 13.9903 474.4489 11.1925C 474.8563 10.8141 475.2339 10.4243 475.5817 10C 475.9395 10.4243 476.317 10.8141 476.7145 11.1925C 479.7255 13.9789 484.2486 15.3862 488.6309 15.3862C 493.0033 15.3862 497.7894 13.9903 500.8004 11.1925C 501.2079 10.8141 501.5854 10.4243 501.9333 10C 502.291 10.4243 502.6686 10.8141 503.0661 11.1925C 506.0771 13.9789 510.4793 15.3778 514.8517 15.3778C 519.2241 15.3778 523.6263 13.9903 526.6373 11.1925C 527.0447 10.8141 527.4224 10.4243 527.7702 10C 528.1279 10.4243 528.5056 10.8141 528.9031 11.1925C 531.9141 13.9789 536.3163 15.3778 540.6887 15.3778C 545.061 15.3778 549.4633 13.9903 552.4743 11.1925C 552.8718 10.8141 553.2494 10.4243 553.5972 10C 553.955 10.4243 554.3325 10.8141 554.73 11.1925C 557.741 13.9789 562.1433 15.3778 566.5157 15.3778C 570.8881 15.3778 575.2903 13.9903 578.3013 11.1925C 578.6987 10.8141 579.0764 10.4243 579.4242 10C 579.7819 10.4243 580.1595 10.8141 580.5571 11.1925C 583.5681 13.9789 587.9702 15.3778 592.3427 15.3778C 596.7151 15.3778 601.1173 13.9903 604.1283 11.1925C 604.5258 10.8141 604.9034 10.4243 605.2512 10C 605.6089 10.4243 605.9866 10.8141 606.384 11.1925C 609.395 13.9789 613.7973 15.3778 618.1697 15.3778C 622.5421 15.3778 626.9443 13.9903 629.9553 11.1925C 630.3528 10.8141 630.7305 10.4243 631.0782 10C 631.436 10.4243 631.8136 10.8141 632.2111 11.1925C 635.222 13.9789 639.6243 15.3778 643.9967 15.3778C 648.3691 15.3778 652.7713 13.9903 655.7823 11.1925C 656.1897 10.8141 656.5674 10.4243 656.9152 10C 657.2629 10.4243 657.6406 10.8141 658.0381 11.1925C 661.0491 13.9789 665.4413 15.3778 669.8237 15.3778C 674.206 15.3778 678.5983 13.9903 681.6093 11.1925C 682.0167 10.8141 682.3944 10.4243 682.7422 10C 683.09 10.4243 683.4676 10.8141 683.8651 11.1925C 686.8761 13.9789 691.2784 15.3778 695.6508 15.3778C 700.0232 15.3778 704.4253 13.9903 707.4363 11.1925C 707.8438 10.8141 708.2214 10.4243 708.5692 10C 708.927 10.4243 709.3045 10.8141 709.702 11.1925C 712.713 13.9789 717.2361 15.3778 721.6185 15.3778M 48.8763 15.3778C 44.4939 15.3778 39.9709 13.9789 36.9599 11.1925C 36.5624 10.8141 36.1848 10.4243 35.827 10C 35.4792 10.4243 35.1016 10.8141 34.6942 11.1925C 31.6832 13.9903 27.281 15.3778 22.9086 15.3778C 18.5361 15.3778 14.1339 13.9789 11.1229 11.1925C 10.7254 10.8141 10.3478 10.4243 10 10M 48.8763 15.3778L 48.8762 15.3862M 812.0179 10C 811.6701 10.4243 811.2925 10.8141 810.895 11.1925C 807.884 13.9903 803.4818 15.3778 799.1094 15.3778C 794.737 15.3778 790.3348 13.9789 787.3238 11.1925C 786.9263 10.8141 786.5487 10.4243 786.191 10C 785.8432 10.4243 785.4655 10.8141 785.0681 11.1925C 782.0571 13.9903 777.6548 15.3778 773.2824 15.3778C 768.91 15.3778 764.5078 13.9789 761.4968 11.1925C 761.0993 10.8141 760.7217 10.4243 760.364 10C 760.0162 10.4243 759.6385 10.8141 759.241 11.1925C 756.23 13.9903 751.8278 15.3778 747.4554 15.3778C 743.083 15.3778 738.6808 13.9789 735.6698 11.1925C 735.2723 10.8141 734.8947 10.4243 734.5369 10C 734.1891 10.4243 733.8115 10.8141 733.4041 11.1925C 730.3931 13.9903 725.9909 15.3778 721.6185 15.3778M 721.6185 15.3778L 721.6184 15.3862"></path></g></g></g><g id="g-root-tx__9011zqpt0qy-fill" data-item-order="0" transform="translate(383.7187805175781, 38)"><g id="tx__9011zqpt0qy-fill-merged" stroke="none" fill="#484848" fill-opacity="1"><g><text style="font: bold 25px Roboto, sans-serif; white-space: pre;" transform="translate(42.28125, 25)" font-weight="bold" font-size="25px" font-family="Roboto, sans-serif"><tspan x="-30.28" y="14" dominant-baseline="ideographic">타이틀</tspan></text></g></g></g><g id="g-root-tx__9011zqpt0qy-stroke" data-item-order="0" transform="translate(383.7187805175781, 38)"></g><g id="g-root-ic_1_1d1rm8nqpvt3d-fill" data-item-order="0" transform="translate(182, 193.79296875)"></g><g id="g-root-ic_1_1d1rm8nqpvt3d-stroke" data-item-order="0" transform="translate(182, 193.79296875)"><g id="ic_1_1d1rm8nqpvt3d-stroke" fill="none" stroke-linecap="round" stroke-linejoin="round" stroke-miterlimit="4" stroke="#ffffff" stroke-width="2" stroke-opacity="1"><g><path d="M 33.084 57L 13.084 57C 11.97943 57 11.084 56.104568 11.084 55L 11.084 13C 11.084 11.895431 11.97943 11 13.084 11L 39.669998 11C 40.202408 11.003817 40.711319 11.219762 41.084 11.6L 48.498001 19C 48.8731 19.374985 49.083885 19.88361 49.084 20.414L 49.084 27M 23.084 24.007999L 17.084 30.007999L 23.084 36.007999M 29.084 24.007999L 35.084 30.007999L 29.084 36.007999M 41.084 41.007999L 55.084 41.007999C 55.084 41.007999 57.084 41.007999 57.084 43.007999L 57.084 55.006001C 57.084 55.006001 57.084 57.006001 55.084 57.006001L 41.084 57.006001C 41.084 57.006001 39.084 57.006001 39.084 55.006001L 39.084 43.007999C 39.084 43.007999 39.084 41.007999 41.084 41.007999M 45.584 49.133999C 45.584 50.514713 46.703289 51.633999 48.084 51.633999C 49.464714 51.633999 50.584 50.514713 50.584 49.133999C 50.584 47.753288 49.464714 46.633999 48.084 46.633999C 46.703289 46.633999 45.584 47.753288 45.584 49.133999M 53.084 38C 53.084 35.238579 50.845425 33 48.084 33C 45.322578 33 43.084 35.238579 43.084 38L 43.084 41L 53.084 41Z"></path></g></g></g><g id="g-root-tx__v2zwpjqpudjh-fill" data-item-order="0" transform="translate(338, 206)"><g id="tx__v2zwpjqpudjh-fill-merged" stroke="none" fill="#ffffff" fill-opacity="1"><g><text style="font: bold 20px Roboto, sans-serif; white-space: pre;" transform="translate(10, 22)" font-weight="bold" font-size="20px" font-family="Roboto, sans-serif"><tspan x="2" y="12" dominant-baseline="ideographic">내용</tspan></text></g></g></g><g id="g-root-tx__v2zwpjqpudjh-stroke" data-item-order="0" transform="translate(338, 206)"></g><g id="g-root-ic_2_1lynknrqpugb1-fill" data-item-order="0" transform="translate(182, 307.79296875)"></g><g id="g-root-ic_2_1lynknrqpugb1-stroke" data-item-order="0" transform="translate(182, 307.79296875)"><g id="ic_2_1lynknrqpugb1-stroke" fill="none" stroke-linecap="round" stroke-linejoin="round" stroke-miterlimit="4" stroke="#ffffff" stroke-width="2" stroke-opacity="1"><g><path d="M 14.599979 17.892879L 14.599979 33.076C 14.599979 42.8652 20.599979 51.655399 29.79998 55.2514L 31.799999 56.0504C 33.200001 56.649799 34.799999 56.649799 36.200001 56.0504L 38.200001 55.2514C 47.400002 51.655399 53.400002 42.8652 53.400002 33.076L 53.400002 17.892879C 53.400002 16.69422 52.799999 15.69534 51.599998 15.09602C 48.799999 13.69756 42.400002 11.5 33.799999 11.5C 25.19998 11.5 19 13.89734 16 15.09602C 15.2 15.69534 14.599979 16.69422 14.599979 17.892879ZM 25.99988 33.900002C 27.65674 33.900002 28.99988 32.556801 28.99988 30.9C 28.99988 29.24304 27.65674 27.8999 25.99988 27.8999C 24.343021 27.8999 22.99988 29.24304 22.99988 30.9C 22.99988 32.556801 24.343021 33.900002 25.99988 33.900002ZM 33.999802 24.8999C 35.656799 24.8999 36.999802 23.556759 36.999802 21.8999C 36.999802 20.24304 35.656799 18.8999 33.999802 18.8999C 32.343002 18.8999 30.9998 20.24304 30.9998 21.8999C 30.9998 23.556759 32.343002 24.8999 33.999802 24.8999ZM 33.999802 24.8999L 33.999802 40.900002M 41.999802 33.900002C 43.656799 33.900002 44.999802 32.556801 44.999802 30.9C 44.999802 29.24304 43.656799 27.8999 41.999802 27.8999C 40.343002 27.8999 38.999802 29.24304 38.999802 30.9C 38.999802 32.556801 40.343002 33.900002 41.999802 33.900002ZM 41.999802 33.900002L 41.999802 40.900002M 25.99988 33.900002L 25.99988 40.900002"></path></g></g></g><g id="g-root-tx_cicd_1480193qpt1c4-fill" data-item-order="0" transform="translate(338, 320)"><g id="tx_cicd_1480193qpt1c4-fill-merged" stroke="none" fill="#484848" fill-opacity="1"><g><text style="font: 20px Roboto, sans-serif; white-space: pre;" transform="translate(10, 22)" font-size="20px" font-family="Roboto, sans-serif"><tspan x="2" y="12" dominant-baseline="ideographic">내용</tspan></text></g></g></g><g id="g-root-tx_cicd_1480193qpt1c4-stroke" data-item-order="0" transform="translate(338, 320)"></g><g id="g-root-ic_sear_qn6el3qpuebq-fill" data-item-order="0" transform="translate(182, 379.79296875)"></g><g id="g-root-ic_sear_qn6el3qpuebq-stroke" data-item-order="0" transform="translate(182, 379.79296875)"><g id="ic_sear_qn6el3qpuebq-stroke" fill="none" stroke-linecap="round" stroke-linejoin="round" stroke-miterlimit="4" stroke="#ffffff" stroke-width="2" stroke-opacity="1"><g><path d="M 13.796 45L 30 45.001999M 15.024 21L 52.992001 21M 32 33L 11.022 33M 32.756001 56.967999C 20.366718 56.285084 10.752442 45.897995 11.027528 33.492954C 11.302614 21.087917 21.367889 11.137227 33.775265 11.004185C 46.18264 10.871143 56.458973 20.603712 57 33M 32.538002 11.052C 20.538 24.052 20.756001 40.968002 32.756001 56.967999M 35.459999 11.052C 40.187622 15.962921 43.225529 22.253826 44.132 29.01M 35 44.057999C 35 49.060593 39.055405 53.115997 44.057999 53.115997C 49.060593 53.115997 53.115997 49.060593 53.115997 44.057999C 53.115997 39.055405 49.060593 35 44.057999 35C 39.055405 35 35 39.055405 35 44.057999ZM 57 57L 50.504002 50.504002"></path></g></g></g><g id="g-root-tx_npm_1hjgjmfqpszr7-fill" data-item-order="0" transform="translate(338, 392)"><g id="tx_npm_1hjgjmfqpszr7-fill-merged" stroke="none" fill="#484848" fill-opacity="1"><g><text style="font: 20px Roboto, sans-serif; white-space: pre;" transform="translate(10, 22)" font-size="20px" font-family="Roboto, sans-serif"><tspan x="2" y="12" dominant-baseline="ideographic">내용</tspan></text></g></g></g><g id="g-root-tx_npm_1hjgjmfqpszr7-stroke" data-item-order="0" transform="translate(338, 392)"></g></g></g></svg>