<?xml version="1.0" encoding="utf-8" standalone="yes"?>
<!DOCTYPE svg PUBLIC "-//W3C//DTD SVG 1.1//EN" "http://www.w3.org/Graphics/SVG/1.1/DTD/svg11.dtd">
<svg style="fill:none;stroke:none;fill-rule:evenodd;clip-rule:evenodd;stroke-linecap:round;stroke-linejoin:round;stroke-miterlimit:1.5;" version="1.1" xmlns="http://www.w3.org/2000/svg" xmlns:xlink="http://www.w3.org/1999/xlink" width="999" height="490" viewBox="0 0 999 490"><style class="text-font-style fontImports" data-font-family="Roboto">@import url(https://fonts.googleapis.com/css2?family=Roboto:wght@400;700&amp;amp;display=block);</style><g id="items" style="isolation: isolate"><g id="blend" style="mix-blend-mode: normal"><g id="g-root-cp_-1_common_2rgn2nxreo8-fill" data-item-order="-406358" transform="translate(291.0000305175781, 98)"><g id="cp_-1_common_2rgn2nxreo8-fill-merged" stroke="none" fill="#cd6afb" fill-opacity="1"><g><path d="M436.5 147.883C424.112 147.883 418.119 148.133 412 148.154L415.5 144.5L425 133L428 138L435 142L439.5 139.5L443.5 142L448 148.245C443.658 148.087 439.772 147.883 436.5 147.883 M34.5 147.883C22.112 147.883 16.119 148.133 10 148.154L13.5 144.5L23 143L26 138L29.5 140.5L33 142.5L34.5 147.883 M64 148L87.387 127.39L102.433 105.926L126.964 93.389L135.141 99.182L142.501 84.176L152.477 74.679L157.383 64.801L174.392 57.108L180.279 36.213L193.526 25.861L197.615 28.045L212.17 10L216.586 16.268 V20.542L225.09 29.375L232.123 23.297L249.131 53.214L262.378 46.566L274.317 64.801 V73.159L279.55 77.053L281.676 90.445L289.853 80.472L292 82.046L315.366 99.182L317.165 111.434L332.865 107.35L339.407 127.39L342.842 126.345L352 148 H64"></path></g></g></g><g id="g-root-cp_-1_common_2rgn2nxreo8-stroke" data-item-order="-406358" transform="translate(291.0000305175781, 98)"><g id="cp_-1_common_2rgn2nxreo8-stroke" fill="none" stroke-linecap="round" stroke-linejoin="round" stroke-miterlimit="4" stroke="#ffffff" stroke-width="2" stroke-opacity="1"><g><path d="M 436.5 147.8828C 424.1125 147.8828 418.1187 148.1327 412 148.1545L 415.5 144.5L 425 133L 428 138L 435 142L 439.5 139.5L 443.5 142L 448 148.2453C 443.6582 148.0872 439.7723 147.8828 436.5 147.8828ZM 34.5 147.8828C 22.1125 147.8828 16.1187 148.1327 10 148.1545L 13.5 144.5L 23 143L 26 138L 29.5 140.5L 33 142.5L 34.5 147.8828ZM 64 148L 87.3867 127.3902L 102.4327 105.9256L 126.9642 93.3888L 135.1414 99.1824L 142.5009 84.1762L 152.477 74.6786L 157.3833 64.8011L 174.3918 57.108L 180.2794 36.2134L 193.5264 25.861L 197.615 28.0454L 212.1704 10L 216.586 16.2684L 216.586 20.5423L 225.0903 29.3751L 232.1227 23.2966L 249.1312 53.214L 262.3782 46.5657L 274.3169 64.8011L 274.3169 73.159L 279.5503 77.053L 281.6763 90.4446L 289.8535 80.4721L 292 82.0463L 315.3663 99.1824L 317.1653 111.4343L 332.8654 107.3503L 339.4072 127.3902L 342.8416 126.3455L 352 148L 255.5 148L 64 148ZM 126.9642 93.3888L 123 119.25L 115 117.1591L 104.5 135.9773L 99.5 132.3182L 96.5 140.1591M 135.1414 99.1824L 157.3833 111.4343L 166 123.4318L 178.5 119.25L 190.5 129.1818L 225.0903 135.9773L 235.5 129.1818L 255.5 148M 212.1704 10L 206.5 36.2134L 214.5 46.5657L 221 41.8864L 225.0903 64.8011L 240.5 84.1762L 245 80.4721L 249.1312 93.3888L 255.5 99.1824M 281.6763 90.4446L 260 105.9256L 252 117.1591L 232.1227 111.4343L 214.5 103.0454L 206.5 121.3409L 199.5 126.3455M 292 82.0463L 289.8535 105.9256L 297.5 119.25L 304 111.4343L 315.3663 135.9773M 201 75.5L 188 80L 178.5 94.6786L 166 97.053M 279.5503 103.0454L 274.3169 111.4343L 267 114M 131.5 129.1818L 142.5008 123.4318L 152.477 132.3182L 158.9106 129.1818L 166 135.9773L 178.5 140.1591"></path></g></g></g><g id="g-root-cp_-1_common_1_1uo20hqnxrf9d-fill" data-item-order="-406352" transform="translate(347.8360900878906, 243.2559814453125)"><g id="cp_-1_common_1_1uo20hqnxrf9d-fill-merged" stroke="none" fill="#cd6afb" fill-opacity="1"><g><path d="M158.869 11.189C152.027 11.582 146.38 11.784 138.164 11.183C128.655 10.488 117.533 10.868 105.595 11.276C103.87 11.334 102.128 11.394 100.371 11.451C88.076 11.849 75.065 12.121 62.164 11.183C48.157 10.165 29.481 10.703 11.816 11.212 H10L15.506 28.244L18.664 54.071L30.664 86.244L58.164 90.12L69.945 103.744L77.164 127.744L104.846 139.62L113.664 159.744L142.164 198.244L161.883 178.244L181.164 171.244L184.664 159.744L197.346 138.244L218.164 122.744L253.164 114.244L261.164 88.62L287.846 55.744L292.516 11.13L210.164 10.183C208.572 10.149 207.029 10.12 205.532 10.096C183.082 9.738 171.088 10.458 161.883 11.01C160.847 11.072 159.846 11.132 158.869 11.189 M210.164 10.179C208.572 10.145 207.029 10.12 205.532 10.096L210.164 10.183"></path></g></g></g><g id="g-root-cp_-1_common_1_1uo20hqnxrf9d-stroke" data-item-order="-406352" transform="translate(347.8360900878906, 243.2559814453125)"><g id="cp_-1_common_1_1uo20hqnxrf9d-stroke" fill="none" stroke-linecap="round" stroke-linejoin="round" stroke-miterlimit="4" stroke="#ffffff" stroke-width="2" stroke-opacity="1"><g><path d="M 158.869169 11.1885C 152.026669 11.5821 146.380469 11.7843 138.164069 11.1834C 128.655169 10.4879 117.532569 10.8678 105.594569 11.2755C 103.869769 11.3344 102.127969 11.3939 100.371469 11.4508C 88.076269 11.8492 75.065169 12.1213 62.164069 11.1834C 48.157269 10.165 29.480869 10.7029 11.816469 11.2116L 11.807469 11.2119L 9.999969 11.2639L 15.505569 28.2441L 18.663969 54.0708L 30.664069 86.2441L 58.164069 90.1199L 69.944569 103.744L 77.164069 127.7441L 104.846269 139.6199L 113.664069 159.7441L 142.164069 198.2441L 161.883369 178.2441L 181.164069 171.2441L 184.664069 159.7441L 197.346069 138.2441L 218.164069 122.7441L 253.164069 114.2441L 261.164069 88.6199L 287.846269 55.7441L 292.516469 11.1299L 210.164069 10.1827C 208.572169 10.1489 207.028869 10.1201 205.532169 10.0962C 183.081569 9.7375 171.087769 10.4575 161.883369 11.01C 160.846969 11.0722 159.845769 11.1323 158.869169 11.1885ZM 138.164069 11.1834L 138.164069 11.1795C 128.655169 10.484 117.532569 10.8669 105.594569 11.2755M 62.164069 11.1834L 62.164069 11.1795M 11.816469 11.2116C 11.813469 11.2117 11.810469 11.2118 11.807469 11.2119C 11.203769 11.2292 10.601069 11.2427 9.999969 11.2599L 9.999969 11.2639M 18.663969 54.0708L 54.663969 50.7441L 69.944569 58.2441L 74.663969 69.2441L 84.102269 90.7527L 104.846169 80.6199L 119.163969 100.244M 292.516469 11.1299L 292.516469 11.126M 210.164069 10.1827L 210.164069 10.1788C 208.572169 10.1449 207.028869 10.1201 205.532169 10.0962M 199.346269 117.6199L 214.931569 90.1199L 236.346169 102.1211L 253.164069 73.7441M 172.164069 27.7441L 187.664069 39.7441L 200.664069 29.2441L 212.164069 53.7441L 229.664069 34.2441M 90.164069 44.2441L 108.164069 33.2441L 124.164069 39.7441L 134.164069 33.2441L 155.664069 55.7441"></path></g></g></g><g id="g-root-cp_-1_common_2_1uo20hqnxrf9e-fill" data-item-order="-406345" transform="translate(14.999969482421875, 230)"></g><g id="g-root-cp_-1_common_2_1uo20hqnxrf9e-stroke" data-item-order="-406345" transform="translate(14.999969482421875, 230)"><g id="cp_-1_common_2_1uo20hqnxrf9e-stroke" fill="none" stroke-linecap="round" stroke-linejoin="round" stroke-miterlimit="4" stroke="#cd6afb" stroke-width="2" stroke-opacity="1"><g><path d="M 238 24.434C 252.3333 23.7674 285.1 22.834 301.5 24.434C 311.1999 25.3804 326.4969 24.9835 342.8359 24.5145C 361.0281 23.9923 380.512 23.3807 395 24.434C 422.5 26.4334 450.5 22.9347 471 24.434C 491.5 25.9334 496 22.4334 543 23.4334C 568.9358 23.9852 599.4392 24.3852 625.3523 24.3806C 646.3981 24.3768 664.4161 24.1062 674.5 23.4334C 697 21.9321 750 24.9347 768.5 23.4334M 308 10L 346.5 10M 10 10L 299.5 10M 625.5 10L 693.5 10M 719.5 10L 958 10M 326 15.9566C 330.4566 15.9798 335.2835 15.9994 340 15.9994L 628 15.9994C 639 16.4104 643.5 15.8828 661.5 15.8828M 317.5 15.9092C 314.7028 15.8939 312.3013 15.8828 310.5 15.8828C 292.5 15.8828 288 16.4104 277 15.9994L 265.5 15.9994M 679 15.9994C 690 16.4104 694.5 15.8828 712.5 15.8828C 718.343 15.8828 726.1426 16.5347 735 16.4104M 755.5 16.4104L 788 16.4104C 800.4 16.4104 813.8333 16.0587 819 15.8828M 247.5 15.9994C 237.5 15.8828 221 17.5989 215 15.9994"></path></g></g></g><g id="g-root-sy_0_line_1lsf08unxrg23-fill" data-item-order="-406337" transform="translate(320.0000305175781, 145.9959716796875)"></g><g id="g-root-sy_0_line_1lsf08unxrg23-stroke" data-item-order="-406337" transform="translate(320.0000305175781, 145.9959716796875)"><g id="sy_0_line_1lsf08unxrg23-stroke" fill="none" stroke-linecap="round" stroke-linejoin="round" stroke-miterlimit="4" stroke="#4f3d58" stroke-width="2" stroke-opacity="1"><g><path d="M 10 10L 176 10"></path><path d="M 170 16.5L 176.5 10L 170 3.5" stroke-dasharray="none"></path></g></g></g><g id="g-root-sy_1_line_1lsf08unxrg24-fill" data-item-order="-406331" transform="translate(327.0000305175781, 305)"></g><g id="g-root-sy_1_line_1lsf08unxrg24-stroke" data-item-order="-406331" transform="translate(327.0000305175781, 305)"><g id="sy_1_line_1lsf08unxrg24-stroke" fill="none" stroke-linecap="round" stroke-linejoin="round" stroke-miterlimit="4" stroke="#4f3d58" stroke-width="2" stroke-opacity="1"><g><path d="M 10 10L 170 10"></path><path d="M 164 16.5L 170.5 10L 164 3.5" stroke-dasharray="none"></path></g></g></g><g id="g-root-sy_2_line_1hcli4enxrgud-fill" data-item-order="-406325" transform="translate(489.0000305175781, 344)"></g><g id="g-root-sy_2_line_1hcli4enxrgud-stroke" data-item-order="-406325" transform="translate(489.0000305175781, 344)"><g id="sy_2_line_1hcli4enxrgud-stroke" fill="none" stroke-linecap="round" stroke-linejoin="round" stroke-miterlimit="4" stroke="#4f3d58" stroke-width="2" stroke-opacity="1"><g><path d="M 12 10L 172 10"></path><path d="M 18 3.5L 11.5 10L 18 16.5" stroke-dasharray="none"></path></g></g></g><g id="g-root-tx__1hcli4enxrgue-fill" data-item-order="0" transform="translate(462.7734680175781, 38)"><g id="tx__1hcli4enxrgue-fill-merged" stroke="none" fill="#484848" fill-opacity="1"><g><text style="font: bold 20px Roboto, sans-serif; white-space: pre;" transform="translate(36.2265625, 22)" font-weight="bold" font-size="20px" font-family="Roboto, sans-serif"><tspan x="-24.23" y="12" dominant-baseline="ideographic">타이틀</tspan></text></g></g></g><g id="g-root-tx__1hcli4enxrgue-stroke" data-item-order="0" transform="translate(462.7734680175781, 38)"></g><g id="g-root-tx__1hdugamnxvn5u-fill" data-item-order="0" transform="translate(242.71878051757812, 133)"><g id="tx__1hdugamnxvn5u-fill-merged" stroke="none" fill="#484848" fill-opacity="1"><g><text style="font: bold 12px Roboto, sans-serif; white-space: pre;" transform="translate(34.28125, 17)" font-weight="bold" font-size="12px" font-family="Roboto, sans-serif"><tspan x="-22.28" y="7" dominant-baseline="ideographic">설명</tspan></text></g></g></g><g id="g-root-tx__1hdugamnxvn5u-stroke" data-item-order="0" transform="translate(242.71878051757812, 133)"></g><g id="g-root-ic_1_qqaygunxrguf-fill" data-item-order="0" transform="translate(279.0000305175781, 128)"></g><g id="g-root-ic_1_qqaygunxrguf-stroke" data-item-order="0" transform="translate(279.0000305175781, 128)"><g id="ic_1_qqaygunxrguf-stroke" fill="none" stroke-linecap="round" stroke-linejoin="round" stroke-miterlimit="4" stroke="#4f3d58" stroke-width="2" stroke-opacity="1"><g><path d="M 27.313 45.25L 12.313 45.25C 11.484573 45.25 10.813 44.578426 10.813 43.75L 10.813 12.25C 10.813 11.421573 11.484573 10.75 12.313 10.75L 32.252499 10.75C 32.651806 10.752862 33.033489 10.914822 33.313 11.2L 38.873501 16.75C 39.154823 17.031239 39.312912 17.412708 39.313 17.810499L 39.313 22.75M 19.813 20.506001L 15.313 25.006001L 19.813 29.506001M 24.313 20.506001L 28.813 25.006001L 24.313 29.506001M 33.313 33.256001L 43.813 33.256001C 43.813 33.256001 45.313 33.256001 45.313 34.756001L 45.313 43.754501C 45.313 43.754501 45.313 45.254501 43.813 45.254501L 33.313 45.254501C 33.313 45.254501 31.813 45.254501 31.813 43.754501L 31.813 34.756001C 31.813 34.756001 31.813 33.256001 33.313 33.256001M 36.688 39.350498C 36.688 40.386036 37.527466 41.225498 38.563 41.225498C 39.598534 41.225498 40.438 40.386036 40.438 39.350498C 40.438 38.314964 39.598534 37.475498 38.563 37.475498C 37.527466 37.475498 36.688 38.314964 36.688 39.350498M 42.313 31C 42.313 28.928932 40.634068 27.25 38.563 27.25C 36.491936 27.25 34.813 28.928932 34.813 31L 34.813 33.25L 42.313 33.25Z"></path></g></g></g><g id="g-root-tx__qrjwn2nxvn5v-fill" data-item-order="0" transform="translate(125.04690551757812, 147)"><g id="tx__qrjwn2nxvn5v-fill-merged" stroke="none" fill="#484848" fill-opacity="1"><g><text style="font: 10.5px Roboto, sans-serif; white-space: pre;" transform="translate(151.953125, 16)" font-size="10.5px" font-family="Roboto, sans-serif"><tspan x="-139.95" y="6" dominant-baseline="ideographic">클로드 소스 코드가 유출되었습니다.</tspan></text></g></g></g><g id="g-root-tx__qrjwn2nxvn5v-stroke" data-item-order="0" transform="translate(125.04690551757812, 147)"></g><g id="g-root-tx__dg3e9qnxvoqs-fill" data-item-order="0" transform="translate(242.71878051757812, 292)"><g id="tx__dg3e9qnxvoqs-fill-merged" stroke="none" fill="#484848" fill-opacity="1"><g><text style="font: bold 12px Roboto, sans-serif; white-space: pre;" transform="translate(34.28125, 17)" font-weight="bold" font-size="12px" font-family="Roboto, sans-serif"><tspan x="-22.28" y="7" dominant-baseline="ideographic">설명</tspan></text></g></g></g><g id="g-root-tx__dg3e9qnxvoqs-stroke" data-item-order="0" transform="translate(242.71878051757812, 292)"></g><g id="g-root-ic_squa_40etanxsu88-fill" data-item-order="0" transform="translate(279.0000305175781, 287)"></g><g id="g-root-ic_squa_40etanxsu88-stroke" data-item-order="0" transform="translate(279.0000305175781, 287)"><g id="ic_squa_40etanxsu88-stroke" fill="none" stroke-linecap="round" stroke-linejoin="round" stroke-miterlimit="4" stroke="#4f3d58" stroke-width="2" stroke-opacity="1"><g><path d="M 19.75 40.75C 17.264719 40.75 15.25 38.735283 15.25 36.25L 15.25 19.75C 15.25 17.264719 17.264719 15.25 19.75 15.25L 31.75 15.25M 36.25 15.25C 38.735283 15.25 40.75 17.264719 40.75 19.75L 40.75 36.25C 40.75 38.735283 38.735283 40.75 36.25 40.75L 24.25 40.75M 28.75 10.747L 31.75 15.247L 28.75 19.747M 27.25 36.246998L 24.25 40.746998L 27.25 45.246998"></path></g></g></g><g id="g-root-tx__59czinxvn5x-fill" data-item-order="0" transform="translate(94.95315551757812, 306)"><g id="tx__59czinxvn5x-fill-merged" stroke="none" fill="#484848" fill-opacity="1"><g><text style="font: 10.5px Roboto, sans-serif; white-space: pre;" transform="translate(182.046875, 16)" font-size="10.5px" font-family="Roboto, sans-serif"><tspan x="-170.05" y="6" dominant-baseline="ideographic">이것은 엔트로픽의 두 번째 코드 유출입니다.</tspan></text></g></g></g><g id="g-root-tx__59czinxvn5x-stroke" data-item-order="0" transform="translate(94.95315551757812, 306)"></g><g id="g-root-ic_warn_8z0xz2nxu9z5-fill" data-item-order="0" transform="translate(663, 326)"></g><g id="g-root-ic_warn_8z0xz2nxu9z5-stroke" data-item-order="0" transform="translate(663, 326)"><g id="ic_warn_8z0xz2nxu9z5-stroke" fill="none" stroke-linecap="round" stroke-linejoin="round" stroke-miterlimit="4" stroke="#4f3d58" stroke-width="2" stroke-opacity="1"><g><path d="M 27.4258 27.211L 27.4258 33.812199C 27.4258 38.06815 30.0343 41.889847 34.034203 43.4533L 34.903751 43.800701C 35.512451 44.061249 36.208 44.061249 36.8167 43.800701L 37.686249 43.4533C 41.68615 41.889847 44.294651 38.06815 44.294651 33.812199L 44.294651 27.211C 44.294651 26.689899 44.033798 26.25565 43.5121 25.9951C 42.294701 25.387001 39.512199 24.431635 35.7733 24.431635C 32.034248 24.431635 29.425749 25.47385 28.208349 26.081951C 27.773651 26.25565 27.4258 26.689899 27.4258 27.211ZM 35.859852 36.759701C 35.559849 36.759701 35.259701 37.059849 35.259701 37.359852C 35.259701 37.659851 35.559849 37.959698 35.859852 37.959698M 35.860901 36.759701C 36.1609 36.759701 36.460899 37.059849 36.460899 37.359852C 36.460899 37.659851 36.1609 37.959698 35.860901 37.959698M 35.8633 33.455048L 35.8633 28.95505M 43.142651 22.067965L 43.142651 13.50391C 43.142651 12.675475 42.4711 12.00391 41.642651 12.00391L 13.20508 12.00391C 12.376645 12.00391 11.70508 12.675475 11.70508 13.50391L 11.70508 22.93243C 11.70508 23.760849 12.376645 24.43243 13.20508 24.43243L 24.61438 24.43243M 17.735035 19.71616C 18.563829 19.71616 19.235695 19.044294 19.235695 18.2155C 19.235695 17.386705 18.563829 16.71484 17.735035 16.71484C 16.90624 16.71484 16.234375 17.386705 16.234375 18.2155C 16.234375 19.044294 16.90624 19.71616 17.735035 19.71616ZM 23.735035 19.71616C 24.563829 19.71616 25.235649 19.044294 25.235649 18.2155C 25.235649 17.386705 24.563829 16.71484 23.735035 16.71484C 22.90624 16.71484 22.234375 17.386705 22.234375 18.2155C 22.234375 19.044294 22.90624 19.71616 23.735035 19.71616ZM 29.73505 19.71616C 30.563801 19.71616 31.235649 19.044294 31.235649 18.2155C 31.235649 17.386705 30.563801 16.71484 29.73505 16.71484C 28.9063 16.71484 28.234301 17.386705 28.234301 18.2155C 28.234301 19.044294 28.9063 19.71616 29.73505 19.71616Z"></path></g></g></g><g id="g-root-tx__1luwwlanxvojq-fill" data-item-order="0" transform="translate(711, 331)"><g id="tx__1luwwlanxvojq-fill-merged" stroke="none" fill="#484848" fill-opacity="1"><g><text style="font: bold 12px Roboto, sans-serif; white-space: pre;" transform="translate(10, 17)" font-weight="bold" font-size="12px" font-family="Roboto, sans-serif"><tspan x="2" y="7" dominant-baseline="ideographic">설명</tspan></text></g></g></g><g id="g-root-tx__1luwwlanxvojq-stroke" data-item-order="0" transform="translate(711, 331)"></g><g id="g-root-tx__1cz9wcenxvpcf-fill" data-item-order="0" transform="translate(711, 345)"><g id="tx__1cz9wcenxvpcf-fill-merged" stroke="none" fill="#484848" fill-opacity="1"><g><text style="font: 10.5px Roboto, sans-serif; white-space: pre;" transform="translate(10, 16)" font-size="10.5px" font-family="Roboto, sans-serif"><tspan x="2" y="6" dominant-baseline="ideographic">코드 유출은 보안 취약점을 드러냅니다.</tspan></text></g></g></g><g id="g-root-tx__1cz9wcenxvpcf-stroke" data-item-order="0" transform="translate(711, 345)"></g></g></g></svg>