<?xml version="1.0" encoding="utf-8" standalone="yes"?>
<!DOCTYPE svg PUBLIC "-//W3C//DTD SVG 1.1//EN" "http://www.w3.org/Graphics/SVG/1.1/DTD/svg11.dtd">
<svg style="fill:none;stroke:none;fill-rule:evenodd;clip-rule:evenodd;stroke-linecap:round;stroke-linejoin:round;stroke-miterlimit:1.5;" version="1.1" xmlns="http://www.w3.org/2000/svg" xmlns:xlink="http://www.w3.org/1999/xlink" width="246" height="498" viewBox="0 0 246 498"><style class="text-font-style fontImports" data-font-family="Roboto">@import url(https://fonts.googleapis.com/css2?family=Roboto:wght@400;700&amp;amp;display=block);</style><g id="items" style="isolation: isolate"><g id="blend" style="mix-blend-mode: normal"><g id="g-root-sy_3_Vector_vb3787trbvnx-fill" data-item-order="-21591" transform="translate(113, 212)"></g><g id="g-root-sy_3_Vector_vb3787trbvnx-stroke" data-item-order="-21591" transform="translate(113, 212)"><g id="sy_3_Vector_vb3787trbvnx-stroke" fill="none" stroke-linecap="round" stroke-linejoin="round" stroke-miterlimit="4" stroke="#484848" stroke-width="2" stroke-opacity="1"><g><path d="M 10 130L 10 106M 10 34L 10 10"></path></g></g></g><g id="g-root-sy_3_cu_vb3787trbvny-fill" data-item-order="-21587" transform="translate(113, 404)"></g><g id="g-root-sy_3_cu_vb3787trbvny-stroke" data-item-order="-21587" transform="translate(113, 404)"><g id="sy_3_cu_vb3787trbvny-stroke" fill="none" stroke-linecap="round" stroke-linejoin="round" stroke-miterlimit="4" stroke="#484848" stroke-width="2" stroke-opacity="1"><g><path d="M 10 44L 10 10"></path><path d="M 3.5 38L 10 44.5L 16.5 38" stroke-dasharray="none"></path></g></g></g><g id="g-root-cr_3_cr-big_qv9p3rtrbwg7-fill" data-item-order="-21584" transform="translate(77, 332)"><g id="cr_3_cr-big_qv9p3rtrbwg7-fill-merged" stroke="none" fill="#e2a3ff" fill-opacity="1"><g><path d="M10 46C10 65.882 26.118 82 46 82C65.882 82 82 65.882 82 46C82 26.118 65.882 10 46 10C26.118 10 10 26.118 10 46"></path></g></g></g><g id="g-root-cr_3_cr-big_qv9p3rtrbwg7-stroke" data-item-order="-21584" transform="translate(77, 332)"><g id="cr_3_cr-big_qv9p3rtrbwg7-stroke" fill="none" stroke-linecap="round" stroke-linejoin="round" stroke-miterlimit="4" stroke="#ffffff" stroke-width="2" stroke-opacity="1"><g><path d="M 10 46C 10 65.882251 26.117749 82 46 82C 65.882251 82 82 65.882251 82 46C 82 26.117749 65.882251 10 46 10C 26.117749 10 10 26.117749 10 46Z"></path></g></g></g><g id="g-root-cr_2_cr-big_qv9p3rtrbwg8-fill" data-item-order="-21580" transform="translate(77, 236)"><g id="cr_2_cr-big_qv9p3rtrbwg8-fill-merged" stroke="none" fill="#c765f4" fill-opacity="1"><g><path d="M10 46C10 65.882 26.118 82 46 82C65.882 82 82 65.882 82 46C82 26.118 65.882 10 46 10C26.118 10 10 26.118 10 46"></path></g></g></g><g id="g-root-cr_2_cr-big_qv9p3rtrbwg8-stroke" data-item-order="-21580" transform="translate(77, 236)"><g id="cr_2_cr-big_qv9p3rtrbwg8-stroke" fill="none" stroke-linecap="round" stroke-linejoin="round" stroke-miterlimit="4" stroke="#ffffff" stroke-width="2" stroke-opacity="1"><g><path d="M 10 46C 10 65.882251 26.117749 82 46 82C 65.882251 82 82 65.882251 82 46C 82 26.117749 65.882251 10 46 10C 26.117749 10 10 26.117749 10 46Z"></path></g></g></g><g id="g-root-cr_1_cr-big_mfg6zbtrbx8h-fill" data-item-order="-21576" transform="translate(77, 140)"><g id="cr_1_cr-big_mfg6zbtrbx8h-fill-merged" stroke="none" fill="#ab57d3" fill-opacity="1"><g><path d="M10 46C10 65.882 26.118 82 46 82C65.882 82 82 65.882 82 46C82 26.118 65.882 10 46 10C26.118 10 10 26.118 10 46"></path></g></g></g><g id="g-root-cr_1_cr-big_mfg6zbtrbx8h-stroke" data-item-order="-21576" transform="translate(77, 140)"><g id="cr_1_cr-big_mfg6zbtrbx8h-stroke" fill="none" stroke-linecap="round" stroke-linejoin="round" stroke-miterlimit="4" stroke="#ffffff" stroke-width="2" stroke-opacity="1"><g><path d="M 10 46C 10 65.882251 26.117749 82 46 82C 65.882251 82 82 65.882251 82 46C 82 26.117749 65.882251 10 46 10C 26.117749 10 10 26.117749 10 46Z"></path></g></g></g><g id="g-root-tx__mfg6zbtrbx8i-fill" data-item-order="0" transform="translate(80.71875, 38)"><g id="tx__mfg6zbtrbx8i-fill-merged" stroke="none" fill="#484848" fill-opacity="1"><g><text style="font: bold 25px Roboto, sans-serif; white-space: pre;" transform="translate(42.28125, 25)" font-weight="bold" font-size="25px" font-family="Roboto, sans-serif"><tspan x="-30.28" y="14" dominant-baseline="ideographic">타이틀</tspan></text></g></g></g><g id="g-root-tx__mfg6zbtrbx8i-stroke" data-item-order="0" transform="translate(80.71875, 38)"></g><g id="g-root-ic_1_1cxzw47trg4y5-fill" data-item-order="0" transform="translate(89, 152)"></g><g id="g-root-ic_1_1cxzw47trg4y5-stroke" data-item-order="0" transform="translate(89, 152)"><g id="ic_1_1cxzw47trg4y5-stroke" fill="none" stroke-linecap="round" stroke-linejoin="round" stroke-miterlimit="4" stroke="#ffffff" stroke-width="2" stroke-opacity="1"><g><path d="M 33.084 57L 13.084 57C 11.97943 57 11.084 56.104568 11.084 55L 11.084 13C 11.084 11.895431 11.97943 11 13.084 11L 39.669998 11C 40.202408 11.003817 40.711319 11.219762 41.084 11.6L 48.498001 19C 48.8731 19.374985 49.083885 19.88361 49.084 20.414L 49.084 27M 23.084 24.007999L 17.084 30.007999L 23.084 36.007999M 29.084 24.007999L 35.084 30.007999L 29.084 36.007999M 41.084 41.007999L 55.084 41.007999C 55.084 41.007999 57.084 41.007999 57.084 43.007999L 57.084 55.006001C 57.084 55.006001 57.084 57.006001 55.084 57.006001L 41.084 57.006001C 41.084 57.006001 39.084 57.006001 39.084 55.006001L 39.084 43.007999C 39.084 43.007999 39.084 41.007999 41.084 41.007999M 45.584 49.133999C 45.584 50.514713 46.703289 51.633999 48.084 51.633999C 49.464714 51.633999 50.584 50.514713 50.584 49.133999C 50.584 47.753288 49.464714 46.633999 48.084 46.633999C 46.703289 46.633999 45.584 47.753288 45.584 49.133999M 53.084 38C 53.084 35.238579 50.845425 33 48.084 33C 45.322578 33 43.084 35.238579 43.084 38L 43.084 41L 53.084 41Z"></path></g></g></g><g id="g-root-tx_2026331_m7c0uvtrdatc-fill" data-item-order="0" transform="translate(14, 164)"><g id="tx_2026331_m7c0uvtrdatc-fill-merged" stroke="none" fill="#484848" fill-opacity="1"><g><text style="font: bold 20px Roboto, sans-serif; white-space: pre;" transform="translate(49, 22)" font-weight="bold" font-size="20px" font-family="Roboto, sans-serif"><tspan x="-37" y="12" dominant-baseline="ideographic">제목</tspan></text></g></g></g><g id="g-root-tx_2026331_m7c0uvtrdatc-stroke" data-item-order="0" transform="translate(14, 164)"></g><g id="g-root-tx__1hjfo0ntrbvgl-fill" data-item-order="0" transform="translate(15.171875, 200)"><g id="tx__1hjfo0ntrbvgl-fill-merged" stroke="none" fill="#484848" fill-opacity="1"><g><text style="font: 20px Roboto, sans-serif; white-space: pre;" transform="translate(47.828125, 22)" font-size="20px" font-family="Roboto, sans-serif"><tspan x="-35.83" y="12" dominant-baseline="ideographic">내용</tspan></text></g></g></g><g id="g-root-tx__1hjfo0ntrbvgl-stroke" data-item-order="0" transform="translate(15.171875, 200)"></g><g id="g-root-ic_unlo_8xqxqvtrepkx-fill" data-item-order="0" transform="translate(89, 248)"></g><g id="g-root-ic_unlo_8xqxqvtrepkx-stroke" data-item-order="0" transform="translate(89, 248)"><g id="ic_unlo_8xqxqvtrepkx-stroke" fill="none" stroke-linecap="round" stroke-linejoin="round" stroke-miterlimit="4" stroke="#ffffff" stroke-width="2" stroke-opacity="1"><g><path d="M 45 27L 45 22C 45 15.924868 40.075134 11 34 11C 27.924868 11 23 15.924868 23 22M 15 37L 53 37M 15 47L 53 47M 20 27L 48 27C 48 27 53 27 53 32L 53 52C 53 52 53 57 48 57L 20 57C 20 57 15 57 15 52L 15 32C 15 32 15 27 20 27M 20.5 31.5C 20.776142 31.5 21 31.723858 21 32C 21 32.276142 20.776142 32.5 20.5 32.5C 20.223858 32.5 20 32.276142 20 32C 20 31.723858 20.223858 31.5 20.5 31.5M 25.5 31.5C 25.776142 31.5 26 31.723858 26 32C 26 32.276142 25.776142 32.5 25.5 32.5C 25.223858 32.5 25 32.276142 25 32C 25 31.723858 25.223858 31.5 25.5 31.5M 20.5 41.5C 20.776142 41.5 21 41.723858 21 42C 21 42.276142 20.776142 42.5 20.5 42.5C 20.223858 42.5 20 42.276142 20 42C 20 41.723858 20.223858 41.5 20.5 41.5M 25.5 41.5C 25.776142 41.5 26 41.723858 26 42C 26 42.276142 25.776142 42.5 25.5 42.5C 25.223858 42.5 25 42.276142 25 42C 25 41.723858 25.223858 41.5 25.5 41.5M 20.5 51.5C 20.776142 51.5 21 51.723858 21 52C 21 52.276142 20.776142 52.5 20.5 52.5C 20.223858 52.5 20 52.276142 20 52C 20 51.723858 20.223858 51.5 20.5 51.5M 25.5 51.5C 25.776142 51.5 26 51.723858 26 52C 26 52.276142 25.776142 52.5 25.5 52.5C 25.223858 52.5 25 52.276142 25 52C 25 51.723858 25.223858 51.5 25.5 51.5"></path></g></g></g><g id="g-root-tx_2026326_vcc5eftrbxu7-fill" data-item-order="0" transform="translate(173, 260)"><g id="tx_2026326_vcc5eftrbxu7-fill-merged" stroke="none" fill="#484848" fill-opacity="1"><g><text style="font: bold 20px Roboto, sans-serif; white-space: pre;" transform="translate(10, 22)" font-weight="bold" font-size="20px" font-family="Roboto, sans-serif"><tspan x="2" y="12" dominant-baseline="ideographic">제목</tspan></text></g></g></g><g id="g-root-tx_2026326_vcc5eftrbxu7-stroke" data-item-order="0" transform="translate(173, 260)"></g><g id="g-root-tx__1uu9pavtrbx1g-fill" data-item-order="0" transform="translate(173, 296)"><g id="tx__1uu9pavtrbx1g-fill-merged" stroke="none" fill="#484848" fill-opacity="1"><g><text style="font: 20px Roboto, sans-serif; white-space: pre;" transform="translate(10, 22)" font-size="20px" font-family="Roboto, sans-serif"><tspan x="2" y="12" dominant-baseline="ideographic">내용</tspan></text></g></g></g><g id="g-root-tx__1uu9pavtrbx1g-stroke" data-item-order="0" transform="translate(173, 296)"></g><g id="g-root-ic_code_dbp0lztrdbm1-fill" data-item-order="0" transform="translate(89, 344)"></g><g id="g-root-ic_code_dbp0lztrdbm1-stroke" data-item-order="0" transform="translate(89, 344)"><g id="ic_code_dbp0lztrdbm1-stroke" fill="none" stroke-linecap="round" stroke-linejoin="round" stroke-miterlimit="4" stroke="#ffffff" stroke-width="2" stroke-opacity="1"><g><path d="M 10 10M 22.5 53.5L 11.5 45.5L 11.5 22.5L 22.5 13.5L 22.5 53.5ZM 10 10M 45.5 54.5L 56.5 45.5L 56.5 23.5L 45.5 13.5L 45.5 54.5ZM 22.5 22.5L 26.1 22.5M 22.5 45.5L 26.1 45.5M 32.099998 22.5L 36.099998 22.5M 32.099998 45.5L 36.099998 45.5M 42.099998 22.5L 45.5 22.5M 42.099998 45.5L 45.5 45.5M 10 10M 32.099998 39.5L 27.1001 35.5L 32.099998 31.5M 10 10M 37.099998 39.5L 40.099998 28.5"></path></g></g></g><g id="g-root-tx_2023331_147z5nbtrbx1i-fill" data-item-order="0" transform="translate(14, 356)"><g id="tx_2023331_147z5nbtrbx1i-fill-merged" stroke="none" fill="#484848" fill-opacity="1"><g><text style="font: bold 20px Roboto, sans-serif; white-space: pre;" transform="translate(49, 22)" font-weight="bold" font-size="20px" font-family="Roboto, sans-serif"><tspan x="-37" y="12" dominant-baseline="ideographic">제목</tspan></text></g></g></g><g id="g-root-tx_2023331_147z5nbtrbx1i-stroke" data-item-order="0" transform="translate(14, 356)"></g><g id="g-root-tx__8z5g7trbwgb-fill" data-item-order="0" transform="translate(15.171875, 392)"><g id="tx__8z5g7trbwgb-fill-merged" stroke="none" fill="#484848" fill-opacity="1"><g><text style="font: 20px Roboto, sans-serif; white-space: pre;" transform="translate(47.828125, 22)" font-size="20px" font-family="Roboto, sans-serif"><tspan x="-35.83" y="12" dominant-baseline="ideographic">내용</tspan></text></g></g></g><g id="g-root-tx__8z5g7trbwgb-stroke" data-item-order="0" transform="translate(15.171875, 392)"></g></g></g></svg>