<?xml version="1.0" encoding="utf-8" standalone="yes"?>
<!DOCTYPE svg PUBLIC "-//W3C//DTD SVG 1.1//EN" "http://www.w3.org/Graphics/SVG/1.1/DTD/svg11.dtd">
<svg style="fill:none;stroke:none;fill-rule:evenodd;clip-rule:evenodd;stroke-linecap:round;stroke-linejoin:round;stroke-miterlimit:1.5;" version="1.1" xmlns="http://www.w3.org/2000/svg" xmlns:xlink="http://www.w3.org/1999/xlink" width="624" height="546" viewBox="0 0 624 546"><style class="text-font-style fontImports" data-font-family="Roboto">@import url(https://fonts.googleapis.com/css2?family=Roboto:wght@400;700&amp;amp;display=block);</style><g id="items" style="isolation: isolate"><g id="blend" style="mix-blend-mode: normal"><g id="g-root-cp_0_g-0_dbpmseo7wnpl-fill" data-item-order="-284391" transform="translate(98, 116.168212890625)"></g><g id="g-root-cp_0_g-0_dbpmseo7wnpl-stroke" data-item-order="-284391" transform="translate(98, 116.168212890625)"><g id="cp_0_g-0_dbpmseo7wnpl-stroke" fill="none" stroke-linecap="round" stroke-linejoin="round" stroke-miterlimit="4" stroke="#484848" stroke-width="2" stroke-dasharray="5.0, 7.0" stroke-opacity="1"><g><path d="M 10 189.831764C 16.6274 189.831764 22 184.459164 22 177.831764L 22 129.831764M 418 189.831764C 411.3726 189.831764 406 195.204364 406 201.831764L 406 261.831764M 214 177.831764L 214 97.361164C 214 50.857364 174.2244 12.823864 124 9.999964M 214 213.831764L 214 294.302364C 214 340.806164 253.7756 378.839664 304 381.663564M 405.9234 297.831764C 403.9711 342.716964 364.9478 378.911464 316.0001 381.663564M 112 9.999964C 63.0523 12.752064 24.0289 48.946564 22.0766 93.831764"></path></g></g></g><g id="g-root-cp_common_g-common_8vw4nyo7wohu-fill" data-item-order="-284387" transform="translate(105, 210)"></g><g id="g-root-cp_common_g-common_8vw4nyo7wohu-stroke" data-item-order="-284387" transform="translate(105, 210)"><g id="cp_common_g-common_8vw4nyo7wohu-stroke" fill="none" stroke-linecap="round" stroke-linejoin="round" stroke-miterlimit="4" stroke="#4f3d58" stroke-width="2" stroke-opacity="1"><g><path d="M 399 195L 399 177M 399 177L 394 182M 399 177L 404 182M 15 28L 15 10M 15 10L 10 15M 15 10L 20 15M 207 93L 207 111M 207 111L 212 106M 207 111L 202 106"></path></g></g></g><g id="g-root-cp_1_g-1_2_94f2o7wpaj-fill" data-item-order="-284372" transform="translate(121.99981689453125, 110)"><g id="cp_1_g-1_2_94f2o7wpaj-fill-merged" stroke="none" fill="#ba5de5" fill-opacity="1"><g><path d="M178 251.412C178 290.397 140.392 322 94 322C47.608 322 10.001 290.397 10.001 251.412 V98.588C10 59.603 47.608 28 94 28C140.392 28 178 59.603 178 98.588 V251.412"></path></g></g><g id="cp_1_g-1_2_94f2o7wpaj-fill-merged" stroke="none" fill="#ba5de5" fill-opacity="1"><g><path d="M88 16C88 19.314 90.686 22 94 22C97.314 22 100 19.314 100 16C100 12.686 97.314 10 94 10C90.686 10 88 12.686 88 16"></path></g></g></g><g id="g-root-cp_1_g-1_2_94f2o7wpaj-stroke" data-item-order="-284372" transform="translate(121.99981689453125, 110)"><g id="cp_1_g-1_2_94f2o7wpaj-stroke" fill="none" stroke-linecap="round" stroke-linejoin="round" stroke-miterlimit="4" stroke="#ffffff" stroke-width="2" stroke-opacity="1"><g><path d="M 10.000183 251.411758C 10.000183 290.396558 47.608283 321.999958 94.000183 321.999958C 140.392083 321.999958 178.000183 290.396558 178.000183 251.411758M 10.000183 251.411743L 10.000183 98.588219M 178.000183 251.411743L 178.000183 98.588219M 178.000183 98.5882C 178.000183 59.6034 140.392083 28 94.000183 28C 47.608283 28 10.000183 59.6034 10.000183 98.5882"></path></g></g><g id="cp_1_g-1_2_94f2o7wpaj-stroke" fill="none" stroke-linecap="round" stroke-linejoin="round" stroke-miterlimit="4" stroke="#ffffff" stroke-width="2" stroke-opacity="1"><g><path d="M 88.000183 16C 88.000183 19.313709 90.686475 22 94.000183 22C 97.313892 22 100.000183 19.313709 100.000183 16C 100.000183 12.686292 97.313892 10 94.000183 10C 90.686475 10 88.000183 12.686292 88.000183 16"></path></g></g></g><g id="g-root-cp_2_g-2_2_1um65cuo7wmpw-fill" data-item-order="-284338" transform="translate(314, 182)"><g id="cp_2_g-2_2_1um65cuo7wmpw-fill-merged" stroke="none" fill="#e2a3ff" fill-opacity="1"><g><path d="M10 80.588C10 41.603 47.608 10 94 10C140.392 10 178 41.603 178 80.588 V233.412C178 272.396 140.392 304 94 304C47.608 304 10 272.396 10 233.412 V80.588"></path></g></g><g id="cp_2_g-2_2_1um65cuo7wmpw-fill-merged" stroke="none" fill="#e2a3ff" fill-opacity="1"><g><path d="M88 316C88 319.314 90.686 322 94 322C97.314 322 100 319.314 100 316C100 312.686 97.314 310 94 310C90.686 310 88 312.686 88 316"></path></g></g></g><g id="g-root-cp_2_g-2_2_1um65cuo7wmpw-stroke" data-item-order="-284338" transform="translate(314, 182)"><g id="cp_2_g-2_2_1um65cuo7wmpw-stroke" fill="none" stroke-linecap="round" stroke-linejoin="round" stroke-miterlimit="4" stroke="#ffffff" stroke-width="2" stroke-opacity="1"><g><path d="M 88 316C 88 319.313709 90.686292 322 94 322C 97.313709 322 100 319.313709 100 316C 100 312.686292 97.313709 310 94 310C 90.686292 310 88 312.686292 88 316"></path></g></g><g id="cp_2_g-2_2_1um65cuo7wmpw-stroke" fill="none" stroke-linecap="round" stroke-linejoin="round" stroke-miterlimit="4" stroke="#ffffff" stroke-width="2" stroke-opacity="1"><g><path d="M 10 233.411758C 10 272.396558 47.6081 303.999958 94 303.999958C 140.3919 303.999958 178 272.396558 178 233.411758M 10 233.411743L 10 80.588219M 178 233.411743L 178 80.588219M 178 80.5882C 178 41.6034 140.3919 10 94 10C 47.6081 10 10 41.6034 10 80.5882"></path></g></g></g><g id="g-root-tx_ai_1um65cuo7wmpx-fill" data-item-order="0" transform="translate(230.70089721679688, 38)"><g id="tx_ai_1um65cuo7wmpx-fill-merged" stroke="none" fill="#484848" fill-opacity="1"><g><text style="font: bold 25px Roboto, sans-serif; white-space: pre;" transform="translate(81.29910278320312, 25)" font-weight="bold" font-size="25px" font-family="Roboto, sans-serif"><tspan x="-69.3" y="14.71" dominant-baseline="ideographic">AI 코딩의 진화</tspan></text></g></g></g><g id="g-root-tx_ai_1um65cuo7wmpx-stroke" data-item-order="0" transform="translate(230.70089721679688, 38)"></g><g id="g-root-ic_code_4mbdemo829zd-fill" data-item-order="0" transform="translate(170, 200)"></g><g id="g-root-ic_code_4mbdemo829zd-stroke" data-item-order="0" transform="translate(170, 200)"><g id="ic_code_4mbdemo829zd-stroke" fill="none" stroke-linecap="round" stroke-linejoin="round" stroke-miterlimit="4" stroke="#ffffff" stroke-width="2" stroke-opacity="1"><g><path d="M 47.608002 77.287003C 47.606346 79.061974 46.166977 80.5 44.392002 80.5L 15.463 80.5C 13.689195 80.498344 12.251654 79.060806 12.25 77.287003L 12.25 69.25C 12.25 59.48616 20.165159 51.570999 29.929001 51.570999C 39.692844 51.570999 47.608002 59.48616 47.608002 69.25ZM 23.179001 62.5C 23.179001 62.914215 23.514786 63.25 23.929001 63.25C 24.343214 63.25 24.679001 62.914215 24.679001 62.5C 24.679001 62.085785 24.343214 61.75 23.929001 61.75C 23.514786 61.75 23.179001 62.085785 23.179001 62.5M 35.179001 62.481998C 35.179001 62.89621 35.514786 63.231998 35.929001 63.231998C 36.343216 63.231998 36.679001 62.89621 36.679001 62.481998C 36.679001 62.067787 36.343216 61.731998 35.929001 61.731998C 35.514786 61.731998 35.179001 62.067787 35.179001 62.481998M 29.929001 51.570999L 29.929001 45.141998M 25.108 40.320999C 25.108002 42.983566 27.266436 45.142002 29.929001 45.142002C 32.591564 45.142002 34.75 42.983566 34.75 40.320999C 34.75 37.658436 32.591564 35.5 29.929001 35.5C 27.266436 35.5 25.108002 37.658436 25.108002 40.320999M 12.25 72.445L 47.608002 72.445M 67.75 13L 79.75 25L 67.75 37M 43.75 13L 31.75 25L 43.75 37M 58.75 11.5L 52.75 38.5"></path></g></g></g><g id="g-root-ic_type_1hapmzio7woau-fill" data-item-order="0" transform="translate(14, 266)"></g><g id="g-root-ic_type_1hapmzio7woau-stroke" data-item-order="0" transform="translate(14, 266)"><g id="ic_type_1hapmzio7woau-stroke" fill="none" stroke-linecap="round" stroke-linejoin="round" stroke-miterlimit="4" stroke="#4f3d58" stroke-width="2" stroke-opacity="1"><g><path d="M 19.33 42.25L 15.67 42.25C 14.745955 42.249977 13.873481 41.82412 13.304996 41.095642C 12.736512 40.367157 12.535458 39.417347 12.76 38.521L 17.26 20.521C 17.594378 19.186207 18.793962 18.250036 20.17 18.25L 72.487 18.25C 73.863037 18.250036 75.062622 19.186207 75.397003 20.521L 79.897003 38.521C 80.121544 39.417347 79.920486 40.367157 79.352005 41.095642C 78.783516 41.82412 77.911041 42.249977 76.987 42.25L 73.330002 42.25M 20.83 36.25L 23.83 36.25M 26.83 30.25L 29.83 30.25M 35.829998 30.25L 38.829998 30.25M 44.829998 30.25L 47.829998 30.25M 53.829998 30.25L 56.829998 30.25M 62.830002 30.25L 65.830002 30.25M 26.83 24.25L 29.83 24.25M 35.829998 24.25L 38.829998 24.25M 44.829998 24.25L 47.829998 24.25M 53.829998 24.25L 56.829998 24.25M 62.830002 24.25L 65.830002 24.25M 29.83 36.25L 62.830002 36.25M 68.830002 36.25L 71.830002 36.25M 35.280998 49.636002L 36.126999 46.687C 36.476601 45.465073 35.769432 44.191097 34.547501 43.841499C 33.325569 43.491905 32.051598 44.199074 31.702002 45.421005L 30.862 48.375999M 28.333 57.223L 30.862 48.375999C 31.163431 47.170631 30.454805 45.943359 29.260185 45.601807C 28.065565 45.260258 26.81529 45.927464 26.434 47.110001L 25.174 51.531998M 36.057999 72.25C 39.288998 69.079002 42.639999 65.290001 42.639999 65.290001C 43.364914 64.708824 43.542465 63.67823 43.05381 62.887989C 42.565159 62.097748 41.563824 61.796127 40.719997 62.184998L 35.5 65.643997L 39.699997 50.899002C 39.936127 50.105217 39.727478 49.245781 39.153671 48.648628C 38.579865 48.051479 37.729427 47.808743 36.926865 48.013046C 36.124306 48.21735 35.493439 48.83717 35.275002 49.636002L 32.751999 58.482998M 23.281 58.167999L 25.174 51.531998C 25.521111 50.310902 24.812601 49.039612 23.591501 48.692505C 22.370399 48.34539 21.099112 49.053898 20.752001 50.275002L 16.552 65.016998C 15.84478 67.470093 16.407377 70.114304 18.052 72.067001M 57.375999 49.636002L 56.532997 46.687C 56.229378 45.482456 56.936646 44.254372 58.130886 43.912464C 59.325127 43.570557 60.575157 44.238277 60.955002 45.421001L 61.794998 48.375999M 64.323997 57.223L 61.794998 48.375999C 61.493572 47.170631 62.202194 45.943359 63.396816 45.601807C 64.591438 45.260258 65.841705 45.927464 66.223007 47.110001L 67.483002 51.531998M 56.598999 72.25C 53.368 69.079002 50.016998 65.290001 50.016998 65.290001C 49.29208 64.708824 49.114532 63.67823 49.603184 62.887989C 50.091835 62.097748 51.09317 61.796127 51.936996 62.184998L 57.162998 65.643997L 52.963001 50.899002C 52.726871 50.105217 52.93552 49.245781 53.509327 48.648628C 54.083134 48.051479 54.933571 47.808743 55.736134 48.013046C 56.538696 48.21735 57.169559 48.83717 57.388 49.636002L 59.914001 58.482998M 69.375999 58.167999L 67.483002 51.531998C 67.230797 50.732903 67.432938 49.859882 68.010681 49.252953C 68.588432 48.646027 69.450447 48.401157 70.260994 48.613712C 71.071533 48.826271 71.702446 49.462654 71.907997 50.275002L 76.108002 65.016998C 76.815224 67.470093 76.252625 70.114304 74.608002 72.067001"></path></g></g></g><g id="g-root-tx_ai_zpodcuo83or0-fill" data-item-order="0" transform="translate(371.77679443359375, 242)"><g id="tx_ai_zpodcuo83or0-fill-merged" stroke="none" fill="#ffffff" fill-opacity="1"><g><text style="font: bold 20px Roboto, sans-serif; white-space: pre;" transform="translate(36.22320556640625, 22)" font-weight="bold" font-size="20px" font-family="Roboto, sans-serif"><tspan x="-24.22" y="11.43" dominant-baseline="ideographic">타이틀</tspan></text></g></g></g><g id="g-root-tx_ai_zpodcuo83or0-stroke" data-item-order="0" transform="translate(371.77679443359375, 242)"></g><g id="g-root-ic_sett_1uqjgymo80vsw-fill" data-item-order="0" transform="translate(518, 266)"></g><g id="g-root-ic_sett_1uqjgymo80vsw-stroke" data-item-order="0" transform="translate(518, 266)"><g id="ic_sett_1uqjgymo80vsw-stroke" fill="none" stroke-linecap="round" stroke-linejoin="round" stroke-miterlimit="4" stroke="#4f3d58" stroke-width="2" stroke-opacity="1"><g><path d="M 16.71685 69.25C 19.202141 69.25 21.21685 67.235199 21.21685 64.75C 21.21685 62.264801 19.202141 60.25 16.71685 60.25C 14.23159 60.25 12.216859 62.264801 12.216859 64.75C 12.216859 67.235199 14.23159 69.25 16.71685 69.25ZM 36.517151 55.305401C 39.002441 55.305401 41.0173 53.2906 41.0173 50.805401C 41.0173 48.320202 39.002441 46.305401 36.517151 46.305401C 34.03186 46.305401 32.017151 48.320202 32.017151 50.805401C 32.017151 53.2906 34.03186 55.305401 36.517151 55.305401ZM 10 10M 36.517151 55.305401L 36.517151 79.75M 21.21685 64.75L 23.75032 64.75C 25.650431 64.75 26.91715 65.949997 26.91715 67.75L 26.91715 79.75M 56.016998 69.25C 58.502201 69.25 60.517002 67.235199 60.517002 64.75C 60.517002 62.264801 58.502201 60.25 56.016998 60.25C 53.531799 60.25 51.516998 62.264801 51.516998 64.75C 51.516998 67.235199 53.531799 69.25 56.016998 69.25ZM 51.516998 64.75L 49.116997 64.75C 47.317001 64.75 46.116997 65.949997 46.116997 67.75L 46.116997 79.75M 10 10M 28.41679 40.150002L 27.216791 38.649849C 26.616791 37.749851 25.116791 37.449818 24.216791 38.04982L 21.216789 39.849819C 18.81679 41.349701 15.81676 38.649818 17.01676 35.949818L 18.51676 32.949821C 19.11676 31.749821 18.51676 30.54982 17.61676 29.94982L 14.61676 28.44982C 11.916766 26.94982 12.816793 23.04985 15.81679 22.749849L 19.11676 22.44982C 20.316761 22.44982 21.216789 21.249821 21.216789 20.04982L 21.216789 16.749849C 21.216789 13.74985 24.816761 12.549823 26.61676 14.94982L 28.716791 17.649849C 29.31679 18.54985 30.81679 18.84985 31.716791 18.249849L 34.716789 16.44982C 37.116791 14.94982 40.116699 17.64982 38.91679 20.349819L 37.41679 23.349821C 36.816788 24.54982 37.41679 25.749821 38.316788 26.349821L 41.3167 27.849821C 44.016701 29.349821 43.116699 33.249821 40.116699 33.54982L 36.816788 33.849819C 35.616791 33.849819 34.716789 35.04985 34.716789 36.249851L 34.716789 38.04982M 10 10M 68.6203 17.119659L 69.653198 20.477289C 69.911499 21.768669 71.202995 22.28524 72.494202 22.02697L 75.852104 21.252131C 78.951401 20.477289 81.017502 24.093189 78.951401 26.417679L 76.626701 29.000469C 75.852104 30.033579 75.852104 31.324961 76.626701 32.09977L 78.951401 34.68256C 81.017502 37.00705 78.951401 40.622799 75.852104 39.84811L 72.494202 39.073269C 71.202995 38.814999 70.1698 39.58984 69.653198 40.6231L 68.6203 43.980698C 67.587097 47.079998 63.454597 47.079998 62.679703 43.980698L 61.646797 40.6231C 61.388496 39.33157 60.097 38.814999 58.805496 39.073269L 55.447899 39.84811C 52.348602 40.622799 50.282501 37.00705 52.348602 34.68256L 54.673302 32.09977C 55.447899 31.06666 55.447899 29.77528 54.673302 29.000469L 52.348602 26.417679C 50.282501 24.093189 52.348602 20.477289 55.447899 21.252131L 58.805496 22.02697C 60.097 22.28524 61.130199 21.510401 61.646797 20.477289L 62.679703 17.119659C 63.454597 14.020329 67.845398 14.020329 68.6203 17.119659ZM 27.966791 31.58506C 29.77042 31.58506 31.232559 30.12289 31.232559 28.31926C 31.232559 26.5156 29.77042 25.053459 27.966791 25.053459C 26.16313 25.053459 24.700991 26.5156 24.700991 28.31926C 24.700991 30.12289 26.16313 31.58506 27.966791 31.58506ZM 65.649994 33.81601C 67.453598 33.81601 68.915802 32.35387 68.915802 30.550209C 68.915802 28.74658 67.453598 27.284409 65.649994 27.284409C 63.8461 27.284409 62.384197 28.74658 62.384197 30.550209C 62.384197 32.35387 63.8461 33.81601 65.649994 33.81601Z"></path></g></g></g><g id="g-root-tx_openaian_zpodcuo83or1-fill" data-item-order="0" transform="translate(383.33038330078125, 278)"><g id="tx_openaian_zpodcuo83or1-fill-merged" stroke="none" fill="#ffffff" fill-opacity="1"><g><text style="font: 15px Roboto, sans-serif; white-space: pre;" transform="translate(24.66961669921875, 19)" font-size="15px" font-family="Roboto, sans-serif"><tspan x="-12.67" y="8.14" dominant-baseline="ideographic">설명</tspan></text></g></g></g><g id="g-root-tx_openaian_zpodcuo83or1-stroke" data-item-order="0" transform="translate(383.33038330078125, 278)"></g><g id="g-root-tx_ai_1d14vq6o83n62-fill" data-item-order="0" transform="translate(179.77679443359375, 308)"><g id="tx_ai_1d14vq6o83n62-fill-merged" stroke="none" fill="#ffffff" fill-opacity="1"><g><text style="font: bold 20px Roboto, sans-serif; white-space: pre;" transform="translate(36.22320556640625, 22)" font-weight="bold" font-size="20px" font-family="Roboto, sans-serif"><tspan x="-24.22" y="11.43" dominant-baseline="ideographic">타이틀</tspan></text></g></g></g><g id="g-root-tx_ai_1d14vq6o83n62-stroke" data-item-order="0" transform="translate(179.77679443359375, 308)"></g><g id="g-root-ic_robo_v9uv8eo83pja-fill" data-item-order="0" transform="translate(362, 332)"></g><g id="g-root-ic_robo_v9uv8eo83pja-stroke" data-item-order="0" transform="translate(362, 332)"><g id="ic_robo_v9uv8eo83pja-stroke" fill="none" stroke-linecap="round" stroke-linejoin="round" stroke-miterlimit="4" stroke="#ffffff" stroke-width="2" stroke-opacity="1"><g><path d="M 28 11.5L 64 11.5C 64 11.5 68.5 11.5 68.5 16L 68.5 34C 68.5 34 68.5 38.5 64 38.5L 28 38.5C 28 38.5 23.5 38.5 23.5 34L 23.5 16C 23.5 16 23.5 11.5 28 11.5M 29.5 25C 29.5 27.485283 31.514719 29.5 34 29.5C 36.485283 29.5 38.5 27.485283 38.5 25C 38.5 22.514719 36.485283 20.5 34 20.5C 31.514719 20.5 29.5 22.514719 29.5 25M 53.5 25C 53.5 27.485283 55.514721 29.5 58 29.5C 60.485283 29.5 62.5 27.485283 62.5 25C 62.5 22.514719 60.485283 20.5 58 20.5C 55.514721 20.5 53.5 22.514719 53.5 25M 41.5 44.5L 50.5 44.5M 41.5 50.5L 50.5 50.5M 56.02 56.5L 35.98 56.5C 32.661442 56.498268 29.52013 57.99752 27.434277 60.578617C 25.348423 63.159718 24.541832 66.545715 25.240002 69.790009L 26.650002 79.300003C 26.781635 80.005051 27.402866 80.512184 28.119999 80.5L 64 80.5C 64.717133 80.512184 65.338371 80.005051 65.470001 79.300003L 66.879997 69.790001C 67.582848 66.525047 66.76149 63.117683 64.648224 60.531559C 62.534958 57.945431 59.359535 56.461708 56.020004 56.500004ZM 67 66.340004L 72.129997 61.510002C 75.43737 58.89489 76.943726 54.609367 76.000008 50.500004L 76 49.93M 79 38.5C 80.704475 40.772633 80.978645 43.813225 79.708206 46.354103C 78.437759 48.894981 75.84079 50.5 73 50.5C 70.638199 50.504745 68.413284 49.392288 67 47.500004M 25 66.340004L 19.93 61.510002C 16.600441 58.909267 15.069838 54.621239 16 50.500004L 16 49.900002M 13 38.5C 11.295526 40.772633 11.021356 43.813225 12.291796 46.354103C 13.562236 48.894981 16.15921 50.5 19 50.5C 21.361797 50.504745 23.586718 49.392288 25 47.500004M 58 80.5L 58 67C 58 66.17157 57.328426 65.5 56.5 65.5L 35.5 65.5C 34.671574 65.5 34 66.17157 34 67L 34 80.5"></path></g></g></g><g id="g-root-tx_ai_18lbdlqo83nyb-fill" data-item-order="0" transform="translate(191.33035278320312, 344)"><g id="tx_ai_18lbdlqo83nyb-fill-merged" stroke="none" fill="#ffffff" fill-opacity="1"><g><text style="font: 15px Roboto, sans-serif; white-space: pre;" transform="translate(24.669647216796875, 19)" font-size="15px" font-family="Roboto, sans-serif"><tspan x="-12.67" y="8.14" dominant-baseline="ideographic">설명</tspan></text></g></g></g><g id="g-root-tx_ai_18lbdlqo83nyb-stroke" data-item-order="0" transform="translate(191.33035278320312, 344)"></g></g></g></svg>