<?xml version="1.0" encoding="utf-8" standalone="yes"?>
<!DOCTYPE svg PUBLIC "-//W3C//DTD SVG 1.1//EN" "http://www.w3.org/Graphics/SVG/1.1/DTD/svg11.dtd">
<svg style="fill:none;stroke:none;fill-rule:evenodd;clip-rule:evenodd;stroke-linecap:round;stroke-linejoin:round;stroke-miterlimit:1.5;" version="1.1" xmlns="http://www.w3.org/2000/svg" xmlns:xlink="http://www.w3.org/1999/xlink" width="600" height="306" viewBox="0 0 600 306"><style class="text-font-style fontImports" data-font-family="Roboto">@import url(https://fonts.googleapis.com/css2?family=Roboto:wght@400;700&amp;amp;display=block);</style><g id="items" style="isolation: isolate"><g id="blend" style="mix-blend-mode: normal"><g id="g-root-sy_3_cu_qn6udjsnhrer-fill" data-item-order="-62922" transform="translate(107.138427734375, 159.3701171875)"><g id="sy_3_cu_qn6udjsnhrer-fill-merged" stroke="none" fill="#e2a3ff" fill-opacity="1"><g><path d="M80.52 47.84C81.667 47.84 82.756 47.783 83.788 47.668C84.82 47.439 85.68 47.152 86.368 46.808C87.056 46.349 87.629 45.776 88.088 45.088C88.547 44.4 88.833 43.54 88.948 42.508L89.12 40.96 V38.38C89.12 38.075 89.118 37.789 89.115 37.52C89.098 36.272 89.042 35.412 88.948 34.94C88.948 34.481 88.833 34.023 88.604 33.564C88.489 33.105 88.26 32.647 87.916 32.188C86.447 30.719 84.232 29.959 82.412 29.092L78.8 27.2 H54.72 V10 H40.96C27.2 10 19.804 10.057 18.772 10.172C17.74 10.287 16.823 10.573 16.02 11.032C15.332 11.491 14.701 12.064 14.128 12.752C13.555 13.44 13.153 14.3 12.924 15.332C10.966 21.206 10.855 27.971 10 34.08 V39.24C10 42.68 10.057 44.629 10.172 45.088C10.172 45.661 10.287 46.12 10.516 46.464C10.745 46.808 11.032 47.095 11.376 47.324C11.969 47.72 12.765 47.671 13.44 47.84 H16.91 V47.146C16.91 46.684 17.026 46.222 17.257 45.759C17.372 45.413 17.545 45.008 17.776 44.546C17.892 44.199 18.123 43.852 18.469 43.505C18.7 43.159 18.989 42.812 19.336 42.465C19.682 42.234 20.086 42.003 20.548 41.771C20.895 41.54 21.299 41.367 21.761 41.251L23.147 40.904 H24.533C24.995 41.02 25.399 41.136 25.745 41.251C26.207 41.367 26.611 41.54 26.958 41.771C27.42 42.003 27.824 42.234 28.171 42.465C28.517 42.812 28.806 43.159 29.037 43.505C29.383 43.852 29.672 44.199 29.903 44.546C30.134 45.008 30.307 45.413 30.423 45.759C30.538 46.222 30.596 47.146 30.596 47.146 V47.84 H65.229 V47.146C65.229 46.684 65.344 46.222 65.575 45.759C65.691 45.413 65.864 45.008 66.095 44.546C66.348 43.785 67.096 43.023 67.654 42.465C68.001 42.234 68.405 42.003 68.867 41.771C69.213 41.54 69.618 41.367 70.079 41.251L71.465 40.904 H72.851C73.313 41.02 73.717 41.136 74.064 41.251C74.526 41.367 74.93 41.54 75.277 41.771C75.739 42.003 76.143 42.234 76.489 42.465C77.107 43.083 77.737 43.819 78.222 44.546C78.453 45.008 78.626 45.413 78.741 45.759C78.857 46.222 78.914 47.146 78.914 47.146 V47.84 H80.52 M32.016 27.2 H21.008C20.272 27.2 19.774 27.013 19.116 26.684C19.009 26.577 18.883 26.473 18.756 26.369C18.494 26.153 18.223 25.931 18.084 25.652C17.729 24.942 17.568 24.397 17.568 23.588C17.568 22.121 17.902 20.534 18.256 19.116C18.407 18.511 19.062 17.681 19.632 17.396C19.976 17.167 20.377 17.052 20.836 17.052C21.295 16.937 25.251 16.88 32.704 16.88 H43.712C43.75 16.88 43.787 16.88 43.825 16.88C44.203 16.878 44.565 16.876 44.916 17.052C45.87 17.529 46.51 18.177 46.98 19.116C47.165 19.486 47.16 19.884 47.154 20.285C47.153 20.354 47.152 20.423 47.152 20.492C47.152 21.968 46.823 23.529 46.464 24.964C46.313 25.569 45.658 26.399 45.088 26.684C44.744 26.913 44.343 27.028 43.884 27.028C43.425 27.143 39.469 27.2 32.016 27.2"></path></g></g></g><g id="g-root-sy_3_cu_qn6udjsnhrer-stroke" data-item-order="-62922" transform="translate(107.138427734375, 159.3701171875)"><g id="sy_3_cu_qn6udjsnhrer-stroke" fill="none" stroke-linecap="round" stroke-linejoin="round" stroke-miterlimit="4" stroke="#484848" stroke-width="2" stroke-opacity="1"><g><path d="M 80.52 47.84C 81.6667 47.84 82.756 47.7827 83.788 47.668C 84.82 47.4387 85.68 47.152 86.368 46.808C 87.056 46.3493 87.6293 45.776 88.088 45.088C 88.5467 44.4 88.8333 43.54 88.948 42.508L 89.12 40.96L 89.12 38.38C 89.12 38.0753 89.1182 37.7887 89.1146 37.52C 89.0979 36.2718 89.0424 35.4118 88.948 34.94C 88.948 34.4813 88.8333 34.0227 88.604 33.564C 88.4893 33.1053 88.26 32.6467 87.916 32.188C 86.4467 30.7187 84.2325 29.9589 82.412 29.092L 78.8 27.2L 54.72 27.2L 54.72 10L 40.96 10C 27.2 10 19.804 10.0573 18.772 10.172C 17.74 10.2867 16.8227 10.5733 16.02 11.032C 15.332 11.4907 14.7013 12.064 14.128 12.752C 13.5547 13.44 13.1533 14.3 12.924 15.332C 10.9659 21.2063 10.8553 27.9708 10 34.08L 10 39.24C 10 42.68 10.0573 44.6293 10.172 45.088C 10.172 45.6613 10.2867 46.12 10.516 46.464C 10.7453 46.808 11.032 47.0947 11.376 47.324C 11.9695 47.7197 12.7649 47.6712 13.44 47.84L 16.9102 47.84L 16.9102 47.1464C 16.9102 46.6841 17.0257 46.2217 17.2567 45.7593C 17.3722 45.4126 17.5454 45.008 17.7764 44.5456C 17.8919 44.1988 18.1229 43.8521 18.4694 43.5053C 18.7004 43.1585 18.9891 42.8117 19.3356 42.465C 19.682 42.2338 20.0863 42.0026 20.5482 41.7714C 20.8947 41.5402 21.2989 41.3668 21.7609 41.2513L 23.1468 40.9045L 24.5327 40.9045C 24.9946 41.0201 25.3988 41.1357 25.7453 41.2513C 26.2073 41.3668 26.6115 41.5402 26.958 41.7714C 27.42 42.0026 27.8242 42.2338 28.1706 42.465C 28.5171 42.8117 28.8058 43.1585 29.0368 43.5053C 29.3833 43.8521 29.672 44.1988 29.903 44.5456C 30.134 45.008 30.3072 45.4126 30.4227 45.7593C 30.5382 46.2217 30.596 47.1464 30.596 47.1464L 30.596 47.84L 65.2288 47.84L 65.2288 47.1464C 65.2288 46.6841 65.3443 46.2217 65.5753 45.7593C 65.6908 45.4126 65.864 45.008 66.095 44.5456C 66.3483 43.7853 67.0962 43.0234 67.6541 42.465C 68.0006 42.2338 68.4048 42.0026 68.8668 41.7714C 69.2133 41.5402 69.6175 41.3668 70.0795 41.2513L 71.4654 40.9045L 72.8512 40.9045C 73.3132 41.0201 73.7174 41.1357 74.0639 41.2513C 74.5259 41.3668 74.9301 41.5402 75.2766 41.7714C 75.7385 42.0026 76.1428 42.2338 76.4892 42.465C 77.1067 43.0829 77.7373 43.8186 78.2216 44.5456C 78.4526 45.008 78.6258 45.4126 78.7413 45.7593C 78.8568 46.2217 78.9145 47.1464 78.9145 47.1464L 78.9145 47.84L 80.52 47.84ZM 32.016 27.2L 21.008 27.2C 20.2717 27.2 19.7742 27.0131 19.116 26.684C 19.0087 26.5767 18.8832 26.4735 18.7556 26.3686C 18.4939 26.1534 18.2235 25.931 18.084 25.652C 17.7291 24.9422 17.568 24.3972 17.568 23.588C 17.568 22.1213 17.9015 20.534 18.256 19.116C 18.4073 18.5107 19.0619 17.681 19.632 17.396C 19.976 17.1667 20.3773 17.052 20.836 17.052C 21.2947 16.9373 25.2507 16.88 32.704 16.88L 43.712 16.88C 43.7498 16.88 43.7874 16.8798 43.8249 16.8797C 44.2034 16.8779 44.5646 16.8763 44.916 17.052C 45.8699 17.529 46.5103 18.1765 46.98 19.116C 47.1652 19.4864 47.1596 19.8837 47.1539 20.2846C 47.153 20.3537 47.152 20.4228 47.152 20.492C 47.152 21.9675 46.8227 23.5292 46.464 24.964C 46.3127 25.5693 45.6581 26.399 45.088 26.684C 44.744 26.9133 44.3427 27.028 43.884 27.028C 43.4253 27.1427 39.4693 27.2 32.016 27.2ZM 89.1146 37.52L 89.12 37.52M 54.71997 47.839951L 54.71997 27.199951M 89.11997 37.519951L 89.11457 37.519951L 82.23997 37.519951"></path></g></g></g><g id="g-root-sy_2_cu_hs6b7rsnhp1o-fill" data-item-order="-62918" transform="translate(202.13848876953125, 179.87109375)"><g id="sy_2_cu_hs6b7rsnhp1o-fill-merged" stroke="none" fill="#c765f4" fill-opacity="1"><g><path d="M20.661 27.339 H13.465 V21.27C13.465 17.225 13.523 14.797 13.638 13.988C13.753 13.294 13.984 12.659 14.331 12.081C14.677 11.503 15.082 11.098 15.544 10.867C16.121 10.52 16.756 10.289 17.449 10.173L18.662 10 H77.562C82.182 10 84.896 10.058 85.704 10.173C86.397 10.289 87.033 10.52 87.61 10.867C88.072 11.098 88.476 11.503 88.823 12.081C89.169 12.659 89.4 13.294 89.516 13.988L89.689 15.202 V19.536C89.689 22.426 89.631 24.102 89.516 24.565C89.516 25.143 89.4 25.605 89.169 25.952C88.938 26.299 88.649 26.587 88.303 26.819C87.957 27.05 87.495 27.165 86.917 27.165L86.224 27.339 H82.665 V26.645C82.665 26.645 82.607 25.721 82.492 25.258C82.376 24.911 82.203 24.507 81.972 24.045C81.488 23.317 80.857 22.582 80.24 21.964C79.893 21.733 79.489 21.501 79.027 21.27C78.681 21.039 78.276 20.866 77.814 20.75C77.468 20.635 77.064 20.519 76.602 20.403 H75.216L73.83 20.75C73.368 20.866 72.964 21.039 72.617 21.27C72.155 21.501 71.751 21.733 71.405 21.964C70.847 22.522 70.099 23.284 69.845 24.045C69.615 24.507 69.441 24.911 69.326 25.258C69.095 25.721 68.979 26.183 68.979 26.645 V27.339 H34.347 V26.645C34.347 26.645 34.289 25.721 34.173 25.258C34.058 24.911 33.884 24.507 33.653 24.045C33.423 23.698 33.134 23.351 32.787 23.004C32.556 22.657 32.268 22.311 31.921 21.964C31.575 21.733 31.17 21.501 30.708 21.27C30.362 21.039 29.958 20.866 29.496 20.75C29.149 20.635 28.745 20.519 28.283 20.403 H26.897L25.511 20.75C25.049 20.866 24.645 21.039 24.299 21.27C23.837 21.501 23.433 21.733 23.086 21.964C22.74 22.311 22.451 22.657 22.22 23.004C21.873 23.351 21.642 23.698 21.527 24.045C21.296 24.507 21.123 24.911 21.007 25.258C20.776 25.721 20.661 26.183 20.661 26.645 V27.339"></path></g></g></g><g id="g-root-sy_2_cu_hs6b7rsnhp1o-stroke" data-item-order="-62918" transform="translate(202.13848876953125, 179.87109375)"><g id="sy_2_cu_hs6b7rsnhp1o-stroke" fill="none" stroke-linecap="round" stroke-linejoin="round" stroke-miterlimit="4" stroke="#484848" stroke-width="2" stroke-opacity="1"><g><path d="M 20.6608 27.3388L 13.4647 27.3388L 13.4647 21.2702C 13.4647 17.2245 13.5225 14.7971 13.638 13.9879C 13.7535 13.2944 13.9844 12.6586 14.3309 12.0807C 14.6774 11.5027 15.0816 11.0981 15.5436 10.8669C 16.121 10.5202 16.7562 10.289 17.4492 10.1734L 18.6618 10L 21.2604 10L 23.8589 10L 70.6329 10L 77.5624 10C 82.182 10 84.896 10.0578 85.7045 10.1734C 86.3974 10.289 87.0326 10.5202 87.6101 10.8669C 88.0721 11.0981 88.4763 11.5027 88.8227 12.0807C 89.1692 12.6586 89.4002 13.2944 89.5157 13.9879L 89.6889 15.2016L 89.6889 16.9877L 89.6889 19.5364C 89.6889 22.4262 89.6312 24.1022 89.5157 24.5646C 89.5157 25.1426 89.4002 25.6049 89.1692 25.9517C 88.9382 26.2985 88.6495 26.5875 88.303 26.8187C 87.9566 27.0498 87.4946 27.1654 86.9171 27.1654L 86.2242 27.3388L 84.4918 27.3388L 82.6651 27.3388L 82.6651 26.6453C 82.6651 26.6453 82.6073 25.7206 82.4918 25.2582C 82.3763 24.9114 82.2031 24.5069 81.9721 24.0445C 81.4878 23.3174 80.8572 22.5818 80.2397 21.9639C 79.8933 21.7327 79.4891 21.5015 79.0271 21.2703C 78.6806 21.0391 78.2764 20.8657 77.8144 20.7501C 77.468 20.6345 77.0637 20.5189 76.6018 20.4034L 75.2159 20.4034L 73.83 20.7501C 73.368 20.8657 72.9638 21.0391 72.6173 21.2703C 72.1554 21.5015 71.7511 21.7327 71.4047 21.9639C 70.8467 22.5223 70.0988 23.2842 69.8455 24.0445C 69.6146 24.5069 69.4413 24.9114 69.3258 25.2582C 69.0948 25.7206 68.9794 26.183 68.9794 26.6453L 68.9794 27.3388L 34.3465 27.3388L 34.3465 26.6453C 34.3465 26.6453 34.2887 25.7206 34.1732 25.2582C 34.0577 24.9114 33.8845 24.5069 33.6535 24.0445C 33.4225 23.6977 33.1338 23.351 32.7873 23.0042C 32.5564 22.6574 32.2676 22.3106 31.9212 21.9639C 31.5747 21.7327 31.1705 21.5015 30.7085 21.2703C 30.362 21.0391 29.9578 20.8657 29.4958 20.7501C 29.1494 20.6345 28.7451 20.5189 28.2832 20.4034L 26.8973 20.4034L 25.5114 20.7501C 25.0494 20.8657 24.6452 21.0391 24.2987 21.2703C 23.8368 21.5015 23.4326 21.7327 23.0861 21.9639C 22.7396 22.3106 22.4509 22.6574 22.2199 23.0042C 21.8734 23.351 21.6424 23.6977 21.527 24.0445C 21.296 24.5069 21.1227 24.9114 21.0072 25.2582C 20.7763 25.7206 20.6608 26.183 20.6608 26.6453L 20.6608 27.3388ZM 20.6608 27.3388L 10 27.3388M 13.4647 27.3388C 13.4647 25.2582 13.4647 23.2353 13.4647 21.2702M 17.4492 10.1734C 18.2576 10.0578 18.6618 10 18.6618 10C 18.6618 10 19.528 10 21.2604 10C 22.9928 10 23.8589 10 23.8589 10M 70.6329 10C 70.6329 10 72.9427 10 77.5624 10M 89.5157 13.9879C 89.6312 14.7971 89.6889 15.2016 89.6889 15.2016C 89.6889 15.2016 89.6889 15.797 89.6889 16.9877C 89.6889 17.652 89.6889 18.5015 89.6889 19.5364M 86.9171 27.1654C 86.4552 27.281 86.2242 27.3388 86.2242 27.3388C 86.2242 27.3388 85.6467 27.3388 84.4918 27.3388C 83.9144 27.3388 83.2425 27.3388 82.6651 27.3388M 73.83 20.7501C 74.292 20.6345 74.7539 20.5189 75.2159 20.4034C 75.6778 20.4034 76.1398 20.4034 76.6018 20.4034M 25.5114 20.7501C 25.9734 20.6345 26.4353 20.5189 26.8973 20.4034C 27.3593 20.4034 27.8212 20.4034 28.2832 20.4034M 51.658203 16.987793L 54.849703 16.987793M 89.689003 16.987793L 84.491803 16.987793"></path></g></g></g><g id="g-root-sy_1_cu_dcct3bsnhptx-fill" data-item-order="-62914" transform="translate(424.1385498046875, 173.527099609375)"><g id="sy_1_cu_dcct3bsnhptx-fill-merged" stroke="none" fill="#ab57d3" fill-opacity="1"><g><path d="M36.541 37.444 H65.791 V37.272C65.562 36.813 65.39 36.412 65.275 36.067L64.931 34.691 V33.314L65.275 31.938C65.39 31.594 65.562 31.192 65.791 30.733L66.479 29.701L67.512 28.669L68.544 27.98C69.003 27.751 69.404 27.579 69.748 27.464L71.125 27.12 H72.501L73.878 27.464C74.222 27.579 74.623 27.751 75.082 27.98L76.115 28.669L77.147 29.701L77.835 30.733C78.065 31.192 78.237 31.594 78.352 31.938L78.696 33.314 V34.691L78.352 36.067C78.237 36.412 78.065 36.813 77.835 37.272 V37.444 H78.179C78.523 37.444 79.441 37.329 80.932 37.1C82.424 36.87 83.743 36.469 84.89 35.895C85.922 35.207 86.783 34.347 87.471 33.314C88.044 32.167 88.446 30.848 88.675 29.357C88.905 27.866 88.905 26.375 88.675 24.883C88.446 23.392 88.044 22.073 87.471 20.926C86.783 19.894 85.922 19.033 84.89 18.345C83.743 17.772 82.424 17.37 80.932 17.141L78.696 16.796 H69.232C62.923 16.796 59.31 17.083 58.392 17.657C57.475 18.23 56.5 18.689 55.467 19.033C54.55 19.492 53.575 19.779 52.542 19.894C51.51 20.123 50.42 20.238 49.273 20.238 H46.52C45.602 20.123 44.799 20.008 44.111 19.894C43.308 19.779 42.62 19.664 42.047 19.549C41.358 19.32 40.727 19.091 40.154 18.861L39.293 18.517L39.121 18.345L38.605 17.829C38.491 17.714 38.319 17.599 38.089 17.485C37.974 17.255 37.802 17.083 37.573 16.969L37.401 16.796 V11.463C37.401 11.348 37.343 11.233 37.229 11.118 V10.774C37.114 10.774 36.999 10.717 36.885 10.602 V10.43L36.196 10.086C35.852 9.971 35.049 9.971 33.787 10.086C32.526 10.315 31.379 10.66 30.346 11.118C29.314 11.463 28.281 12.036 27.249 12.839C26.331 13.527 25.529 14.33 24.84 15.248C24.037 16.28 22.661 16.911 20.711 17.141C18.646 17.485 16.926 18.058 15.549 18.861C14.058 19.779 12.911 20.926 12.108 22.302C11.19 23.794 10.617 25.514 10.387 27.464C10.043 29.529 9.928 31.078 10.043 32.11C10.272 33.028 10.559 33.888 10.903 34.691C11.362 35.379 11.936 35.953 12.624 36.412C13.427 36.756 14.287 37.042 15.205 37.272L16.753 37.444 H24.496 V37.272C24.267 36.813 24.095 36.412 23.98 36.067L23.636 34.691 V33.314L23.98 31.938C24.095 31.594 24.267 31.192 24.496 30.733L25.184 29.701L26.217 28.669L27.249 27.98C27.708 27.751 28.11 27.579 28.454 27.464L29.83 27.12 H31.207L32.583 27.464C32.927 27.579 33.329 27.751 33.787 27.98L34.82 28.669L35.852 29.701L36.541 30.733C36.77 31.192 36.942 31.594 37.057 31.938L37.401 33.314 V34.691L37.057 36.067C36.942 36.412 36.77 36.813 36.541 37.272 V37.444"></path></g></g></g><g id="g-root-sy_1_cu_dcct3bsnhptx-stroke" data-item-order="-62914" transform="translate(424.1385498046875, 173.527099609375)"><g id="sy_1_cu_dcct3bsnhptx-stroke" fill="none" stroke-linecap="round" stroke-linejoin="round" stroke-miterlimit="4" stroke="#484848" stroke-width="2" stroke-opacity="1"><g><path d="M 36.5405 37.443831L 65.791 37.443831L 65.791 37.271831C 65.5616 36.812931 65.3895 36.411531 65.2748 36.067331L 64.9307 34.690831L 64.9307 33.314331L 65.2748 31.937831C 65.3895 31.593731 65.5616 31.192231 65.791 30.733431L 66.4792 29.701031L 67.5116 28.668731L 68.5439 27.980431C 69.0028 27.751031 69.4043 27.579031 69.7484 27.464331L 71.1249 27.120131L 72.5014 27.120131L 73.8779 27.464331C 74.222 27.579031 74.6235 27.751031 75.0823 27.980431L 76.1147 28.668731L 77.147 29.701031L 77.8353 30.733431C 78.0647 31.192231 78.2368 31.593731 78.3515 31.937831L 78.6956 33.314331L 78.6956 34.002631L 78.6956 34.690831L 78.3515 36.067331C 78.2368 36.411531 78.0647 36.812931 77.8353 37.271831L 77.8353 37.443831L 78.1794 37.443831C 78.5235 37.443831 79.4412 37.329131 80.9324 37.099731C 82.4236 36.870331 83.7427 36.468831 84.8898 35.895331C 85.9222 35.207031 86.7825 34.346731 87.4707 33.314331C 88.0443 32.167331 88.4457 30.848131 88.6752 29.356931C 88.9046 27.865731 88.9046 26.374531 88.6752 24.883331C 88.4457 23.392131 88.0443 22.073031 87.4707 20.925931C 86.7825 19.893531 85.9222 19.033231 84.8898 18.345031C 83.7427 17.771431 82.4236 17.370031 80.9324 17.140631L 78.6956 16.796431L 69.2322 16.796431C 62.9233 16.796431 59.31 17.083231 58.3923 17.656731C 57.4747 18.230331 56.4996 18.689131 55.4673 19.033231C 54.5496 19.492131 53.5746 19.778831 52.5422 19.893531C 51.5099 20.123031 50.4201 20.237731 49.2731 20.237731L 46.5201 20.237731C 45.6024 20.123031 44.7995 20.008231 44.1112 19.893531C 43.3083 19.778831 42.62 19.664131 42.0465 19.549431C 41.3582 19.320031 40.7273 19.090631 40.1538 18.861231L 39.2935 18.517031L 39.1214 18.345031L 38.6052 17.828831C 38.4905 17.714131 38.3185 17.599431 38.0891 17.484731C 37.9743 17.255331 37.8023 17.083231 37.5729 16.968531L 37.4008 16.796431L 37.4008 14.215531L 37.4008 11.462531C 37.4008 11.347831 37.3435 11.233131 37.2287 11.118431L 37.2287 10.774331C 37.114 10.774331 36.9993 10.716931 36.8846 10.602231L 36.8846 10.430231L 36.1964 10.086031C 35.8523 9.971331 35.0493 9.971331 33.7875 10.086031C 32.5257 10.315431 31.3787 10.659631 30.3463 11.118431C 29.3139 11.462531 28.2815 12.036131 27.2492 12.839031C 26.3315 13.527331 25.5286 14.330231 24.8403 15.247931C 24.0374 16.280231 22.6609 16.911131 20.7108 17.140631C 18.6461 17.484731 16.9255 18.058231 15.549 18.861231C 14.0578 19.778831 12.9107 20.925931 12.1078 22.302431C 11.1901 23.793631 10.6166 25.514231 10.3871 27.464331C 10.043 29.529031 9.9283 31.077531 10.043 32.109931C 10.2724 33.027631 10.5592 33.887931 10.9033 34.690831C 11.3622 35.379131 11.9357 35.952631 12.6239 36.411531C 13.4269 36.755631 14.2872 37.042331 15.2049 37.271831L 16.7534 37.443831L 20.7108 37.443831L 24.4962 37.443831L 24.4962 37.271831C 24.2668 36.812931 24.0947 36.411531 23.98 36.067331L 23.6359 34.690831L 23.6359 33.314331L 23.98 31.937831C 24.0947 31.593731 24.2668 31.192231 24.4962 30.733431L 25.1844 29.701031L 26.2168 28.668731L 27.2492 27.980431C 27.708 27.751031 28.1095 27.579031 28.4536 27.464331L 29.8301 27.120131L 31.2066 27.120131L 32.5831 27.464331C 32.9272 27.579031 33.3287 27.751031 33.7875 27.980431L 34.8199 28.668731L 35.8523 29.701031L 36.5405 30.733431C 36.7699 31.192231 36.942 31.593731 37.0567 31.937831L 37.4008 33.314331L 37.4008 34.002631L 37.4008 34.690831L 37.0567 36.067331C 36.942 36.411531 36.7699 36.812931 36.5405 37.271831L 36.5405 37.443831ZM 77.8353 37.443831C 77.95 37.443831 78.0647 37.443831 78.1794 37.443831M 80.9324 17.140631C 79.4412 16.911131 78.6956 16.796431 78.6956 16.796431C 78.6956 16.796431 75.5411 16.796431 69.2322 16.796431M 49.2731 20.237731C 48.2407 20.237731 47.323 20.237731 46.5201 20.237731M 40.1538 18.861231C 39.5803 18.631831 39.2935 18.517031 39.2935 18.517031C 39.2935 18.517031 39.2361 18.459731 39.1214 18.345031C 38.892 18.115631 38.7199 17.943531 38.6052 17.828831M 37.5729 16.968531C 37.4582 16.853831 37.4008 16.796431 37.4008 16.796431C 37.4008 16.796431 37.4008 15.936131 37.4008 14.215531C 37.4008 12.494931 37.4008 11.577231 37.4008 11.462531M 37.2287 11.118431C 37.2287 11.003731 37.2287 10.889031 37.2287 10.774331M 36.8846 10.602231C 36.8846 10.487531 36.8846 10.430231 36.8846 10.430231C 36.8846 10.430231 36.6552 10.315431 36.1964 10.086031M 15.2049 37.271831C 16.2372 37.386531 16.7534 37.443831 16.7534 37.443831C 16.7534 37.443831 18.0726 37.443831 20.7108 37.443831C 21.9726 37.443831 23.2344 37.443831 24.4962 37.443831M 78.3515 36.067331C 78.4662 35.608531 78.5809 35.149731 78.6956 34.690831C 78.6956 34.461431 78.6956 34.232031 78.6956 34.002631C 78.6956 33.773231 78.6956 33.543831 78.6956 33.314331C 78.5809 32.855531 78.4662 32.396731 78.3515 31.937831M 65.2748 36.067331C 65.1601 35.608531 65.0454 35.149731 64.9307 34.690831C 64.9307 34.232031 64.9307 33.773231 64.9307 33.314331C 65.0454 32.855531 65.1601 32.396731 65.2748 31.937831M 65.791 30.733431C 66.0204 30.389331 66.2498 30.045231 66.4792 29.701031C 66.8233 29.356931 67.1675 29.012831 67.5116 28.668731C 67.8557 28.439331 68.1998 28.209831 68.5439 27.980431M 69.7484 27.464331C 70.2072 27.349531 70.666 27.234831 71.1249 27.120131C 71.5837 27.120131 72.0425 27.120131 72.5014 27.120131C 72.9602 27.234831 73.419 27.349531 73.8779 27.464331M 75.0823 27.980431C 75.4264 28.209831 75.7705 28.439331 76.1147 28.668731C 76.4588 29.012831 76.8029 29.356931 77.147 29.701031C 77.3764 30.045231 77.6059 30.389331 77.8353 30.733431M 37.0567 36.067331C 37.1714 35.608531 37.2861 35.149731 37.4008 34.690831C 37.4008 34.461431 37.4008 34.232031 37.4008 34.002631C 37.4008 33.773231 37.4008 33.543831 37.4008 33.314331C 37.2861 32.855531 37.1714 32.396731 37.0567 31.937831M 23.98 36.067331C 23.8653 35.608531 23.7506 35.149731 23.6359 34.690831C 23.6359 34.232031 23.6359 33.773231 23.6359 33.314331C 23.7506 32.855531 23.8653 32.396731 23.98 31.937831M 24.4962 30.733431C 24.7256 30.389331 24.955 30.045231 25.1844 29.701031C 25.5286 29.356931 25.8727 29.012831 26.2168 28.668731C 26.5609 28.439331 26.905 28.209831 27.2492 27.980431M 28.4536 27.464331C 28.9124 27.349531 29.3713 27.234831 29.8301 27.120131C 30.2889 27.120131 30.7478 27.120131 31.2066 27.120131C 31.6654 27.234831 32.1243 27.349531 32.5831 27.464331M 33.7875 27.980431C 34.1316 28.209831 34.4758 28.439331 34.8199 28.668731C 35.164 29.012831 35.5081 29.356931 35.8523 29.701031C 36.0817 30.045231 36.3111 30.389331 36.5405 30.733431M 87.298672 23.678986L 82.136872 23.678986M 59.768872 27.120186L 51.165772 27.120186M 11.763672 23.678986L 20.194672 23.678986"></path></g></g></g><g id="g-root-sy_0_line_4gpsufsnhqmm-fill" data-item-order="-62907" transform="translate(14, 206)"></g><g id="g-root-sy_0_line_4gpsufsnhqmm-stroke" data-item-order="-62907" transform="translate(14, 206)"><g id="sy_0_line_4gpsufsnhqmm-stroke" fill="none" stroke-linecap="round" stroke-linejoin="round" stroke-miterlimit="4" stroke="#484848" stroke-width="2" stroke-opacity="1"><g><path d="M 560 10L 262.64 10L 10 10"></path><path d="M 554 16.5L 560.5 10L 554 3.5" stroke-dasharray="none"></path></g></g></g><g id="g-root-sy_0_line_1_4gpsufsnhqmn-fill" data-item-order="-62905" transform="translate(374, 140)"></g><g id="g-root-sy_0_line_1_4gpsufsnhqmn-stroke" data-item-order="-62905" transform="translate(374, 140)"><g id="sy_0_line_1_4gpsufsnhqmn-stroke" fill="none" stroke-linecap="round" stroke-linejoin="round" stroke-miterlimit="4" stroke="#484848" stroke-width="2" stroke-opacity="1"><g><path d="M 10 10L 10 76M 178 10L 178 76"></path></g></g></g><g id="g-root-sy_0_cu_8wjayvsnhqm8-fill" data-item-order="-62904" transform="translate(374.00006103515625, 92)"><g id="sy_0_cu_8wjayvsnhqm8-fill-merged" stroke="none" fill="#4f3d58" fill-opacity="1"><g><path d="M10 10C10 18 10 34 10 58C10 58 80 58 178 58C178 58 178 42 178 10C104.481 10 34.481 10 10 10"></path></g></g></g><g id="g-root-sy_0_cu_8wjayvsnhqm8-stroke" data-item-order="-62904" transform="translate(374.00006103515625, 92)"><g id="sy_0_cu_8wjayvsnhqm8-stroke" fill="none" stroke-linecap="round" stroke-linejoin="round" stroke-miterlimit="4" stroke="#484848" stroke-width="2" stroke-opacity="1"><g><path d="M 10 10C 10 18 10 34 10 58C 10 58 80 58 178 58C 178 58 178 42 178 10C 104.4811 10 34.4811 10 10 10Z"></path></g></g></g><g id="g-root-sy_0_cu_1_wapzsnhrex-fill" data-item-order="-62902" transform="translate(437.7744140625, 170)"><g id="sy_0_cu_1_wapzsnhrex-fill-merged" stroke="none" fill="#4f3d58" fill-opacity="1"><g><path d="M65.06 37.53C65.06 37.759 65.06 37.989 65.06 38.218C64.945 38.677 64.83 39.136 64.716 39.595C64.601 39.939 64.429 40.34 64.199 40.799C63.97 41.143 63.741 41.487 63.511 41.831C63.167 42.175 62.823 42.52 62.479 42.864C62.135 43.093 61.791 43.323 61.446 43.552C60.988 43.781 60.586 43.953 60.242 44.068C59.783 44.183 59.324 44.298 58.865 44.412C58.407 44.412 57.948 44.412 57.489 44.412C57.03 44.298 56.571 44.183 56.112 44.068C55.768 43.953 55.367 43.781 54.908 43.552C54.564 43.323 54.22 43.093 53.876 42.864C53.532 42.52 53.187 42.175 52.843 41.831C52.614 41.487 52.384 41.143 52.155 40.799C51.926 40.34 51.754 39.939 51.639 39.595C51.524 39.136 51.409 38.677 51.295 38.218C51.295 37.759 51.295 37.3 51.295 36.842C51.409 36.383 51.524 35.924 51.639 35.465C51.754 35.121 51.926 34.719 52.155 34.261C52.384 33.917 52.614 33.572 52.843 33.228C53.187 32.884 53.532 32.54 53.876 32.196C54.22 31.966 54.564 31.737 54.908 31.508C55.367 31.278 55.768 31.106 56.112 30.991C56.571 30.877 57.03 30.762 57.489 30.647C57.948 30.647 58.407 30.647 58.865 30.647C59.324 30.762 59.783 30.877 60.242 30.991C60.586 31.106 60.988 31.278 61.446 31.508C61.791 31.737 62.135 31.966 62.479 32.196C62.823 32.54 63.167 32.884 63.511 33.228C63.741 33.572 63.97 33.917 64.199 34.261C64.429 34.719 64.601 35.121 64.716 35.465C64.83 35.924 64.945 36.383 65.06 36.842C65.06 37.071 65.06 37.3 65.06 37.53 M23.765 37.53C23.765 37.759 23.765 37.989 23.765 38.218C23.65 38.677 23.535 39.136 23.421 39.595C23.306 39.939 23.134 40.34 22.905 40.799C22.675 41.143 22.446 41.487 22.216 41.831C21.872 42.175 21.528 42.52 21.184 42.864C20.84 43.093 20.496 43.323 20.152 43.552C19.693 43.781 19.291 43.953 18.947 44.068C18.488 44.183 18.029 44.298 17.571 44.412C17.112 44.412 16.653 44.412 16.194 44.412C15.735 44.298 15.277 44.183 14.818 44.068C14.474 43.953 14.072 43.781 13.613 43.552C13.269 43.323 12.925 43.093 12.581 42.864C12.237 42.52 11.893 42.175 11.549 41.831C11.319 41.487 11.09 41.143 10.86 40.799C10.631 40.34 10.459 39.939 10.344 39.595C10.229 39.136 10.115 38.677 10 38.218C10 37.759 10 37.3 10 36.842C10.115 36.383 10.229 35.924 10.344 35.465C10.459 35.121 10.631 34.719 10.86 34.261C11.09 33.917 11.319 33.572 11.549 33.228C11.893 32.884 12.237 32.54 12.581 32.196C12.925 31.966 13.269 31.737 13.613 31.508C14.072 31.278 14.474 31.106 14.818 30.991C15.277 30.877 15.735 30.762 16.194 30.647C16.653 30.647 17.112 30.647 17.571 30.647C18.029 30.762 18.488 30.877 18.947 30.991C19.291 31.106 19.693 31.278 20.152 31.508C20.496 31.737 20.84 31.966 21.184 32.196C21.528 32.54 21.872 32.884 22.216 33.228C22.446 33.572 22.675 33.917 22.905 34.261C23.134 34.719 23.306 35.121 23.421 35.465C23.535 35.924 23.65 36.383 23.765 36.842C23.765 37.071 23.765 37.3 23.765 37.53"></path></g></g></g><g id="g-root-sy_0_cu_1_wapzsnhrex-stroke" data-item-order="-62902" transform="translate(437.7744140625, 170)"><g id="sy_0_cu_1_wapzsnhrex-stroke" fill="none" stroke-linecap="round" stroke-linejoin="round" stroke-miterlimit="4" stroke="#484848" stroke-width="2" stroke-opacity="1"><g><path d="M 65.059669 37.529839C 65.059669 37.759239 65.059669 37.988639 65.059669 38.218039C 64.944969 38.676839 64.830269 39.135739 64.715569 39.594539C 64.600869 39.938639 64.428769 40.340139 64.199369 40.798939C 63.969969 41.143139 63.740569 41.487239 63.511169 41.831339C 63.167069 42.175439 62.822869 42.519539 62.478769 42.863739C 62.134669 43.093139 61.790569 43.322539 61.446369 43.551939C 60.987569 43.781339 60.586069 43.953439 60.241969 44.068139C 59.783169 44.182839 59.324269 44.297539 58.865469 44.412239C 58.406669 44.412239 57.947769 44.412239 57.488969 44.412239C 57.030169 44.297539 56.571369 44.182839 56.112469 44.068139C 55.768369 43.953439 55.366869 43.781339 54.908069 43.551939C 54.563969 43.322539 54.219769 43.093139 53.875669 42.863739C 53.531569 42.519539 53.187469 42.175439 52.843369 41.831339C 52.613869 41.487239 52.384469 41.143139 52.155069 40.798939C 51.925669 40.340139 51.753569 39.938639 51.638869 39.594539C 51.524169 39.135739 51.409469 38.676839 51.294769 38.218039C 51.294769 37.759239 51.294769 37.300339 51.294769 36.841539C 51.409469 36.382739 51.524169 35.923939 51.638869 35.465039C 51.753569 35.120939 51.925669 34.719439 52.155069 34.260639C 52.384469 33.916539 52.613869 33.572339 52.843369 33.228239C 53.187469 32.884139 53.531569 32.540039 53.875669 32.195939C 54.219769 31.966439 54.563969 31.737039 54.908069 31.507639C 55.366869 31.278239 55.768369 31.106139 56.112469 30.991439C 56.571369 30.876739 57.030169 30.762039 57.488969 30.647339C 57.947769 30.647339 58.406669 30.647339 58.865469 30.647339C 59.324269 30.762039 59.783169 30.876739 60.241969 30.991439C 60.586069 31.106139 60.987569 31.278239 61.446369 31.507639C 61.790569 31.737039 62.134669 31.966439 62.478769 32.195939C 62.822869 32.540039 63.167069 32.884139 63.511169 33.228239C 63.740569 33.572339 63.969969 33.916539 64.199369 34.260639C 64.428769 34.719439 64.600869 35.120939 64.715569 35.465039C 64.830269 35.923939 64.944969 36.382739 65.059669 36.841539C 65.059669 37.070939 65.059669 37.300339 65.059669 37.529839ZM 23.7649 37.529839C 23.7649 37.759239 23.7649 37.988639 23.7649 38.218039C 23.6502 38.676839 23.5355 39.135739 23.4208 39.594539C 23.3061 39.938639 23.134 40.340139 22.9046 40.798939C 22.6752 41.143139 22.4458 41.487239 22.2164 41.831339C 21.8722 42.175439 21.5281 42.519539 21.184 42.863739C 20.8399 43.093139 20.4958 43.322539 20.1516 43.551939C 19.6928 43.781339 19.2913 43.953439 18.9472 44.068139C 18.4884 44.182839 18.0295 44.297539 17.5707 44.412239C 17.1119 44.412239 16.653 44.412239 16.1942 44.412239C 15.7354 44.297539 15.2766 44.182839 14.8177 44.068139C 14.4736 43.953439 14.0721 43.781339 13.6133 43.551939C 13.2692 43.322539 12.925 43.093139 12.5809 42.863739C 12.2368 42.519539 11.8927 42.175439 11.5486 41.831339C 11.3191 41.487239 11.0897 41.143139 10.8603 40.798939C 10.6309 40.340139 10.4588 39.938639 10.3441 39.594539C 10.2294 39.135739 10.1147 38.676839 10 38.218039C 10 37.759239 10 37.300339 10 36.841539C 10.1147 36.382739 10.2294 35.923939 10.3441 35.465039C 10.4588 35.120939 10.6309 34.719439 10.8603 34.260639C 11.0897 33.916539 11.3191 33.572339 11.5486 33.228239C 11.8927 32.884139 12.2368 32.540039 12.5809 32.195939C 12.925 31.966439 13.2692 31.737039 13.6133 31.507639C 14.0721 31.278239 14.4736 31.106139 14.8177 30.991439C 15.2766 30.876739 15.7354 30.762039 16.1942 30.647339C 16.653 30.647339 17.1119 30.647339 17.5707 30.647339C 18.0295 30.762039 18.4884 30.876739 18.9472 30.991439C 19.2913 31.106139 19.6928 31.278239 20.1516 31.507639C 20.4958 31.737039 20.8399 31.966439 21.184 32.195939C 21.5281 32.540039 21.8722 32.884139 22.2164 33.228239C 22.4458 33.572339 22.6752 33.916539 22.9046 34.260639C 23.134 34.719439 23.3061 35.120939 23.4208 35.465039C 23.5355 35.923939 23.6502 36.382739 23.7649 36.841539C 23.7649 37.070939 23.7649 37.300339 23.7649 37.529839ZM 46.132946 20.3237L 37.529846 10"></path></g></g></g><g id="g-root-sy_0_cu_2_1um6uknsnhs02-fill" data-item-order="-62900" transform="translate(114.0487060546875, 159.3701171875)"><g id="sy_0_cu_2_1um6uknsnhs02-fill-merged" stroke="none" fill="#4f3d58" fill-opacity="1"><g><path d="M23.686 48.534C23.686 48.534 23.628 49.458 23.513 49.921C23.397 50.267 23.224 50.672 22.993 51.134C22.762 51.481 22.473 51.828 22.127 52.175C21.896 52.521 21.607 52.868 21.26 53.215C20.914 53.446 20.51 53.677 20.048 53.909C19.701 54.14 19.297 54.313 18.835 54.429C18.489 54.544 18.084 54.66 17.622 54.776 H16.236L14.851 54.429C14.389 54.313 13.984 54.14 13.638 53.909C13.176 53.677 12.772 53.446 12.425 53.215C12.079 52.868 11.79 52.521 11.559 52.175C11.213 51.828 10.982 51.481 10.866 51.134C10.635 50.672 10.462 50.267 10.347 49.921C10.116 49.458 10 48.996 10 48.534 V47.146C10 46.684 10.116 46.222 10.347 45.759C10.462 45.413 10.635 45.008 10.866 44.546C10.982 44.199 11.213 43.852 11.559 43.505C11.79 43.159 12.079 42.812 12.425 42.465C12.772 42.234 13.176 42.003 13.638 41.771C13.984 41.54 14.389 41.367 14.851 41.251L16.236 40.904 H17.622C18.084 41.02 18.489 41.136 18.835 41.251C19.297 41.367 19.701 41.54 20.048 41.771C20.51 42.003 20.914 42.234 21.26 42.465C21.607 42.812 21.896 43.159 22.127 43.505C22.473 43.852 22.762 44.199 22.993 44.546C23.224 45.008 23.397 45.413 23.513 45.759C23.628 46.222 23.686 47.146 23.686 47.146 V48.534 M72.004 48.534C72.004 48.534 71.947 49.458 71.831 49.921C71.716 50.267 71.542 50.672 71.311 51.134C71.08 51.481 70.792 51.828 70.445 52.175C70.214 52.521 69.926 52.868 69.579 53.215C69.233 53.446 68.828 53.677 68.366 53.909C68.02 54.14 67.616 54.313 67.154 54.429C66.807 54.544 66.403 54.66 65.941 54.776 H64.555L63.169 54.429C62.707 54.313 62.303 54.14 61.957 53.909C61.495 53.677 61.09 53.446 60.744 53.215C60.397 52.868 60.109 52.521 59.878 52.175C59.531 51.828 59.3 51.481 59.185 51.134C58.954 50.672 58.781 50.267 58.665 49.921C58.434 49.458 58.319 48.996 58.319 48.534 V47.146C58.319 46.684 58.434 46.222 58.665 45.759C58.781 45.413 58.954 45.008 59.185 44.546C59.438 43.785 60.186 43.023 60.744 42.465C61.09 42.234 61.495 42.003 61.957 41.771C62.303 41.54 62.707 41.367 63.169 41.251L64.555 40.904 H65.941C66.403 41.02 66.807 41.136 67.154 41.251C67.616 41.367 68.02 41.54 68.366 41.771C68.828 42.003 69.233 42.234 69.579 42.465C70.196 43.083 70.827 43.819 71.311 44.546C71.542 45.008 71.716 45.413 71.831 45.759C71.947 46.222 72.004 47.146 72.004 47.146 V48.534"></path></g></g></g><g id="g-root-sy_0_cu_2_1um6uknsnhs02-stroke" data-item-order="-62900" transform="translate(114.0487060546875, 159.3701171875)"><g id="sy_0_cu_2_1um6uknsnhs02-stroke" fill="none" stroke-linecap="round" stroke-linejoin="round" stroke-miterlimit="4" stroke="#484848" stroke-width="2" stroke-opacity="1"><g><path d="M 23.6857 48.533519C 23.6857 48.533519 23.628 49.458219 23.5125 49.920619C 23.397 50.267419 23.2237 50.671919 22.9928 51.134319C 22.7618 51.481119 22.4731 51.827919 22.1266 52.174619C 21.8956 52.521419 21.6069 52.868219 21.2604 53.215019C 20.9139 53.446119 20.5097 53.677319 20.0477 53.908519C 19.7013 54.139719 19.297 54.313119 18.8351 54.428719C 18.4886 54.544319 18.0844 54.659919 17.6224 54.775519L 16.2365 54.775519L 14.8506 54.428719C 14.3887 54.313119 13.9844 54.139719 13.638 53.908519C 13.176 53.677319 12.7718 53.446119 12.4253 53.215019C 12.0788 52.868219 11.7901 52.521419 11.5591 52.174619C 11.2127 51.827919 10.9817 51.481119 10.8662 51.134319C 10.6352 50.671919 10.462 50.267419 10.3465 49.920619C 10.1155 49.458219 10 48.995919 10 48.533519L 10 47.839919L 10 47.146419C 10 46.684019 10.1155 46.221619 10.3465 45.759319C 10.462 45.412519 10.6352 45.007919 10.8662 44.545519C 10.9817 44.198819 11.2127 43.852019 11.5591 43.505219C 11.7901 43.158419 12.0788 42.811719 12.4253 42.464919C 12.7718 42.233719 13.176 42.002519 13.638 41.771319C 13.9844 41.540219 14.3887 41.366819 14.8506 41.251219L 16.2365 40.904419L 17.6224 40.904419C 18.0844 41.020019 18.4886 41.135619 18.8351 41.251219C 19.297 41.366819 19.7013 41.540219 20.0477 41.771319C 20.5097 42.002519 20.9139 42.233719 21.2604 42.464919C 21.6069 42.811719 21.8956 43.158419 22.1266 43.505219C 22.4731 43.852019 22.7618 44.198819 22.9928 44.545519C 23.2237 45.007919 23.397 45.412519 23.5125 45.759319C 23.628 46.221619 23.6857 47.146419 23.6857 47.146419L 23.6857 47.839919L 23.6857 48.533519ZM 17.6224 54.775519C 17.1605 54.775519 16.6985 54.775519 16.2365 54.775519C 15.7746 54.659919 15.3126 54.544319 14.8506 54.428719M 10 48.533519C 10 48.302319 10 48.071119 10 47.839919C 10 47.608719 10 47.377619 10 47.146419M 14.8506 41.251219C 15.3126 41.135619 15.7746 41.020019 16.2365 40.904419C 16.6985 40.904419 17.1605 40.904419 17.6224 40.904419M 72.004304 48.533519C 72.004304 48.533519 71.946604 49.458219 71.831104 49.920619C 71.715604 50.267419 71.542304 50.671919 71.311404 51.134319C 71.080404 51.481119 70.791704 51.827919 70.445204 52.174619C 70.214204 52.521419 69.925504 52.868219 69.579004 53.215019C 69.232504 53.446119 68.828304 53.677319 68.366304 53.908519C 68.019904 54.139719 67.615604 54.313119 67.153704 54.428719C 66.807204 54.544319 66.403004 54.659919 65.941004 54.775519L 64.555104 54.775519L 63.169204 54.428719C 62.707304 54.313119 62.303004 54.139719 61.956604 53.908519C 61.494604 53.677319 61.090404 53.446119 60.743904 53.215019C 60.397404 52.868219 60.108704 52.521419 59.877704 52.174619C 59.531304 51.827919 59.300304 51.481119 59.184804 51.134319C 58.953804 50.671919 58.780604 50.267419 58.665104 49.920619C 58.434104 49.458219 58.318604 48.995919 58.318604 48.533519L 58.318604 47.839919L 58.318604 47.146419C 58.318604 46.684019 58.434104 46.221619 58.665104 45.759319C 58.780604 45.412519 58.953804 45.007919 59.184804 44.545519C 59.438004 43.785219 60.185904 43.023319 60.743904 42.464919C 61.090404 42.233719 61.494604 42.002519 61.956604 41.771319C 62.303004 41.540219 62.707304 41.366819 63.169204 41.251219L 64.555104 40.904419L 65.941004 40.904419C 66.403004 41.020019 66.807204 41.135619 67.153704 41.251219C 67.615604 41.366819 68.019904 41.540219 68.366304 41.771319C 68.828304 42.002519 69.232504 42.233719 69.579004 42.464919C 70.196404 43.082919 70.827104 43.818519 71.311404 44.545519C 71.542304 45.007919 71.715604 45.412519 71.831104 45.759319C 71.946604 46.221619 72.004304 47.146419 72.004304 47.146419L 72.004304 47.839919L 72.004304 48.533519ZM 65.941004 54.775519C 65.479004 54.775519 65.017104 54.775519 64.555104 54.775519C 64.093204 54.659919 63.631204 54.544319 63.169204 54.428719M 58.318604 48.533519C 58.318604 48.302319 58.318604 48.071119 58.318604 47.839919C 58.318604 47.608719 58.318604 47.377619 58.318604 47.146419M 63.169204 41.251219C 63.631204 41.135619 64.093204 41.020019 64.555104 40.904419C 65.017104 40.904419 65.479004 40.904419 65.941004 40.904419M 14.097715 27.199973L 25.105715 27.199973C 32.559015 27.199973 36.515015 27.142573 36.973715 27.027973C 37.432415 27.027973 37.833715 26.913273 38.177715 26.683973C 38.747815 26.398873 39.402415 25.569273 39.553715 24.963973C 39.912415 23.529173 40.241715 21.967473 40.241715 20.491973C 40.241715 20.021273 40.286815 19.550073 40.069715 19.115973C 39.600015 18.176473 38.959715 17.528973 38.005715 17.051973C 37.619515 16.858873 37.221515 16.879973 36.801715 16.879973L 25.793715 16.879973C 18.340415 16.879973 14.384415 16.937273 13.925715 17.051973C 13.467015 17.051973 13.065715 17.166573 12.721715 17.395973C 12.151615 17.680973 11.497015 18.510573 11.345715 19.115973C 10.991215 20.533873 10.657715 22.121273 10.657715 23.587973C 10.657715 24.397173 10.818815 24.942173 11.173715 25.651973C 11.381315 26.067073 11.878515 26.356773 12.205715 26.683973C 12.863915 27.013073 13.361415 27.199973 14.097715 27.199973ZM 71.889692 27.2L 68.449692 21.524C 66.270992 17.74 64.837692 15.4467 64.149692 14.644C 63.461692 13.7267 62.716392 12.9813 61.913692 12.408C 61.110992 11.8347 60.250992 11.3187 59.333692 10.86C 57.840292 10.3 56.261192 10.1746 54.689692 10L 47.809692 10"></path></g></g></g><g id="g-root-sy_0_cu_3_1lr6bevsnhpmz-fill" data-item-order="-62898" transform="translate(212.79925537109375, 166)"><g id="sy_0_cu_3_1lr6bevsnhpmz-fill-merged" stroke="none" fill="#4f3d58" fill-opacity="1"><g><path d="M23.686 41.904C23.686 41.904 23.628 42.828 23.513 43.291C23.397 43.637 23.224 44.042 22.993 44.504C22.762 44.851 22.473 45.198 22.127 45.545C21.896 45.891 21.607 46.238 21.26 46.585C20.914 46.816 20.51 47.047 20.048 47.279C19.701 47.51 19.297 47.683 18.835 47.799C18.489 47.914 18.084 48.03 17.622 48.146C17.16 48.146 16.698 48.146 16.236 48.146C15.775 48.03 15.313 47.914 14.851 47.799C14.389 47.683 13.984 47.51 13.638 47.279C13.176 47.047 12.772 46.816 12.425 46.585C12.079 46.238 11.79 45.891 11.559 45.545C11.213 45.198 10.982 44.851 10.866 44.504C10.635 44.042 10.462 43.637 10.347 43.291C10.116 42.828 10 42.366 10 41.904C10 41.441 10 40.979 10 40.516C10 40.054 10.116 39.592 10.347 39.129C10.462 38.783 10.635 38.378 10.866 37.916C10.982 37.569 11.213 37.222 11.559 36.875C11.79 36.529 12.079 36.182 12.425 35.835C12.772 35.604 13.176 35.373 13.638 35.141C13.984 34.91 14.389 34.737 14.851 34.621C15.313 34.506 15.775 34.39 16.236 34.274C16.698 34.274 17.16 34.274 17.622 34.274C18.084 34.39 18.489 34.506 18.835 34.621C19.297 34.737 19.701 34.91 20.048 35.141C20.51 35.373 20.914 35.604 21.26 35.835C21.607 36.182 21.896 36.529 22.127 36.875C22.473 37.222 22.762 37.569 22.993 37.916C23.224 38.378 23.397 38.783 23.513 39.129C23.628 39.592 23.686 40.516 23.686 40.516 V41.904 M72.004 41.904C72.004 41.904 71.947 42.828 71.831 43.291C71.716 43.637 71.542 44.042 71.311 44.504C71.08 44.851 70.792 45.198 70.445 45.545C70.214 45.891 69.925 46.238 69.579 46.585C69.232 46.816 68.828 47.047 68.366 47.279C68.02 47.51 67.616 47.683 67.154 47.799C66.807 47.914 66.403 48.03 65.941 48.146C65.479 48.146 65.017 48.146 64.555 48.146C64.093 48.03 63.631 47.914 63.169 47.799C62.707 47.683 62.303 47.51 61.957 47.279C61.495 47.047 61.09 46.816 60.744 46.585C60.397 46.238 60.109 45.891 59.878 45.545C59.531 45.198 59.3 44.851 59.185 44.504C58.954 44.042 58.781 43.637 58.665 43.291C58.434 42.828 58.319 42.366 58.319 41.904C58.319 41.441 58.319 40.979 58.319 40.516C58.319 40.054 58.434 39.592 58.665 39.129C58.781 38.783 58.954 38.378 59.185 37.916C59.438 37.155 60.186 36.393 60.744 35.835C61.09 35.604 61.495 35.373 61.957 35.141C62.303 34.91 62.707 34.737 63.169 34.621C63.631 34.506 64.093 34.39 64.555 34.274C65.017 34.274 65.479 34.274 65.941 34.274C66.403 34.39 66.807 34.506 67.154 34.621C67.616 34.737 68.02 34.91 68.366 35.141C68.828 35.373 69.232 35.604 69.579 35.835C70.196 36.453 70.827 37.189 71.311 37.916C71.542 38.378 71.716 38.783 71.831 39.129C71.947 39.592 72.004 40.516 72.004 40.516 V41.904"></path></g></g></g><g id="g-root-sy_0_cu_3_1lr6bevsnhpmz-stroke" data-item-order="-62898" transform="translate(212.79925537109375, 166)"><g id="sy_0_cu_3_1lr6bevsnhpmz-stroke" fill="none" stroke-linecap="round" stroke-linejoin="round" stroke-miterlimit="4" stroke="#484848" stroke-width="2" stroke-opacity="1"><g><path d="M 23.6857 41.903514C 23.6857 41.903514 23.628 42.828214 23.5125 43.290614C 23.397 43.637414 23.2237 44.041914 22.9928 44.504314C 22.7618 44.851114 22.4731 45.197914 22.1266 45.544614C 21.8956 45.891414 21.6069 46.238214 21.2604 46.585014C 20.9139 46.816114 20.5097 47.047314 20.0477 47.278514C 19.7013 47.509714 19.297 47.683114 18.8351 47.798714C 18.4886 47.914314 18.0844 48.029914 17.6224 48.145514C 17.1605 48.145514 16.6985 48.145514 16.2365 48.145514C 15.7746 48.029914 15.3126 47.914314 14.8506 47.798714C 14.3887 47.683114 13.9844 47.509714 13.638 47.278514C 13.176 47.047314 12.7718 46.816114 12.4253 46.585014C 12.0788 46.238214 11.7901 45.891414 11.5591 45.544614C 11.2127 45.197914 10.9817 44.851114 10.8662 44.504314C 10.6352 44.041914 10.462 43.637414 10.3465 43.290614C 10.1155 42.828214 10 42.365914 10 41.903514C 10 41.441114 10 40.978714 10 40.516414C 10 40.054014 10.1155 39.591614 10.3465 39.129314C 10.462 38.782514 10.6352 38.377914 10.8662 37.915514C 10.9817 37.568814 11.2127 37.222014 11.5591 36.875214C 11.7901 36.528414 12.0788 36.181714 12.4253 35.834914C 12.7718 35.603714 13.176 35.372514 13.638 35.141314C 13.9844 34.910214 14.3887 34.736814 14.8506 34.621214C 15.3126 34.505614 15.7746 34.390014 16.2365 34.274414C 16.6985 34.274414 17.1605 34.274414 17.6224 34.274414C 18.0844 34.390014 18.4886 34.505614 18.8351 34.621214C 19.297 34.736814 19.7013 34.910214 20.0477 35.141314C 20.5097 35.372514 20.9139 35.603714 21.2604 35.834914C 21.6069 36.181714 21.8956 36.528414 22.1266 36.875214C 22.4731 37.222014 22.7618 37.568814 22.9928 37.915514C 23.2237 38.377914 23.397 38.782514 23.5125 39.129314C 23.628 39.591614 23.6857 40.516414 23.6857 40.516414L 23.6857 41.903514ZM 72.004288 41.903514C 72.004288 41.903514 71.946588 42.828214 71.831088 43.290614C 71.715588 43.637414 71.542288 44.041914 71.311388 44.504314C 71.080388 44.851114 70.791688 45.197914 70.445188 45.544614C 70.214188 45.891414 69.925488 46.238214 69.578988 46.585014C 69.232488 46.816114 68.828288 47.047314 68.366288 47.278514C 68.019888 47.509714 67.615588 47.683114 67.153688 47.798714C 66.807188 47.914314 66.402988 48.029914 65.940988 48.145514C 65.478988 48.145514 65.017088 48.145514 64.555088 48.145514C 64.093188 48.029914 63.631188 47.914314 63.169188 47.798714C 62.707288 47.683114 62.302988 47.509714 61.956588 47.278514C 61.494588 47.047314 61.090388 46.816114 60.743888 46.585014C 60.397388 46.238214 60.108688 45.891414 59.877688 45.544614C 59.531288 45.197914 59.300288 44.851114 59.184788 44.504314C 58.953788 44.041914 58.780588 43.637414 58.665088 43.290614C 58.434088 42.828214 58.318588 42.365914 58.318588 41.903514C 58.318588 41.441114 58.318588 40.978714 58.318588 40.516414C 58.318588 40.054014 58.434088 39.591614 58.665088 39.129314C 58.780588 38.782514 58.953788 38.377914 59.184788 37.915514C 59.437988 37.155214 60.185888 36.393314 60.743888 35.834914C 61.090388 35.603714 61.494588 35.372514 61.956588 35.141314C 62.302988 34.910214 62.707288 34.736814 63.169188 34.621214C 63.631188 34.505614 64.093188 34.390014 64.555088 34.274414C 65.017088 34.274414 65.478988 34.274414 65.940988 34.274414C 66.402988 34.390014 66.807188 34.505614 67.153688 34.621214C 67.615588 34.736814 68.019888 34.910214 68.366288 35.141314C 68.828288 35.372514 69.232488 35.603714 69.578988 35.834914C 70.196388 36.452914 70.827088 37.188514 71.311388 37.915514C 71.542288 38.377914 71.715588 38.782514 71.831088 39.129314C 71.946588 39.591614 72.004288 40.516414 72.004288 40.516414L 72.004288 41.903514ZM 35.718981 10L 35.718981 23.8711M 13.198181 23.8711C 13.198181 23.8711 14.179881 21.906 16.143181 17.9759C 18.106581 13.9301 19.203681 11.7917 19.434681 11.5605C 19.665681 11.2137 19.896681 10.9247 20.127681 10.6936C 20.358681 10.578 20.589581 10.4624 20.820581 10.3468C 21.167081 10.2312 21.455781 10.1156 21.686781 10C 22.033281 10 22.206481 10 22.206481 10C 22.206481 10 26.999381 10 36.585181 10C 46.170881 10 51.137081 10 51.483481 10C 51.714481 10.1156 52.003181 10.2312 52.349681 10.3468C 52.580681 10.4624 52.811681 10.578 53.042681 10.6936C 53.273581 10.9247 53.504581 11.2137 53.735581 11.5605C 53.966581 11.7917 54.082081 11.9073 54.082081 11.9073C 54.082081 11.9073 55.063781 13.9301 57.027081 17.9759C 58.990481 21.906 59.972081 23.8711 59.972081 23.8711"></path></g></g></g><g id="g-root-tx__v4vrrbsnhpn3-fill" data-item-order="0" transform="translate(257.71875, 38)"><g id="tx__v4vrrbsnhpn3-fill-merged" stroke="none" fill="#484848" fill-opacity="1"><g><text style="font: bold 25px Roboto, sans-serif; white-space: pre;" transform="translate(42.28125, 25)" font-weight="bold" font-size="25px" font-family="Roboto, sans-serif"><tspan x="-30.28" y="14" dominant-baseline="ideographic">타이틀</tspan></text></g></g></g><g id="g-root-tx__v4vrrbsnhpn3-stroke" data-item-order="0" transform="translate(257.71875, 38)"></g><g id="g-root-tx_finish_13zwax3snhs06-fill" data-item-order="0" transform="translate(424.3828125, 104)"><g id="tx_finish_13zwax3snhs06-fill-merged" stroke="none" fill="#ffffff" fill-opacity="1"><g><text style="font: bold 20px Roboto, sans-serif; white-space: pre;" transform="translate(43.6171875, 22)" font-weight="bold" font-size="20px" font-family="Roboto, sans-serif"><tspan x="-31.62" y="12" dominant-baseline="ideographic">FINISH</tspan></text></g></g></g><g id="g-root-tx_finish_13zwax3snhs06-stroke" data-item-order="0" transform="translate(424.3828125, 104)"></g><g id="g-root-tx__1hbctafsnhqf8-fill" data-item-order="0" transform="translate(174.5, 224)"><g id="tx__1hbctafsnhqf8-fill-merged" stroke="none" fill="#484848" fill-opacity="1"><g><text style="font: 20px Roboto, sans-serif; white-space: pre;" transform="translate(29.5, 22)" font-size="20px" font-family="Roboto, sans-serif"><tspan x="-17.5" y="12" dominant-baseline="ideographic">제목</tspan></text></g></g></g><g id="g-root-tx__1hbctafsnhqf8-stroke" data-item-order="0" transform="translate(174.5, 224)"></g><g id="g-root-tx__18fpt1jsnhr7x-fill" data-item-order="0" transform="translate(438.5, 224)"><g id="tx__18fpt1jsnhr7x-fill-merged" stroke="none" fill="#484848" fill-opacity="1"><g><text style="font: 20px Roboto, sans-serif; white-space: pre;" transform="translate(29.5, 22)" font-size="20px" font-family="Roboto, sans-serif"><tspan x="-17.5" y="12" dominant-baseline="ideographic">제목</tspan></text></g></g></g><g id="g-root-tx__18fpt1jsnhr7x-stroke" data-item-order="0" transform="translate(438.5, 224)"></g></g></g></svg>