<?xml version="1.0" encoding="utf-8" standalone="yes"?>
<!DOCTYPE svg PUBLIC "-//W3C//DTD SVG 1.1//EN" "http://www.w3.org/Graphics/SVG/1.1/DTD/svg11.dtd">
<svg style="fill:none;stroke:none;fill-rule:evenodd;clip-rule:evenodd;stroke-linecap:round;stroke-linejoin:round;stroke-miterlimit:1.5;" version="1.1" xmlns="http://www.w3.org/2000/svg" xmlns:xlink="http://www.w3.org/1999/xlink" width="662" height="600" viewBox="0 0 662 600"><style class="text-font-style fontImports" data-font-family="Roboto">@import url(https://fonts.googleapis.com/css2?family=Roboto:wght@400;700&amp;amp;display=block);</style><g id="items" style="isolation: isolate"><g id="blend" style="mix-blend-mode: normal"><g id="g-root-cp_4_g-4_90wgceplt6v8-fill" data-item-order="-360350" transform="translate(484.9999694824219, 291)"><g id="cp_4_g-4_90wgceplt6v8-fill-merged" stroke="none" fill="#e2a3ff" fill-opacity="1"><g><path d="M10.469 56.732C9.844 55.66 9.844 54.34 10.469 53.268L34.718 11.732C35.344 10.66 36.5 10 37.751 10 H86.249C87.5 10 88.656 10.66 89.282 11.732L113.531 53.268C114.156 54.34 114.156 55.66 113.531 56.732L89.282 98.268C88.656 99.34 87.5 100 86.249 100 H37.751C36.5 100 35.344 99.34 34.718 98.268L10.469 56.732"></path></g></g></g><g id="g-root-cp_4_g-4_90wgceplt6v8-stroke" data-item-order="-360350" transform="translate(484.9999694824219, 291)"><g id="cp_4_g-4_90wgceplt6v8-stroke" fill="none" stroke-linecap="round" stroke-linejoin="round" stroke-miterlimit="4" stroke="#ffffff" stroke-width="2" stroke-opacity="1"><g><path d="M 10.4693 56.7321C 9.8436 55.6603 9.8436 54.3397 10.4693 53.268L 34.7179 11.7321C 35.3436 10.6603 36.5 10 37.7514 10L 86.2486 10C 87.5 10 88.6564 10.6603 89.2821 11.7321L 113.5307 53.2679C 114.1564 54.3397 114.1564 55.6603 113.5307 56.732L 89.2821 98.2679C 88.6564 99.3397 87.5 100 86.2486 100L 37.7514 100C 36.5 100 35.3436 99.3397 34.7179 98.2679L 10.4693 56.7321Z"></path></g></g></g><g id="g-root-cp_3_g-3_90wgceplt6v9-fill" data-item-order="-360346" transform="translate(343.9999694824219, 284)"><g id="cp_3_g-3_90wgceplt6v9-fill-merged" stroke="none" fill="#cd6afb" fill-opacity="1"><g><path d="M56.956 10.696C58.175 9.768 59.825 9.768 61.044 10.696L106.566 45.345C107.785 46.273 108.295 47.917 107.83 49.418L90.442 105.483C89.976 106.984 88.641 108 87.134 108 H30.866C29.359 108 28.024 106.984 27.558 105.483L10.17 49.418C9.705 47.917 10.215 46.273 11.434 45.345L56.956 10.696"></path></g></g></g><g id="g-root-cp_3_g-3_90wgceplt6v9-stroke" data-item-order="-360346" transform="translate(343.9999694824219, 284)"><g id="cp_3_g-3_90wgceplt6v9-stroke" fill="none" stroke-linecap="round" stroke-linejoin="round" stroke-miterlimit="4" stroke="#ffffff" stroke-width="2" stroke-opacity="1"><g><path d="M 56.9559 10.6958C 58.1748 9.7681 59.8252 9.7681 61.0441 10.6958L 106.5663 45.3453C 107.7851 46.273 108.2951 47.9174 107.8296 49.4185L 90.4416 105.4826C 89.9761 106.9837 88.6408 108 87.1343 108L 30.8657 108C 29.3592 108 28.0239 106.9837 27.5584 105.4826L 10.1704 49.4185C 9.7049 47.9175 10.2149 46.273 11.4337 45.3453L 56.9559 10.6958Z"></path></g></g></g><g id="g-root-cp_2_g-2_59g3iplt7ny-fill" data-item-order="-360342" transform="translate(199.99996948242188, 296)"><g id="cp_2_g-2_59g3iplt7ny-fill-merged" stroke="none" fill="#ba5de5" fill-opacity="1"><g><path d="M10 14.095C10 11.833 11.833 10 14.095 10 H91.905C94.166 10 96 11.833 96 14.095 V91.905C96 94.166 94.166 96 91.905 96 H14.095C11.833 96 10 94.166 10 91.905 V14.095"></path></g></g></g><g id="g-root-cp_2_g-2_59g3iplt7ny-stroke" data-item-order="-360342" transform="translate(199.99996948242188, 296)"><g id="cp_2_g-2_59g3iplt7ny-stroke" fill="none" stroke-linecap="round" stroke-linejoin="round" stroke-miterlimit="4" stroke="#ffffff" stroke-width="2" stroke-opacity="1"><g><path d="M 10 14.0952C 10 11.8335 11.8335 10 14.0952 10L 91.9048 10C 94.1665 10 96 11.8335 96 14.0952L 96 91.9048C 96 94.1665 94.1665 96 91.9048 96L 14.0952 96C 11.8335 96 10 94.1665 10 91.9048L 10 14.0952Z"></path></g></g></g><g id="g-root-cp_1_g-1_59g3iplt7nz-fill" data-item-order="-360338" transform="translate(46.999969482421875, 288)"><g id="cp_1_g-1_59g3iplt7nz-fill-merged" stroke="none" fill="#a455c9" fill-opacity="1"><g><path d="M58.048 12.3C59.804 9.233 64.196 9.233 65.952 12.3L113.382 95.1C115.138 98.167 112.943 102 109.429 102 H14.571C11.057 102 8.862 98.167 10.618 95.1L58.048 12.3"></path></g></g></g><g id="g-root-cp_1_g-1_59g3iplt7nz-stroke" data-item-order="-360338" transform="translate(46.999969482421875, 288)"><g id="cp_1_g-1_59g3iplt7nz-stroke" fill="none" stroke-linecap="round" stroke-linejoin="round" stroke-miterlimit="4" stroke="#ffffff" stroke-width="2" stroke-opacity="1"><g><path d="M 58.0476 12.3C 59.8042 9.2333 64.1958 9.2333 65.9524 12.3L 113.3817 95.1C 115.1384 98.1667 112.9426 102 109.4293 102L 14.5707 102C 11.0574 102 8.8616 98.1667 10.6183 95.1L 58.0476 12.3Z"></path></g></g></g><g id="g-root-sy_0_Vector_1uqjzy6plt894-fill" data-item-order="-360329" transform="translate(537, 391)"></g><g id="g-root-sy_0_Vector_1uqjzy6plt894-stroke" data-item-order="-360329" transform="translate(537, 391)"><g id="sy_0_Vector_1uqjzy6plt894-stroke" fill="none" stroke-linecap="round" stroke-linejoin="round" stroke-miterlimit="4" stroke="#484848" stroke-width="2" stroke-opacity="1"><g><path d="M 10 70L 10 12"></path><path d="M 16.5 18L 10 11.5L 3.5 18" stroke-dasharray="none"></path></g></g></g><g id="g-root-sy_0_Vector_2_1uqjzy6plt895-fill" data-item-order="-360325" transform="translate(391.9999694824219, 212)"></g><g id="g-root-sy_0_Vector_2_1uqjzy6plt895-stroke" data-item-order="-360325" transform="translate(391.9999694824219, 212)"><g id="sy_0_Vector_2_1uqjzy6plt895-stroke" fill="none" stroke-linecap="round" stroke-linejoin="round" stroke-miterlimit="4" stroke="#484848" stroke-width="2" stroke-opacity="1"><g><path d="M 10 10L 10 68"></path><path d="M 3.5 62L 10 68.5L 16.5 62" stroke-dasharray="none"></path></g></g></g><g id="g-root-sy_0_Vector_2_1_1qaqhtqplt91e-fill" data-item-order="-360321" transform="translate(242.99996948242188, 392)"></g><g id="g-root-sy_0_Vector_2_1_1qaqhtqplt91e-stroke" data-item-order="-360321" transform="translate(242.99996948242188, 392)"><g id="sy_0_Vector_2_1_1qaqhtqplt91e-stroke" fill="none" stroke-linecap="round" stroke-linejoin="round" stroke-miterlimit="4" stroke="#484848" stroke-width="2" stroke-opacity="1"><g><path d="M 10 70L 10 12"></path><path d="M 16.5 18L 10 11.5L 3.5 18" stroke-dasharray="none"></path></g></g></g><g id="g-root-sy_0_Vector_2_2_1qaqhtqplt91f-fill" data-item-order="-360317" transform="translate(98.99996948242188, 212)"></g><g id="g-root-sy_0_Vector_2_2_1qaqhtqplt91f-stroke" data-item-order="-360317" transform="translate(98.99996948242188, 212)"><g id="sy_0_Vector_2_2_1qaqhtqplt91f-stroke" fill="none" stroke-linecap="round" stroke-linejoin="round" stroke-miterlimit="4" stroke="#484848" stroke-width="2" stroke-opacity="1"><g><path d="M 10 10L 10 68"></path><path d="M 3.5 62L 10 68.5L 16.5 62" stroke-dasharray="none"></path></g></g></g><g id="g-root-tx__1hfpynyplt6oc-fill" data-item-order="0" transform="translate(288.7187194824219, 38)"><g id="tx__1hfpynyplt6oc-fill-merged" stroke="none" fill="#484848" fill-opacity="1"><g><text style="font: bold 25px Roboto, sans-serif; white-space: pre;" transform="translate(42.28125, 25)" font-weight="bold" font-size="25px" font-family="Roboto, sans-serif"><tspan x="-30.28" y="14" dominant-baseline="ideographic">타이틀</tspan></text></g></g></g><g id="g-root-tx__1hfpynyplt6oc-stroke" data-item-order="0" transform="translate(288.7187194824219, 38)"></g><g id="g-root-tx__1hgywu6plt8ul-fill" data-item-order="0" transform="translate(73.75778198242188, 122)"><g id="tx__1hgywu6plt8ul-fill-merged" stroke="none" fill="#484848" fill-opacity="1"><g><text style="font: bold 20px Roboto, sans-serif; white-space: pre;" transform="translate(35.2421875, 22)" font-weight="bold" font-size="20px" font-family="Roboto, sans-serif"><tspan x="-23.24" y="12" dominant-baseline="ideographic">제목1</tspan></text></g></g></g><g id="g-root-tx__1hgywu6plt8ul-stroke" data-item-order="0" transform="translate(73.75778198242188, 122)"></g><g id="g-root-tx__1464vjyplt79r-fill" data-item-order="0" transform="translate(367.7577819824219, 122)"><g id="tx__1464vjyplt79r-fill-merged" stroke="none" fill="#484848" fill-opacity="1"><g><text style="font: bold 20px Roboto, sans-serif; white-space: pre;" transform="translate(35.2421875, 22)" font-weight="bold" font-size="20px" font-family="Roboto, sans-serif"><tspan x="-23.24" y="12" dominant-baseline="ideographic">제목2</tspan></text></g></g></g><g id="g-root-tx__1464vjyplt79r-stroke" data-item-order="0" transform="translate(367.7577819824219, 122)"></g><g id="g-root-tx__1d15epqplt9mu-fill" data-item-order="0" transform="translate(80.11715698242188, 158)"><g id="tx__1d15epqplt9mu-fill-merged" stroke="none" fill="#484848" fill-opacity="1"><g><text style="font: 15px Roboto, sans-serif; white-space: pre;" transform="translate(28.8828125, 19)" font-size="15px" font-family="Roboto, sans-serif"><tspan x="-16.88" y="9" dominant-baseline="ideographic">설명1</tspan></text></g></g></g><g id="g-root-tx__1d15epqplt9mu-stroke" data-item-order="0" transform="translate(80.11715698242188, 158)"></g><g id="g-root-tx_ai_vahvb2plt8u8-fill" data-item-order="0" transform="translate(374.1171569824219, 158)"><g id="tx_ai_vahvb2plt8u8-fill-merged" stroke="none" fill="#484848" fill-opacity="1"><g><text style="font: 15px Roboto, sans-serif; white-space: pre;" transform="translate(28.8828125, 19)" font-size="15px" font-family="Roboto, sans-serif"><tspan x="-16.88" y="9" dominant-baseline="ideographic">설명2</tspan></text></g></g></g><g id="g-root-tx_ai_vahvb2plt8u8-stroke" data-item-order="0" transform="translate(374.1171569824219, 158)"></g><g id="g-root-tx_1_hxseriplt88w-fill" data-item-order="0" transform="translate(88.39059448242188, 320)"><g id="tx_1_hxseriplt88w-fill-merged" stroke="none" fill="#ffffff" fill-opacity="1"><g><text style="font: bold 30px Roboto, sans-serif; white-space: pre;" transform="translate(20.609375, 28)" font-weight="bold" font-size="30px" font-family="Roboto, sans-serif"><tspan x="-8.61" y="17" dominant-baseline="ideographic">1</tspan></text></g></g></g><g id="g-root-tx_1_hxseriplt88w-stroke" data-item-order="0" transform="translate(88.39059448242188, 320)"></g><g id="g-root-tx_2_mdlwvyplt7gn-fill" data-item-order="0" transform="translate(232.39059448242188, 320)"><g id="tx_2_mdlwvyplt7gn-fill-merged" stroke="none" fill="#ffffff" fill-opacity="1"><g><text style="font: bold 30px Roboto, sans-serif; white-space: pre;" transform="translate(20.609375, 28)" font-weight="bold" font-size="30px" font-family="Roboto, sans-serif"><tspan x="-8.61" y="17" dominant-baseline="ideographic">2</tspan></text></g></g></g><g id="g-root-tx_2_mdlwvyplt7gn-stroke" data-item-order="0" transform="translate(232.39059448242188, 320)"></g><g id="g-root-tx_3_mdlwvyplt7gm-fill" data-item-order="0" transform="translate(382.3905944824219, 320)"><g id="tx_3_mdlwvyplt7gm-fill-merged" stroke="none" fill="#ffffff" fill-opacity="1"><g><text style="font: bold 30px Roboto, sans-serif; white-space: pre;" transform="translate(20.609375, 28)" font-weight="bold" font-size="30px" font-family="Roboto, sans-serif"><tspan x="-8.61" y="17" dominant-baseline="ideographic">3</tspan></text></g></g></g><g id="g-root-tx_3_mdlwvyplt7gm-stroke" data-item-order="0" transform="translate(382.3905944824219, 320)"></g><g id="g-root-tx_4_zofy66plt91h-fill" data-item-order="0" transform="translate(526.390625, 320)"><g id="tx_4_zofy66plt91h-fill-merged" stroke="none" fill="#ffffff" fill-opacity="1"><g><text style="font: bold 30px Roboto, sans-serif; white-space: pre;" transform="translate(20.609375, 28)" font-weight="bold" font-size="30px" font-family="Roboto, sans-serif"><tspan x="-8.61" y="17" dominant-baseline="ideographic">4</tspan></text></g></g></g><g id="g-root-tx_4_zofy66plt91h-stroke" data-item-order="0" transform="translate(526.390625, 320)"></g><g id="g-root-tx_ai_925eimplt91l-fill" data-item-order="0" transform="translate(217.75778198242188, 488)"><g id="tx_ai_925eimplt91l-fill-merged" stroke="none" fill="#484848" fill-opacity="1"><g><text style="font: bold 20px Roboto, sans-serif; white-space: pre;" transform="translate(35.2421875, 22)" font-weight="bold" font-size="20px" font-family="Roboto, sans-serif"><tspan x="-23.24" y="12" dominant-baseline="ideographic">제목3</tspan></text></g></g></g><g id="g-root-tx_ai_925eimplt91l-stroke" data-item-order="0" transform="translate(217.75778198242188, 488)"></g><g id="g-root-tx__1usff7iplt79n-fill" data-item-order="0" transform="translate(511.7577819824219, 488)"><g id="tx__1usff7iplt79n-fill-merged" stroke="none" fill="#484848" fill-opacity="1"><g><text style="font: bold 20px Roboto, sans-serif; white-space: pre;" transform="translate(35.2421875, 22)" font-weight="bold" font-size="20px" font-family="Roboto, sans-serif"><tspan x="-23.24" y="12" dominant-baseline="ideographic">제목4</tspan></text></g></g></g><g id="g-root-tx__1usff7iplt79n-stroke" data-item-order="0" transform="translate(511.7577819824219, 488)"></g><g id="g-root-tx_ai_4mydhaplt6o2-fill" data-item-order="0" transform="translate(224.11715698242188, 524)"><g id="tx_ai_4mydhaplt6o2-fill-merged" stroke="none" fill="#484848" fill-opacity="1"><g><text style="font: 15px Roboto, sans-serif; white-space: pre;" transform="translate(28.8828125, 19)" font-size="15px" font-family="Roboto, sans-serif"><tspan x="-16.88" y="9" dominant-baseline="ideographic">설명3</tspan></text></g></g></g><g id="g-root-tx_ai_4mydhaplt6o2-stroke" data-item-order="0" transform="translate(224.11715698242188, 524)"></g><g id="g-root-tx_ai_1qclx32plt81w-fill" data-item-order="0" transform="translate(518.1171875, 524)"><g id="tx_ai_1qclx32plt81w-fill-merged" stroke="none" fill="#484848" fill-opacity="1"><g><text style="font: 15px Roboto, sans-serif; white-space: pre;" transform="translate(28.8828125, 19)" font-size="15px" font-family="Roboto, sans-serif"><tspan x="-16.88" y="9" dominant-baseline="ideographic">설명4</tspan></text></g></g></g><g id="g-root-tx_ai_1qclx32plt81w-stroke" data-item-order="0" transform="translate(518.1171875, 524)"></g></g></g></svg>