<?xml version="1.0" encoding="utf-8" standalone="yes"?>
<!DOCTYPE svg PUBLIC "-//W3C//DTD SVG 1.1//EN" "http://www.w3.org/Graphics/SVG/1.1/DTD/svg11.dtd">
<svg style="fill:none;stroke:none;fill-rule:evenodd;clip-rule:evenodd;stroke-linecap:round;stroke-linejoin:round;stroke-miterlimit:1.5;" version="1.1" xmlns="http://www.w3.org/2000/svg" xmlns:xlink="http://www.w3.org/1999/xlink" width="474" height="630" viewBox="0 0 474 630"><style class="text-font-style fontImports" data-font-family="Roboto">@import url(https://fonts.googleapis.com/css2?family=Roboto:wght@400;700&amp;amp;display=block);</style><g id="items" style="isolation: isolate"><g id="blend" style="mix-blend-mode: normal"><g id="g-root-sy_5_line_1hhkoknt7pcle-fill" data-item-order="-80550" transform="translate(83.13006591796875, 397.31640625)"></g><g id="g-root-sy_5_line_1hhkoknt7pcle-stroke" data-item-order="-80550" transform="translate(83.13006591796875, 397.31640625)"><g id="sy_5_line_1hhkoknt7pcle-stroke" fill="none" stroke-linecap="round" stroke-linejoin="round" stroke-miterlimit="4" stroke="#484848" stroke-width="2" stroke-opacity="1"><g><path d="M 10.08 11.93C 11.36 39.91 20.64 65.8 35.67 87.38"></path><path d="M 17.1 17.5L 10.1 11.5L 4.1 18.5" stroke-dasharray="none"></path></g></g></g><g id="g-root-sy_5_line_1_1hhkoknt7pclf-fill" data-item-order="-80546" transform="translate(187.4599609375, 530.52734375)"></g><g id="g-root-sy_5_line_1_1hhkoknt7pclf-stroke" data-item-order="-80546" transform="translate(187.4599609375, 530.52734375)"><g id="sy_5_line_1_1hhkoknt7pclf-stroke" fill="none" stroke-linecap="round" stroke-linejoin="round" stroke-miterlimit="4" stroke="#484848" stroke-width="2" stroke-opacity="1"><g><path d="M 12 11C 23.98 14.24 36.58 15.97 49.59 15.97C 63.32 15.97 77.68 13.88 90.71 10"></path><path d="M 19.3 6L 11.5 10.8L 16.3 18.6" stroke-dasharray="none"></path></g></g></g><g id="g-root-sy_5_line_2_18lxobrt7pde4-fill" data-item-order="-80542" transform="translate(346.260498046875, 395.5078125)"></g><g id="g-root-sy_5_line_2_18lxobrt7pde4-stroke" data-item-order="-80542" transform="translate(346.260498046875, 395.5078125)"><g id="sy_5_line_2_18lxobrt7pde4-stroke" fill="none" stroke-linecap="round" stroke-linejoin="round" stroke-miterlimit="4" stroke="#484848" stroke-width="2" stroke-opacity="1"><g><path d="M 11.1 86.13C 25.55 64.2 34.16 38.09 34.74 10"></path><path d="M 8.7 77.5L 10.8 86.5L 19.7 84.4" stroke-dasharray="none"></path></g></g></g><g id="g-root-sy_5_line_3_18lxobrt7pde5-fill" data-item-order="-80538" transform="translate(274.900390625, 256.64453125)"></g><g id="g-root-sy_5_line_3_18lxobrt7pde5-stroke" data-item-order="-80538" transform="translate(274.900390625, 256.64453125)"><g id="sy_5_line_3_18lxobrt7pde5-stroke" fill="none" stroke-linecap="round" stroke-linejoin="round" stroke-miterlimit="4" stroke="#484848" stroke-width="2" stroke-opacity="1"><g><path d="M 74.3 55.54C 57.68 34.92 35.48 18.98 10 10"></path><path d="M 65.4 55.2L 74.6 56L 75.3 46.8" stroke-dasharray="none"></path></g></g></g><g id="g-root-sy_5_line_4_18lxobrt7pde6-fill" data-item-order="-80534" transform="translate(112.900390625, 256.99609375)"></g><g id="g-root-sy_5_line_4_18lxobrt7pde6-stroke" data-item-order="-80534" transform="translate(112.900390625, 256.99609375)"><g id="sy_5_line_4_18lxobrt7pde6-stroke" fill="none" stroke-linecap="round" stroke-linejoin="round" stroke-miterlimit="4" stroke="#484848" stroke-width="2" stroke-opacity="1"><g><path d="M 73.4 10.7C 48.11 20.23 26.21 36.67 10 57.71"></path><path d="M 70.4 19L 73.9 10.6L 65.4 7" stroke-dasharray="none"></path></g></g></g><g id="g-root-tx__146467bt7pe6f-fill" data-item-order="0" transform="translate(194.71875, 38)"><g id="tx__146467bt7pe6f-fill-merged" stroke="none" fill="#484848" fill-opacity="1"><g><text style="font: bold 25px Roboto, sans-serif; white-space: pre;" transform="translate(42.28125, 25)" font-weight="bold" font-size="25px" font-family="Roboto, sans-serif"><tspan x="-30.28" y="14" dominant-baseline="ideographic">타이틀</tspan></text></g></g></g><g id="g-root-tx__146467bt7pe6f-stroke" data-item-order="0" transform="translate(194.71875, 38)"></g><g id="g-root-tx__1q6cgvbt7qqrw-fill" data-item-order="0" transform="translate(207.5, 188)"><g id="tx__1q6cgvbt7qqrw-fill-merged" stroke="none" fill="#484848" fill-opacity="1"><g><text style="font: 20px Roboto, sans-serif; white-space: pre;" transform="translate(29.5, 22)" font-size="20px" font-family="Roboto, sans-serif"><tspan x="-17.5" y="12" dominant-baseline="ideographic">제목</tspan></text></g></g></g><g id="g-root-tx__1q6cgvbt7qqrw-stroke" data-item-order="0" transform="translate(207.5, 188)"></g><g id="g-root-ic_1_vbq44nt7v092-fill" data-item-order="0" transform="translate(203, 224)"></g><g id="g-root-ic_1_vbq44nt7v092-stroke" data-item-order="0" transform="translate(203, 224)"><g id="ic_1_vbq44nt7v092-stroke" fill="none" stroke-linecap="round" stroke-linejoin="round" stroke-miterlimit="4" stroke="#4f3d58" stroke-width="2" stroke-opacity="1"><g><path d="M 10 10M 38.250999 49.1366L 43.250999 42.9366C 43.851002 42.1366 45.050999 42.1366 45.651001 42.9366L 50.651001 49.1366M 33.451 42.336601C 32.898598 42.336601 32.451 41.889 32.451 41.336601C 32.451 40.784401 32.898598 40.336601 33.451 40.336601M 33.4506 42.336601C 34.002998 42.336601 34.4506 41.889 34.4506 41.336601C 34.4506 40.784401 34.002998 40.336601 33.4506 40.336601M 56.451 44.3368C 56.451 43.3368 56.050999 42.3368 55.451 41.5368C 54.851002 40.736801 54.851002 39.736801 55.451 38.936798C 56.250999 37.936798 56.651001 36.736801 56.451 35.3368C 56.050999 33.936798 55.050999 32.736801 53.451 32.3368C 52.050999 31.9368 50.851002 32.3368 50.050999 33.136803C 49.050999 33.936798 47.851002 34.3368 46.651001 34.3368L 46.451 34.3368C 45.050999 34.3368 43.851002 33.736801 42.851002 33.136803C 42.250999 32.736801 41.451 32.3368 40.651001 32.3368C 39.850998 32.3368 39.051003 32.5368 38.451 33.136803C 37.451 33.936798 36.051003 34.3368 34.850998 34.3368L 34.651001 34.3368C 33.451 34.3368 32.250999 33.936798 31.250999 33.136803C 30.250999 32.3368 29.05102 32.136803 27.851021 32.3368C 26.451019 32.736801 25.25102 33.936798 24.851021 35.3368C 24.65102 36.736801 25.05102 37.936798 25.851021 38.936798C 26.451019 39.736801 26.451019 40.736801 25.851021 41.5368C 25.25102 42.3368 24.851021 43.136799 24.851021 44.3368C 24.851021 45.3368 25.25102 46.3368 25.851021 47.136799C 26.451019 47.936798 26.451019 48.936798 25.851021 49.736801C 25.05102 50.736801 24.65102 51.936798 24.851021 53.3368C 25.25102 54.736801 26.25102 55.936798 27.851021 56.3368C 29.25102 56.736801 30.451 56.3368 31.250999 55.5368C 32.250999 54.736801 33.451 54.3368 34.651001 54.3368L 34.651001 54.3368C 36.051003 54.3368 37.250999 54.936798 38.250999 55.5368C 38.850998 55.936798 39.651001 56.3368 40.451 56.3368C 41.250999 56.3368 42.050999 56.136799 42.651001 55.5368C 43.651001 54.736801 45.050999 54.3368 46.250999 54.3368L 46.651001 54.3368C 47.851002 54.3368 49.050999 54.736801 50.050999 55.5368C 51.050999 56.3368 52.250999 56.5368 53.451 56.3368C 54.851002 55.936798 56.050999 54.736801 56.451 53.3368C 56.651001 51.936798 56.250999 50.736801 55.451 49.736801C 54.851002 48.936798 54.851002 47.936798 55.451 47.136799C 56.050999 46.3368 56.451 45.3368 56.451 44.3368ZM 19.9 47.5L 14.5 47.5C 12.9 47.5 11.5 46.099998 11.5 44.5L 11.5 23.5C 11.5 21.9 12.9 20.5 14.5 20.5L 44.5 20.5C 46.099998 20.5 47.5 21.9 47.5 23.5L 47.5 26.9M 46.5 21.30002L 40.900002 12.9C 40.299999 12.1 39.5 11.5 38.5 11.5L 20.700001 11.5C 19.700001 11.5 18.700001 12.1 18.299999 12.9L 12.5 21.30002M 29.5 11.5L 29.5 20.5"></path></g></g></g><g id="g-root-ic_warn_zk1x7rt7qqrx-fill" data-item-order="0" transform="translate(65, 326)"></g><g id="g-root-ic_warn_zk1x7rt7qqrx-stroke" data-item-order="0" transform="translate(65, 326)"><g id="ic_warn_zk1x7rt7qqrx-stroke" fill="none" stroke-linecap="round" stroke-linejoin="round" stroke-miterlimit="4" stroke="#4f3d58" stroke-width="2" stroke-opacity="1"><g><path d="M 11.42 33.225998L 16.993999 41.529999L 23.403999 33.854M 56.566002 41.832001L 50.993999 33.526001L 44.582001 41.204002M 50.919998 33.599998C 52.323551 42.48851 46.6539 50.961197 37.902 53.054005C 32.202431 54.403103 26.209776 52.723194 22.042 48.608002M 17 41.48C 15.85671 36.892136 16.595881 32.037575 19.052826 27.997889C 21.509769 23.958206 25.480373 21.06901 30.08 19.973999C 36.178974 18.530182 42.577652 20.559311 46.73 25.254M 32.992001 24.992001L 32.992001 38.952M 33 43.452C 33.276142 43.452 33.5 43.675858 33.5 43.952C 33.5 44.228142 33.276142 44.452 33 44.452C 32.723858 44.452 32.5 44.228142 32.5 43.952C 32.5 43.675858 32.723858 43.452 33 43.452"></path></g></g></g><g id="g-root-ic_1_1hgy7hjt7uyv8-fill" data-item-order="0" transform="translate(341, 327)"></g><g id="g-root-ic_1_1hgy7hjt7uyv8-stroke" data-item-order="0" transform="translate(341, 327)"><g id="ic_1_1hgy7hjt7uyv8-stroke" fill="none" stroke-linecap="round" stroke-linejoin="round" stroke-miterlimit="4" stroke="#4f3d58" stroke-width="2" stroke-opacity="1"><g><path d="M 33.084 57L 13.084 57C 11.97943 57 11.084 56.104568 11.084 55L 11.084 13C 11.084 11.895431 11.97943 11 13.084 11L 39.669998 11C 40.202408 11.003817 40.711319 11.219762 41.084 11.6L 48.498001 19C 48.8731 19.374985 49.083885 19.88361 49.084 20.414L 49.084 29M 23.084 24.007999L 17.084 30.007999L 23.084 36.007999M 29.084 24.007999L 35.084 30.007999L 29.084 36.007999M 35.084 44.066002C 35.084 49.068596 39.139404 53.124001 44.141998 53.124001C 49.144592 53.124001 53.199997 49.068596 53.199997 44.065998C 53.199997 39.063404 49.144592 35.007999 44.141998 35.007999C 39.139404 35.007999 35.084 39.063404 35.084 44.065998ZM 57.084 57.007999L 50.588001 50.512001"></path></g></g></g><g id="g-root-tx__djtmjrt7pe6g-fill" data-item-order="0" transform="translate(14, 338)"><g id="tx__djtmjrt7pe6g-fill-merged" stroke="none" fill="#484848" fill-opacity="1"><g><text style="font: 20px Roboto, sans-serif; white-space: pre;" transform="translate(49, 22)" font-size="20px" font-family="Roboto, sans-serif"><tspan x="-37" y="12" dominant-baseline="ideographic">제목</tspan></text></g></g></g><g id="g-root-tx__djtmjrt7pe6g-stroke" data-item-order="0" transform="translate(14, 338)"></g><g id="g-root-tx__dbpgfbt7qrr7-fill" data-item-order="0" transform="translate(401, 338)"><g id="tx__dbpgfbt7qrr7-fill-merged" stroke="none" fill="#484848" fill-opacity="1"><g><text style="font: 20px Roboto, sans-serif; white-space: pre;" transform="translate(10, 22)" font-size="20px" font-family="Roboto, sans-serif"><tspan x="2" y="12" dominant-baseline="ideographic">제목</tspan></text></g></g></g><g id="g-root-tx__dbpgfbt7qrr7-stroke" data-item-order="0" transform="translate(401, 338)"></g><g id="g-root-ic_2_1lqiyqvt7s4y6-fill" data-item-order="0" transform="translate(119, 488)"></g><g id="g-root-ic_2_1lqiyqvt7s4y6-stroke" data-item-order="0" transform="translate(119, 488)"><g id="ic_2_1lqiyqvt7s4y6-stroke" fill="none" stroke-linecap="round" stroke-linejoin="round" stroke-miterlimit="4" stroke="#4f3d58" stroke-width="2" stroke-opacity="1"><g><path d="M 11.106 56.549999L 11.106 33.549999C 11.106 31.34086 12.896861 29.549999 15.106 29.549999L 30.6 29.549999C 32.809139 29.549999 34.599998 31.34086 34.599998 33.549999L 34.599998 56.549999M 11.106 43.049999L 34.606003 43.049999M 17.265999 29.549999L 16.021999 23.049999M 17.605999 36.549999C 17.605999 36.826141 17.829857 37.049999 18.105999 37.049999C 18.382141 37.049999 18.605999 36.826141 18.605999 36.549999C 18.605999 36.273857 18.382141 36.049999 18.105999 36.049999C 17.829857 36.049999 17.605999 36.273857 17.605999 36.549999M 26.606001 36.549999C 26.606001 36.826141 26.829857 37.049999 27.106001 37.049999C 27.382143 37.049999 27.606001 36.826141 27.606001 36.549999C 27.606001 36.273857 27.382143 36.049999 27.106001 36.049999C 26.829857 36.049999 26.606001 36.273857 26.606001 36.549999M 43.868 11.45C 40.377884 12.588686 37.885384 15.675511 37.507462 19.327181C 37.129539 22.978849 38.93705 26.510696 42.119999 28.34C 45.031204 29.90416 48.532799 29.90416 51.444 28.34C 54.626949 26.510696 56.43446 22.978849 56.056538 19.327181C 55.678616 15.675511 53.186115 12.588686 49.695999 11.45L 49.695999 19.142C 49.696003 20.751358 48.391361 22.056 46.782001 22.056C 45.172646 22.056 43.868 20.751358 43.868 19.142L 43.868 11.45M 43.077999 52.161999C 42.571312 52.314083 42.029526 52.302185 41.529999 52.128002L 34.599998 49.700001M 34.606003 44.327999L 43.080002 47.372002M 44.296001 46.155998C 44.225273 45.910446 44.192894 45.655441 44.200001 45.400002L 44.348 29.200001M 49.348 29.158001L 49.200001 45.459999C 49.196789 45.695766 49.161121 45.92997 49.094002 46.156002M 42.358002 49.768002C 42.357998 52.160496 44.297501 54.099998 46.689999 54.099998C 49.082497 54.099998 51.021999 52.160496 51.021999 49.767998C 51.021999 47.375504 49.082497 45.436001 46.689999 45.436001C 44.297501 45.436001 42.357998 47.375504 42.357998 49.767998M 17.015999 56.549999L 17.015999 48.372002L 28.695999 48.372002L 28.695999 56.549999M 17.015999 53.32L 28.695999 53.32M 12.854 20.482C 12.853887 21.932381 14.02962 23.108204 15.48 23.108204C 16.93038 23.108204 18.106113 21.932381 18.105999 20.481998C 18.106113 19.03162 16.93038 17.855795 15.48 17.855795C 14.02962 17.855795 12.853887 19.03162 12.854 20.481998M 28.25 29.549999L 29.493999 23.049999M 27.41 20.482C 27.409887 21.932381 28.585619 23.108204 30.035999 23.108204C 31.48638 23.108204 32.662113 21.932381 32.661999 20.481998C 32.662113 19.03162 31.48638 17.855795 30.035999 17.855795C 28.585619 17.855795 27.409887 19.03162 27.41 20.481998"></path></g></g></g><g id="g-root-ic_code_1ha2zjbt7v0g2-fill" data-item-order="0" transform="translate(287, 488)"></g><g id="g-root-ic_code_1ha2zjbt7v0g2-stroke" data-item-order="0" transform="translate(287, 488)"><g id="ic_code_1ha2zjbt7v0g2-stroke" fill="none" stroke-linecap="round" stroke-linejoin="round" stroke-miterlimit="4" stroke="#4f3d58" stroke-width="2" stroke-opacity="1"><g><path d="M 10 10M 28 30L 24 34L 28 38M 10 10M 40 30L 44 34L 40 38M 10 10M 32.5998 40L 35.5998 28M 34 18.699959C 35.988197 18.699959 37.599998 17.0882 37.599998 15.099979C 37.599998 13.11176 35.988197 11.5 34 11.5C 32.011803 11.5 30.4 13.11176 30.4 15.099979C 30.4 17.0882 32.011803 18.699959 34 18.699959ZM 10 10M 37.000198 17.0998L 42.000198 20.299801L 42.4002 16.299801M 17.800039 28.3001C 19.78828 28.3001 21.40008 26.68836 21.40008 24.70014C 21.40008 22.711899 19.78828 21.1001 17.800039 21.1001C 15.81182 21.1001 14.20008 22.711899 14.20008 24.70014C 14.20008 26.68836 15.81182 28.3001 17.800039 28.3001ZM 10 10M 21.00012 23.1001L 26.20014 20.50012L 23.00012 18.1001M 17.800039 46.899799C 19.78828 46.899799 21.40008 45.287998 21.40008 43.299599C 21.40008 41.311401 19.78828 39.699799 17.800039 39.699799C 15.81182 39.699799 14.20008 41.311401 14.20008 43.299599C 14.20008 45.287998 15.81182 46.899799 17.800039 46.899799ZM 10 10M 18.00024 39.699799L 18.400261 33.900002L 14.60022 35.299801M 34 56.500198C 35.988197 56.500198 37.599998 54.888401 37.599998 52.9002C 37.599998 50.911999 35.988197 49.300201 34 49.300201C 32.011803 49.300201 30.4 50.911999 30.4 52.9002C 30.4 54.888401 32.011803 56.500198 34 56.500198ZM 10 10M 30.7344 51.375L 25.599979 47.900398L 25 51.900398M 50.200001 46.899799C 52.188202 46.899799 53.799999 45.287998 53.799999 43.299599C 53.799999 41.311401 52.188202 39.699799 50.200001 39.699799C 48.2118 39.699799 46.599998 41.311401 46.599998 43.299599C 46.599998 45.287998 48.2118 46.899799 50.200001 46.899799ZM 47.0546 45.062401L 41.599998 47.700001L 44.799999 50.099998M 50.200001 28.3001C 52.188202 28.3001 53.799999 26.68836 53.799999 24.70014C 53.799999 22.711899 52.188202 21.1001 50.200001 21.1001C 48.2118 21.1001 46.599998 22.711899 46.599998 24.70014C 46.599998 26.68836 48.2118 28.3001 50.200001 28.3001ZM 10 10M 50.199799 28.299801L 49.799999 34.299801L 53.400002 32.699799"></path></g></g></g><g id="g-root-tx__1lyn4vbt7pdzd-fill" data-item-order="0" transform="translate(104, 548)"><g id="tx__1lyn4vbt7pdzd-fill-merged" stroke="none" fill="#484848" fill-opacity="1"><g><text style="font: 20px Roboto, sans-serif; white-space: pre;" transform="translate(49, 22)" font-size="20px" font-family="Roboto, sans-serif"><tspan x="-37" y="12" dominant-baseline="ideographic">제목</tspan></text></g></g></g><g id="g-root-tx__1lyn4vbt7pdzd-stroke" data-item-order="0" transform="translate(104, 548)"></g><g id="g-root-tx__vccl7rt7pdze-fill" data-item-order="0" transform="translate(311, 548)"><g id="tx__vccl7rt7pdze-fill-merged" stroke="none" fill="#484848" fill-opacity="1"><g><text style="font: 20px Roboto, sans-serif; white-space: pre;" transform="translate(10, 22)" font-size="20px" font-family="Roboto, sans-serif"><tspan x="2" y="12" dominant-baseline="ideographic">제목</tspan></text></g></g></g><g id="g-root-tx__vccl7rt7pdze-stroke" data-item-order="0" transform="translate(311, 548)"></g></g></g></svg>