<?xml version="1.0" encoding="utf-8" standalone="yes"?>
<!DOCTYPE svg PUBLIC "-//W3C//DTD SVG 1.1//EN" "http://www.w3.org/Graphics/SVG/1.1/DTD/svg11.dtd">
<svg style="fill:none;stroke:none;fill-rule:evenodd;clip-rule:evenodd;stroke-linecap:round;stroke-linejoin:round;stroke-miterlimit:1.5;" version="1.1" xmlns="http://www.w3.org/2000/svg" xmlns:xlink="http://www.w3.org/1999/xlink" width="554" height="528" viewBox="0 0 554 528"><style class="text-font-style fontImports" data-font-family="Roboto">@import url(https://fonts.googleapis.com/css2?family=Roboto:wght@400;700&amp;amp;display=block);</style><g id="items" style="isolation: isolate"><g id="blend" style="mix-blend-mode: normal"><g id="g-root-cp_3_g-3_mcd1rrtrvls9-fill" data-item-order="-251682" transform="translate(24, 281)"><g id="cp_3_g-3_mcd1rrtrvls9-fill-merged" stroke="none" fill="#e2a3ff" fill-opacity="1"><g><path d="M78.543 128 V111 H71.589 V101.421C75.696 103.461 79.936 104.5 84.204 104.5C88.679 104.5 93.124 103.357 97.417 101.116 V111 H91.457 V128 H96.424C96.973 128 97.417 128.448 97.417 129 V140 H109.338 V151 H60.662 V140 H72.583 V129C72.583 128.448 73.028 128 73.576 128 H78.543 M132.629 20.265C133.003 14.348 133.179 10 133.179 10 H35.828C35.828 10 35.908 14.457 36.172 20.486C32.468 21.206 28.008 22.42 25.303 24.091C21.845 26.228 18.809 29.069 16.368 32.452C13.927 35.836 12.13 39.695 11.078 43.811C10.026 47.926 9.74 52.216 10.237 56.437C10.734 60.657 12.004 64.725 13.975 68.408C15.945 72.091 18.578 75.318 21.722 77.903C24.865 80.488 28.459 82.382 32.298 83.475C35.522 84.394 47.749 85.113 53.922 84.985C57.417 90.095 61.272 94.308 65.386 97.497C67.41 99.065 69.482 100.375 71.589 101.421C75.696 103.461 79.936 104.5 84.204 104.5C88.679 104.5 93.124 103.357 97.417 101.116C99.318 100.124 101.19 98.916 103.021 97.497C107.151 94.296 111.02 90.063 114.525 84.927C119.899 85.245 134.179 84.479 137.702 83.475C141.541 82.382 145.135 80.488 148.279 77.903C151.422 75.318 154.055 72.091 156.025 68.408C157.996 64.725 159.266 60.657 159.763 56.437C160.26 52.216 159.974 47.926 158.922 43.811C157.87 39.695 156.073 35.836 153.632 32.452C151.191 29.069 148.155 26.228 144.697 24.091C141.693 22.235 136.524 20.943 132.629 20.265 M132.036 28.558C131.466 35.582 130.673 43.008 129.633 47.707C127.256 58.444 123.814 68.236 119.492 76.57C125.256 76.452 133.615 75.914 135.623 75.342C138.465 74.532 141.127 73.13 143.454 71.216C145.782 69.302 147.732 66.913 149.191 64.185C150.65 61.458 151.59 58.446 151.958 55.321C152.326 52.196 152.115 49.019 151.336 45.972C150.557 42.925 149.226 40.067 147.418 37.562C145.611 35.056 143.363 32.953 140.802 31.371C138.609 30.015 134.894 29.066 132.036 28.558 M38.775 47.707C41.147 58.425 44.582 68.204 48.894 76.528C43.29 76.355 36.204 75.863 34.377 75.342C31.535 74.532 28.873 73.13 26.545 71.216C24.218 69.302 22.268 66.913 20.809 64.185C19.351 61.458 18.41 58.446 18.042 55.321C17.674 52.196 17.885 49.019 18.664 45.972C19.443 42.925 20.774 40.067 22.582 37.562C24.389 35.056 26.637 32.953 29.198 31.371C31.06 30.22 34.018 29.362 36.618 28.819C37.064 35.765 37.747 43.066 38.775 47.707"></path></g></g></g><g id="g-root-cp_3_g-3_mcd1rrtrvls9-stroke" data-item-order="-251682" transform="translate(24, 281)"><g id="cp_3_g-3_mcd1rrtrvls9-stroke" fill="none" stroke-linecap="round" stroke-linejoin="round" stroke-miterlimit="4" stroke="#ffffff" stroke-width="2" stroke-opacity="1"><g><path d="M 60.6623 139.999939L 72.5828 139.999939L 97.4172 139.999939L 109.3378 139.999939L 109.3378 150.999939L 60.6623 150.999939L 60.6623 139.999939ZM 78.5431 110.999939L 91.457 110.999939L 91.457 127.999939L 85 127.999939L 78.5431 127.999939L 78.5431 110.999939ZM 132.6294 20.264939C 133.0028 14.348139 133.1789 9.999939 133.1789 9.999939L 35.8278 9.999939C 35.8278 9.999939 35.9077 14.456639 36.1719 20.485739C 32.4677 21.205739 28.0081 22.420239 25.3035 24.091239C 21.8453 26.227839 18.8092 29.068939 16.3683 32.452439C 13.9275 35.835839 12.1297 39.695339 11.0778 43.810539C 10.0258 47.925839 9.7402 52.216139 10.2373 56.436539C 10.7344 60.657039 12.0044 64.725039 13.9749 68.408139C 15.9453 72.091339 18.5776 75.317639 21.7215 77.902839C 24.8653 80.488039 28.4591 82.381539 32.2978 83.475139C 35.5216 84.393539 47.7492 85.112839 53.9223 84.985239C 57.4166 90.095339 61.2718 94.308239 65.3863 97.496839C 67.4095 99.064839 69.482 100.374739 71.5894 101.421239C 75.6963 103.460639 79.9362 104.499939 84.2037 104.499939C 88.6791 104.499939 93.1241 103.356939 97.4172 101.116039C 99.3185 100.123639 101.19 98.915939 103.0211 97.496839C 107.1512 94.296139 111.02 90.063439 114.5248 84.927139C 119.8989 85.244839 134.1786 84.478939 137.7022 83.475139C 141.5408 82.381539 145.1347 80.488039 148.2785 77.902839C 151.4224 75.317639 154.0547 72.091339 156.0251 68.408139C 157.9956 64.725039 159.2656 60.657039 159.7627 56.436539C 160.2598 52.216139 159.9742 47.925839 158.9222 43.810539C 157.8703 39.695339 156.0726 35.835839 153.6317 32.452439C 151.1908 29.068939 148.1547 26.227839 144.6965 24.091239C 141.6926 22.235239 136.5237 20.942539 132.6294 20.264939ZM 132.0355 28.558339C 131.4661 35.581939 130.6733 43.007639 129.6329 47.706839C 127.2559 58.443539 123.8141 68.236439 119.4915 76.570339C 125.2556 76.451639 133.6149 75.914039 135.6232 75.341939C 138.4655 74.532139 141.1266 73.130139 143.4545 71.215839C 145.7824 69.301639 147.7315 66.912739 149.1905 64.185439C 150.6495 61.458239 151.59 58.446039 151.958 55.320939C 152.3261 52.195939 152.1146 49.019139 151.3357 45.971939C 150.5568 42.924839 149.2256 40.067039 147.4183 37.561739C 145.6109 35.056439 143.3628 32.952639 140.8021 31.370639C 138.6085 30.015239 134.8936 29.065539 132.0355 28.558339ZM 38.7745 47.706839C 41.1475 58.425439 44.5818 68.203539 48.8942 76.528339C 43.2899 76.354539 36.2042 75.862539 34.3768 75.341939C 31.5345 74.532139 28.8734 73.130139 26.5455 71.215839C 24.2176 69.301639 22.2685 66.912739 20.8095 64.185439C 19.3505 61.458239 18.41 58.446039 18.042 55.320939C 17.6739 52.195939 17.8854 49.019139 18.6643 45.971939C 19.4432 42.924839 20.7744 40.067039 22.5817 37.561739C 24.3891 35.056439 26.6372 32.952639 29.1979 31.370639C 31.0599 30.220139 34.018 29.361939 36.6178 28.818539C 37.0645 35.764839 37.747 43.065639 38.7745 47.706839ZM 97.4172 128.999939C 97.4172 128.447639 96.9725 127.999939 96.4239 127.999939L 91.457 127.999939L 85 127.999939L 78.5431 127.999939L 73.5762 127.999939C 73.0276 127.999939 72.5828 128.447639 72.5828 128.999939L 72.5828 139.999939L 97.4172 139.999939L 97.4172 128.999939ZM 78.5431 110.999939L 91.457 110.999939L 97.4172 110.999939L 97.4172 101.116039C 93.1241 103.356939 88.6791 104.499939 84.2037 104.499939C 79.9362 104.499939 75.6963 103.460639 71.5894 101.421239L 71.5894 110.999939L 78.5431 110.999939ZM 55 48.999939C 55.000002 65.568483 68.431459 78.999941 85.000002 78.999941C 101.568544 78.999941 115.000002 65.568483 115.000002 48.999941C 115.000002 32.431398 101.568544 18.999941 85.000002 18.999941C 68.431459 18.999941 55.000002 32.431398 55.000002 48.999941"></path></g></g></g><g id="g-root-cp_1_g-1_hx60qftrvjeq-fill" data-item-order="-251676" transform="translate(198, 208.99993896484375)"><g id="cp_1_g-1_hx60qftrvjeq-fill-merged" stroke="none" fill="#ab57d3" fill-opacity="1"><g><path d="M78.543 128 V111 H71.589 V101.421C75.696 103.461 79.936 104.5 84.204 104.5C88.679 104.5 93.124 103.357 97.417 101.116 V111 H91.457 V128 H96.424C96.973 128 97.417 128.448 97.417 129 V140 H109.338 V151 H60.662 V140 H72.583 V129C72.583 128.448 73.028 128 73.576 128 H78.543 M132.629 20.265C133.003 14.348 133.179 10 133.179 10 H35.828C35.828 10 35.908 14.457 36.172 20.486C32.468 21.206 28.008 22.42 25.303 24.091C21.845 26.228 18.809 29.069 16.368 32.452C13.927 35.836 12.13 39.695 11.078 43.811C10.026 47.926 9.74 52.216 10.237 56.437C10.734 60.657 12.004 64.725 13.975 68.408C15.945 72.091 18.578 75.318 21.722 77.903C24.865 80.488 28.459 82.382 32.298 83.475C35.522 84.394 47.749 85.113 53.922 84.985C57.417 90.095 61.272 94.308 65.386 97.497C67.41 99.065 69.482 100.375 71.589 101.421C75.696 103.461 79.936 104.5 84.204 104.5C88.679 104.5 93.124 103.357 97.417 101.116C99.318 100.124 101.19 98.916 103.021 97.497C107.151 94.296 111.02 90.063 114.525 84.927C119.899 85.245 134.179 84.479 137.702 83.475C141.541 82.382 145.135 80.488 148.279 77.903C151.422 75.318 154.055 72.091 156.025 68.408C157.996 64.725 159.266 60.657 159.763 56.437C160.26 52.216 159.974 47.926 158.922 43.811C157.87 39.695 156.073 35.836 153.632 32.452C151.191 29.069 148.155 26.228 144.697 24.091C141.693 22.235 136.524 20.943 132.629 20.265 M132.036 28.558C131.466 35.582 130.673 43.008 129.633 47.707C127.256 58.444 123.814 68.237 119.492 76.57C125.256 76.452 133.615 75.914 135.623 75.342C138.465 74.532 141.127 73.13 143.454 71.216C145.782 69.302 147.732 66.913 149.191 64.186C150.65 61.458 151.59 58.446 151.958 55.321C152.326 52.196 152.115 49.019 151.336 45.972C150.557 42.925 149.226 40.067 147.418 37.562C145.611 35.056 143.363 32.953 140.802 31.371C138.609 30.015 134.894 29.066 132.036 28.558 M38.775 47.707C41.147 58.425 44.582 68.204 48.894 76.528C43.29 76.355 36.204 75.863 34.377 75.342C31.535 74.532 28.873 73.13 26.545 71.216C24.218 69.302 22.268 66.913 20.809 64.186C19.351 61.458 18.41 58.446 18.042 55.321C17.674 52.196 17.885 49.019 18.664 45.972C19.443 42.925 20.774 40.067 22.582 37.562C24.389 35.056 26.637 32.953 29.198 31.371C31.06 30.22 34.018 29.362 36.618 28.819C37.064 35.765 37.747 43.066 38.775 47.707"></path></g></g></g><g id="g-root-cp_1_g-1_hx60qftrvjeq-stroke" data-item-order="-251676" transform="translate(198, 208.99993896484375)"><g id="cp_1_g-1_hx60qftrvjeq-stroke" fill="none" stroke-linecap="round" stroke-linejoin="round" stroke-miterlimit="4" stroke="#ffffff" stroke-width="2" stroke-opacity="1"><g><path d="M 60.6623 140L 72.5828 140L 97.4172 140L 109.3378 140L 109.3378 151L 60.6623 151L 60.6623 140ZM 78.5431 111L 91.457 111L 91.457 128L 85 128L 78.5431 128L 78.5431 111ZM 132.6294 20.265C 133.0028 14.3482 133.1789 10 133.1789 10L 35.8278 10C 35.8278 10 35.9077 14.4567 36.1719 20.4858C 32.4677 21.2058 28.0081 22.4203 25.3035 24.0913C 21.8453 26.2279 18.8092 29.069 16.3683 32.4525C 13.9275 35.8359 12.1297 39.6954 11.0778 43.8106C 10.0258 47.9259 9.7402 52.2162 10.2373 56.4366C 10.7344 60.6571 12.0044 64.7251 13.9749 68.4082C 15.9453 72.0914 18.5776 75.3177 21.7215 77.9029C 24.8653 80.4881 28.4591 82.3816 32.2978 83.4752C 35.5216 84.3936 47.7492 85.1129 53.9223 84.9853C 57.4166 90.0954 61.2718 94.3083 65.3863 97.4969C 67.4095 99.0649 69.482 100.3748 71.5894 101.4213C 75.6963 103.4607 79.9362 104.5 84.2037 104.5C 88.6791 104.5 93.1241 103.357 97.4172 101.1161C 99.3185 100.1237 101.19 98.916 103.0211 97.4969C 107.1512 94.2962 111.02 90.0635 114.5248 84.9272C 119.8989 85.2449 134.1786 84.479 137.7022 83.4752C 141.5408 82.3816 145.1347 80.4881 148.2785 77.9029C 151.4224 75.3177 154.0547 72.0914 156.0251 68.4082C 157.9956 64.7251 159.2656 60.6571 159.7627 56.4366C 160.2598 52.2162 159.9742 47.9259 158.9222 43.8106C 157.8703 39.6954 156.0726 35.8359 153.6317 32.4525C 151.1908 29.069 148.1547 26.2279 144.6965 24.0913C 141.6926 22.2353 136.5237 20.9426 132.6294 20.265ZM 132.0355 28.5584C 131.4661 35.582 130.6733 43.0077 129.6329 47.7069C 127.2559 58.4436 123.8141 68.2365 119.4915 76.5704C 125.2556 76.4517 133.6149 75.9141 135.6232 75.342C 138.4655 74.5322 141.1266 73.1302 143.4545 71.2159C 145.7824 69.3017 147.7315 66.9128 149.1905 64.1855C 150.6495 61.4583 151.59 58.4461 151.958 55.321C 152.3261 52.196 152.1146 49.0192 151.3357 45.972C 150.5568 42.9249 149.2256 40.0671 147.4183 37.5618C 145.6109 35.0565 143.3628 32.9527 140.8021 31.3707C 138.6085 30.0153 134.8936 29.0656 132.0355 28.5584ZM 38.7745 47.7069C 41.1475 58.4255 44.5818 68.2036 48.8942 76.5284C 43.2899 76.3546 36.2042 75.8626 34.3768 75.342C 31.5345 74.5322 28.8734 73.1302 26.5455 71.2159C 24.2176 69.3017 22.2685 66.9128 20.8095 64.1855C 19.3505 61.4583 18.41 58.4461 18.042 55.321C 17.6739 52.196 17.8854 49.0192 18.6643 45.972C 19.4432 42.9249 20.7744 40.0671 22.5817 37.5618C 24.3891 35.0565 26.6372 32.9527 29.1979 31.3707C 31.0599 30.2202 34.018 29.362 36.6178 28.8186C 37.0645 35.7649 37.747 43.0657 38.7745 47.7069ZM 97.4172 129C 97.4172 128.4477 96.9725 128 96.4239 128L 91.457 128L 85 128L 78.5431 128L 73.5762 128C 73.0276 128 72.5828 128.4477 72.5828 129L 72.5828 140L 97.4172 140L 97.4172 129ZM 78.5431 111L 91.457 111L 97.4172 111L 97.4172 101.1161C 93.1241 103.357 88.6791 104.5 84.2037 104.5C 79.9362 104.5 75.6963 103.4607 71.5894 101.4213L 71.5894 111L 78.5431 111ZM 55 49C 55.000002 65.568544 68.431459 79.000002 85.000002 79.000002C 101.568544 79.000002 115.000002 65.568544 115.000002 49.000002C 115.000002 32.431459 101.568544 19.000002 85.000002 19.000002C 68.431459 19.000002 55.000002 32.431459 55.000002 49.000002"></path></g></g></g><g id="g-root-cp_2_g-2_91j0hjtrvk7f-fill" data-item-order="-251670" transform="translate(360, 244.99993896484375)"><g id="cp_2_g-2_91j0hjtrvk7f-fill-merged" stroke="none" fill="#c765f4" fill-opacity="1"><g><path d="M78.543 128 V111 H71.589 V101.421C75.696 103.461 79.936 104.5 84.204 104.5C88.679 104.5 93.124 103.357 97.417 101.116 V111 H91.457 V128 H96.424C96.973 128 97.417 128.448 97.417 129 V140 H109.338 V151 H60.662 V140 H72.583 V129C72.583 128.448 73.028 128 73.576 128 H78.543 M132.629 20.265C133.003 14.348 133.179 10 133.179 10 H35.828C35.828 10 35.908 14.457 36.172 20.486C32.468 21.206 28.008 22.42 25.303 24.091C21.845 26.228 18.809 29.069 16.368 32.452C13.927 35.836 12.13 39.695 11.078 43.811C10.026 47.926 9.74 52.216 10.237 56.437C10.734 60.657 12.004 64.725 13.975 68.408C15.945 72.091 18.578 75.318 21.722 77.903C24.865 80.488 28.459 82.382 32.298 83.475C35.522 84.394 47.749 85.113 53.922 84.985C57.417 90.095 61.272 94.308 65.386 97.497C67.41 99.065 69.482 100.375 71.589 101.421C75.696 103.461 79.936 104.5 84.204 104.5C88.679 104.5 93.124 103.357 97.417 101.116C99.318 100.124 101.19 98.916 103.021 97.497C107.151 94.296 111.02 90.063 114.525 84.927C119.899 85.245 134.179 84.479 137.702 83.475C141.541 82.382 145.135 80.488 148.279 77.903C151.422 75.318 154.055 72.091 156.025 68.408C157.996 64.725 159.266 60.657 159.763 56.437C160.26 52.216 159.974 47.926 158.922 43.811C157.87 39.695 156.073 35.836 153.632 32.452C151.191 29.069 148.155 26.228 144.697 24.091C141.693 22.235 136.524 20.943 132.629 20.265 M132.036 28.558C131.466 35.582 130.673 43.008 129.633 47.707C127.256 58.444 123.814 68.237 119.492 76.57C125.256 76.452 133.615 75.914 135.623 75.342C138.465 74.532 141.127 73.13 143.454 71.216C145.782 69.302 147.732 66.913 149.191 64.186C150.65 61.458 151.59 58.446 151.958 55.321C152.326 52.196 152.115 49.019 151.336 45.972C150.557 42.925 149.226 40.067 147.418 37.562C145.611 35.056 143.363 32.953 140.802 31.371C138.609 30.015 134.894 29.066 132.036 28.558 M38.775 47.707C41.147 58.425 44.582 68.204 48.894 76.528C43.29 76.355 36.204 75.863 34.377 75.342C31.535 74.532 28.873 73.13 26.545 71.216C24.218 69.302 22.268 66.913 20.809 64.186C19.351 61.458 18.41 58.446 18.042 55.321C17.674 52.196 17.885 49.019 18.664 45.972C19.443 42.925 20.774 40.067 22.582 37.562C24.389 35.056 26.637 32.953 29.198 31.371C31.06 30.22 34.018 29.362 36.618 28.819C37.064 35.765 37.747 43.066 38.775 47.707"></path></g></g></g><g id="g-root-cp_2_g-2_91j0hjtrvk7f-stroke" data-item-order="-251670" transform="translate(360, 244.99993896484375)"><g id="cp_2_g-2_91j0hjtrvk7f-stroke" fill="none" stroke-linecap="round" stroke-linejoin="round" stroke-miterlimit="4" stroke="#ffffff" stroke-width="2" stroke-opacity="1"><g><path d="M 60.6623 140L 72.5828 140L 97.4172 140L 109.3378 140L 109.3378 151L 60.6623 151L 60.6623 140ZM 78.5431 111L 91.457 111L 91.457 128L 85 128L 78.5431 128L 78.5431 111ZM 132.6294 20.265C 133.0028 14.3482 133.1789 10 133.1789 10L 35.8278 10C 35.8278 10 35.9077 14.4567 36.1719 20.4858C 32.4677 21.2058 28.0081 22.4203 25.3035 24.0913C 21.8453 26.2279 18.8092 29.069 16.3683 32.4525C 13.9275 35.8359 12.1297 39.6954 11.0778 43.8106C 10.0258 47.9259 9.7402 52.2162 10.2373 56.4366C 10.7344 60.6571 12.0044 64.7251 13.9749 68.4082C 15.9453 72.0914 18.5776 75.3177 21.7215 77.9029C 24.8653 80.4881 28.4591 82.3816 32.2978 83.4752C 35.5216 84.3936 47.7492 85.1129 53.9223 84.9853C 57.4166 90.0954 61.2718 94.3083 65.3863 97.4969C 67.4095 99.0649 69.482 100.3748 71.5894 101.4213C 75.6963 103.4607 79.9362 104.5 84.2037 104.5C 88.6791 104.5 93.1241 103.357 97.4172 101.1161C 99.3185 100.1237 101.19 98.916 103.0211 97.4969C 107.1512 94.2962 111.02 90.0635 114.5248 84.9272C 119.8989 85.2449 134.1786 84.479 137.7022 83.4752C 141.5408 82.3816 145.1347 80.4881 148.2785 77.9029C 151.4224 75.3177 154.0547 72.0914 156.0251 68.4082C 157.9956 64.7251 159.2656 60.6571 159.7627 56.4366C 160.2598 52.2162 159.9742 47.9259 158.9222 43.8106C 157.8703 39.6954 156.0726 35.8359 153.6317 32.4525C 151.1908 29.069 148.1547 26.2279 144.6965 24.0913C 141.6926 22.2353 136.5237 20.9426 132.6294 20.265ZM 132.0355 28.5584C 131.4661 35.582 130.6733 43.0077 129.6329 47.7069C 127.2559 58.4436 123.8141 68.2365 119.4915 76.5704C 125.2556 76.4517 133.6149 75.9141 135.6232 75.342C 138.4655 74.5322 141.1266 73.1302 143.4545 71.2159C 145.7824 69.3017 147.7315 66.9128 149.1905 64.1855C 150.6495 61.4583 151.59 58.4461 151.958 55.321C 152.3261 52.196 152.1146 49.0192 151.3357 45.972C 150.5568 42.9249 149.2256 40.0671 147.4183 37.5618C 145.6109 35.0565 143.3628 32.9527 140.8021 31.3707C 138.6085 30.0153 134.8936 29.0656 132.0355 28.5584ZM 38.7745 47.7069C 41.1475 58.4255 44.5818 68.2036 48.8942 76.5284C 43.2899 76.3546 36.2042 75.8626 34.3768 75.342C 31.5345 74.5322 28.8734 73.1302 26.5455 71.2159C 24.2176 69.3017 22.2685 66.9128 20.8095 64.1855C 19.3505 61.4583 18.41 58.4461 18.042 55.321C 17.6739 52.196 17.8854 49.0192 18.6643 45.972C 19.4432 42.9249 20.7744 40.0671 22.5817 37.5618C 24.3891 35.0565 26.6372 32.9527 29.1979 31.3707C 31.0599 30.2202 34.018 29.362 36.6178 28.8186C 37.0645 35.7649 37.747 43.0657 38.7745 47.7069ZM 97.4172 129C 97.4172 128.4477 96.9725 128 96.4239 128L 91.457 128L 85 128L 78.5431 128L 73.5762 128C 73.0276 128 72.5828 128.4477 72.5828 129L 72.5828 140L 97.4172 140L 97.4172 129ZM 78.5431 111L 91.457 111L 97.4172 111L 97.4172 101.1161C 93.1241 103.357 88.6791 104.5 84.2037 104.5C 79.9362 104.5 75.6963 103.4607 71.5894 101.4213L 71.5894 111L 78.5431 111ZM 55 49C 55.000002 65.568544 68.431459 79.000002 85.000002 79.000002C 101.568544 79.000002 115.000002 65.568544 115.000002 49.000002C 115.000002 32.431459 101.568544 19.000002 85.000002 19.000002C 68.431459 19.000002 55.000002 32.431459 55.000002 49.000002"></path></g></g></g><g id="g-root-cp_0b_g-0b_91j0hjtrvk7g-fill" data-item-order="-251664" transform="translate(15, 350)"><g id="cp_0b_g-0b_91j0hjtrvk7g-fill-merged" stroke="none" fill="#4f3d58" fill-opacity="1"><g><path d="M346 10 H178 V82 H10 V130 H514 V46 H346 V10"></path></g></g></g><g id="g-root-cp_0b_g-0b_91j0hjtrvk7g-stroke" data-item-order="-251664" transform="translate(15, 350)"><g id="cp_0b_g-0b_91j0hjtrvk7g-stroke" fill="none" stroke-linecap="round" stroke-linejoin="round" stroke-miterlimit="4" stroke="#ffffff" stroke-width="2" stroke-opacity="1"><g><path d="M 346 10L 178 10L 178 82L 10 82L 10 130L 514 130L 514 46L 346 46L 346 10Z"></path></g></g></g><g id="g-root-cp_0a_g-0a_4lpid3trvkzp-fill" data-item-order="-251659" transform="translate(183, 386)"></g><g id="g-root-cp_0a_g-0a_4lpid3trvkzp-stroke" data-item-order="-251659" transform="translate(183, 386)"><g id="cp_0a_g-0a_4lpid3trvkzp-stroke" fill="none" stroke-linecap="round" stroke-linejoin="round" stroke-miterlimit="4" stroke="#ffffff" stroke-width="2" stroke-dasharray="5.0, 7.0" stroke-opacity="1"><g><path d="M 10 46L 10 94M 178 10L 178 94"></path></g></g></g><g id="g-root-tx_ai_4lpid3trvkzq-fill" data-item-order="0" transform="translate(234.71875, 37.99993896484375)"><g id="tx_ai_4lpid3trvkzq-fill-merged" stroke="none" fill="#484848" fill-opacity="1"><g><text style="font: bold 25px Roboto, sans-serif; white-space: pre;" transform="translate(42.28125, 25)" font-weight="bold" font-size="25px" font-family="Roboto, sans-serif"><tspan x="-30.28" y="14" dominant-baseline="ideographic">타이틀</tspan></text></g></g></g><g id="g-root-tx_ai_4lpid3trvkzq-stroke" data-item-order="0" transform="translate(234.71875, 37.99993896484375)"></g><g id="g-root-tx_ai_1ur6k3btrvllb-fill" data-item-order="0" transform="translate(73.7578125, 115.99993896484375)"><g id="tx_ai_1ur6k3btrvllb-fill-merged" stroke="none" fill="#484848" fill-opacity="1"><g><text style="font: bold 20px Roboto, sans-serif; white-space: pre;" transform="translate(35.2421875, 22)" font-weight="bold" font-size="20px" font-family="Roboto, sans-serif"><tspan x="-23.24" y="12" dominant-baseline="ideographic">제목1</tspan></text></g></g></g><g id="g-root-tx_ai_1ur6k3btrvllb-stroke" data-item-order="0" transform="translate(73.7578125, 115.99993896484375)"></g><g id="g-root-tx__1lw60xjtrvk01-fill" data-item-order="0" transform="translate(241.7578125, 115.99993896484375)"><g id="tx__1lw60xjtrvk01-fill-merged" stroke="none" fill="#484848" fill-opacity="1"><g><text style="font: bold 20px Roboto, sans-serif; white-space: pre;" transform="translate(35.2421875, 22)" font-weight="bold" font-size="20px" font-family="Roboto, sans-serif"><tspan x="-23.24" y="12" dominant-baseline="ideographic">제목2</tspan></text></g></g></g><g id="g-root-tx__1lw60xjtrvk01-stroke" data-item-order="0" transform="translate(241.7578125, 115.99993896484375)"></g><g id="g-root-tx__1d0j0ontrvksr-fill" data-item-order="0" transform="translate(409.7578125, 115.99993896484375)"><g id="tx__1d0j0ontrvksr-fill-merged" stroke="none" fill="#484848" fill-opacity="1"><g><text style="font: bold 20px Roboto, sans-serif; white-space: pre;" transform="translate(35.2421875, 22)" font-weight="bold" font-size="20px" font-family="Roboto, sans-serif"><tspan x="-23.24" y="12" dominant-baseline="ideographic">제목3</tspan></text></g></g></g><g id="g-root-tx__1d0j0ontrvksr-stroke" data-item-order="0" transform="translate(409.7578125, 115.99993896484375)"></g><g id="g-root-tx_ai_1qbzj1ztrvj7s-fill" data-item-order="0" transform="translate(84.328125, 151.99993896484375)"><g id="tx_ai_1qbzj1ztrvj7s-fill-merged" stroke="none" fill="#484848" fill-opacity="1"><g><text style="font: 15px Roboto, sans-serif; white-space: pre;" transform="translate(24.671875, 19)" font-size="15px" font-family="Roboto, sans-serif"><tspan x="-12.67" y="9" dominant-baseline="ideographic">설명</tspan></text></g></g></g><g id="g-root-tx_ai_1qbzj1ztrvj7s-stroke" data-item-order="0" transform="translate(84.328125, 151.99993896484375)"></g><g id="g-root-tx__1lw60xjtrvk02-fill" data-item-order="0" transform="translate(252.328125, 151.99993896484375)"><g id="tx__1lw60xjtrvk02-fill-merged" stroke="none" fill="#484848" fill-opacity="1"><g><text style="font: 15px Roboto, sans-serif; white-space: pre;" transform="translate(24.671875, 19)" font-size="15px" font-family="Roboto, sans-serif"><tspan x="-12.67" y="9" dominant-baseline="ideographic">설명</tspan></text></g></g></g><g id="g-root-tx__1lw60xjtrvk02-stroke" data-item-order="0" transform="translate(252.328125, 151.99993896484375)"></g><g id="g-root-tx__1d0j0ontrvkss-fill" data-item-order="0" transform="translate(420.328125, 151.99993896484375)"><g id="tx__1d0j0ontrvkss-fill-merged" stroke="none" fill="#484848" fill-opacity="1"><g><text style="font: 15px Roboto, sans-serif; white-space: pre;" transform="translate(24.671875, 19)" font-size="15px" font-family="Roboto, sans-serif"><tspan x="-12.67" y="9" dominant-baseline="ideographic">설명</tspan></text></g></g></g><g id="g-root-tx__1d0j0ontrvkss-stroke" data-item-order="0" transform="translate(420.328125, 151.99993896484375)"></g><g id="g-root-tx_1_18kpik7trvll1-fill" data-item-order="0" transform="translate(262.390625, 229.99993896484375)"><g id="tx_1_18kpik7trvll1-fill-merged" stroke="none" fill="#ffffff" fill-opacity="1"><g><text style="font: bold 30px Roboto, sans-serif; white-space: pre;" transform="translate(20.609375, 28)" font-weight="bold" font-size="30px" font-family="Roboto, sans-serif"><tspan x="-8.61" y="17" dominant-baseline="ideographic">1</tspan></text></g></g></g><g id="g-root-tx_1_18kpik7trvll1-stroke" data-item-order="0" transform="translate(262.390625, 229.99993896484375)"></g><g id="g-root-tx_2_zpozeftrvj7z-fill" data-item-order="0" transform="translate(424.390625, 265.99993896484375)"><g id="tx_2_zpozeftrvj7z-fill-merged" stroke="none" fill="#ffffff" fill-opacity="1"><g><text style="font: bold 30px Roboto, sans-serif; white-space: pre;" transform="translate(20.609375, 28)" font-weight="bold" font-size="30px" font-family="Roboto, sans-serif"><tspan x="-8.61" y="17" dominant-baseline="ideographic">2</tspan></text></g></g></g><g id="g-root-tx_2_zpozeftrvj7z-stroke" data-item-order="0" transform="translate(424.390625, 265.99993896484375)"></g><g id="g-root-tx_3_18kpik7trvll2-fill" data-item-order="0" transform="translate(88.390625, 301.99993896484375)"><g id="tx_3_18kpik7trvll2-fill-merged" stroke="none" fill="#ffffff" fill-opacity="1"><g><text style="font: bold 30px Roboto, sans-serif; white-space: pre;" transform="translate(20.609375, 28)" font-weight="bold" font-size="30px" font-family="Roboto, sans-serif"><tspan x="-8.61" y="17" dominant-baseline="ideographic">3</tspan></text></g></g></g><g id="g-root-tx_3_18kpik7trvll2-stroke" data-item-order="0" transform="translate(88.390625, 301.99993896484375)"></g></g></g></svg>