<?xml version="1.0" encoding="utf-8" standalone="yes"?>
<!DOCTYPE svg PUBLIC "-//W3C//DTD SVG 1.1//EN" "http://www.w3.org/Graphics/SVG/1.1/DTD/svg11.dtd">
<svg style="fill:none;stroke:none;fill-rule:evenodd;clip-rule:evenodd;stroke-linecap:round;stroke-linejoin:round;stroke-miterlimit:1.5;" version="1.1" xmlns="http://www.w3.org/2000/svg" xmlns:xlink="http://www.w3.org/1999/xlink" width="672" height="445" viewBox="0 0 672 445"><style class="text-font-style fontImports" data-font-family="Roboto">@import url(https://fonts.googleapis.com/css2?family=Roboto:wght@400;700&amp;amp;display=block);</style><g id="items" style="isolation: isolate"><g id="blend" style="mix-blend-mode: normal"><g id="g-root-cp_1_lines-1_1lse1hap1iu4m-fill" data-item-order="-228080" transform="translate(14, 116)"><g id="cp_1_lines-1_1lse1hap1iu4m-fill-merged" stroke="none" fill="#ab57d3" fill-opacity="1"><g><path d="M202 232C202 238.627 196.627 244 190 244 H22C15.373 244 10 238.627 10 232 V22C10 15.373 15.373 10 22 10 H190C196.627 10 202 15.373 202 22 V232"></path></g></g></g><g id="g-root-cp_1_lines-1_1lse1hap1iu4m-stroke" data-item-order="-228080" transform="translate(14, 116)"><g id="cp_1_lines-1_1lse1hap1iu4m-stroke" fill="none" stroke-linecap="round" stroke-linejoin="round" stroke-miterlimit="4" stroke="#ffffff" stroke-width="2" stroke-opacity="1"><g><path d="M 190 10C 196.6274 10 202 15.3726 202 22M 10 22L 10 232M 202 232L 202 22M 190 244.000015L 22 244.000015M 22 10L 190 10M 10 22C 10 15.3726 15.3726 10 22 10M 22 244C 15.3726 244 10 238.6274 10 232M 190 244C 196.6274 244 202 238.6274 202 232"></path></g></g></g><g id="g-root-cp_1_donut-unfilled-1_1cxdibip1irrj-fill" data-item-order="-228045" transform="translate(38, 128)"></g><g id="g-root-cp_1_donut-unfilled-1_1cxdibip1irrj-stroke" data-item-order="-228045" transform="translate(38, 128)"><g id="cp_1_donut-unfilled-1_1cxdibip1irrj-stroke" fill="none" stroke-linecap="round" stroke-linejoin="round" stroke-miterlimit="4" stroke="#ffffff" stroke-width="2" stroke-opacity="1"><g><path d=""></path></g></g></g><g id="g-root-cp_1_donut-filled-1_18hk072p1isjs-fill" data-item-order="-228042" transform="translate(38, 128)"><g id="cp_1_donut-filled-1_18hk072p1isjs-fill-merged" stroke="none" fill="#ffffff" fill-opacity="1"><g><path d="M82 10C121.765 10 154 42.236 154 82C154 121.765 121.765 154 82 154C42.236 154 10 121.765 10 82C10 42.236 42.236 10 82 10 M82 22C48.863 22 22 48.863 22 82C22 115.137 48.863 142 82 142C115.137 142 142 115.137 142 82C142 48.863 115.137 22 82 22"></path></g></g></g><g id="g-root-cp_1_donut-filled-1_18hk072p1isjs-stroke" data-item-order="-228042" transform="translate(38, 128)"><g id="cp_1_donut-filled-1_18hk072p1isjs-stroke" fill="none" stroke-linecap="round" stroke-linejoin="round" stroke-miterlimit="4" stroke="#ffffff" stroke-width="2" stroke-opacity="1"><g><path d="M 82 10C 121.764503 10.000001 154.000001 42.235499 154.000001 82.000001C 154.000001 121.764503 121.764503 154.000001 82.000001 154.000001C 42.235499 154.000001 10.000001 121.764503 10.000001 82.000001C 10.000001 42.235499 42.235499 10.000001 82.000001 10.000001M 82 22C 48.862919 22.000004 22.000004 48.862919 22.000004 82.000004C 22.000004 115.137089 48.862919 142.000004 82.000004 142.000004C 115.137089 142.000004 142.000004 115.137089 142.000004 82.000004C 142.000004 48.862919 115.137089 22.000004 82.000004 22.000004Z"></path></g></g></g><g id="g-root-cp_2_lines-2_18hk072p1isjt-fill" data-item-order="-228022" transform="translate(230, 116)"><g id="cp_2_lines-2_18hk072p1isjt-fill-merged" stroke="none" fill="#c765f4" fill-opacity="1"><g><path d="M202 232C202 238.627 196.627 244 190 244 H22C15.373 244 10 238.627 10 232 V22C10 15.373 15.373 10 22 10 H190C196.627 10 202 15.373 202 22 V232"></path></g></g></g><g id="g-root-cp_2_lines-2_18hk072p1isjt-stroke" data-item-order="-228022" transform="translate(230, 116)"><g id="cp_2_lines-2_18hk072p1isjt-stroke" fill="none" stroke-linecap="round" stroke-linejoin="round" stroke-miterlimit="4" stroke="#ffffff" stroke-width="2" stroke-opacity="1"><g><path d="M 190 10C 196.6274 10 202 15.3726 202 22M 10 22L 10 232M 202 232L 202 22M 190 244.000015L 22 244.000015M 22 10L 190 10M 10 22C 10 15.3726 15.3726 10 22 10M 22 244C 15.3726 244 10 238.6274 10 232M 190 244C 196.6274 244 202 238.6274 202 232"></path></g></g></g><g id="g-root-cp_2_donut-unfilled-2_141qi2mp1itc2-fill" data-item-order="-227988" transform="translate(254, 128)"><g id="cp_2_donut-unfilled-2_141qi2mp1itc2-fill-merged" stroke="none" fill="#c765f4" fill-opacity="1"><g><path d=""></path></g></g></g><g id="g-root-cp_2_donut-unfilled-2_141qi2mp1itc2-stroke" data-item-order="-227988" transform="translate(254, 128)"><g id="cp_2_donut-unfilled-2_141qi2mp1itc2-stroke" fill="none" stroke-linecap="round" stroke-linejoin="round" stroke-miterlimit="4" stroke="#ffffff" stroke-width="2" stroke-opacity="1"><g><path d=""></path></g></g></g><g id="g-root-cp_2_donut-filled-2_141qi2mp1itc3-fill" data-item-order="-227984" transform="translate(254, 128)"><g id="cp_2_donut-filled-2_141qi2mp1itc3-fill-merged" stroke="none" fill="#ffffff" fill-opacity="1"><g><path d="M82 10C121.765 10 154 42.236 154 82C154 121.765 121.765 154 82 154C42.236 154 10 121.765 10 82C10 42.236 42.236 10 82 10 M82 22C48.863 22 22 48.863 22 82C22 115.137 48.863 142 82 142C115.137 142 142 115.137 142 82C142 48.863 115.137 22 82 22"></path></g></g></g><g id="g-root-cp_2_donut-filled-2_141qi2mp1itc3-stroke" data-item-order="-227984" transform="translate(254, 128)"><g id="cp_2_donut-filled-2_141qi2mp1itc3-stroke" fill="none" stroke-linecap="round" stroke-linejoin="round" stroke-miterlimit="4" stroke="#ffffff" stroke-width="2" stroke-opacity="1"><g><path d="M 82 10C 121.764503 10.000001 154.000001 42.235499 154.000001 82.000001C 154.000001 121.764503 121.764503 154.000001 82.000001 154.000001C 42.235499 154.000001 10.000001 121.764503 10.000001 82.000001C 10.000001 42.235499 42.235499 10.000001 82.000001 10.000001M 82 22C 48.862919 22.000004 22.000004 48.862919 22.000004 82.000004C 22.000004 115.137089 48.862919 142.000004 82.000004 142.000004C 115.137089 142.000004 142.000004 115.137089 142.000004 82.000004C 142.000004 48.862919 115.137089 22.000004 82.000004 22.000004Z"></path></g></g></g><g id="g-root-cp_3_lines-3_v63htqp1iu4s-fill" data-item-order="-227962" transform="translate(446, 116)"><g id="cp_3_lines-3_v63htqp1iu4s-fill-merged" stroke="none" fill="#e2a3ff" fill-opacity="1"><g><path d="M202 232C202 238.627 196.627 244 190 244 H22C15.373 244 10 238.627 10 232 V22C10 15.373 15.373 10 22 10 H190C196.627 10 202 15.373 202 22 V232"></path></g></g></g><g id="g-root-cp_3_lines-3_v63htqp1iu4s-stroke" data-item-order="-227962" transform="translate(446, 116)"><g id="cp_3_lines-3_v63htqp1iu4s-stroke" fill="none" stroke-linecap="round" stroke-linejoin="round" stroke-miterlimit="4" stroke="#ffffff" stroke-width="2" stroke-opacity="1"><g><path d="M 190 10C 196.6274 10 202 15.3726 202 22M 10 22L 10 232M 202 232L 202 22M 190 244.000015L 22 244.000015M 22 10L 190 10M 10 22C 10 15.3726 15.3726 10 22 10M 22 244C 15.3726 244 10 238.6274 10 232M 190 244C 196.6274 244 202 238.6274 202 232"></path></g></g></g><g id="g-root-cp_3_donut-unfilled-3_qqwgsep1irr9-fill" data-item-order="-227928" transform="translate(470, 128)"><g id="cp_3_donut-unfilled-3_qqwgsep1irr9-fill-merged" stroke="none" fill="#e2a3ff" fill-opacity="1"><g><path d=""></path></g></g></g><g id="g-root-cp_3_donut-unfilled-3_qqwgsep1irr9-stroke" data-item-order="-227928" transform="translate(470, 128)"><g id="cp_3_donut-unfilled-3_qqwgsep1irr9-stroke" fill="none" stroke-linecap="round" stroke-linejoin="round" stroke-miterlimit="4" stroke="#ffffff" stroke-width="2" stroke-opacity="1"><g><path d=""></path></g></g></g><g id="g-root-cp_3_donut-filled-3_hv9gjip1isjy-fill" data-item-order="-227924" transform="translate(470, 128)"><g id="cp_3_donut-filled-3_hv9gjip1isjy-fill-merged" stroke="none" fill="#ffffff" fill-opacity="1"><g><path d="M82 10C121.765 10 154 42.236 154 82C154 121.765 121.765 154 82 154C42.236 154 10 121.765 10 82C10 42.236 42.236 10 82 10 M82 22C48.863 22 22 48.863 22 82C22 115.137 48.863 142 82 142C115.137 142 142 115.137 142 82C142 48.863 115.137 22 82 22"></path></g></g></g><g id="g-root-cp_3_donut-filled-3_hv9gjip1isjy-stroke" data-item-order="-227924" transform="translate(470, 128)"><g id="cp_3_donut-filled-3_hv9gjip1isjy-stroke" fill="none" stroke-linecap="round" stroke-linejoin="round" stroke-miterlimit="4" stroke="#ffffff" stroke-width="2" stroke-opacity="1"><g><path d="M 82 10C 121.764503 10.000001 154.000001 42.235499 154.000001 82.000001C 154.000001 121.764503 121.764503 154.000001 82.000001 154.000001C 42.235499 154.000001 10.000001 121.764503 10.000001 82.000001C 10.000001 42.235499 42.235499 10.000001 82.000001 10.000001M 82 22C 48.862919 22.000004 22.000004 48.862919 22.000004 82.000004C 22.000004 115.137089 48.862919 142.000004 82.000004 142.000004C 115.137089 142.000004 142.000004 115.137089 142.000004 82.000004C 142.000004 48.862919 115.137089 22.000004 82.000004 22.000004Z"></path></g></g></g><g id="g-root-tx__hv9gjip1isjz-fill" data-item-order="0" transform="translate(293.71875, 38)"><g id="tx__hv9gjip1isjz-fill-merged" stroke="none" fill="#484848" fill-opacity="1"><g><text style="font: bold 25px Roboto, sans-serif; white-space: pre;" transform="translate(42.28125, 25)" font-weight="bold" font-size="25px" font-family="Roboto, sans-serif"><tspan x="-30.28" y="14" dominant-baseline="ideographic">타이틀</tspan></text></g></g></g><g id="g-root-tx__hv9gjip1isjz-stroke" data-item-order="0" transform="translate(293.71875, 38)"></g><g id="g-root-tx_2300_1upwgzip1iscg-fill" data-item-order="0" transform="translate(69.4140625, 185)"><g id="tx_2300_1upwgzip1iscg-fill-merged" stroke="none" fill="#ffffff" fill-opacity="1"><g><text style="font: bold 25px Roboto, sans-serif; white-space: pre;" transform="translate(50.5859375, 25)" font-weight="bold" font-size="25px" font-family="Roboto, sans-serif"><tspan x="-38.59" y="14" dominant-baseline="ideographic">2,300+</tspan></text></g></g></g><g id="g-root-tx_2300_1upwgzip1iscg-stroke" data-item-order="0" transform="translate(69.4140625, 185)"></g><g id="g-root-tx_500000_qs5eymp1itxf-fill" data-item-order="0" transform="translate(277.875, 185)"><g id="tx_500000_qs5eymp1itxf-fill-merged" stroke="none" fill="#ffffff" fill-opacity="1"><g><text style="font: bold 25px Roboto, sans-serif; white-space: pre;" transform="translate(58.125, 25)" font-weight="bold" font-size="25px" font-family="Roboto, sans-serif"><tspan x="-46.13" y="14" dominant-baseline="ideographic">500,000</tspan></text></g></g></g><g id="g-root-tx_500000_qs5eymp1itxf-stroke" data-item-order="0" transform="translate(277.875, 185)"></g><g id="g-root-tx_18360183_1lw4vzyp1is5i-fill" data-item-order="0" transform="translate(476.453125, 185)"><g id="tx_18360183_1lw4vzyp1is5i-fill-merged" stroke="none" fill="#ffffff" fill-opacity="1"><g><text style="font: bold 25px Roboto, sans-serif; white-space: pre;" transform="translate(75.546875, 25)" font-weight="bold" font-size="25px" font-family="Roboto, sans-serif"><tspan x="-63.55" y="14" dominant-baseline="ideographic">18,360,183</tspan></text></g></g></g><g id="g-root-tx_18360183_1lw4vzyp1is5i-stroke" data-item-order="0" transform="translate(476.453125, 185)"></g><g id="g-root-tx__1hefym6p1itxd-fill" data-item-order="0" transform="translate(84.7578125, 284)"><g id="tx__1hefym6p1itxd-fill-merged" stroke="none" fill="#ffffff" fill-opacity="1"><g><text style="font: bold 20px Roboto, sans-serif; white-space: pre;" transform="translate(35.2421875, 22)" font-weight="bold" font-size="20px" font-family="Roboto, sans-serif"><tspan x="-23.24" y="12" dominant-baseline="ideographic">제목1</tspan></text></g></g></g><g id="g-root-tx__1hefym6p1itxd-stroke" data-item-order="0" transform="translate(84.7578125, 284)"></g><g id="g-root-tx__dhbdoep1isck-fill" data-item-order="0" transform="translate(300.7578125, 284)"><g id="tx__dhbdoep1isck-fill-merged" stroke="none" fill="#ffffff" fill-opacity="1"><g><text style="font: bold 20px Roboto, sans-serif; white-space: pre;" transform="translate(35.2421875, 22)" font-weight="bold" font-size="20px" font-family="Roboto, sans-serif"><tspan x="-23.24" y="12" dominant-baseline="ideographic">제목2</tspan></text></g></g></g><g id="g-root-tx__dhbdoep1isck-stroke" data-item-order="0" transform="translate(300.7578125, 284)"></g><g id="g-root-tx__18kodmmp1itqf-fill" data-item-order="0" transform="translate(516.7578125, 284)"><g id="tx__18kodmmp1itqf-fill-merged" stroke="none" fill="#ffffff" fill-opacity="1"><g><text style="font: bold 20px Roboto, sans-serif; white-space: pre;" transform="translate(35.2421875, 22)" font-weight="bold" font-size="20px" font-family="Roboto, sans-serif"><tspan x="-23.24" y="12" dominant-baseline="ideographic">제목3</tspan></text></g></g></g><g id="g-root-tx__18kodmmp1itqf-stroke" data-item-order="0" transform="translate(516.7578125, 284)"></g><g id="g-root-tx_2300_143lxbyp1isci-fill" data-item-order="0" transform="translate(91.1015625, 320)"><g id="tx_2300_143lxbyp1isci-fill-merged" stroke="none" fill="#ffffff" fill-opacity="1"><g><text style="font: 15px Roboto, sans-serif; white-space: pre;" transform="translate(28.8984375, 19)" font-size="15px" font-family="Roboto, sans-serif"><tspan x="-16.9" y="9" dominant-baseline="ideographic">내용1</tspan></text></g></g></g><g id="g-root-tx_2300_143lxbyp1isci-stroke" data-item-order="0" transform="translate(91.1015625, 320)"></g><g id="g-root-tx_50_5uvb2p1itxh-fill" data-item-order="0" transform="translate(307.1015625, 320)"><g id="tx_50_5uvb2p1itxh-fill-merged" stroke="none" fill="#ffffff" fill-opacity="1"><g><text style="font: 15px Roboto, sans-serif; white-space: pre;" transform="translate(28.8984375, 19)" font-size="15px" font-family="Roboto, sans-serif"><tspan x="-16.9" y="9" dominant-baseline="ideographic">내용2</tspan></text></g></g></g><g id="g-root-tx_50_5uvb2p1itxh-stroke" data-item-order="0" transform="translate(307.1015625, 320)"></g><g id="g-root-tx_base6418_v9uccep1is5k-fill" data-item-order="0" transform="translate(523.1015625, 320)"><g id="tx_base6418_v9uccep1is5k-fill-merged" stroke="none" fill="#ffffff" fill-opacity="1"><g><text style="font: 15px Roboto, sans-serif; white-space: pre;" transform="translate(28.8984375, 19)" font-size="15px" font-family="Roboto, sans-serif"><tspan x="-16.9" y="9" dominant-baseline="ideographic">내용3</tspan></text></g></g></g><g id="g-root-tx_base6418_v9uccep1is5k-stroke" data-item-order="0" transform="translate(523.1015625, 320)"></g></g></g></svg>