<?xml version="1.0" encoding="utf-8" standalone="yes"?>
<!DOCTYPE svg PUBLIC "-//W3C//DTD SVG 1.1//EN" "http://www.w3.org/Graphics/SVG/1.1/DTD/svg11.dtd">
<svg style="fill:none;stroke:none;fill-rule:evenodd;clip-rule:evenodd;stroke-linecap:round;stroke-linejoin:round;stroke-miterlimit:1.5;" version="1.1" xmlns="http://www.w3.org/2000/svg" xmlns:xlink="http://www.w3.org/1999/xlink" width="721" height="444" viewBox="0 0 721 444"><style class="text-font-style fontImports" data-font-family="Roboto">@import url(https://fonts.googleapis.com/css2?family=Roboto:wght@400;700&amp;amp;display=block);</style><g id="items" style="isolation: isolate"><g id="blend" style="mix-blend-mode: normal"><g id="g-root-cp_1_disc-1_4kfrviornfup-fill" data-item-order="-271772" transform="translate(27, 117)"><g id="cp_1_disc-1_4kfrviornfup-fill-merged" stroke="none" fill="#a455c9" fill-opacity="1"><g><path d="M154 82C154 121.765 121.765 154 82 154C42.236 154 10 121.765 10 82C10 42.236 42.236 10 82 10C121.765 10 154 42.236 154 82"></path></g></g></g><g id="g-root-cp_1_disc-1_4kfrviornfup-stroke" data-item-order="-271772" transform="translate(27, 117)"><g id="cp_1_disc-1_4kfrviornfup-stroke" fill="none" stroke-linecap="round" stroke-linejoin="round" stroke-miterlimit="4" stroke="#ffffff" stroke-width="2" stroke-opacity="1"><g><path d="M 154 82C 154 121.7645 121.7645 154 82 154C 42.2355 154 10 121.7645 10 82C 10 42.2355 42.2355 10 82 10C 121.7645 10 154 42.2355 154 82Z"></path></g></g></g><g id="g-root-cp_1_stroke-1_1upwtlqorngga-fill" data-item-order="-271767" transform="translate(14.999984741210938, 105)"></g><g id="g-root-cp_1_stroke-1_1upwtlqorngga-stroke" data-item-order="-271767" transform="translate(14.999984741210938, 105)"><g id="cp_1_stroke-1_1upwtlqorngga-stroke" fill="none" stroke-linecap="round" stroke-linejoin="round" stroke-miterlimit="4" stroke="#484848" stroke-width="2" stroke-opacity="1"><g><path d="M 10.000015 94C 10.000015 77.3864 14.926515 61.1459 24.156615 47.3321C 33.386615 33.5184 46.505615 22.7519 61.854615 16.3942C 77.203615 10.0364 94.093215 8.3729 110.387615 11.6141C 126.682015 14.8552 141.649415 22.8555 153.397015 34.6031C 165.144615 46.3507 173.144815 61.3181 176.386015 77.6125C 179.627115 93.9069 177.963615 110.7965 171.605915 126.1455C 165.248115 141.4945 154.481615 154.6134 140.667915 163.8435C 126.854115 173.0735 111.113615 178 94.500015 178L 94.500115 215M 94.500115 215L 79.804515 200.3571M 94.500115 215L 109.195815 200.3571"></path></g></g></g><g id="g-root-cp_2_disc-2_1upwtlqornggb-fill" data-item-order="-271760" transform="translate(195, 117)"><g id="cp_2_disc-2_1upwtlqornggb-fill-merged" stroke="none" fill="#ba5de5" fill-opacity="1"><g><path d="M154 82C154 121.765 121.765 154 82 154C42.236 154 10 121.765 10 82C10 42.236 42.236 10 82 10C121.765 10 154 42.236 154 82"></path></g></g></g><g id="g-root-cp_2_disc-2_1upwtlqornggb-stroke" data-item-order="-271760" transform="translate(195, 117)"><g id="cp_2_disc-2_1upwtlqornggb-stroke" fill="none" stroke-linecap="round" stroke-linejoin="round" stroke-miterlimit="4" stroke="#ffffff" stroke-width="2" stroke-opacity="1"><g><path d="M 154 82C 154 121.7645 121.7645 154 82 154C 42.2355 154 10 121.7645 10 82C 10 42.2355 42.2355 10 82 10C 121.7645 10 154 42.2355 154 82Z"></path></g></g></g><g id="g-root-cp_2_stroke-2_1qapskeorne2s-fill" data-item-order="-271755" transform="translate(183, 105)"></g><g id="g-root-cp_2_stroke-2_1qapskeorne2s-stroke" data-item-order="-271755" transform="translate(183, 105)"><g id="cp_2_stroke-2_1qapskeorne2s-stroke" fill="none" stroke-linecap="round" stroke-linejoin="round" stroke-miterlimit="4" stroke="#484848" stroke-width="2" stroke-opacity="1"><g><path d="M 10 94C 10 77.3864 14.9265 61.1459 24.1566 47.3321C 33.3866 33.5184 46.5056 22.7519 61.8546 16.3942C 77.2036 10.0364 94.0932 8.3729 110.3876 11.6141C 126.682 14.8552 141.6494 22.8555 153.397 34.6031C 165.1446 46.3507 173.1448 61.3181 176.386 77.6125C 179.6271 93.9069 177.9636 110.7965 171.6059 126.1455C 165.2481 141.4945 154.4816 154.6134 140.6679 163.8435C 126.8541 173.0735 111.1136 178 94.5 178L 94.5001 215M 94.5001 215L 79.8045 200.3571M 94.5001 215L 109.1958 200.3571"></path></g></g></g><g id="g-root-cp_3_disc-3_1qapskeorne2t-fill" data-item-order="-271748" transform="translate(363, 117)"><g id="cp_3_disc-3_1qapskeorne2t-fill-merged" stroke="none" fill="#cd6afb" fill-opacity="1"><g><path d="M154 82C154 121.765 121.765 154 82 154C42.236 154 10 121.765 10 82C10 42.236 42.236 10 82 10C121.765 10 154 42.236 154 82"></path></g></g></g><g id="g-root-cp_3_disc-3_1qapskeorne2t-stroke" data-item-order="-271748" transform="translate(363, 117)"><g id="cp_3_disc-3_1qapskeorne2t-stroke" fill="none" stroke-linecap="round" stroke-linejoin="round" stroke-miterlimit="4" stroke="#ffffff" stroke-width="2" stroke-opacity="1"><g><path d="M 154 82C 154 121.7645 121.7645 154 82 154C 42.2355 154 10 121.7645 10 82C 10 42.2355 42.2355 10 82 10C 121.7645 10 154 42.2355 154 82Z"></path></g></g></g><g id="g-root-cp_3_stroke-3_1qapskeorne2u-fill" data-item-order="-271743" transform="translate(351, 105)"></g><g id="g-root-cp_3_stroke-3_1qapskeorne2u-stroke" data-item-order="-271743" transform="translate(351, 105)"><g id="cp_3_stroke-3_1qapskeorne2u-stroke" fill="none" stroke-linecap="round" stroke-linejoin="round" stroke-miterlimit="4" stroke="#484848" stroke-width="2" stroke-opacity="1"><g><path d="M 10 94C 10 77.3864 14.9265 61.1459 24.1566 47.3321C 33.3866 33.5184 46.5056 22.7519 61.8546 16.3942C 77.2036 10.0364 94.0932 8.3729 110.3876 11.6141C 126.682 14.8552 141.6494 22.8555 153.397 34.6031C 165.1446 46.3507 173.1448 61.3181 176.386 77.6125C 179.6271 93.9069 177.9636 110.7965 171.6059 126.1455C 165.2481 141.4945 154.4816 154.6134 140.6679 163.8435C 126.8541 173.0735 111.1136 178 94.5 178L 94.5001 215M 94.5001 215L 79.8045 200.3571M 94.5001 215L 109.1958 200.3571"></path></g></g></g><g id="g-root-cp_4_disc-4_1hf2sbiornevj-fill" data-item-order="-271736" transform="translate(531, 117)"><g id="cp_4_disc-4_1hf2sbiornevj-fill-merged" stroke="none" fill="#e2a3ff" fill-opacity="1"><g><path d="M154 82C154 121.765 121.765 154 82 154C42.236 154 10 121.765 10 82C10 42.236 42.236 10 82 10C121.765 10 154 42.236 154 82"></path></g></g></g><g id="g-root-cp_4_disc-4_1hf2sbiornevj-stroke" data-item-order="-271736" transform="translate(531, 117)"><g id="cp_4_disc-4_1hf2sbiornevj-stroke" fill="none" stroke-linecap="round" stroke-linejoin="round" stroke-miterlimit="4" stroke="#ffffff" stroke-width="2" stroke-opacity="1"><g><path d="M 154 82C 154 121.7645 121.7645 154 82 154C 42.2355 154 10 121.7645 10 82C 10 42.2355 42.2355 10 82 10C 121.7645 10 154 42.2355 154 82Z"></path></g></g></g><g id="g-root-cp_4_stroke-4_1luwafyornev4-fill" data-item-order="-271731" transform="translate(519, 105)"></g><g id="g-root-cp_4_stroke-4_1luwafyornev4-stroke" data-item-order="-271731" transform="translate(519, 105)"><g id="cp_4_stroke-4_1luwafyornev4-stroke" fill="none" stroke-linecap="round" stroke-linejoin="round" stroke-miterlimit="4" stroke="#484848" stroke-width="2" stroke-opacity="1"><g><path d="M 10 94C 10 77.3864 14.9265 61.1459 24.1566 47.3321C 33.3866 33.5184 46.5056 22.7519 61.8546 16.3942C 77.2036 10.0364 94.0932 8.3729 110.3876 11.6141C 126.682 14.8552 141.6494 22.8555 153.397 34.6031C 165.1446 46.3507 173.1448 61.3181 176.386 77.6125C 179.6271 93.9069 177.9636 110.7965 171.6059 126.1455C 165.2481 141.4945 154.4816 154.6134 140.6679 163.8435C 126.8541 173.0735 111.1136 178 94.5 178L 94.5001 215M 94.5001 215L 79.8045 200.3571M 94.5001 215L 109.1958 200.3571"></path></g></g></g><g id="g-root-tx_claudeco_1cz9a72ornfnt-fill" data-item-order="0" transform="translate(318.21875, 38)"><g id="tx_claudeco_1cz9a72ornfnt-fill-merged" stroke="none" fill="#484848" fill-opacity="1"><g><text style="font: bold 25px Roboto, sans-serif; white-space: pre;" transform="translate(42.28125, 25)" font-weight="bold" font-size="25px" font-family="Roboto, sans-serif"><tspan x="-30.28" y="14" dominant-baseline="ideographic">타이틀</tspan></text></g></g></g><g id="g-root-tx_claudeco_1cz9a72ornfnt-stroke" data-item-order="0" transform="translate(318.21875, 38)"></g><g id="g-root-ic_poin_v8lqseornev6-fill" data-item-order="0" transform="translate(63, 152)"></g><g id="g-root-ic_poin_v8lqseornev6-stroke" data-item-order="0" transform="translate(63, 152)"><g id="ic_poin_v8lqseornev6-stroke" fill="none" stroke-linecap="round" stroke-linejoin="round" stroke-miterlimit="4" stroke="#ffffff" stroke-width="2" stroke-opacity="1"><g><path d="M 32.192078 78.702698C 31.790739 78.702698 31.465359 78.377502 31.465359 77.976105C 31.465359 77.574699 31.790739 77.249207 32.192078 77.249207M 32.192108 78.702698C 32.593479 78.702698 32.918831 78.377502 32.918831 77.976105C 32.918831 77.574699 32.593479 77.249207 32.192108 77.249207M 10 10M 42.409901 77.976105L 58.354298 77.976105M 73.615898 68.515594C 76.826797 68.515594 79.429596 65.912796 79.429596 62.701904L 79.429596 19.11112C 79.429596 15.90022 76.826797 13.29727 73.615898 13.29727L 18.38419 13.29727C 15.17329 13.29727 12.570343 15.90022 12.570343 19.11112L 12.570343 62.701904C 12.570343 65.912796 15.17329 68.515594 18.38419 68.515594L 73.615898 68.515594ZM 30.812679 34.514259C 33.600941 39.696098 39.38026 43.255901 46.057602 43.255901C 52.735001 43.255901 58.514198 39.696072 61.302399 34.514259M 33.87793 38.49538L 27.43438 43.8955M 10 10M 41.519199 42.6838L 38.416721 50.497601M 10 10M 58.235802 38.49538L 64.679199 43.8955M 10 10M 50.584301 42.6838L 53.686897 50.497601"></path></g></g></g><g id="g-root-ic_moni_v3ly3iorosuc-fill" data-item-order="0" transform="translate(231, 152)"></g><g id="g-root-ic_moni_v3ly3iorosuc-stroke" data-item-order="0" transform="translate(231, 152)"><g id="ic_moni_v3ly3iorosuc-stroke" fill="none" stroke-linecap="round" stroke-linejoin="round" stroke-miterlimit="4" stroke="#ffffff" stroke-width="2" stroke-opacity="1"><g><path d="M 34.999001 47.529999L 46.471001 54.220001C 47.482605 54.813385 48.734383 54.82016 49.75235 54.237755C 50.770321 53.65535 51.398869 52.572796 51.399998 51.399998L 51.400002 36.298C 51.400589 33.969112 50.163231 31.815453 48.151001 30.643L 36.673 23.950001C 35.660107 23.360909 34.409706 23.357655 33.393753 23.941469C 32.377808 24.525282 31.751032 25.607254 31.75 26.778999L 31.75 41.871998C 31.749575 44.201633 32.986748 46.356117 34.999001 47.529999ZM 35.022999 23.5L 56.305 23.5C 58.112625 23.5 59.577995 24.965372 59.577995 26.772999L 59.577995 48.055M 42.906998 40.821999C 42.906998 41.443321 43.410679 41.946999 44.031998 41.946999C 44.65332 41.946999 45.156998 41.443321 45.156998 40.821999C 45.156998 40.20068 44.65332 39.696999 44.031998 39.696999C 43.410679 39.696999 42.906998 40.20068 42.906998 40.821999M 37 77.5C 39.717464 74.06871 41.291218 69.87204 41.5 65.5M 55 77.5C 52.282536 74.06871 50.708782 69.87204 50.5 65.5M 32.497002 77.5L 59.497002 77.5M 14.5 14.5L 77.5 14.5C 77.5 14.5 80.5 14.5 80.5 17.5L 80.5 62.5C 80.5 62.5 80.5 65.5 77.5 65.5L 14.5 65.5C 14.5 65.5 11.5 65.5 11.5 62.5L 11.5 17.5C 11.5 17.5 11.5 14.5 14.5 14.5"></path></g></g></g><g id="g-root-ic_3_1lw58m6orq7t6-fill" data-item-order="0" transform="translate(399, 152)"></g><g id="g-root-ic_3_1lw58m6orq7t6-stroke" data-item-order="0" transform="translate(399, 152)"><g id="ic_3_1lw58m6orq7t6-stroke" fill="none" stroke-linecap="round" stroke-linejoin="round" stroke-miterlimit="4" stroke="#ffffff" stroke-width="2" stroke-opacity="1"><g><path d="M 32.818001 67.582001C 19.40885 64.085548 10.458066 51.450714 11.607114 37.640926C 12.756162 23.831139 23.671978 12.84931 37.474583 11.617021C 51.277191 10.384731 63.965767 19.259174 67.542999 32.646999M 30.511 53.5C 25.161795 49.735321 22.541546 43.166161 23.831264 36.753403C 25.120981 30.340647 30.077126 25.295231 36.465839 23.891254C 42.854553 22.487274 49.469437 24.989845 53.329002 30.271M 65.179001 54.592003L 71.754997 48.015999C 72.13028 47.639812 72.278534 47.093151 72.14473 46.578903C 72.010925 46.064651 71.615044 45.659573 71.104004 45.514L 38.395 36.195999C 37.871338 36.046585 37.307835 36.192711 36.922771 36.577774C 36.537712 36.962837 36.391586 37.52634 36.541 38.050003L 45.859001 70.75C 46.00457 71.26104 46.409653 71.656929 46.923901 71.790733C 47.438148 71.924538 47.98481 71.776283 48.361 71.401001L 54.511002 65.253998L 68.707001 79.449997C 68.988411 79.732124 69.370514 79.890686 69.768997 79.890686C 70.16748 79.890686 70.549583 79.732124 70.831001 79.449997L 79.377998 70.903C 79.963577 70.317245 79.963577 69.367752 79.377998 68.781998Z"></path></g></g></g><g id="g-root-ic_meas_dl2ktaorymto-fill" data-item-order="0" transform="translate(567, 152)"></g><g id="g-root-ic_meas_dl2ktaorymto-stroke" data-item-order="0" transform="translate(567, 152)"><g id="ic_meas_dl2ktaorymto-stroke" fill="none" stroke-linecap="round" stroke-linejoin="round" stroke-miterlimit="4" stroke="#ffffff" stroke-width="2" stroke-opacity="1"><g><path d="M 62.518002 34L 62.518002 22.546001C 62.550087 19.952826 60.597916 17.763798 58.017998 17.5L 49.056999 17.5C 48.68174 17.50045 48.319939 17.360226 48.042999 17.107L 42.355 11.893C 42.078823 11.640472 41.718224 11.500299 41.344002 11.5L 32.695 11.5C 32.31974 11.49955 31.957943 11.639774 31.681 11.893L 25.981001 17.107C 25.704823 17.359528 25.344225 17.499701 24.969999 17.5L 16.018 17.5C 13.438772 17.765152 11.487338 19.95336 11.518 22.546001L 11.518 49C 11.518 51.485283 13.532719 53.5 16.018 53.5L 47.517998 53.5M 26.518 34C 26.518002 39.798988 31.219011 44.5 37.018002 44.5C 42.816994 44.5 47.518002 39.798988 47.518002 34C 47.518002 28.201012 42.816994 23.500002 37.018002 23.500002C 31.219011 23.500002 26.518002 28.201012 26.518002 34ZM 19.768 26.5C 20.182213 26.5 20.518 26.835787 20.518 27.25C 20.518 27.664213 20.182213 28 19.768 28C 19.353786 28 19.018 27.664213 19.018 27.25C 19.018 26.835787 19.353786 26.5 19.768 26.5M 80.481995 44.5L 56.482002 44.5C 54.825146 44.5 53.482002 45.843143 53.482002 47.5C 53.482002 49.156857 54.825146 50.5 56.482002 50.5L 63.981998 50.5L 71.481995 44.5M 59.481998 44.5L 59.481998 41.5M 80.481995 68.5L 56.482002 68.5C 54.825146 68.5 53.482002 67.156853 53.482002 65.5C 53.482002 63.843147 54.825146 62.5 56.482002 62.5L 63.981998 62.5L 71.481995 68.5M 59.481998 68.5L 59.481998 71.5M 71.481995 50.5L 80.481995 50.5M 71.481995 56.5L 80.481995 56.5M 71.481995 62.5L 80.481995 62.5M 77.481995 68.5L 77.481995 80.5M 77.481995 77.5L 71.481995 77.5"></path></g></g></g><g id="g-root-tx__qs5rkuos1hxi-fill" data-item-order="0" transform="translate(73.7578125, 332)"><g id="tx__qs5rkuos1hxi-fill-merged" stroke="none" fill="#484848" fill-opacity="1"><g><text style="font: bold 20px Roboto, sans-serif; white-space: pre;" transform="translate(35.2421875, 22)" font-weight="bold" font-size="20px" font-family="Roboto, sans-serif"><tspan x="-23.24" y="12" dominant-baseline="ideographic">제목1</tspan></text></g></g></g><g id="g-root-tx__qs5rkuos1hxi-stroke" data-item-order="0" transform="translate(73.7578125, 332)"></g><g id="g-root-tx__v9uoymos1g5l-fill" data-item-order="0" transform="translate(241.7578125, 332)"><g id="tx__v9uoymos1g5l-fill-merged" stroke="none" fill="#484848" fill-opacity="1"><g><text style="font: bold 20px Roboto, sans-serif; white-space: pre;" transform="translate(35.2421875, 22)" font-weight="bold" font-size="20px" font-family="Roboto, sans-serif"><tspan x="-23.24" y="12" dominant-baseline="ideographic">제목2</tspan></text></g></g></g><g id="g-root-tx__v9uoymos1g5l-stroke" data-item-order="0" transform="translate(241.7578125, 332)"></g><g id="g-root-tx__mg33z2os1fyl-fill" data-item-order="0" transform="translate(409.7578125, 332)"><g id="tx__mg33z2os1fyl-fill-merged" stroke="none" fill="#484848" fill-opacity="1"><g><text style="font: bold 20px Roboto, sans-serif; white-space: pre;" transform="translate(35.2421875, 22)" font-weight="bold" font-size="20px" font-family="Roboto, sans-serif"><tspan x="-23.24" y="12" dominant-baseline="ideographic">제목3</tspan></text></g></g></g><g id="g-root-tx__mg33z2os1fyl-stroke" data-item-order="0" transform="translate(409.7578125, 332)"></g><g id="g-root-tx__1lz9m1qos1hc1-fill" data-item-order="0" transform="translate(577.7578125, 332)"><g id="tx__1lz9m1qos1hc1-fill-merged" stroke="none" fill="#484848" fill-opacity="1"><g><text style="font: bold 20px Roboto, sans-serif; white-space: pre;" transform="translate(35.2421875, 22)" font-weight="bold" font-size="20px" font-family="Roboto, sans-serif"><tspan x="-23.24" y="12" dominant-baseline="ideographic">제목4</tspan></text></g></g></g><g id="g-root-tx__1lz9m1qos1hc1-stroke" data-item-order="0" transform="translate(577.7578125, 332)"></g><g id="g-root-tx_ai_1hgbqhqos1gxs-fill" data-item-order="0" transform="translate(80.1171875, 368)"><g id="tx_ai_1hgbqhqos1gxs-fill-merged" stroke="none" fill="#484848" fill-opacity="1"><g><text style="font: 15px Roboto, sans-serif; white-space: pre;" transform="translate(28.8828125, 19)" font-size="15px" font-family="Roboto, sans-serif"><tspan x="-16.88" y="9" dominant-baseline="ideographic">설명1</tspan></text></g></g></g><g id="g-root-tx_ai_1hgbqhqos1gxs-stroke" data-item-order="0" transform="translate(80.1171875, 368)"></g><g id="g-root-tx_ai_1qd7owuos1hjf-fill" data-item-order="0" transform="translate(248.1171875, 368)"><g id="tx_ai_1qd7owuos1hjf-fill-merged" stroke="none" fill="#484848" fill-opacity="1"><g><text style="font: 15px Roboto, sans-serif; white-space: pre;" transform="translate(28.8828125, 19)" font-size="15px" font-family="Roboto, sans-serif"><tspan x="-16.88" y="9" dominant-baseline="ideographic">설명2</tspan></text></g></g></g><g id="g-root-tx_ai_1qd7owuos1hjf-stroke" data-item-order="0" transform="translate(248.1171875, 368)"></g><g id="g-root-tx_ai_4ot3haos1ibr-fill" data-item-order="0" transform="translate(416.1171875, 368)"><g id="tx_ai_4ot3haos1ibr-fill-merged" stroke="none" fill="#484848" fill-opacity="1"><g><text style="font: 15px Roboto, sans-serif; white-space: pre;" transform="translate(28.8828125, 19)" font-size="15px" font-family="Roboto, sans-serif"><tspan x="-16.88" y="9" dominant-baseline="ideographic">설명3</tspan></text></g></g></g><g id="g-root-tx_ai_4ot3haos1ibr-stroke" data-item-order="0" transform="translate(416.1171875, 368)"></g><g id="g-root-tx_ai_zisz4uos2v4b-fill" data-item-order="0" transform="translate(584.1171875, 368)"><g id="tx_ai_zisz4uos2v4b-fill-merged" stroke="none" fill="#484848" fill-opacity="1"><g><text style="font: 15px Roboto, sans-serif; white-space: pre;" transform="translate(28.8828125, 19)" font-size="15px" font-family="Roboto, sans-serif"><tspan x="-16.88" y="9" dominant-baseline="ideographic">설명4</tspan></text></g></g></g><g id="g-root-tx_ai_zisz4uos2v4b-stroke" data-item-order="0" transform="translate(584.1171875, 368)"></g></g></g></svg>