<?xml version="1.0" encoding="utf-8" standalone="yes"?>
<!DOCTYPE svg PUBLIC "-//W3C//DTD SVG 1.1//EN" "http://www.w3.org/Graphics/SVG/1.1/DTD/svg11.dtd">
<svg style="fill:none;stroke:none;fill-rule:evenodd;clip-rule:evenodd;stroke-linecap:round;stroke-linejoin:round;stroke-miterlimit:1.5;" version="1.1" xmlns="http://www.w3.org/2000/svg" xmlns:xlink="http://www.w3.org/1999/xlink" width="552" height="766" viewBox="0 0 552 766"><style class="text-font-style fontImports" data-font-family="Roboto">@import url(https://fonts.googleapis.com/css2?family=Roboto:wght@400;700&amp;amp;display=block);</style><g id="items" style="isolation: isolate"><g id="blend" style="mix-blend-mode: normal"><g id="g-root-sy_3_cu-2_ddll07r9gx6q-fill" data-item-order="-268118" transform="translate(14, 140)"><g id="sy_3_cu-2_ddll07r9gx6q-fill-merged" stroke="none" fill="#e2a3ff" fill-opacity="1"><g><path d="M10 206 V180.264L262 10L514 180.264 V206 H502 V230C495.373 230 490 235.373 490 242 H34C34 235.373 28.627 230 22 230 V206 H10 M10 518 V542 H514 V518C507.373 518 502 512.627 502 506 H22C22 512.627 16.627 518 10 518"></path></g></g></g><g id="g-root-sy_3_cu-2_ddll07r9gx6q-stroke" data-item-order="-268118" transform="translate(14, 140)"><g id="sy_3_cu-2_ddll07r9gx6q-stroke" fill="none" stroke-linecap="round" stroke-linejoin="round" stroke-miterlimit="4" stroke="#ffffff" stroke-width="2" stroke-opacity="1"><g><path d="M 502 230C 495.3726 230 490 235.3726 490 242L 34 242C 34 235.3726 28.6274 230 22 230L 502 230ZM 22 206L 502 206L 502 230L 22 230L 22 206ZM 514 518C 507.3726 518 502 512.6274 502 506L 22 506C 22 512.6274 16.6274 518 10 518L 514 518ZM 10 542L 514 542L 514 518L 10 518L 10 542ZM 262 10L 514 180.2642L 514 206L 10 206L 10 180.2642L 262 10Z"></path></g></g></g><g id="g-root-sy_3_cu-1_4hykrbr9gxzf-fill" data-item-order="-268116" transform="translate(58, 168)"><g id="sy_3_cu-1_4hykrbr9gxzf-fill-merged" stroke="none" fill="#e2a3ff" fill-opacity="1"><g><path d="M217.645 10L10 154 H426L217.645 10"></path></g></g></g><g id="g-root-sy_3_cu-1_4hykrbr9gxzf-stroke" data-item-order="-268116" transform="translate(58, 168)"><g id="sy_3_cu-1_4hykrbr9gxzf-stroke" fill="none" stroke-linecap="round" stroke-linejoin="round" stroke-miterlimit="4" stroke="#ffffff" stroke-width="2" stroke-opacity="1"><g><path d="M 217.6449 10L 10 154L 426 154L 217.6449 10Z"></path></g></g></g><g id="g-root-sy_3_cu_252mvr9gyro-fill" data-item-order="-268112" transform="translate(374, 372)"><g id="sy_3_cu_252mvr9gyro-fill-merged" stroke="none" fill="#e2a3ff" fill-opacity="1"><g><path d="M34 58.059 H106L118 226.059 H22L34 58.059 M118 34.059C111.373 34.059 106 39.431 106 46.059 H34C34 39.431 28.627 34.059 22 34.059 V10 H118 V34.058 M130 250.059C123.373 250.059 118 244.686 118 238.059 H22C22 244.686 16.627 250.059 10 250.059 V274.058 H130 V250.059"></path></g></g><g id="sy_3_cu_252mvr9gyro-fill-merged" stroke="none" fill="#e2a3ff" fill-opacity="1"><g><path d="M37 46.059 H103C103 46.059 115 46.059 115 52.059C115 52.059 115 58.059 103 58.059 H37C37 58.059 25 58.059 25 52.059C25 52.059 25 46.059 37 46.059 M28 226.059 H112C112 226.059 124 226.059 124 232.059C124 232.059 124 238.059 112 238.059 H28C28 238.059 16 238.059 16 232.059C16 232.059 16 226.059 28 226.059"></path></g></g></g><g id="g-root-sy_3_cu_252mvr9gyro-stroke" data-item-order="-268112" transform="translate(374, 372)"><g id="sy_3_cu_252mvr9gyro-stroke" fill="none" stroke-linecap="round" stroke-linejoin="round" stroke-miterlimit="4" stroke="#ffffff" stroke-width="2" stroke-opacity="1"><g><path d="M 34 58.058594L 106 58.058594L 118 226.058594L 22 226.058594L 34 58.058594ZM 22 10L 118 10L 118 34.0583L 22 34.0583L 22 10ZM 10 274.058394L 130 274.058394L 130 250.058594L 10 250.058594L 10 274.058394ZM 22 34.058594L 118 34.058594C 111.3726 34.058594 106 39.431194 106 46.058594L 34 46.058594C 34 39.431194 28.6274 34.058594 22 34.058594ZM 10 250.058594L 130 250.058594C 123.3726 250.058594 118 244.685994 118 238.058594L 22 238.058594C 22 244.685994 16.6274 250.058594 10 250.058594Z"></path></g></g><g id="sy_3_cu_252mvr9gyro-stroke" fill="none" stroke-linecap="round" stroke-linejoin="round" stroke-miterlimit="4" stroke="#ffffff" stroke-width="2" stroke-opacity="1"><g><path d="M 37 46.058594L 103 46.058594C 103 46.058594 115 46.058594 115 52.058594L 115 52.058594C 115 52.058594 115 58.058594 103 58.058594L 37 58.058594C 37 58.058594 25 58.058594 25 52.058594L 25 52.058594C 25 52.058594 25 46.058594 37 46.058594M 28 226.058594L 112 226.058594C 112 226.058594 124 226.058594 124 232.058594L 124 232.058594C 124 232.058594 124 238.058594 112 238.058594L 28 238.058594C 28 238.058594 16 238.058594 16 232.058594L 16 232.058594C 16 232.058594 16 226.058594 28 226.058594"></path></g></g></g><g id="g-root-sy_2_cu_1q7m4d3r9gzd9-fill" data-item-order="-268108" transform="translate(206, 371.94140625)"><g id="sy_2_cu_1q7m4d3r9gzd9-fill-merged" stroke="none" fill="#c765f4" fill-opacity="1"><g><path d="M34 58.059 H106L118 226.059 H22L34 58.059 M118 34.059C111.373 34.059 106 39.431 106 46.059 H34C34 39.431 28.627 34.059 22 34.059 V10 H118 V34.058 M130 250.059C123.373 250.059 118 244.686 118 238.059 H22C22 244.686 16.627 250.059 10 250.059 V274.058 H130 V250.059"></path></g></g><g id="sy_2_cu_1q7m4d3r9gzd9-fill-merged" stroke="none" fill="#c765f4" fill-opacity="1"><g><path d="M37 46.059 H103C103 46.059 115 46.059 115 52.059C115 52.059 115 58.059 103 58.059 H37C37 58.059 25 58.059 25 52.059C25 52.059 25 46.059 37 46.059 M28 226.059 H112C112 226.059 124 226.059 124 232.059C124 232.059 124 238.059 112 238.059 H28C28 238.059 16 238.059 16 232.059C16 232.059 16 226.059 28 226.059"></path></g></g></g><g id="g-root-sy_2_cu_1q7m4d3r9gzd9-stroke" data-item-order="-268108" transform="translate(206, 371.94140625)"><g id="sy_2_cu_1q7m4d3r9gzd9-stroke" fill="none" stroke-linecap="round" stroke-linejoin="round" stroke-miterlimit="4" stroke="#ffffff" stroke-width="2" stroke-opacity="1"><g><path d="M 34 58.058594L 106 58.058594L 118 226.058594L 22 226.058594L 34 58.058594ZM 22 10L 118 10L 118 34.0583L 22 34.0583L 22 10ZM 10 274.058394L 130 274.058394L 130 250.058594L 10 250.058594L 10 274.058394ZM 22 34.058594L 118 34.058594C 111.3726 34.058594 106 39.431194 106 46.058594L 34 46.058594C 34 39.431194 28.6274 34.058594 22 34.058594ZM 10 250.058594L 130 250.058594C 123.3726 250.058594 118 244.685994 118 238.058594L 22 238.058594C 22 244.685994 16.6274 250.058594 10 250.058594Z"></path></g></g><g id="sy_2_cu_1q7m4d3r9gzd9-stroke" fill="none" stroke-linecap="round" stroke-linejoin="round" stroke-miterlimit="4" stroke="#ffffff" stroke-width="2" stroke-opacity="1"><g><path d="M 37 46.058594L 103 46.058594C 103 46.058594 115 46.058594 115 52.058594L 115 52.058594C 115 52.058594 115 58.058594 103 58.058594L 37 58.058594C 37 58.058594 25 58.058594 25 52.058594L 25 52.058594C 25 52.058594 25 46.058594 37 46.058594M 28 226.058594L 112 226.058594C 112 226.058594 124 226.058594 124 232.058594L 124 232.058594C 124 232.058594 124 238.058594 112 238.058594L 28 238.058594C 28 238.058594 16 238.058594 16 232.058594L 16 232.058594C 16 232.058594 16 226.058594 28 226.058594"></path></g></g></g><g id="g-root-sy_1_cu_1q7m4d3r9gzda-fill" data-item-order="-268104" transform="translate(38, 371.94140625)"><g id="sy_1_cu_1q7m4d3r9gzda-fill-merged" stroke="none" fill="#ab57d3" fill-opacity="1"><g><path d="M34 58.059 H106L118 226.059 H22L34 58.059 M118 34.059C111.373 34.059 106 39.431 106 46.059 H34C34 39.431 28.627 34.059 22 34.059 V10 H118 V34.058 M130 250.059C123.373 250.059 118 244.686 118 238.059 H22C22 244.686 16.627 250.059 10 250.059 V274.058 H130 V250.059"></path></g></g><g id="sy_1_cu_1q7m4d3r9gzda-fill-merged" stroke="none" fill="#ab57d3" fill-opacity="1"><g><path d="M37 46.059 H103C103 46.059 115 46.059 115 52.059C115 52.059 115 58.059 103 58.059 H37C37 58.059 25 58.059 25 52.059C25 52.059 25 46.059 37 46.059 M28 226.059 H112C112 226.059 124 226.059 124 232.059C124 232.059 124 238.059 112 238.059 H28C28 238.059 16 238.059 16 232.059C16 232.059 16 226.059 28 226.059"></path></g></g></g><g id="g-root-sy_1_cu_1q7m4d3r9gzda-stroke" data-item-order="-268104" transform="translate(38, 371.94140625)"><g id="sy_1_cu_1q7m4d3r9gzda-stroke" fill="none" stroke-linecap="round" stroke-linejoin="round" stroke-miterlimit="4" stroke="#ffffff" stroke-width="2" stroke-opacity="1"><g><path d="M 34 58.058594L 106 58.058594L 118 226.058594L 22 226.058594L 34 58.058594ZM 22 10L 118 10L 118 34.0583L 22 34.0583L 22 10ZM 10 274.058394L 130 274.058394L 130 250.058594L 10 250.058594L 10 274.058394ZM 22 34.058594L 118 34.058594C 111.3726 34.058594 106 39.431194 106 46.058594L 34 46.058594C 34 39.431194 28.6274 34.058594 22 34.058594ZM 10 250.058594L 130 250.058594C 123.3726 250.058594 118 244.685994 118 238.058594L 22 238.058594C 22 244.685994 16.6274 250.058594 10 250.058594Z"></path></g></g><g id="sy_1_cu_1q7m4d3r9gzda-stroke" fill="none" stroke-linecap="round" stroke-linejoin="round" stroke-miterlimit="4" stroke="#ffffff" stroke-width="2" stroke-opacity="1"><g><path d="M 37 46.058594L 103 46.058594C 103 46.058594 115 46.058594 115 52.058594L 115 52.058594C 115 52.058594 115 58.058594 103 58.058594L 37 58.058594C 37 58.058594 25 58.058594 25 52.058594L 25 52.058594C 25 52.058594 25 46.058594 37 46.058594M 28 226.058594L 112 226.058594C 112 226.058594 124 226.058594 124 232.058594L 124 232.058594C 124 232.058594 124 238.058594 112 238.058594L 28 238.058594C 28 238.058594 16 238.058594 16 232.058594L 16 232.058594C 16 232.058594 16 226.058594 28 226.058594"></path></g></g></g><g id="g-root-tx__1lsf3brr9gwzr-fill" data-item-order="0" transform="translate(233.71875, 38)"><g id="tx__1lsf3brr9gwzr-fill-merged" stroke="none" fill="#484848" fill-opacity="1"><g><text style="font: bold 25px Roboto, sans-serif; white-space: pre;" transform="translate(42.28125, 25)" font-weight="bold" font-size="25px" font-family="Roboto, sans-serif"><tspan x="-30.28" y="14" dominant-baseline="ideographic">타이틀</tspan></text></g></g></g><g id="g-root-tx__1lsf3brr9gwzr-stroke" data-item-order="0" transform="translate(233.71875, 38)"></g><g id="g-root-ic_rota_dccmtzr9l7ny-fill" data-item-order="0" transform="translate(242, 192)"></g><g id="g-root-ic_rota_dccmtzr9l7ny-stroke" data-item-order="0" transform="translate(242, 192)"><g id="ic_rota_dccmtzr9l7ny-stroke" fill="none" stroke-linecap="round" stroke-linejoin="round" stroke-miterlimit="4" stroke="#ffffff" stroke-width="2" stroke-opacity="1"><g><path d="M 37.635799 19.042721C 40.6702 22.279301 44.918201 24.09988 49.772999 24.09988C 52.2006 24.09988 54.425598 23.69532 56.448601 22.68388M 52.700001 15.90026C 55.099998 17.70026 56.5 20.500259 56.5 23.70026C 56.5 29.300261 52.099998 33.700199 46.5 33.700199C 40.900002 33.700199 36.5 29.300261 36.5 23.70026C 36.5 18.661961 40.0616 14.594999 44.854401 13.82984M 10 10M 43.0998 11.5L 46.699799 13.9L 44.0998 17.700001M 29.5 27.5L 13.5 27.5C 12.3 27.5 11.5 28.299999 11.5 29.5L 11.5 47.5C 11.5 48.700001 12.3 49.5 13.5 49.5L 33.5 49.5C 34.700001 49.5 35.5 48.700001 35.5 47.5L 35.5 37.5M 16.515141 49.511799L 13.5 56.016201M 23.5 27.5L 23.5 22.5M 10 10M 30.255199 49.5L 33.5 56.5M 23.70002 38.700001C 24.900021 39.900002 24.900021 41.5 23.70002 42.700001C 21.45072 44.9492 17.49218 43.781399 16.67004 42.700001C 18.5578 41.8172 18.390621 39.7892 19.70002 38.700001C 20.89724 37.636398 22.500019 37.5 23.70002 38.700001ZM 10 10M 23.997921 39.002197L 29.099979 33.9002"></path></g></g></g><g id="g-root-tx__i0ab2vr9l7gn-fill" data-item-order="0" transform="translate(239.7734375, 264)"><g id="tx__i0ab2vr9l7gn-fill-merged" stroke="none" fill="#ffffff" fill-opacity="1"><g><text style="font: bold 20px Roboto, sans-serif; white-space: pre;" transform="translate(36.2265625, 22)" font-weight="bold" font-size="20px" font-family="Roboto, sans-serif"><tspan x="-24.23" y="12" dominant-baseline="ideographic">타이틀</tspan></text></g></g></g><g id="g-root-tx__i0ab2vr9l7gn-stroke" data-item-order="0" transform="translate(239.7734375, 264)"></g><g id="g-root-ic_clos_1czwgifr9gyyr-fill" data-item-order="0" transform="translate(74, 492)"></g><g id="g-root-ic_clos_1czwgifr9gyyr-stroke" data-item-order="0" transform="translate(74, 492)"><g id="ic_clos_1czwgifr9gyyr-stroke" fill="none" stroke-linecap="round" stroke-linejoin="round" stroke-miterlimit="4" stroke="#ffffff" stroke-width="2" stroke-opacity="1"><g><path d="M 27 11L 15 11C 13.895431 11 13 11.895431 13 13L 13 55C 13 56.104568 13.895431 57 15 57L 27 57ZM 27 11L 41 11L 41 57L 27 57ZM 55 13C 55 11.895431 54.104568 11 53 11L 41 11L 41 57L 53 57C 54.104568 57 55 56.104568 55 55ZM 32 16L 36 16M 32 20L 36 20M 32 24L 36 24M 32 47L 36 47M 32 51L 36 51M 46 16L 50 16M 46 20L 50 20M 46 24L 50 24M 46 47L 50 47M 46 51L 50 51M 18 16L 22 16M 18 20L 22 20M 18 24L 22 24M 18 47L 22 47M 18 51L 22 51M 17.5 31.5C 17.776142 31.5 18 31.723858 18 32M 17 32C 17 31.723858 17.223858 31.5 17.5 31.5M 17.5 32.5C 17.223858 32.5 17 32.276142 17 32M 18 32C 18 32.276142 17.776142 32.5 17.5 32.5M 31.5 31.5C 31.776142 31.5 32 31.723858 32 32M 31 32C 31 31.723858 31.223858 31.5 31.5 31.5M 31.5 32.5C 31.223858 32.5 31 32.276142 31 32M 32 32C 32 32.276142 31.776142 32.5 31.5 32.5M 45.5 31.5C 45.776142 31.5 46 31.723858 46 32M 45 32C 45 31.723858 45.223858 31.5 45.5 31.5M 45.5 32.5C 45.223858 32.5 45 32.276142 45 32M 46 32C 46 32.276142 45.776142 32.5 45.5 32.5"></path></g></g></g><g id="g-root-ic_user_4l2y6vr9icjo-fill" data-item-order="0" transform="translate(242, 492)"></g><g id="g-root-ic_user_4l2y6vr9icjo-stroke" data-item-order="0" transform="translate(242, 492)"><g id="ic_user_4l2y6vr9icjo-stroke" fill="none" stroke-linecap="round" stroke-linejoin="round" stroke-miterlimit="4" stroke="#ffffff" stroke-width="2" stroke-opacity="1"><g><path d="M 25 43C 27.209139 43 29 41.209137 29 39C 29 36.790863 27.209139 35 25 35C 22.790861 35 21 36.790863 21 39C 21 41.209137 22.790861 43 25 43ZM 18 50C 18 46.13401 21.134007 43 25 43C 28.865993 43 32 46.13401 32 50ZM 37 32.902L 37 55C 37 56.104568 36.104568 57 35 57L 15 57C 13.895431 57 13 56.104568 13 55L 13 29C 13 27.89543 13.895431 27 15 27L 34.512001 27M 54.956001 11L 46.169998 17L 34.725998 17C 30.474001 17 26.926001 23.92 24.566 27M 37.718002 23L 31.743999 30.454C 30.704128 31.493965 30.704168 33.179993 31.744085 34.219913C 32.784004 35.259834 34.470032 35.259872 35.510002 34.220001L 43.667999 27L 48.778 27C 51.200001 27 55 23.552 55 23.552"></path></g></g></g><g id="g-root-ic_imag_deuj6fr9jq4l-fill" data-item-order="0" transform="translate(410, 492.05859375)"></g><g id="g-root-ic_imag_deuj6fr9jq4l-stroke" data-item-order="0" transform="translate(410, 492.05859375)"><g id="ic_imag_deuj6fr9jq4l-stroke" fill="none" stroke-linecap="round" stroke-linejoin="round" stroke-miterlimit="4" stroke="#ffffff" stroke-width="2" stroke-opacity="1"><g><path d="M 18 28L 21 28M 20 54L 48 54M 33 50L 33 54M 11 42L 57 42M 14 14L 54 14C 54 14 57 14 57 17L 57 47C 57 47 57 50 54 50L 14 50C 14 50 11 50 11 47L 11 17C 11 17 11 14 14 14M 18 21L 23.302 21M 27 21L 30 21M 25.021999 28L 30 28M 18 35L 30 35M 35.945999 14L 35.945999 42M 35.945999 35.531998L 42.051998 29.577999C 44.097527 27.969254 46.958778 27.901651 49.077999 29.411999L 57 36.031998M 42.094002 21.804001C 42.094002 22.356285 42.541714 22.804001 43.094002 22.804001C 43.646286 22.804001 44.094002 22.356285 44.094002 21.804001C 44.094002 21.251717 43.646286 20.804001 43.094002 20.804001C 42.541714 20.804001 42.094002 21.251717 42.094002 21.804001"></path></g></g></g><g id="g-root-tx_stateles_4ju00nr9gwzs-fill" data-item-order="0" transform="translate(79.0859375, 684)"><g id="tx_stateles_4ju00nr9gwzs-fill-merged" stroke="none" fill="#484848" fill-opacity="1"><g><text style="font: 20px Roboto, sans-serif; white-space: pre;" transform="translate(28.9140625, 22)" font-size="20px" font-family="Roboto, sans-serif"><tspan x="-16.91" y="12" dominant-baseline="ideographic">내용</tspan></text></g></g></g><g id="g-root-tx_stateles_4ju00nr9gwzs-stroke" data-item-order="0" transform="translate(79.0859375, 684)"></g><g id="g-root-tx_clientba_18iu07rr9gxkx-fill" data-item-order="0" transform="translate(247.0859375, 684)"><g id="tx_clientba_18iu07rr9gxkx-fill-merged" stroke="none" fill="#484848" fill-opacity="1"><g><text style="font: 20px Roboto, sans-serif; white-space: pre;" transform="translate(28.9140625, 22)" font-size="20px" font-family="Roboto, sans-serif"><tspan x="-16.91" y="12" dominant-baseline="ideographic">내용</tspan></text></g></g></g><g id="g-root-tx_clientba_18iu07rr9gxkx-stroke" data-item-order="0" transform="translate(247.0859375, 684)"></g><g id="g-root-tx_separati_90wgbbr9gydm-fill" data-item-order="0" transform="translate(415.0859375, 684)"><g id="tx_separati_90wgbbr9gydm-fill-merged" stroke="none" fill="#484848" fill-opacity="1"><g><text style="font: 20px Roboto, sans-serif; white-space: pre;" transform="translate(28.9140625, 22)" font-size="20px" font-family="Roboto, sans-serif"><tspan x="-16.91" y="12" dominant-baseline="ideographic">내용</tspan></text></g></g></g><g id="g-root-tx_separati_90wgbbr9gydm-stroke" data-item-order="0" transform="translate(415.0859375, 684)"></g></g></g></svg>