<?xml version="1.0" encoding="utf-8" standalone="yes"?>
<!DOCTYPE svg PUBLIC "-//W3C//DTD SVG 1.1//EN" "http://www.w3.org/Graphics/SVG/1.1/DTD/svg11.dtd">
<svg style="fill:none;stroke:none;fill-rule:evenodd;clip-rule:evenodd;stroke-linecap:round;stroke-linejoin:round;stroke-miterlimit:1.5;" version="1.1" xmlns="http://www.w3.org/2000/svg" xmlns:xlink="http://www.w3.org/1999/xlink" width="672" height="489" viewBox="0 0 672 489"><style class="text-font-style fontImports" data-font-family="Roboto">@import url(https://fonts.googleapis.com/css2?family=Roboto:wght@400;700&amp;amp;display=block);</style><g id="items" style="isolation: isolate"><g id="blend" style="mix-blend-mode: normal"><g id="g-root-sy_4_cu_v8m3bbqzejnr-fill" data-item-order="-181760" transform="translate(316.2950439453125, 284.9498291015625)"><g id="sy_4_cu_v8m3bbqzejnr-fill-merged" stroke="none" fill="#e2a3ff" fill-opacity="1"><g><path d="M19.734 113.341 H26.233 V39.858 H19.734 V113.341 M10 16.464 H35.986 V10 H10 V16.464"></path></g></g></g><g id="g-root-sy_4_cu_v8m3bbqzejnr-stroke" data-item-order="-181760" transform="translate(316.2950439453125, 284.9498291015625)"><g id="sy_4_cu_v8m3bbqzejnr-stroke" fill="none" stroke-linecap="round" stroke-linejoin="round" stroke-miterlimit="4" stroke="#ffffff" stroke-width="2" stroke-opacity="1"><g><path d="M 19.734436 113.341403L 26.232536 113.341403L 26.232536 39.857803L 19.734436 39.857803L 19.734436 113.341403ZM 10 16.4644L 35.9858 16.4644L 35.9858 10L 10 10L 10 16.4644Z"></path></g></g></g><g id="g-root-sy_3_cu_qssl6vqzekg0-fill" data-item-order="-181756" transform="translate(309.04132080078125, 283.99993896484375)"><g id="sy_3_cu_qssl6vqzekg0-fill-merged" stroke="none" fill="#cd6afb" fill-opacity="1"><g><path d="M26.988 40.808 H33.486 V32.473 H26.988 V40.808 M30.239 114.291C35.973 114.283 41.707 115.2 47.23 117.044L49.108 117.677C49.908 117.948 50.453 118.71 50.453 119.588 V137.158C50.479 142.464 49.121 146.492 46.794 150.971L46.112 152.167C46.112 152.167 45.493 152.254 45.035 152.348C42.667 152.721 40.284 153.06 38.576 153.159C37.014 153.249 34.582 152.967 32.811 152.892C31.655 152.843 30.804 152.985 29.75 152.759C28.697 152.533 27.612 152.28 26.812 152.257C25.479 152.22 23.602 152.412 21.866 152.625C19.167 152.957 17.137 153.271 14.823 153.169L13.685 150.971C11.358 146.492 10 142.464 10 137.158 V119.588C10.025 118.71 10.571 117.948 11.371 117.677L13.249 117.044C18.771 115.2 24.506 114.283 30.239 114.291"></path></g></g></g><g id="g-root-sy_3_cu_qssl6vqzekg0-stroke" data-item-order="-181756" transform="translate(309.04132080078125, 283.99993896484375)"><g id="sy_3_cu_qssl6vqzekg0-stroke" fill="none" stroke-linecap="round" stroke-linejoin="round" stroke-miterlimit="4" stroke="#ffffff" stroke-width="2" stroke-opacity="1"><g><path d="M 26.988098 40.807768L 33.486198 40.807768L 33.486198 32.473068L 26.988098 32.473068L 26.988098 40.807768ZM 17.234558 10.000061L 17.235558 19.757661C 17.478758 26.819961 23.184958 32.473061 30.236658 32.473061C 37.288358 32.473061 43.010658 26.819961 43.237658 19.757661L 43.236658 10.000061L 43.220358 10.000061M 30.2394 114.291482C 35.9727 114.283382 41.7073 115.199982 47.2297 117.044482L 49.1081 117.677082C 49.9077 117.948182 50.4535 118.709882 50.4535 119.587682L 50.4788 137.157982C 50.4788 142.463982 49.1214 146.492282 46.7942 150.971082L 46.1122 152.166782C 46.1122 152.166782 45.4925 152.254182 45.035 152.348082C 42.667 152.721382 40.2842 153.059682 38.5765 153.158782C 37.0139 153.249382 34.582 152.966782 32.8114 152.892082C 31.6551 152.843282 30.8039 152.984582 29.7502 152.758782C 28.6965 152.532982 27.6121 152.280182 26.8117 152.257482C 25.4787 152.219582 23.6022 152.412382 21.8658 152.625382C 19.1666 152.956582 17.1374 153.270782 14.8228 153.169382L 13.6847 150.971082C 11.3575 146.492282 10 142.463982 10 137.157982L 10.0254 119.587682C 10.0254 118.709882 10.5711 117.948182 11.3707 117.677082L 13.2491 117.044482C 18.7715 115.199982 24.5062 114.283382 30.2394 114.291482ZM 30.2394 114.291482L 30.2425 114.291482L 30.2363 114.291482L 30.2394 114.291482ZM 34.267988 114.557347L 34.267988 135.441747C 34.267988 137.623247 32.513588 139.396547 30.355288 139.396547C 28.197088 139.396547 26.442688 137.623247 26.442688 135.441747L 26.442688 114.557347M 34.267988 114.557347C 29.903688 114.264147 27.232688 114.435147 26.442688 114.557347"></path></g></g></g><g id="g-root-sy_2_cu_hx5kxzqzel8p-fill" data-item-order="-181751" transform="translate(30.630859375, 169.97259521484375)"></g><g id="g-root-sy_2_cu_hx5kxzqzel8p-stroke" data-item-order="-181751" transform="translate(30.630859375, 169.97259521484375)"><g id="sy_2_cu_hx5kxzqzel8p-stroke" fill="none" stroke-linecap="round" stroke-linejoin="round" stroke-miterlimit="4" stroke="#cd6afb" stroke-width="2" stroke-opacity="1"><g><path d="M 164.329785 14.041423L 166.559785 29.711423C 167.009785 32.901423 166.449785 36.141423 164.959785 38.991423C 163.439785 41.891423 163.019785 45.251423 163.799785 48.441423L 163.969785 49.141423C 164.559785 51.571423 164.719785 54.071423 164.539785 56.571423C 164.399785 58.521423 164.339785 60.481423 164.359785 62.431423C 164.389785 64.881423 164.439785 67.301423 164.509785 69.711423C 164.569785 71.661423 164.639785 73.591423 164.719785 75.521423C 164.949785 80.811423 167.009785 82.471423 167.479785 87.551423C 167.949785 92.631423 165.699785 91.271423 166.189785 96.021423C 166.919785 103.171423 167.519785 103.801423 170.149785 112.381423C 171.989785 118.381423 169.949785 122.931423 170.519785 125.911423C 171.359785 130.251423 170.989785 136.851423 171.989785 141.001423C 172.859785 144.611423 175.079785 145.801423 176.069785 149.281423C 176.869785 152.091423 180.169785 156.321423 181.039785 159.041423C 182.779785 164.451423 182.199785 168.221423 184.219785 173.251423C 185.199785 175.701423 186.219785 178.101423 187.259785 180.461423C 188.539785 183.361423 189.879785 186.181423 191.249785 188.941423C 191.979785 190.401423 192.719785 191.841423 193.479785 193.261423C 195.789785 197.611423 199.619785 198.201423 202.149785 202.191423C 203.079785 203.651423 202.629785 208.671423 203.589785 210.091423C 206.279785 214.051423 209.089785 217.821423 211.999785 221.381423C 213.439785 223.141423 217.549785 223.761423 219.039785 225.431423C 222.059785 228.811423 220.699785 233.441423 223.929785 236.421423C 225.949785 238.281423 229.849785 239.721423 231.949785 241.421423C 234.439785 243.451423 237.349785 243.721423 239.929785 245.521423C 242.369785 247.221423 244.489785 250.471423 247.019785 251.961423C 248.659785 252.931423 251.819785 255.941423 253.489785 256.821423C 257.029785 258.691423 259.129785 258.281423 262.809785 259.751423C 265.709785 260.911423 268.069785 259.861423 271.049785 260.781423C 272.839785 261.331423 275.209785 263.921423 277.019785 264.381423C 281.939785 265.631423 286.959785 266.541423 292.049785 267.111423C 296.329785 267.591423 300.659785 266.281423 305.039785 266.281423C 306.619785 266.281423 308.189785 266.991423 309.759785 266.921423C 312.509785 266.811423 315.239785 267.421423 317.949785 267.121423C 321.389785 266.741423 324.789785 266.201423 328.149785 265.511423C 331.509785 264.821423 335.069785 263.911423 338.469785 262.871423C 340.539785 262.231423 342.589785 261.541423 344.619785 260.781423C 347.339785 259.771423 348.389785 257.601423 351.039785 256.371423C 355.779785 254.181423 362.589785 254.351423 367.069785 251.481423C 368.969785 250.271423 370.279785 247.351423 372.129785 246.021423C 376.029785 243.211423 380.709785 241.481423 384.379785 238.151423C 388.049785 234.821423 390.589785 230.001423 393.959785 226.221423C 396.089785 223.831423 396.689785 216.491423 398.719785 213.901423C 401.909785 209.811423 406.439785 210.321423 409.359785 205.741423C 411.409785 202.531423 414.489785 201.441423 416.389785 197.991423C 418.289785 194.541423 418.929785 188.851423 420.639785 185.231423C 421.499785 183.411423 424.989785 181.361423 425.809785 179.481423C 428.009785 174.461423 427.429785 169.451423 429.339785 164.031423C 430.499785 160.731423 433.999785 158.861423 435.049785 155.411423C 436.459785 150.781423 435.369785 144.501423 436.569785 139.601423C 437.349785 136.391423 436.599785 132.431423 437.289785 129.121423C 438.029785 125.561423 441.759785 122.841423 442.389785 119.151423C 443.249785 114.121423 442.439785 108.761423 443.079785 103.491423C 443.479785 100.171423 441.739785 96.791423 442.059785 93.381423C 442.589785 87.641423 447.119785 84.811423 447.389785 78.811423C 447.529785 75.641423 445.599785 69.371423 445.669785 66.131423C 445.679785 65.511423 445.599785 64.931423 445.459785 64.361423C 444.289785 59.541423 444.459785 54.481423 445.459785 49.621423L 445.759785 48.151423L 447.389785 33.481423L 445.759785 21.441423L 445.759785 14.021423M 100.17 20.15L 100.17 20.19M 140.1992 64.99L 140.2292 64.99M 148.25 36.75L 148.28 36.75M 129.8203 16.25L 129.8503 16.25M 10 20.18L 10.04 20.18M 148.4609 86.2L 148.4909 86.2M 148.25 106.56L 148.28 106.56M 150 139.85L 150.04 139.85M 161 120.61L 161.03 120.61M 156.5605 54.4299L 156.5905 54.4299M 150.0195 18.95L 150.0495 18.95M 216.03 235.81L 216 235.83M 176.03 224.28L 176 224.3M 187.5105 204.59L 187.4805 204.61M 176.0105 187.78L 175.9805 187.8M 143.2097 167.56L 143.1797 167.58M 161.0495 155.3099L 161.0195 155.3299M 157.5105 183.57L 157.4805 183.59M 199.0691 235.26L 199.0391 235.28M 220.3991 254.13L 220.3691 254.15M 247.0593 265.12L 247.0293 265.14M 272.45 270.43L 272.42 270.45M 80.9004 10.03L 80.9004 10M 52.66 18.98L 52.66 18.95M 29.0391 10.4499L 29.0391 10.4199M 517.1309 20.18L 517.1309 20.14M 465.0703 73.99L 465.1003 73.99M 469.0195 36.75L 469.0495 36.75M 487.4492 16.25L 487.4792 16.25M 607.2598 20.1799L 607.2997 20.1799M 451.8008 86.2L 451.8308 86.2M 469.0195 106.5599L 469.0495 106.5599M 451.2695 139.85L 451.3095 139.85M 456.2598 120.61L 456.2898 120.61M 455.7109 54.4299L 455.7409 54.4299M 460.25 18.95L 460.28 18.95M 401.2995 235.83L 401.2695 235.81M 441.2995 224.3L 441.2695 224.28M 429.8191 204.61L 429.7891 204.59M 441.3093 187.8L 441.2793 187.78M 453.12 167.58L 453.09 167.56M 464.28 155.33L 464.25 155.31M 459.8191 183.59L 459.7891 183.57M 418.2605 235.28L 418.2305 235.26M 396.9304 254.15L 396.9004 254.13M 370.2605 265.14L 370.2305 265.12M 344.87 270.45L 344.84 270.43M 536.4004 12L 536.4004 12.03M 564.6406 18.95L 564.6406 18.9799M 588.2598 12.41L 588.2598 12.44M 501.5904 27.76L 501.5904 27.72M 545.5905 27.72L 545.5905 27.68M 581.0905 27.72L 581.0905 27.68M 119.0904 28.68L 119.0904 28.72M 70.0904 27.68L 70.0904 27.72M 38.0904 28.64L 38.0904 28.68"></path></g></g></g><g id="g-root-sy_1_Vector_hx5kxzqzel8q-fill" data-item-order="-181747" transform="translate(14, 139.12396240234375)"></g><g id="g-root-sy_1_Vector_hx5kxzqzel8q-stroke" data-item-order="-181747" transform="translate(14, 139.12396240234375)"><g id="sy_1_Vector_hx5kxzqzel8q-stroke" fill="none" stroke-linecap="round" stroke-linejoin="round" stroke-miterlimit="4" stroke="#484848" stroke-width="2" stroke-opacity="1"><g><path d="M 546.9191 34.880061C 546.9191 34.880061 547.6693 28.890061 540.1093 27.780061C 547.9993 24.530061 550.7794 29.560061 550.7794 29.560061C 550.7794 29.560061 549.8393 14.700061 560.9993 10.000061C 557.8293 13.770061 557.0793 20.520061 558.9393 26.000061C 563.3793 22.890061 569.2693 23.560061 571.2693 26.670061C 567.0493 24.440061 560.2993 28.430061 561.4093 34.880061M 180.96 34.880061C 180.96 34.880061 191.8909 34.880061 196.0009 41.110061C 188.4809 39.440061 186.0009 41.110061 186.0009 41.110061C 186.0009 41.110061 188.0009 44.780061 186.6709 49.000061C 183.3009 44.510061 180.9609 44.890061 180.9609 44.890061M 462.37 44.890061C 456.74 44.560061 453.94 46.560061 451.33 52.310061C 449.66 44.390061 456.33 40.230061 456.33 40.230061C 456.33 40.230061 450 38.440061 444 42.030061C 447.78 34.890061 455.78 34.890061 462.37 34.890061M 634 34.880061L 561.4199 34.880061L 561.4093 34.880061M 546.9191 34.880061L 462.3691 34.880061L 462.37 34.890061M 10 34.880061L 180.96 34.880061"></path></g></g></g><g id="g-root-tx_ai_dhyjwnqzeiv7-fill" data-item-order="0" transform="translate(293.71875, 38)"><g id="tx_ai_dhyjwnqzeiv7-fill-merged" stroke="none" fill="#484848" fill-opacity="1"><g><text style="font: bold 25px Roboto, sans-serif; white-space: pre;" transform="translate(42.28125, 25)" font-weight="bold" font-size="25px" font-family="Roboto, sans-serif"><tspan x="-30.28" y="14" dominant-baseline="ideographic">타이틀</tspan></text></g></g></g><g id="g-root-tx_ai_dhyjwnqzeiv7-stroke" data-item-order="0" transform="translate(293.71875, 38)"></g></g></g></svg>