<?xml version="1.0" encoding="utf-8" standalone="yes"?>
<!DOCTYPE svg PUBLIC "-//W3C//DTD SVG 1.1//EN" "http://www.w3.org/Graphics/SVG/1.1/DTD/svg11.dtd">
<svg style="fill:none;stroke:none;fill-rule:evenodd;clip-rule:evenodd;stroke-linecap:round;stroke-linejoin:round;stroke-miterlimit:1.5;" version="1.1" xmlns="http://www.w3.org/2000/svg" xmlns:xlink="http://www.w3.org/1999/xlink" width="648" height="564" viewBox="0 0 648 564"><style class="text-font-style fontImports" data-font-family="Roboto">@import url(https://fonts.googleapis.com/css2?family=Roboto:wght@400;700&amp;amp;display=block);</style><g id="items" style="isolation: isolate"><g id="blend" style="mix-blend-mode: normal"><g id="g-root-cp_-1_body_143mz7yp1oflw-fill" data-item-order="-280793" transform="translate(314, 368)"></g><g id="g-root-cp_-1_body_143mz7yp1oflw-stroke" data-item-order="-280793" transform="translate(314, 368)"><g id="cp_-1_body_143mz7yp1oflw-stroke" fill="none" stroke-linecap="round" stroke-linejoin="round" stroke-miterlimit="4" stroke="#4f3d58" stroke-width="2" stroke-dasharray="5.0, 7.0" stroke-opacity="1"><g><path d="M 10 154L 10 10"></path></g></g></g><g id="g-root-cp_-1_bg-left_v7zyz2p1ogel-fill" data-item-order="-280780" transform="translate(118.25, 189)"><g id="cp_-1_bg-left_v7zyz2p1ogel-fill-merged" stroke="none" fill="#cd6afb" fill-opacity="1"><g><path d="M249.831 146.792C250.288 148.493 249.801 150.309 248.554 151.555C247.307 152.801 245.489 153.288 243.785 152.832L205.407 142.574C203.702 142.119 202.37 140.789 201.914 139.087C201.457 137.385 201.945 135.569 203.193 134.323L209.051 128.479L178.725 98.22L158.887 118.016C156.958 119.94 153.834 119.94 151.905 118.016L100.866 67.089L79.34 88.568C77.412 90.492 74.287 90.492 72.359 88.568L11.448 27.79C10.521 26.865 10 25.61 10 24.302C10 22.994 10.521 21.739 11.448 20.814L20.839 11.443C22.767 9.519 25.892 9.519 27.82 11.443L75.85 59.368L97.376 37.889C99.304 35.965 102.429 35.965 104.357 37.889L155.396 88.816L175.235 69.021C177.163 67.097 180.288 67.097 182.216 69.021L225.428 112.138L231.291 106.289C232.538 105.044 234.356 104.558 236.06 105.014C237.764 105.47 239.094 106.799 239.551 108.5L249.831 146.792"></path></g></g></g><g id="g-root-cp_-1_bg-left_v7zyz2p1ogel-stroke" data-item-order="-280780" transform="translate(118.25, 189)"></g><g id="g-root-cp_-1_bg-right_v7zyz2p1ogem-fill" data-item-order="-280760" transform="translate(269.75, 189)"><g id="cp_-1_bg-right_v7zyz2p1ogem-fill-merged" stroke="none" fill="#cd6afb" fill-opacity="1"><g><path d="M249.831 16.208C250.288 14.507 249.801 12.691 248.554 11.445C247.307 10.199 245.489 9.712 243.785 10.168L205.407 20.426C203.702 20.881 202.37 22.211 201.914 23.913C201.457 25.615 201.945 27.431 203.193 28.677L209.051 34.521L178.725 64.78L158.887 44.984C156.958 43.06 153.834 43.06 151.905 44.984L100.866 95.911L79.34 74.432C77.412 72.508 74.287 72.508 72.359 74.432L11.448 135.21C10.521 136.135 10 137.39 10 138.698C10 140.006 10.521 141.261 11.448 142.186L20.839 151.557C22.767 153.481 25.892 153.481 27.82 151.557L75.85 103.632L97.376 125.111C99.304 127.035 102.429 127.035 104.357 125.111L155.396 74.184L175.235 93.979C177.163 95.903 180.288 95.903 182.216 93.979L225.428 50.862L231.291 56.711C232.538 57.956 234.356 58.442 236.06 57.986C237.764 57.53 239.094 56.201 239.551 54.5L249.831 16.208"></path></g></g></g><g id="g-root-cp_-1_bg-right_v7zyz2p1ogem-stroke" data-item-order="-280760" transform="translate(269.75, 189)"></g><g id="g-root-tx_ai_qssxxqp1oe13-fill" data-item-order="0" transform="translate(281.71875, 38)"><g id="tx_ai_qssxxqp1oe13-fill-merged" stroke="none" fill="#484848" fill-opacity="1"><g><text style="font: bold 25px Roboto, sans-serif; white-space: pre;" transform="translate(42.28125, 25)" font-weight="bold" font-size="25px" font-family="Roboto, sans-serif"><tspan x="-30.28" y="14" dominant-baseline="ideographic">타이틀</tspan></text></g></g></g><g id="g-root-tx_ai_qssxxqp1oe13-stroke" data-item-order="0" transform="translate(281.71875, 38)"></g><g id="g-root-ic_chat_18lbwlqp1odu3-fill" data-item-order="0" transform="translate(142.25, 164.25)"></g><g id="g-root-ic_chat_18lbwlqp1odu3-stroke" data-item-order="0" transform="translate(142.25, 164.25)"><g id="ic_chat_18lbwlqp1odu3-stroke" fill="none" stroke-linecap="round" stroke-linejoin="round" stroke-miterlimit="4" stroke="#4f3d58" stroke-width="2" stroke-opacity="1"><g><path d="M 24 72C 24.000002 86.359406 35.640598 98 50 98C 64.359406 98 76 86.359406 76 72C 76 57.640598 64.359406 46.000004 50 46.000004C 35.640598 46.000004 24.000002 57.640598 24.000002 72ZM 65.199997 198L 70 174L 86 174L 86 146C 86 126.117752 69.882248 110 50 110C 30.11775 110 14 126.117752 14 146L 14 174L 30 174L 34.799999 198M 198 86C 198 90.418282 194.418274 94 190 94L 146 94L 118 118L 118 94L 110 94C 105.581718 94 102 90.418282 102 86L 102 22C 102 17.581722 105.581718 14 110 14L 190 14C 194.418274 14 198 17.581722 198 22ZM 24 72C 24.000002 86.359406 35.640598 98 50 98C 64.359406 98 76 86.359406 76 72C 76 57.640598 64.359406 46.000004 50 46.000004C 35.640598 46.000004 24.000002 57.640598 24.000002 72ZM 65.199997 198L 70 174L 86 174L 86 146C 86 126.117752 69.882248 110 50 110C 30.11775 110 14 126.117752 14 146L 14 174L 30 174L 34.799999 198M 126 34L 142 50L 126 66M 150 62L 182 62"></path></g></g></g><g id="g-root-ic_code_1qbzg0ep1pssk-fill" data-item-order="0" transform="translate(293.75, 164.25)"></g><g id="g-root-ic_code_1qbzg0ep1pssk-stroke" data-item-order="0" transform="translate(293.75, 164.25)"><g id="ic_code_1qbzg0ep1pssk-stroke" fill="none" stroke-linecap="round" stroke-linejoin="round" stroke-miterlimit="4" stroke="#4f3d58" stroke-width="2" stroke-opacity="1"><g><path d="M 110.287987 189.431976C 110.283569 194.165237 106.445259 197.999969 101.71199 197.999969L 24.567997 197.999969C 19.837851 197.99556 16.00441 194.162125 15.999999 189.431976L 15.999999 167.999969C 16 141.963058 37.107086 120.85598 63.143993 120.85598C 89.180901 120.85598 110.287987 141.963058 110.287987 167.999969ZM 45.143993 149.999969C 45.143993 151.104538 46.039421 151.999969 47.143993 151.999969C 48.248562 151.999969 49.143993 151.104538 49.143993 149.999969C 49.143993 148.895401 48.248562 147.999969 47.143993 147.999969C 46.039421 147.999969 45.143993 148.895401 45.143993 149.999969M 77.143982 149.951965C 77.143982 151.056534 78.039413 151.951965 79.143982 151.951965C 80.248558 151.951965 81.143982 151.056534 81.143982 149.951965C 81.143982 148.847397 80.248558 147.951965 79.143982 147.951965C 78.039413 147.951965 77.143982 148.847397 77.143982 149.951965M 63.143993 120.85598L 63.143993 103.711983M 50.287991 90.855988C 50.287994 97.956161 56.043819 103.71199 63.143993 103.71199C 70.244164 103.71199 75.999985 97.956161 75.999985 90.855988C 75.999985 83.755814 70.244164 77.999985 63.143993 77.999985C 56.043819 77.999985 50.287994 83.755814 50.287994 90.855988M 15.999999 176.519974L 110.287987 176.519974M 163.999969 17.999998L 195.999969 49.999992L 163.999969 81.999985M 99.999985 17.999998L 67.999992 49.999992L 99.999985 81.999985M 139.999969 13.999999L 123.999977 85.999985"></path></g></g></g><g id="g-root-tx_92_dhcfkep1ofm0-fill" data-item-order="0" transform="translate(198.5, 380)"><g id="tx_92_dhcfkep1ofm0-fill-merged" stroke="none" fill="#484848" fill-opacity="1"><g><text style="font: bold 40px Roboto, sans-serif; white-space: pre;" transform="translate(49.75, 34)" font-weight="bold" font-size="40px" font-family="Roboto, sans-serif"><tspan x="-37.75" y="23" dominant-baseline="ideographic">92%</tspan></text></g></g></g><g id="g-root-tx_92_dhcfkep1ofm0-stroke" data-item-order="0" transform="translate(198.5, 380)"></g><g id="g-root-tx_41_hx5xoup1pszl-fill" data-item-order="0" transform="translate(350, 380)"><g id="tx_41_hx5xoup1pszl-fill-merged" stroke="none" fill="#484848" fill-opacity="1"><g><text style="font: bold 40px Roboto, sans-serif; white-space: pre;" transform="translate(49.75, 34)" font-weight="bold" font-size="40px" font-family="Roboto, sans-serif"><tspan x="-37.75" y="23" dominant-baseline="ideographic">41%</tspan></text></g></g></g><g id="g-root-tx_41_hx5xoup1pszl-stroke" data-item-order="0" transform="translate(350, 380)"></g><g id="g-root-tx__6iea6p1oe15-fill" data-item-order="0" transform="translate(213.0078125, 452)"><g id="tx__6iea6p1oe15-fill-merged" stroke="none" fill="#484848" fill-opacity="1"><g><text style="font: bold 20px Roboto, sans-serif; white-space: pre;" transform="translate(35.2421875, 22)" font-weight="bold" font-size="20px" font-family="Roboto, sans-serif"><tspan x="-23.24" y="12" dominant-baseline="ideographic">제목1</tspan></text></g></g></g><g id="g-root-tx__6iea6p1oe15-stroke" data-item-order="0" transform="translate(213.0078125, 452)"></g><g id="g-root-tx__4lpfbip1puki-fill" data-item-order="0" transform="translate(364.5078125, 452)"><g id="tx__4lpfbip1puki-fill-merged" stroke="none" fill="#484848" fill-opacity="1"><g><text style="font: bold 20px Roboto, sans-serif; white-space: pre;" transform="translate(35.2421875, 22)" font-weight="bold" font-size="20px" font-family="Roboto, sans-serif"><tspan x="-23.24" y="12" dominant-baseline="ideographic">제목2</tspan></text></g></g></g><g id="g-root-tx__4lpfbip1puki-stroke" data-item-order="0" transform="translate(364.5078125, 452)"></g><g id="g-root-tx_ai_1lw5xvyp1ofey-fill" data-item-order="0" transform="translate(223.5625, 488)"><g id="tx_ai_1lw5xvyp1ofey-fill-merged" stroke="none" fill="#484848" fill-opacity="1"><g><text style="font: 15px Roboto, sans-serif; white-space: pre;" transform="translate(24.6875, 19)" font-size="15px" font-family="Roboto, sans-serif"><tspan x="-12.69" y="9" dominant-baseline="ideographic">내용</tspan></text></g></g></g><g id="g-root-tx_ai_1lw5xvyp1ofey-stroke" data-item-order="0" transform="translate(223.5625, 488)"></g><g id="g-root-tx_ai_1ur6h1qp1pv63-fill" data-item-order="0" transform="translate(375.0625, 488)"><g id="tx_ai_1ur6h1qp1pv63-fill-merged" stroke="none" fill="#484848" fill-opacity="1"><g><text style="font: 15px Roboto, sans-serif; white-space: pre;" transform="translate(24.6875, 19)" font-size="15px" font-family="Roboto, sans-serif"><tspan x="-12.69" y="9" dominant-baseline="ideographic">내용</tspan></text></g></g></g><g id="g-root-tx_ai_1ur6h1qp1pv63-stroke" data-item-order="0" transform="translate(375.0625, 488)"></g></g></g></svg>