<?xml version="1.0" encoding="utf-8" standalone="yes"?>
<!DOCTYPE svg PUBLIC "-//W3C//DTD SVG 1.1//EN" "http://www.w3.org/Graphics/SVG/1.1/DTD/svg11.dtd">
<svg style="fill:none;stroke:none;fill-rule:evenodd;clip-rule:evenodd;stroke-linecap:round;stroke-linejoin:round;stroke-miterlimit:1.5;" version="1.1" xmlns="http://www.w3.org/2000/svg" xmlns:xlink="http://www.w3.org/1999/xlink" width="770" height="528" viewBox="0 0 770 528"><style class="text-font-style fontImports" data-font-family="Roboto">@import url(https://fonts.googleapis.com/css2?family=Roboto:wght@400;700&amp;amp;display=block);</style><g id="items" style="isolation: isolate"><g id="blend" style="mix-blend-mode: normal"><g id="g-root-cp_0_g-0_mb34ufubb4lc-fill" data-item-order="-363997" transform="translate(207, 134)"></g><g id="g-root-cp_0_g-0_mb34ufubb4lc-stroke" data-item-order="-363997" transform="translate(207, 134)"><g id="cp_0_g-0_mb34ufubb4lc-stroke" fill="none" stroke-linecap="round" stroke-linejoin="round" stroke-miterlimit="4" stroke="#484848" stroke-width="2" stroke-opacity="1"><g><path d="M 178 10L 178 346M 10 177.9999L 346 178"></path></g></g></g><g id="g-root-cp_1_g-1_dg2lonubb289-fill" data-item-order="-363994" transform="translate(207, 134)"><g id="cp_1_g-1_dg2lonubb289-fill-merged" stroke="none" fill="#a455c9" fill-opacity="1"><g><path d="M141.78 122.142C149.497 110.673 154 96.862 154 82C154 42.236 121.765 10 82 10C42.236 10 10 42.236 10 82C10 121.765 42.236 154 82 154C96.301 154 109.628 149.831 120.832 142.641L154 154L141.78 122.142"></path></g></g></g><g id="g-root-cp_1_g-1_dg2lonubb289-stroke" data-item-order="-363994" transform="translate(207, 134)"><g id="cp_1_g-1_dg2lonubb289-stroke" fill="none" stroke-linecap="round" stroke-linejoin="round" stroke-miterlimit="4" stroke="#ffffff" stroke-width="2" stroke-opacity="1"><g><path d="M 141.7804 122.1418C 149.4968 110.673 154 96.8624 154 82C 154 42.2355 121.7645 10 82 10C 42.2355 10 10 42.2355 10 82C 10 121.7645 42.2355 154 82 154C 96.3009 154 109.628 149.8306 120.8321 142.6411L 154 154L 141.7804 122.1418Z"></path></g></g></g><g id="g-root-cp_3_g-3_dg2lonubb28a-fill" data-item-order="-363990" transform="translate(207, 326)"><g id="cp_3_g-3_dg2lonubb28a-fill-merged" stroke="none" fill="#cd6afb" fill-opacity="1"><g><path d="M141.78 41.858C149.497 53.327 154 67.138 154 82C154 121.765 121.765 154 82 154C42.236 154 10 121.765 10 82C10 42.236 42.236 10 82 10C96.301 10 109.628 14.169 120.832 21.359L154 10L141.78 41.858"></path></g></g></g><g id="g-root-cp_3_g-3_dg2lonubb28a-stroke" data-item-order="-363990" transform="translate(207, 326)"><g id="cp_3_g-3_dg2lonubb28a-stroke" fill="none" stroke-linecap="round" stroke-linejoin="round" stroke-miterlimit="4" stroke="#ffffff" stroke-width="2" stroke-opacity="1"><g><path d="M 141.7804 41.8582C 149.4968 53.327 154 67.1376 154 82C 154 121.7645 121.7645 154 82 154C 42.2355 154 10 121.7645 10 82C 10 42.2355 42.2355 10 82 10C 96.3009 10 109.628 14.1694 120.8321 21.3589L 154 10L 141.7804 41.8582Z"></path></g></g></g><g id="g-root-cp_2_g-2_9093k7ubb30j-fill" data-item-order="-363986" transform="translate(399, 134)"><g id="cp_2_g-2_9093k7ubb30j-fill-merged" stroke="none" fill="#ba5de5" fill-opacity="1"><g><path d="M22.22 122.142C14.503 110.673 10 96.862 10 82C10 42.236 42.236 10 82 10C121.765 10 154 42.236 154 82C154 121.765 121.765 154 82 154C67.699 154 54.372 149.831 43.168 142.641L10 154L22.22 122.142"></path></g></g></g><g id="g-root-cp_2_g-2_9093k7ubb30j-stroke" data-item-order="-363986" transform="translate(399, 134)"><g id="cp_2_g-2_9093k7ubb30j-stroke" fill="none" stroke-linecap="round" stroke-linejoin="round" stroke-miterlimit="4" stroke="#ffffff" stroke-width="2" stroke-opacity="1"><g><path d="M 22.2196 122.1418C 14.5032 110.673 10 96.8624 10 82C 10 42.2355 42.2355 10 82 10C 121.7645 10 154 42.2355 154 82C 154 121.7645 121.7645 154 82 154C 67.6991 154 54.372 149.8306 43.1679 142.6411L 10 154L 22.2196 122.1418Z"></path></g></g></g><g id="g-root-cp_4_g-4_9093k7ubb30k-fill" data-item-order="-363982" transform="translate(399, 326)"><g id="cp_4_g-4_9093k7ubb30k-fill-merged" stroke="none" fill="#e2a3ff" fill-opacity="1"><g><path d="M22.22 41.858C14.503 53.327 10 67.138 10 82C10 121.765 42.236 154 82 154C121.765 154 154 121.765 154 82C154 42.236 121.765 10 82 10C67.699 10 54.372 14.169 43.168 21.359L10 10L22.22 41.858"></path></g></g></g><g id="g-root-cp_4_g-4_9093k7ubb30k-stroke" data-item-order="-363982" transform="translate(399, 326)"><g id="cp_4_g-4_9093k7ubb30k-stroke" fill="none" stroke-linecap="round" stroke-linejoin="round" stroke-miterlimit="4" stroke="#ffffff" stroke-width="2" stroke-opacity="1"><g><path d="M 22.2196 41.8582C 14.5032 53.327 10 67.1376 10 82C 10 121.7645 42.2355 154 82 154C 121.7645 154 154 121.7645 154 82C 154 42.2355 121.7645 10 82 10C 67.6991 10 54.372 14.1694 43.1679 21.3589L 10 10L 22.2196 41.8582Z"></path></g></g></g><g id="g-root-tx_revealss_1uuwfuvubfabr-fill" data-item-order="0" transform="translate(591, 434)"><g id="tx_revealss_1uuwfuvubfabr-fill-merged" stroke="none" fill="#484848" fill-opacity="1"><g><text style="font: 15px Roboto, sans-serif; white-space: pre;" transform="translate(10, 19)" font-size="15px" font-family="Roboto, sans-serif"><tspan x="2" y="9" dominant-baseline="ideographic">내용</tspan></text></g></g></g><g id="g-root-tx_revealss_1uuwfuvubfabr-stroke" data-item-order="0" transform="translate(591, 434)"></g><g id="g-root-ic_brow_vbpxs7ubci6a-fill" data-item-order="0" transform="translate(435, 170)"></g><g id="g-root-ic_brow_vbpxs7ubci6a-stroke" data-item-order="0" transform="translate(435, 170)"><g id="ic_brow_vbpxs7ubci6a-stroke" fill="none" stroke-linecap="round" stroke-linejoin="round" stroke-miterlimit="4" stroke="#ffffff" stroke-width="2" stroke-opacity="1"><g><path d="M 70.377998 40.417L 80.5 50.5M 41.5 29.5C 41.5 38.612698 48.887306 46 58 46C 67.112701 46 74.5 38.612698 74.5 29.5C 74.5 20.387302 67.112701 13.000001 58 13.000001C 48.887306 13.000001 41.5 20.387302 41.5 29.5ZM 11.5 42.996998L 40 42.996998M 71.5 49L 71.5 73C 71.5 76.313713 68.813713 79 65.5 79L 17.5 79C 14.186292 79 11.5 76.313713 11.5 73L 11.5 37C 11.5 33.686291 14.186292 31 17.5 31L 35.5 31M 50.5 55L 56.5 61L 50.5 67M 32.5 55L 26.5 61L 32.5 67M 44.5 55L 38.5 67"></path></g></g></g><g id="g-root-tx_2_924itjubb20z-fill" data-item-order="0" transform="translate(591, 140)"><g id="tx_2_924itjubb20z-fill-merged" stroke="none" fill="#484848" fill-opacity="1"><g><text style="font: bold 30px Roboto, sans-serif; white-space: pre;" transform="translate(20.609375, 28)" font-weight="bold" font-size="30px" font-family="Roboto, sans-serif"><tspan x="-8.61" y="17" dominant-baseline="ideographic">2</tspan></text></g></g></g><g id="g-root-tx_2_924itjubb20z-stroke" data-item-order="0" transform="translate(591, 140)"></g><g id="g-root-tx_broadins_1luw407ubb21a-fill" data-item-order="0" transform="translate(120, 200)"><g id="tx_broadins_1luw407ubb21a-fill-merged" stroke="none" fill="#484848" fill-opacity="1"><g><text style="font: bold 20px Roboto, sans-serif; white-space: pre;" transform="translate(49, 22)" font-weight="bold" font-size="20px" font-family="Roboto, sans-serif"><tspan x="-37" y="12" dominant-baseline="ideographic">제목</tspan></text></g></g></g><g id="g-root-tx_broadins_1luw407ubb21a-stroke" data-item-order="0" transform="translate(120, 200)"></g><g id="g-root-tx_fulldisc_qss287ubb2tl-fill" data-item-order="0" transform="translate(591, 200)"><g id="tx_fulldisc_qss287ubb2tl-fill-merged" stroke="none" fill="#484848" fill-opacity="1"><g><text style="font: bold 20px Roboto, sans-serif; white-space: pre;" transform="translate(10, 22)" font-weight="bold" font-size="20px" font-family="Roboto, sans-serif"><tspan x="2" y="12" dominant-baseline="ideographic">제목</tspan></text></g></g></g><g id="g-root-tx_fulldisc_qss287ubb2tl-stroke" data-item-order="0" transform="translate(591, 200)"></g><g id="g-root-tx_revealse_1hf2lvrubb2tj-fill" data-item-order="0" transform="translate(129.625, 236)"><g id="tx_revealse_1hf2lvrubb2tj-fill-merged" stroke="none" fill="#484848" fill-opacity="1"><g><text style="font: 15px Roboto, sans-serif; white-space: pre;" transform="translate(39.375, 19)" font-size="15px" font-family="Roboto, sans-serif"><tspan x="-27.38" y="9" dominant-baseline="ideographic">내용</tspan></text></g></g></g><g id="g-root-tx_revealse_1hf2lvrubb2tj-stroke" data-item-order="0" transform="translate(129.625, 236)"></g><g id="g-root-tx_exposesc_dhbjuvubb4ei-fill" data-item-order="0" transform="translate(591, 236)"><g id="tx_exposesc_dhbjuvubb4ei-fill-merged" stroke="none" fill="#484848" fill-opacity="1"><g><text style="font: 15px Roboto, sans-serif; white-space: pre;" transform="translate(10, 19)" font-size="15px" font-family="Roboto, sans-serif"><tspan x="2" y="9" dominant-baseline="ideographic">내용</tspan></text></g></g></g><g id="g-root-tx_exposesc_dhbjuvubb4ei-stroke" data-item-order="0" transform="translate(591, 236)"></g><g id="g-root-tx_1_143m3ifubb4eg-fill" data-item-order="0" transform="translate(111, 140)"><g id="tx_1_143m3ifubb4eg-fill-merged" stroke="none" fill="#484848" fill-opacity="1"><g><text style="font: bold 30px Roboto, sans-serif; white-space: pre;" transform="translate(20.609375, 28)" font-weight="bold" font-size="30px" font-family="Roboto, sans-serif"><tspan x="-8.61" y="17" dominant-baseline="ideographic">1</tspan></text></g></g></g><g id="g-root-tx_1_143m3ifubb4eg-stroke" data-item-order="0" transform="translate(111, 140)"></g><g id="g-root-tx_analyzel_4m3bbubb3t9-fill" data-item-order="0" transform="translate(342.71875, 38)"><g id="tx_analyzel_4m3bbubb3t9-fill-merged" stroke="none" fill="#484848" fill-opacity="1"><g><text style="font: bold 25px Roboto, sans-serif; white-space: pre;" transform="translate(42.28125, 25)" font-weight="bold" font-size="25px" font-family="Roboto, sans-serif"><tspan x="-30.28" y="14" dominant-baseline="ideographic">타이틀</tspan></text></g></g></g><g id="g-root-tx_analyzel_4m3bbubb3t9-stroke" data-item-order="0" transform="translate(342.71875, 38)"></g><g id="g-root-tx_3_dkfxafubfbbh-fill" data-item-order="0" transform="translate(111, 338)"><g id="tx_3_dkfxafubfbbh-fill-merged" stroke="none" fill="#484848" fill-opacity="1"><g><text style="font: bold 30px Roboto, sans-serif; white-space: pre;" transform="translate(20.609375, 28)" font-weight="bold" font-size="30px" font-family="Roboto, sans-serif"><tspan x="-8.61" y="17" dominant-baseline="ideographic">3</tspan></text></g></g></g><g id="g-root-tx_3_dkfxafubfbbh-stroke" data-item-order="0" transform="translate(111, 338)"></g><g id="g-root-ic_1_1qdtzk7ubdurx-fill" data-item-order="0" transform="translate(243, 362)"></g><g id="g-root-ic_1_1qdtzk7ubdurx-stroke" data-item-order="0" transform="translate(243, 362)"><g id="ic_1_1qdtzk7ubdurx-stroke" fill="none" stroke-linecap="round" stroke-linejoin="round" stroke-miterlimit="4" stroke="#ffffff" stroke-width="2" stroke-opacity="1"><g><path d="M 17.5 11.5L 74.5 11.5C 74.5 11.5 80.5 11.5 80.5 17.5L 80.5 74.5C 80.5 74.5 80.5 80.5 74.5 80.5L 17.5 80.5C 17.5 80.5 11.5 80.5 11.5 74.5L 11.5 17.5C 11.5 17.5 11.5 11.5 17.5 11.5M 37 68.5C 37.414215 68.5 37.75 68.835785 37.75 69.25C 37.75 69.664215 37.414215 70 37 70C 36.585785 70 36.25 69.664215 36.25 69.25C 36.25 68.835785 36.585785 68.5 37 68.5M 46 68.5C 46.414215 68.5 46.75 68.835785 46.75 69.25C 46.75 69.664215 46.414215 70 46 70C 45.585785 70 45.25 69.664215 45.25 69.25C 45.25 68.835785 45.585785 68.5 46 68.5M 55 68.5C 55.414215 68.5 55.75 68.835785 55.75 69.25C 55.75 69.664215 55.414215 70 55 70C 54.585785 70 54.25 69.664215 54.25 69.25C 54.25 68.835785 54.585785 68.5 55 68.5M 25.045 35.5L 19.045 41.5L 25.045 47.5M 67.044998 35.5L 73.044998 41.5L 67.044998 47.5"></path></g></g></g><g id="g-root-ic_1_1hpvrubf9xd-fill" data-item-order="0" transform="translate(435, 362)"></g><g id="g-root-ic_1_1hpvrubf9xd-stroke" data-item-order="0" transform="translate(435, 362)"><g id="ic_1_1hpvrubf9xd-stroke" fill="none" stroke-linecap="round" stroke-linejoin="round" stroke-miterlimit="4" stroke="#ffffff" stroke-width="2" stroke-opacity="1"><g><path d="M 44.625999 80.5L 14.626 80.5C 12.969146 80.5 11.626 79.156853 11.626 77.5L 11.626 14.5C 11.626 12.843145 12.969146 11.5 14.626 11.5L 54.505001 11.5C 55.303612 11.505725 56.066978 11.829642 56.625999 12.4L 67.747002 23.5C 68.309647 24.062479 68.625824 24.825417 68.625999 25.620998L 68.625999 35.5M 29.625999 31.012001L 20.625999 40.012001L 29.625999 49.012001M 38.625999 31.012001L 47.625999 40.012001L 38.625999 49.012001M 56.625999 56.512001L 77.625999 56.512001C 77.625999 56.512001 80.625999 56.512001 80.625999 59.512001L 80.625999 77.509003C 80.625999 77.509003 80.625999 80.509003 77.625999 80.509003L 56.625999 80.509003C 56.625999 80.509003 53.625999 80.509003 53.625999 77.509003L 53.625999 59.512001C 53.625999 59.512001 53.625999 56.512001 56.625999 56.512001M 63.375999 68.700996C 63.375999 70.772072 65.054932 72.450996 67.125999 72.450996C 69.197067 72.450996 70.875999 70.772072 70.875999 68.700996C 70.875999 66.629929 69.197067 64.950996 67.125999 64.950996C 65.054932 64.950996 63.375999 66.629929 63.375999 68.700996M 74.625999 52C 74.625999 47.857864 71.268135 44.5 67.125999 44.5C 62.983868 44.5 59.625999 47.857864 59.625999 52L 59.625999 56.5L 74.625999 56.5Z"></path></g></g></g><g id="g-root-tx_4_1qf2xqfubfb40-fill" data-item-order="0" transform="translate(591, 338)"><g id="tx_4_1qf2xqfubfb40-fill-merged" stroke="none" fill="#484848" fill-opacity="1"><g><text style="font: bold 30px Roboto, sans-serif; white-space: pre;" transform="translate(20.609375, 28)" font-weight="bold" font-size="30px" font-family="Roboto, sans-serif"><tspan x="-8.61" y="17" dominant-baseline="ideographic">4</tspan></text></g></g></g><g id="g-root-tx_4_1qf2xqfubfb40-stroke" data-item-order="0" transform="translate(591, 338)"></g><g id="g-root-tx_minordet_1d2dh6vubfair-fill" data-item-order="0" transform="translate(120, 398)"><g id="tx_minordet_1d2dh6vubfair-fill-merged" stroke="none" fill="#484848" fill-opacity="1"><g><text style="font: bold 20px Roboto, sans-serif; white-space: pre;" transform="translate(49, 22)" font-weight="bold" font-size="20px" font-family="Roboto, sans-serif"><tspan x="-37" y="12" dominant-baseline="ideographic">제목</tspan></text></g></g></g><g id="g-root-tx_minordet_1d2dh6vubfair-stroke" data-item-order="0" transform="translate(120, 398)"></g><g id="g-root-tx_limitede_94mf5zubfc3q-fill" data-item-order="0" transform="translate(591, 398)"><g id="tx_limitede_94mf5zubfc3q-fill-merged" stroke="none" fill="#484848" fill-opacity="1"><g><text style="font: bold 20px Roboto, sans-serif; white-space: pre;" transform="translate(10, 22)" font-weight="bold" font-size="20px" font-family="Roboto, sans-serif"><tspan x="2" y="12" dominant-baseline="ideographic">제목</tspan></text></g></g></g><g id="g-root-tx_limitede_94mf5zubfc3q-stroke" data-item-order="0" transform="translate(591, 398)"></g><g id="g-root-tx_contains_qvwfnrubf9qk-fill" data-item-order="0" transform="translate(129.625, 434)"><g id="tx_contains_qvwfnrubf9qk-fill-merged" stroke="none" fill="#484848" fill-opacity="1"><g><text style="font: 15px Roboto, sans-serif; white-space: pre;" transform="translate(39.375, 19)" font-size="15px" font-family="Roboto, sans-serif"><tspan x="-27.38" y="9" dominant-baseline="ideographic">내용</tspan></text></g></g></g><g id="g-root-tx_contains_qvwfnrubf9qk-stroke" data-item-order="0" transform="translate(129.625, 434)"></g><g id="g-root-ic_1_1urs2fbubb3es-fill" data-item-order="0" transform="translate(243, 170)"></g><g id="g-root-ic_1_1urs2fbubb3es-stroke" data-item-order="0" transform="translate(243, 170)"><g id="ic_1_1urs2fbubb3es-stroke" fill="none" stroke-linecap="round" stroke-linejoin="round" stroke-miterlimit="4" stroke="#ffffff" stroke-width="2" stroke-opacity="1"><g><path d="M 44.625999 80.5L 14.626 80.5C 12.969146 80.5 11.626 79.156853 11.626 77.5L 11.626 14.5C 11.626 12.843145 12.969146 11.5 14.626 11.5L 54.505001 11.5C 55.303612 11.505725 56.066978 11.829642 56.625999 12.4L 67.747002 23.5C 68.309647 24.062479 68.625824 24.825417 68.625999 25.620998L 68.625999 38.5M 29.625999 31.012001L 20.625999 40.012001L 29.625999 49.012001M 38.625999 31.012001L 47.625999 40.012001L 38.625999 49.012001M 47.625999 61.099003C 47.625999 68.60289 53.709106 74.686005 61.212997 74.686005C 68.716888 74.686005 74.799995 68.60289 74.799995 61.098999C 74.799995 53.595108 68.716888 47.512001 61.212997 47.512001C 53.709106 47.512001 47.625999 53.595108 47.625999 61.098999ZM 80.625999 80.512001L 70.882004 70.768005"></path></g></g></g></g></g></svg>