<?xml version="1.0" encoding="utf-8" standalone="yes"?>
<!DOCTYPE svg PUBLIC "-//W3C//DTD SVG 1.1//EN" "http://www.w3.org/Graphics/SVG/1.1/DTD/svg11.dtd">
<svg style="fill:none;stroke:none;fill-rule:evenodd;clip-rule:evenodd;stroke-linecap:round;stroke-linejoin:round;stroke-miterlimit:1.5;" version="1.1" xmlns="http://www.w3.org/2000/svg" xmlns:xlink="http://www.w3.org/1999/xlink" width="458" height="354" viewBox="0 0 458 354"><style class="text-font-style fontImports" data-font-family="Roboto">@import url(https://fonts.googleapis.com/css2?family=Roboto:wght@400;700&amp;amp;display=block);</style><g id="items" style="isolation: isolate"><g id="blend" style="mix-blend-mode: normal"><g id="g-root-cp_1_bubble-1_dg2ydjsdche2-fill" data-item-order="-134052" transform="translate(15, 115.99993896484375)"><g id="cp_1_bubble-1_dg2ydjsdche2-fill-merged" stroke="none" fill="#ba5de5" fill-opacity="1"><g><path d="M178 142 V130 H118L108.828 139.172C107.266 140.734 104.734 140.734 103.172 139.172L94 130 H34C27.373 130 22 124.627 22 118 V34C22 27.373 27.373 22 34 22 H178C184.627 22 190 27.373 190 34 V118C190 124.627 184.627 130 178 130 V142 H202 V34C202 20.745 191.255 10 178 10 H34C20.745 10 10 20.745 10 34 V142 H178"></path></g></g></g><g id="g-root-cp_1_bubble-1_dg2ydjsdche2-stroke" data-item-order="-134052" transform="translate(15, 115.99993896484375)"><g id="cp_1_bubble-1_dg2ydjsdche2-stroke" fill="none" stroke-linecap="round" stroke-linejoin="round" stroke-miterlimit="4" stroke="#ffffff" stroke-width="2" stroke-opacity="1"><g><path d="M 10 34C 10 20.7452 20.7452 10 34 10M 178 10L 34 10M 202 34C 202 20.7452 191.2548 10 178 10M 202 142L 202 34M 10 142L 10 34M 22 34C 22.000001 27.3726 27.3726 21.999999 34 22M 178 22L 34 22M 190 34C 190 27.3726 184.6274 22.000001 178 22M 190 117.9998L 190 34M 178 130C 184.6274 130 190 124.6274 190 118M 34 130L 94 130L 103.1716 139.1716C 104.7337 140.7337 107.2663 140.7337 108.8284 139.1716L 118 130L 178 130M 34 130C 27.3726 130 22 124.6274 22 118M 22 117.9998L 22 34"></path></g></g></g><g id="g-root-cp_2_bubble-2_909g93sdci6b-fill" data-item-order="-134002" transform="translate(231, 115.99993896484375)"><g id="cp_2_bubble-2_909g93sdci6b-fill-merged" stroke="none" fill="#e2a3ff" fill-opacity="1"><g><path d="M178 142 V130 H118L108.828 139.172C107.266 140.734 104.734 140.734 103.172 139.172L94 130 H34C27.373 130 22 124.627 22 118 V34C22 27.373 27.373 22 34 22 H178C184.627 22 190 27.373 190 34 V118C190 124.627 184.627 130 178 130 V142 H202 V34C202 20.745 191.255 10 178 10 H34C20.745 10 10 20.745 10 34 V142 H178"></path></g></g></g><g id="g-root-cp_2_bubble-2_909g93sdci6b-stroke" data-item-order="-134002" transform="translate(231, 115.99993896484375)"><g id="cp_2_bubble-2_909g93sdci6b-stroke" fill="none" stroke-linecap="round" stroke-linejoin="round" stroke-miterlimit="4" stroke="#ffffff" stroke-width="2" stroke-opacity="1"><g><path d="M 10 34C 10 20.7452 20.7452 10 34 10M 178 10L 34 10M 202 34C 202 20.7452 191.2548 10 178 10M 202 142L 202 34M 10 142L 10 34M 22 34C 22.000001 27.3726 27.3726 21.999999 34 22M 178 22L 34 22M 190 34C 190 27.3726 184.6274 22.000001 178 22M 190 117.9998L 190 34M 178 130C 184.6274 130 190 124.6274 190 118M 34 130L 94 130L 103.1716 139.1716C 104.7337 140.7337 107.2663 140.7337 108.8284 139.1716L 118 130L 178 130M 34 130C 27.3726 130 22 124.6274 22 118M 22 117.9998L 22 34"></path></g></g></g><g id="g-root-cp_1_bubble-1_1_4mg07sdciz0-fill" data-item-order="-133948" transform="translate(15, 247.99993896484375)"><g id="cp_1_bubble-1_1_4mg07sdciz0-fill-merged" stroke="none" fill="#ba5de5" fill-opacity="1"><g><path d="M178 70 H34C20.745 70 10 59.255 10 46 V10 H202 V46C202 59.255 191.255 70 178 70"></path></g></g></g><g id="g-root-cp_1_bubble-1_1_4mg07sdciz0-stroke" data-item-order="-133948" transform="translate(15, 247.99993896484375)"><g id="cp_1_bubble-1_1_4mg07sdciz0-stroke" fill="none" stroke-linecap="round" stroke-linejoin="round" stroke-miterlimit="4" stroke="#ffffff" stroke-width="2" stroke-opacity="1"><g><path d="M 202 46L 202 10M 178 70C 191.2548 70 202 59.2548 202 46M 34 70L 94 70L 118 70L 178 70M 34 70C 20.7452 70 10 59.2548 10 46M 10 46L 10 10"></path></g></g></g><g id="g-root-cp_2_bubble-2_1_1upwzuvsdcjk5-fill" data-item-order="-133924" transform="translate(231, 247.99993896484375)"><g id="cp_2_bubble-2_1_1upwzuvsdcjk5-fill-merged" stroke="none" fill="#e2a3ff" fill-opacity="1"><g><path d="M178 70 H34C20.745 70 10 59.255 10 46 V10 H202 V46C202 59.255 191.255 70 178 70"></path></g></g></g><g id="g-root-cp_2_bubble-2_1_1upwzuvsdcjk5-stroke" data-item-order="-133924" transform="translate(231, 247.99993896484375)"><g id="cp_2_bubble-2_1_1upwzuvsdcjk5-stroke" fill="none" stroke-linecap="round" stroke-linejoin="round" stroke-miterlimit="4" stroke="#ffffff" stroke-width="2" stroke-opacity="1"><g><path d="M 202 46L 202 10M 178 70C 191.2548 70 202 59.2548 202 46M 34 70L 94 70L 118 70L 178 70M 34 70C 20.7452 70 10 59.2548 10 46M 10 46L 10 10"></path></g></g></g><g id="g-root-tx__1upwzuvsdcjk6-fill" data-item-order="0" transform="translate(186.71875, 37.99993896484375)"><g id="tx__1upwzuvsdcjk6-fill-merged" stroke="none" fill="#484848" fill-opacity="1"><g><text style="font: bold 25px Roboto, sans-serif; white-space: pre;" transform="translate(42.28125, 25)" font-weight="bold" font-size="25px" font-family="Roboto, sans-serif"><tspan x="-30.28" y="14" dominant-baseline="ideographic">타이틀</tspan></text></g></g></g><g id="g-root-tx__1upwzuvsdcjk6-stroke" data-item-order="0" transform="translate(186.71875, 37.99993896484375)"></g><g id="g-root-ic_squa_qssex3sdchzb-fill" data-item-order="0" transform="translate(87, 139.99993896484375)"></g><g id="g-root-ic_squa_qssex3sdchzb-stroke" data-item-order="0" transform="translate(87, 139.99993896484375)"><g id="ic_squa_qssex3sdchzb-stroke" fill="none" stroke-linecap="round" stroke-linejoin="round" stroke-miterlimit="4" stroke="#4f3d58" stroke-width="2" stroke-opacity="1"><g><path d="M 24.028 11L 44.028 11C 44.028 11 46.028 11 46.028 13L 46.028 43C 46.028 43 46.028 45 44.028 45L 24.028 45C 24.028 45 22.028 45 22.028 43L 22.028 13C 22.028 13 22.028 11 24.028 11M 34.028 45L 34.028 51M 19.028 57C 19.028 53.686001 26.028 51 34.028 51C 43.028 51 49.028 53.686001 49.028 57ZM 12.028 27L 18.028 27M 13.784 14.757999L 18.028 19M 13.784 39.242001L 18.028 35M 56.028 27L 50.028 27M 54.27 14.757999L 50.028 19M 54.27 39.242001L 50.028 35"></path></g></g></g><g id="g-root-ic_2_me7uyvsdfci5-fill" data-item-order="0" transform="translate(303, 139.99993896484375)"></g><g id="g-root-ic_2_me7uyvsdfci5-stroke" data-item-order="0" transform="translate(303, 139.99993896484375)"><g id="ic_2_me7uyvsdfci5-stroke" fill="none" stroke-linecap="round" stroke-linejoin="round" stroke-miterlimit="4" stroke="#4f3d58" stroke-width="2" stroke-opacity="1"><g><path d="M 23.236 33.992001L 34.007999 33.992001L 41.841999 43.784M 46.245998 50.638C 46.245712 52.287327 47.582672 53.624523 49.231998 53.624523C 50.881325 53.624523 52.218288 52.287327 52.217999 50.638C 52.218288 48.988674 50.881325 47.651478 49.231998 47.651478C 47.582672 47.651478 46.245712 48.988674 46.245998 50.638M 12.23 28.426001C 12.854139 25.954893 13.894326 23.608047 15.306 21.486M 20.09 16.336C 22.079926 14.739687 24.338631 13.511113 26.76 12.708M 33.683998 11.508C 36.231365 11.48674 38.76498 11.883335 41.183998 12.682M 47.400002 15.946C 49.446419 17.465603 51.226006 19.314804 52.666 21.417999M 55.624001 27.799999C 56.326744 30.250824 56.611397 32.802563 56.466 35.348M 54.958 42.209999C 54.081425 44.47942 52.809025 46.575256 51.199997 48.399998M 42.366001 54.888C 35.434166 57.655064 27.581539 56.806618 21.400723 52.62278C 15.219908 48.438942 11.51455 41.463707 11.507999 34"></path></g></g></g><g id="g-root-tx__1lw5evbsdfbpg-fill" data-item-order="0" transform="translate(91.5, 199.99993896484375)"><g id="tx__1lw5evbsdfbpg-fill-merged" stroke="none" fill="#484848" fill-opacity="1"><g><text style="font: bold 20px Roboto, sans-serif; white-space: pre;" transform="translate(29.5, 22)" font-weight="bold" font-size="20px" font-family="Roboto, sans-serif"><tspan x="-17.5" y="12" dominant-baseline="ideographic">제목</tspan></text></g></g></g><g id="g-root-tx__1lw5evbsdfbpg-stroke" data-item-order="0" transform="translate(91.5, 199.99993896484375)"></g><g id="g-root-tx__qs5xtzsdgqvd-fill" data-item-order="0" transform="translate(307.5, 199.99993896484375)"><g id="tx__qs5xtzsdgqvd-fill-merged" stroke="none" fill="#484848" fill-opacity="1"><g><text style="font: bold 20px Roboto, sans-serif; white-space: pre;" transform="translate(29.5, 22)" font-weight="bold" font-size="20px" font-family="Roboto, sans-serif"><tspan x="-17.5" y="12" dominant-baseline="ideographic">제목</tspan></text></g></g></g><g id="g-root-tx__qs5xtzsdgqvd-stroke" data-item-order="0" transform="translate(307.5, 199.99993896484375)"></g><g id="g-root-tx__5ve6fsdgqve-fill" data-item-order="0" transform="translate(96.3125, 259.99993896484375)"><g id="tx__5ve6fsdgqve-fill-merged" stroke="none" fill="#ffffff" fill-opacity="1"><g><text style="font: 15px Roboto, sans-serif; white-space: pre;" transform="translate(24.6875, 19)" font-size="15px" font-family="Roboto, sans-serif"><tspan x="-12.69" y="9" dominant-baseline="ideographic">내용</tspan></text></g></g></g><g id="g-root-tx__5ve6fsdgqve-stroke" data-item-order="0" transform="translate(96.3125, 259.99993896484375)"></g><g id="g-root-tx_81020263_18kowhzsdgqob-fill" data-item-order="0" transform="translate(312.3125, 259.99993896484375)"><g id="tx_81020263_18kowhzsdgqob-fill-merged" stroke="none" fill="#ffffff" fill-opacity="1"><g><text style="font: 15px Roboto, sans-serif; white-space: pre;" transform="translate(24.6875, 19)" font-size="15px" font-family="Roboto, sans-serif"><tspan x="-12.69" y="9" dominant-baseline="ideographic">내용</tspan></text></g></g></g><g id="g-root-tx_81020263_18kowhzsdgqob-stroke" data-item-order="0" transform="translate(312.3125, 259.99993896484375)"></g></g></g></svg>