<?xml version="1.0" encoding="utf-8" standalone="yes"?>
<!DOCTYPE svg PUBLIC "-//W3C//DTD SVG 1.1//EN" "http://www.w3.org/Graphics/SVG/1.1/DTD/svg11.dtd">
<svg style="fill:none;stroke:none;fill-rule:evenodd;clip-rule:evenodd;stroke-linecap:round;stroke-linejoin:round;stroke-miterlimit:1.5;" version="1.1" xmlns="http://www.w3.org/2000/svg" xmlns:xlink="http://www.w3.org/1999/xlink" width="950" height="442" viewBox="0 0 950 442"><style class="text-font-style fontImports" data-font-family="Roboto">@import url(https://fonts.googleapis.com/css2?family=Roboto:wght@400;700&amp;amp;display=block);</style><g id="items" style="isolation: isolate"><g id="blend" style="mix-blend-mode: normal"><g id="g-root-cp_0_g-0_dgplrbqpufbi-fill" data-item-order="-372549" transform="translate(192.49172973632812, 122.5)"></g><g id="g-root-cp_0_g-0_dgplrbqpufbi-stroke" data-item-order="-372549" transform="translate(192.49172973632812, 122.5)"><g id="cp_0_g-0_dgplrbqpufbi-stroke" fill="none" stroke-linecap="round" stroke-linejoin="round" stroke-miterlimit="4" stroke="#484848" stroke-width="2" stroke-opacity="1"><g><path d="M 553.29827 94.2456C 490.71577 94.2456 443.54967 38.2884 427.78947 10M 119.17537 33.7221L 119.17537 93.386M 162.15787 24.1174L 162.15787 93.386M 179.35087 35.6655L 179.35087 93.386M 196.54387 44.9819L 196.54387 93.386M 213.73687 52.4106L 213.73687 93.386M 230.92977 58.0966L 230.92977 93.386M 248.12277 62.1029L 248.12277 93.386M 265.31577 64.5119L 265.31577 93.386M 282.50877 65.1229L 282.50877 93.386M 299.70177 64.1265L 299.70177 93.386M 316.89477 61.4949L 316.89477 93.386M 334.08767 57.2438L 334.08767 93.386M 351.28067 51.3579L 351.28067 93.386M 368.47367 43.7738L 368.47367 93.386M 385.66667 34.3376L 385.66667 93.386M 402.85967 22.6678L 402.85967 93.386M 444.12277 33.7221L 444.12277 93.386M 101.98247 52.4166L 101.98247 93.386M 461.31577 52.4166L 461.31577 93.386M 84.78947 66.9897L 84.78947 93.386M 478.50877 67.0373L 478.50877 93.386M 67.59647 78.2745L 67.59647 93.386M 495.70177 78.2745L 495.70177 93.386M 50.40347 86.4361L 50.40347 93.386M 512.89477 86.4361L 512.89477 93.386M 135.50837 10.0006C 119.74787 38.2892 72.58197 94.2456 9.99997 94.2456M 145.82457 10C 163.59067 28.3771 215.45617 65.1313 280.78947 65.1313C 346.12237 65.1313 399.13377 28.7906 417.47327 10.0004"></path></g></g></g><g id="g-root-cp_0_g-0_1_dgplrbqpufbj-fill" data-item-order="-372546" transform="translate(171.00048828125, 116)"><g id="cp_0_g-0_1_dgplrbqpufbj-fill-merged" stroke="none" fill="#4f3d58" fill-opacity="1"><g><path d="M162.158 10C163.107 10 167.315 10.344 167.315 11.305 V100.896 H438.965 V11.305C438.965 10.344 443.173 10 444.122 10C445.072 10 449.28 10.344 449.28 11.305 V100.896 H595.421C596.845 100.896 598 102.065 598 103.506C598 104.947 596.845 106.115 595.421 106.115 H449.28 V148.737 H452.949C453.324 148.737 453.655 148.983 453.768 149.345L455.804 155.868C455.979 156.429 455.566 157 454.985 157 H433.26C432.679 157 432.266 156.429 432.44 155.868L434.476 149.345C434.589 148.983 434.921 148.737 435.296 148.737 H438.965 V106.115 H167.315 V148.737 H170.984C171.359 148.737 171.691 148.983 171.803 149.345L173.839 155.868C174.014 156.429 173.601 157 173.02 157 H151.295C150.714 157 150.301 156.429 150.476 155.868L152.511 149.345C152.624 148.983 152.956 148.737 153.331 148.737 H157 V106.115 H12.579C11.155 106.115 10 104.947 10 103.506C10 102.065 11.155 100.896 12.579 100.896 H157 V11.305C157 10.344 161.208 10 162.158 10"></path></g></g></g><g id="g-root-cp_0_g-0_1_dgplrbqpufbj-stroke" data-item-order="-372546" transform="translate(171.00048828125, 116)"><g id="cp_0_g-0_1_dgplrbqpufbj-stroke" fill="none" stroke-linecap="round" stroke-linejoin="round" stroke-miterlimit="4" stroke="#ffffff" stroke-width="2" stroke-opacity="1"><g><path d="M 162.1576 10C 163.1071 10 167.3154 10.3448 167.3154 11.3055L 167.3154 100.8968L 438.9645 100.8968L 438.9645 11.3055C 438.9645 10.3448 443.1729 10.0008 444.1224 10.0008C 445.072 10.0008 449.2803 10.3448 449.2803 11.3055L 449.2803 100.8968L 595.4211 100.8968C 596.8454 100.8968 598 102.0651 598 103.5062C 598 104.9474 596.8454 106.1157 595.4211 106.1157L 449.2803 106.1157L 449.2803 148.7367L 452.9486 148.7367C 453.3236 148.7367 453.6554 148.9827 453.7683 149.3446L 455.8043 155.8683C 455.9793 156.4289 455.5656 157 454.9846 157L 433.2602 157C 432.6793 157 432.2656 156.4289 432.4405 155.8683L 434.4761 149.3447C 434.589 148.9828 434.9208 148.7367 435.2959 148.7367L 438.9645 148.7367L 438.9645 106.1157L 167.3154 106.1157L 167.3154 148.7367L 170.9837 148.7367C 171.3587 148.7367 171.6905 148.9827 171.8034 149.3446L 173.8394 155.8683C 174.0144 156.4289 173.6007 157 173.0197 157L 151.2954 157C 150.7144 157 150.3007 156.4289 150.4756 155.8683L 152.5112 149.3447C 152.6241 148.9828 152.9559 148.7367 153.331 148.7367L 156.9997 148.7367L 156.9997 106.1157L 12.5789 106.1157C 11.1546 106.1157 10 104.9474 10 103.5062C 10 102.0651 11.1546 100.8968 12.5789 100.8968L 156.9997 100.8968L 156.9997 11.3055C 156.9997 10.3448 161.208 10 162.1576 10Z"></path></g></g></g><g id="g-root-cp_1_lines_90w3mvqpug3s-fill" data-item-order="-372528" transform="translate(171, 263)"><g id="cp_1_lines_90w3mvqpug3s-fill-merged" stroke="none" fill="#ba5de5" fill-opacity="1"><g><path d="M10 10 H262 V130 H10 V10"></path></g></g></g><g id="g-root-cp_1_lines_90w3mvqpug3s-stroke" data-item-order="-372528" transform="translate(171, 263)"><g id="cp_1_lines_90w3mvqpug3s-stroke" fill="none" stroke-linecap="round" stroke-linejoin="round" stroke-miterlimit="4" stroke="#ffffff" stroke-width="2" stroke-opacity="1"><g><path d="M 10 10L 262 10L 262 130.000008L 10 130.000008L 10 10Z"></path></g></g></g><g id="g-root-cp_0_g-0_2_4lp2ljqpudq9-fill" data-item-order="-372506" transform="translate(447, 297)"><g id="cp_0_g-0_2_4lp2ljqpudq9-fill-merged" stroke="none" fill="#4f3d58" fill-opacity="1"><g><path d="M23.389 18.49C21.482 16.536 21.498 13.414 23.42 11.477C25.389 9.495 28.598 9.51 30.547 11.509L41 21.872L45.293 26.165C45.611 26.483 45.67 26.96 45.471 27.337 V27.399C45.396 27.463 45.35 27.524 45.293 27.579L43.969 28.974L30.547 42.735C28.598 44.734 25.389 44.749 23.42 42.767C21.498 40.83 21.482 37.708 23.389 35.754L27.174 31.872 H15C12.238 31.872 10 29.633 10 26.872C10 24.111 12.238 21.872 15 21.872 H26.688L23.389 18.49"></path></g></g></g><g id="g-root-cp_0_g-0_2_4lp2ljqpudq9-stroke" data-item-order="-372506" transform="translate(447, 297)"><g id="cp_0_g-0_2_4lp2ljqpudq9-stroke" fill="none" stroke-linecap="round" stroke-linejoin="round" stroke-miterlimit="4" stroke="#ffffff" stroke-width="2" stroke-opacity="1"><g><path d="M 23.3887 18.4898C 21.4824 16.5357 21.498 13.4136 23.4199 11.4766C 25.3887 9.4952 28.5977 9.5098 30.5469 11.5088L 41 21.8721L 45.293 26.1651C 45.6113 26.4825 45.6699 26.96 45.4707 27.3375L 45.4355 27.3985C 45.3965 27.4629 45.3496 27.5235 45.293 27.5792L 43.9688 28.9737L 30.5469 42.7349C 28.5977 44.7339 25.3887 44.7486 23.4199 42.7671C 21.498 40.8301 21.4824 37.7081 23.3887 35.754L 27.1738 31.8721L 15 31.8721C 12.2383 31.8721 10 29.6334 10 26.8721C 10 24.1109 12.2383 21.8721 15 21.8721L 26.6875 21.8721L 23.3887 18.4898Z"></path></g></g></g><g id="g-root-cp_2_lines_1_4lp2ljqpudqa-fill" data-item-order="-372500" transform="translate(507, 263)"><g id="cp_2_lines_1_4lp2ljqpudqa-fill-merged" stroke="none" fill="#e2a3ff" fill-opacity="1"><g><path d="M10 10 H262 V130 H10 V10"></path></g></g></g><g id="g-root-cp_2_lines_1_4lp2ljqpudqa-stroke" data-item-order="-372500" transform="translate(507, 263)"><g id="cp_2_lines_1_4lp2ljqpudqa-stroke" fill="none" stroke-linecap="round" stroke-linejoin="round" stroke-miterlimit="4" stroke="#ffffff" stroke-width="2" stroke-opacity="1"><g><path d="M 10 10L 262 10L 262 130.000008L 10 130.000008L 10 10Z"></path></g></g></g><g id="g-root-tx__4lp2ljqpudqb-fill" data-item-order="0" transform="translate(432.71875, 38)"><g id="tx__4lp2ljqpudqb-fill-merged" stroke="none" fill="#484848" fill-opacity="1"><g><text style="font: bold 25px Roboto, sans-serif; white-space: pre;" transform="translate(42.28125, 25)" font-weight="bold" font-size="25px" font-family="Roboto, sans-serif"><tspan x="-30.28" y="14" dominant-baseline="ideographic">타이틀</tspan></text></g></g></g><g id="g-root-tx__4lp2ljqpudqb-stroke" data-item-order="0" transform="translate(432.71875, 38)"></g><g id="g-root-tx__1hfplyfqpufws-fill" data-item-order="0" transform="translate(120, 188)"><g id="tx__1hfplyfqpufws-fill-merged" stroke="none" fill="#484848" fill-opacity="1"><g><text style="font: bold 20px Roboto, sans-serif; white-space: pre;" transform="translate(49, 22)" font-weight="bold" font-size="20px" font-family="Roboto, sans-serif"><tspan x="-37" y="12" dominant-baseline="ideographic">제목</tspan></text></g></g></g><g id="g-root-tx__1hfplyfqpufws-stroke" data-item-order="0" transform="translate(120, 188)"></g><g id="g-root-tx__zp22jrqpuf45-fill" data-item-order="0" transform="translate(771, 188)"><g id="tx__zp22jrqpuf45-fill-merged" stroke="none" fill="#484848" fill-opacity="1"><g><text style="font: bold 20px Roboto, sans-serif; white-space: pre;" transform="translate(10, 22)" font-weight="bold" font-size="20px" font-family="Roboto, sans-serif"><tspan x="2" y="12" dominant-baseline="ideographic">제목</tspan></text></g></g></g><g id="g-root-tx__zp22jrqpuf45-stroke" data-item-order="0" transform="translate(771, 188)"></g><g id="g-root-tx__me819jqpudja-fill" data-item-order="0" transform="translate(282.3125, 287)"><g id="tx__me819jqpudja-fill-merged" stroke="none" fill="#ffffff" fill-opacity="1"><g><text style="font: 15px Roboto, sans-serif; white-space: pre;" transform="translate(24.6875, 19)" font-size="15px" font-family="Roboto, sans-serif"><tspan x="-12.69" y="9" dominant-baseline="ideographic">내용</tspan></text></g></g></g><g id="g-root-tx__me819jqpudja-stroke" data-item-order="0" transform="translate(282.3125, 287)"></g><g id="g-root-tx__1ut1jl3qpudc8-fill" data-item-order="0" transform="translate(618.3125, 287)"><g id="tx__1ut1jl3qpudc8-fill-merged" stroke="none" fill="#ffffff" fill-opacity="1"><g><text style="font: 15px Roboto, sans-serif; white-space: pre;" transform="translate(24.6875, 19)" font-size="15px" font-family="Roboto, sans-serif"><tspan x="-12.69" y="9" dominant-baseline="ideographic">내용</tspan></text></g></g></g><g id="g-root-tx__1ut1jl3qpudc8-stroke" data-item-order="0" transform="translate(618.3125, 287)"></g><g id="g-root-tx__dil10nqpuebz-fill" data-item-order="0" transform="translate(282.3125, 335)"><g id="tx__dil10nqpuebz-fill-merged" stroke="none" fill="#ffffff" fill-opacity="1"><g><text style="font: 15px Roboto, sans-serif; white-space: pre;" transform="translate(24.6875, 19)" font-size="15px" font-family="Roboto, sans-serif"><tspan x="-12.69" y="9" dominant-baseline="ideographic">내용</tspan></text></g></g></g><g id="g-root-tx__dil10nqpuebz-stroke" data-item-order="0" transform="translate(282.3125, 335)"></g><g id="g-root-tx__1hhl17rqpuex5-fill" data-item-order="0" transform="translate(618.3125, 335)"><g id="tx__1hhl17rqpuex5-fill-merged" stroke="none" fill="#ffffff" fill-opacity="1"><g><text style="font: 15px Roboto, sans-serif; white-space: pre;" transform="translate(24.6875, 19)" font-size="15px" font-family="Roboto, sans-serif"><tspan x="-12.69" y="9" dominant-baseline="ideographic">내용</tspan></text></g></g></g><g id="g-root-tx__1hhl17rqpuex5-stroke" data-item-order="0" transform="translate(618.3125, 335)"></g></g></g></svg>